G75*
G70*
%OFA0B0*%
%FSLAX24Y24*%
%IPPOS*%
%LPD*%
%AMOC8*
5,1,8,0,0,1.08239X$1,22.5*
%
%ADD10C,0.0000*%
%ADD11C,0.0316*%
%ADD12R,0.1440X0.0040*%
%ADD13R,0.0480X0.0040*%
%ADD14R,0.1200X0.0040*%
%ADD15R,0.0240X0.0040*%
%ADD16R,0.0720X0.0040*%
%ADD17R,0.1680X0.0040*%
%ADD18R,0.0900X0.0030*%
%ADD19R,0.0360X0.0030*%
%ADD20R,0.0720X0.0030*%
%ADD21R,0.1080X0.0030*%
%ADD22R,0.0180X0.0030*%
%ADD23R,0.0540X0.0030*%
%ADD24R,0.1260X0.0030*%
%ADD25C,0.0160*%
%ADD26C,0.0100*%
%ADD27C,0.0640*%
%ADD28C,0.2009*%
%ADD29C,0.0560*%
%ADD30R,0.1040X0.2040*%
%ADD31OC8,0.0560*%
%ADD32R,0.0540X0.0290*%
D10*
X002482Y000500D02*
X002128Y001012D01*
X002128Y010146D01*
X001170Y010146D01*
X001170Y027862D01*
X002003Y027862D01*
X002003Y033571D01*
X024837Y033571D01*
X024837Y027862D01*
X025670Y027862D01*
X025670Y010146D01*
X024712Y010146D01*
X024712Y001012D01*
X024358Y000500D01*
X002482Y000500D01*
X012436Y017626D02*
X012438Y017688D01*
X012444Y017751D01*
X012454Y017812D01*
X012468Y017873D01*
X012485Y017933D01*
X012506Y017992D01*
X012532Y018049D01*
X012560Y018104D01*
X012592Y018158D01*
X012628Y018209D01*
X012666Y018259D01*
X012708Y018305D01*
X012752Y018349D01*
X012800Y018390D01*
X012849Y018428D01*
X012901Y018462D01*
X012955Y018493D01*
X013011Y018521D01*
X013069Y018545D01*
X013128Y018566D01*
X013188Y018582D01*
X013249Y018595D01*
X013311Y018604D01*
X013373Y018609D01*
X013436Y018610D01*
X013498Y018607D01*
X013560Y018600D01*
X013622Y018589D01*
X013682Y018574D01*
X013742Y018556D01*
X013800Y018534D01*
X013857Y018508D01*
X013912Y018478D01*
X013965Y018445D01*
X014016Y018409D01*
X014064Y018370D01*
X014110Y018327D01*
X014153Y018282D01*
X014193Y018234D01*
X014230Y018184D01*
X014264Y018131D01*
X014295Y018077D01*
X014321Y018021D01*
X014345Y017963D01*
X014364Y017903D01*
X014380Y017843D01*
X014392Y017781D01*
X014400Y017720D01*
X014404Y017657D01*
X014404Y017595D01*
X014400Y017532D01*
X014392Y017471D01*
X014380Y017409D01*
X014364Y017349D01*
X014345Y017289D01*
X014321Y017231D01*
X014295Y017175D01*
X014264Y017121D01*
X014230Y017068D01*
X014193Y017018D01*
X014153Y016970D01*
X014110Y016925D01*
X014064Y016882D01*
X014016Y016843D01*
X013965Y016807D01*
X013912Y016774D01*
X013857Y016744D01*
X013800Y016718D01*
X013742Y016696D01*
X013682Y016678D01*
X013622Y016663D01*
X013560Y016652D01*
X013498Y016645D01*
X013436Y016642D01*
X013373Y016643D01*
X013311Y016648D01*
X013249Y016657D01*
X013188Y016670D01*
X013128Y016686D01*
X013069Y016707D01*
X013011Y016731D01*
X012955Y016759D01*
X012901Y016790D01*
X012849Y016824D01*
X012800Y016862D01*
X012752Y016903D01*
X012708Y016947D01*
X012666Y016993D01*
X012628Y017043D01*
X012592Y017094D01*
X012560Y017148D01*
X012532Y017203D01*
X012506Y017260D01*
X012485Y017319D01*
X012468Y017379D01*
X012454Y017440D01*
X012444Y017501D01*
X012438Y017564D01*
X012436Y017626D01*
X017532Y030250D02*
X017534Y030273D01*
X017540Y030296D01*
X017550Y030317D01*
X017563Y030337D01*
X017579Y030354D01*
X017598Y030368D01*
X017619Y030378D01*
X017641Y030385D01*
X017664Y030388D01*
X017688Y030387D01*
X017710Y030382D01*
X017732Y030373D01*
X017752Y030361D01*
X017770Y030345D01*
X017784Y030327D01*
X017796Y030307D01*
X017804Y030285D01*
X017808Y030262D01*
X017808Y030238D01*
X017804Y030215D01*
X017796Y030193D01*
X017784Y030173D01*
X017770Y030155D01*
X017752Y030139D01*
X017732Y030127D01*
X017710Y030118D01*
X017688Y030113D01*
X017664Y030112D01*
X017641Y030115D01*
X017619Y030122D01*
X017598Y030132D01*
X017579Y030146D01*
X017563Y030163D01*
X017550Y030183D01*
X017540Y030204D01*
X017534Y030227D01*
X017532Y030250D01*
X017532Y030750D02*
X017534Y030773D01*
X017540Y030796D01*
X017550Y030817D01*
X017563Y030837D01*
X017579Y030854D01*
X017598Y030868D01*
X017619Y030878D01*
X017641Y030885D01*
X017664Y030888D01*
X017688Y030887D01*
X017710Y030882D01*
X017732Y030873D01*
X017752Y030861D01*
X017770Y030845D01*
X017784Y030827D01*
X017796Y030807D01*
X017804Y030785D01*
X017808Y030762D01*
X017808Y030738D01*
X017804Y030715D01*
X017796Y030693D01*
X017784Y030673D01*
X017770Y030655D01*
X017752Y030639D01*
X017732Y030627D01*
X017710Y030618D01*
X017688Y030613D01*
X017664Y030612D01*
X017641Y030615D01*
X017619Y030622D01*
X017598Y030632D01*
X017579Y030646D01*
X017563Y030663D01*
X017550Y030683D01*
X017540Y030704D01*
X017534Y030727D01*
X017532Y030750D01*
X017532Y031250D02*
X017534Y031273D01*
X017540Y031296D01*
X017550Y031317D01*
X017563Y031337D01*
X017579Y031354D01*
X017598Y031368D01*
X017619Y031378D01*
X017641Y031385D01*
X017664Y031388D01*
X017688Y031387D01*
X017710Y031382D01*
X017732Y031373D01*
X017752Y031361D01*
X017770Y031345D01*
X017784Y031327D01*
X017796Y031307D01*
X017804Y031285D01*
X017808Y031262D01*
X017808Y031238D01*
X017804Y031215D01*
X017796Y031193D01*
X017784Y031173D01*
X017770Y031155D01*
X017752Y031139D01*
X017732Y031127D01*
X017710Y031118D01*
X017688Y031113D01*
X017664Y031112D01*
X017641Y031115D01*
X017619Y031122D01*
X017598Y031132D01*
X017579Y031146D01*
X017563Y031163D01*
X017550Y031183D01*
X017540Y031204D01*
X017534Y031227D01*
X017532Y031250D01*
X017532Y031750D02*
X017534Y031773D01*
X017540Y031796D01*
X017550Y031817D01*
X017563Y031837D01*
X017579Y031854D01*
X017598Y031868D01*
X017619Y031878D01*
X017641Y031885D01*
X017664Y031888D01*
X017688Y031887D01*
X017710Y031882D01*
X017732Y031873D01*
X017752Y031861D01*
X017770Y031845D01*
X017784Y031827D01*
X017796Y031807D01*
X017804Y031785D01*
X017808Y031762D01*
X017808Y031738D01*
X017804Y031715D01*
X017796Y031693D01*
X017784Y031673D01*
X017770Y031655D01*
X017752Y031639D01*
X017732Y031627D01*
X017710Y031618D01*
X017688Y031613D01*
X017664Y031612D01*
X017641Y031615D01*
X017619Y031622D01*
X017598Y031632D01*
X017579Y031646D01*
X017563Y031663D01*
X017550Y031683D01*
X017540Y031704D01*
X017534Y031727D01*
X017532Y031750D01*
X017532Y032250D02*
X017534Y032273D01*
X017540Y032296D01*
X017550Y032317D01*
X017563Y032337D01*
X017579Y032354D01*
X017598Y032368D01*
X017619Y032378D01*
X017641Y032385D01*
X017664Y032388D01*
X017688Y032387D01*
X017710Y032382D01*
X017732Y032373D01*
X017752Y032361D01*
X017770Y032345D01*
X017784Y032327D01*
X017796Y032307D01*
X017804Y032285D01*
X017808Y032262D01*
X017808Y032238D01*
X017804Y032215D01*
X017796Y032193D01*
X017784Y032173D01*
X017770Y032155D01*
X017752Y032139D01*
X017732Y032127D01*
X017710Y032118D01*
X017688Y032113D01*
X017664Y032112D01*
X017641Y032115D01*
X017619Y032122D01*
X017598Y032132D01*
X017579Y032146D01*
X017563Y032163D01*
X017550Y032183D01*
X017540Y032204D01*
X017534Y032227D01*
X017532Y032250D01*
X017532Y032750D02*
X017534Y032773D01*
X017540Y032796D01*
X017550Y032817D01*
X017563Y032837D01*
X017579Y032854D01*
X017598Y032868D01*
X017619Y032878D01*
X017641Y032885D01*
X017664Y032888D01*
X017688Y032887D01*
X017710Y032882D01*
X017732Y032873D01*
X017752Y032861D01*
X017770Y032845D01*
X017784Y032827D01*
X017796Y032807D01*
X017804Y032785D01*
X017808Y032762D01*
X017808Y032738D01*
X017804Y032715D01*
X017796Y032693D01*
X017784Y032673D01*
X017770Y032655D01*
X017752Y032639D01*
X017732Y032627D01*
X017710Y032618D01*
X017688Y032613D01*
X017664Y032612D01*
X017641Y032615D01*
X017619Y032622D01*
X017598Y032632D01*
X017579Y032646D01*
X017563Y032663D01*
X017550Y032683D01*
X017540Y032704D01*
X017534Y032727D01*
X017532Y032750D01*
X017532Y033250D02*
X017534Y033273D01*
X017540Y033296D01*
X017550Y033317D01*
X017563Y033337D01*
X017579Y033354D01*
X017598Y033368D01*
X017619Y033378D01*
X017641Y033385D01*
X017664Y033388D01*
X017688Y033387D01*
X017710Y033382D01*
X017732Y033373D01*
X017752Y033361D01*
X017770Y033345D01*
X017784Y033327D01*
X017796Y033307D01*
X017804Y033285D01*
X017808Y033262D01*
X017808Y033238D01*
X017804Y033215D01*
X017796Y033193D01*
X017784Y033173D01*
X017770Y033155D01*
X017752Y033139D01*
X017732Y033127D01*
X017710Y033118D01*
X017688Y033113D01*
X017664Y033112D01*
X017641Y033115D01*
X017619Y033122D01*
X017598Y033132D01*
X017579Y033146D01*
X017563Y033163D01*
X017550Y033183D01*
X017540Y033204D01*
X017534Y033227D01*
X017532Y033250D01*
X018032Y030250D02*
X018034Y030273D01*
X018040Y030296D01*
X018050Y030317D01*
X018063Y030337D01*
X018079Y030354D01*
X018098Y030368D01*
X018119Y030378D01*
X018141Y030385D01*
X018164Y030388D01*
X018188Y030387D01*
X018210Y030382D01*
X018232Y030373D01*
X018252Y030361D01*
X018270Y030345D01*
X018284Y030327D01*
X018296Y030307D01*
X018304Y030285D01*
X018308Y030262D01*
X018308Y030238D01*
X018304Y030215D01*
X018296Y030193D01*
X018284Y030173D01*
X018270Y030155D01*
X018252Y030139D01*
X018232Y030127D01*
X018210Y030118D01*
X018188Y030113D01*
X018164Y030112D01*
X018141Y030115D01*
X018119Y030122D01*
X018098Y030132D01*
X018079Y030146D01*
X018063Y030163D01*
X018050Y030183D01*
X018040Y030204D01*
X018034Y030227D01*
X018032Y030250D01*
X018532Y030250D02*
X018534Y030273D01*
X018540Y030296D01*
X018550Y030317D01*
X018563Y030337D01*
X018579Y030354D01*
X018598Y030368D01*
X018619Y030378D01*
X018641Y030385D01*
X018664Y030388D01*
X018688Y030387D01*
X018710Y030382D01*
X018732Y030373D01*
X018752Y030361D01*
X018770Y030345D01*
X018784Y030327D01*
X018796Y030307D01*
X018804Y030285D01*
X018808Y030262D01*
X018808Y030238D01*
X018804Y030215D01*
X018796Y030193D01*
X018784Y030173D01*
X018770Y030155D01*
X018752Y030139D01*
X018732Y030127D01*
X018710Y030118D01*
X018688Y030113D01*
X018664Y030112D01*
X018641Y030115D01*
X018619Y030122D01*
X018598Y030132D01*
X018579Y030146D01*
X018563Y030163D01*
X018550Y030183D01*
X018540Y030204D01*
X018534Y030227D01*
X018532Y030250D01*
X019032Y030250D02*
X019034Y030273D01*
X019040Y030296D01*
X019050Y030317D01*
X019063Y030337D01*
X019079Y030354D01*
X019098Y030368D01*
X019119Y030378D01*
X019141Y030385D01*
X019164Y030388D01*
X019188Y030387D01*
X019210Y030382D01*
X019232Y030373D01*
X019252Y030361D01*
X019270Y030345D01*
X019284Y030327D01*
X019296Y030307D01*
X019304Y030285D01*
X019308Y030262D01*
X019308Y030238D01*
X019304Y030215D01*
X019296Y030193D01*
X019284Y030173D01*
X019270Y030155D01*
X019252Y030139D01*
X019232Y030127D01*
X019210Y030118D01*
X019188Y030113D01*
X019164Y030112D01*
X019141Y030115D01*
X019119Y030122D01*
X019098Y030132D01*
X019079Y030146D01*
X019063Y030163D01*
X019050Y030183D01*
X019040Y030204D01*
X019034Y030227D01*
X019032Y030250D01*
X019532Y030250D02*
X019534Y030273D01*
X019540Y030296D01*
X019550Y030317D01*
X019563Y030337D01*
X019579Y030354D01*
X019598Y030368D01*
X019619Y030378D01*
X019641Y030385D01*
X019664Y030388D01*
X019688Y030387D01*
X019710Y030382D01*
X019732Y030373D01*
X019752Y030361D01*
X019770Y030345D01*
X019784Y030327D01*
X019796Y030307D01*
X019804Y030285D01*
X019808Y030262D01*
X019808Y030238D01*
X019804Y030215D01*
X019796Y030193D01*
X019784Y030173D01*
X019770Y030155D01*
X019752Y030139D01*
X019732Y030127D01*
X019710Y030118D01*
X019688Y030113D01*
X019664Y030112D01*
X019641Y030115D01*
X019619Y030122D01*
X019598Y030132D01*
X019579Y030146D01*
X019563Y030163D01*
X019550Y030183D01*
X019540Y030204D01*
X019534Y030227D01*
X019532Y030250D01*
X020032Y030250D02*
X020034Y030273D01*
X020040Y030296D01*
X020050Y030317D01*
X020063Y030337D01*
X020079Y030354D01*
X020098Y030368D01*
X020119Y030378D01*
X020141Y030385D01*
X020164Y030388D01*
X020188Y030387D01*
X020210Y030382D01*
X020232Y030373D01*
X020252Y030361D01*
X020270Y030345D01*
X020284Y030327D01*
X020296Y030307D01*
X020304Y030285D01*
X020308Y030262D01*
X020308Y030238D01*
X020304Y030215D01*
X020296Y030193D01*
X020284Y030173D01*
X020270Y030155D01*
X020252Y030139D01*
X020232Y030127D01*
X020210Y030118D01*
X020188Y030113D01*
X020164Y030112D01*
X020141Y030115D01*
X020119Y030122D01*
X020098Y030132D01*
X020079Y030146D01*
X020063Y030163D01*
X020050Y030183D01*
X020040Y030204D01*
X020034Y030227D01*
X020032Y030250D01*
X020532Y030250D02*
X020534Y030273D01*
X020540Y030296D01*
X020550Y030317D01*
X020563Y030337D01*
X020579Y030354D01*
X020598Y030368D01*
X020619Y030378D01*
X020641Y030385D01*
X020664Y030388D01*
X020688Y030387D01*
X020710Y030382D01*
X020732Y030373D01*
X020752Y030361D01*
X020770Y030345D01*
X020784Y030327D01*
X020796Y030307D01*
X020804Y030285D01*
X020808Y030262D01*
X020808Y030238D01*
X020804Y030215D01*
X020796Y030193D01*
X020784Y030173D01*
X020770Y030155D01*
X020752Y030139D01*
X020732Y030127D01*
X020710Y030118D01*
X020688Y030113D01*
X020664Y030112D01*
X020641Y030115D01*
X020619Y030122D01*
X020598Y030132D01*
X020579Y030146D01*
X020563Y030163D01*
X020550Y030183D01*
X020540Y030204D01*
X020534Y030227D01*
X020532Y030250D01*
X021032Y030250D02*
X021034Y030273D01*
X021040Y030296D01*
X021050Y030317D01*
X021063Y030337D01*
X021079Y030354D01*
X021098Y030368D01*
X021119Y030378D01*
X021141Y030385D01*
X021164Y030388D01*
X021188Y030387D01*
X021210Y030382D01*
X021232Y030373D01*
X021252Y030361D01*
X021270Y030345D01*
X021284Y030327D01*
X021296Y030307D01*
X021304Y030285D01*
X021308Y030262D01*
X021308Y030238D01*
X021304Y030215D01*
X021296Y030193D01*
X021284Y030173D01*
X021270Y030155D01*
X021252Y030139D01*
X021232Y030127D01*
X021210Y030118D01*
X021188Y030113D01*
X021164Y030112D01*
X021141Y030115D01*
X021119Y030122D01*
X021098Y030132D01*
X021079Y030146D01*
X021063Y030163D01*
X021050Y030183D01*
X021040Y030204D01*
X021034Y030227D01*
X021032Y030250D01*
X021532Y030250D02*
X021534Y030273D01*
X021540Y030296D01*
X021550Y030317D01*
X021563Y030337D01*
X021579Y030354D01*
X021598Y030368D01*
X021619Y030378D01*
X021641Y030385D01*
X021664Y030388D01*
X021688Y030387D01*
X021710Y030382D01*
X021732Y030373D01*
X021752Y030361D01*
X021770Y030345D01*
X021784Y030327D01*
X021796Y030307D01*
X021804Y030285D01*
X021808Y030262D01*
X021808Y030238D01*
X021804Y030215D01*
X021796Y030193D01*
X021784Y030173D01*
X021770Y030155D01*
X021752Y030139D01*
X021732Y030127D01*
X021710Y030118D01*
X021688Y030113D01*
X021664Y030112D01*
X021641Y030115D01*
X021619Y030122D01*
X021598Y030132D01*
X021579Y030146D01*
X021563Y030163D01*
X021550Y030183D01*
X021540Y030204D01*
X021534Y030227D01*
X021532Y030250D01*
X022032Y030250D02*
X022034Y030273D01*
X022040Y030296D01*
X022050Y030317D01*
X022063Y030337D01*
X022079Y030354D01*
X022098Y030368D01*
X022119Y030378D01*
X022141Y030385D01*
X022164Y030388D01*
X022188Y030387D01*
X022210Y030382D01*
X022232Y030373D01*
X022252Y030361D01*
X022270Y030345D01*
X022284Y030327D01*
X022296Y030307D01*
X022304Y030285D01*
X022308Y030262D01*
X022308Y030238D01*
X022304Y030215D01*
X022296Y030193D01*
X022284Y030173D01*
X022270Y030155D01*
X022252Y030139D01*
X022232Y030127D01*
X022210Y030118D01*
X022188Y030113D01*
X022164Y030112D01*
X022141Y030115D01*
X022119Y030122D01*
X022098Y030132D01*
X022079Y030146D01*
X022063Y030163D01*
X022050Y030183D01*
X022040Y030204D01*
X022034Y030227D01*
X022032Y030250D01*
X022532Y030250D02*
X022534Y030273D01*
X022540Y030296D01*
X022550Y030317D01*
X022563Y030337D01*
X022579Y030354D01*
X022598Y030368D01*
X022619Y030378D01*
X022641Y030385D01*
X022664Y030388D01*
X022688Y030387D01*
X022710Y030382D01*
X022732Y030373D01*
X022752Y030361D01*
X022770Y030345D01*
X022784Y030327D01*
X022796Y030307D01*
X022804Y030285D01*
X022808Y030262D01*
X022808Y030238D01*
X022804Y030215D01*
X022796Y030193D01*
X022784Y030173D01*
X022770Y030155D01*
X022752Y030139D01*
X022732Y030127D01*
X022710Y030118D01*
X022688Y030113D01*
X022664Y030112D01*
X022641Y030115D01*
X022619Y030122D01*
X022598Y030132D01*
X022579Y030146D01*
X022563Y030163D01*
X022550Y030183D01*
X022540Y030204D01*
X022534Y030227D01*
X022532Y030250D01*
X023032Y030250D02*
X023034Y030273D01*
X023040Y030296D01*
X023050Y030317D01*
X023063Y030337D01*
X023079Y030354D01*
X023098Y030368D01*
X023119Y030378D01*
X023141Y030385D01*
X023164Y030388D01*
X023188Y030387D01*
X023210Y030382D01*
X023232Y030373D01*
X023252Y030361D01*
X023270Y030345D01*
X023284Y030327D01*
X023296Y030307D01*
X023304Y030285D01*
X023308Y030262D01*
X023308Y030238D01*
X023304Y030215D01*
X023296Y030193D01*
X023284Y030173D01*
X023270Y030155D01*
X023252Y030139D01*
X023232Y030127D01*
X023210Y030118D01*
X023188Y030113D01*
X023164Y030112D01*
X023141Y030115D01*
X023119Y030122D01*
X023098Y030132D01*
X023079Y030146D01*
X023063Y030163D01*
X023050Y030183D01*
X023040Y030204D01*
X023034Y030227D01*
X023032Y030250D01*
X023532Y030250D02*
X023534Y030273D01*
X023540Y030296D01*
X023550Y030317D01*
X023563Y030337D01*
X023579Y030354D01*
X023598Y030368D01*
X023619Y030378D01*
X023641Y030385D01*
X023664Y030388D01*
X023688Y030387D01*
X023710Y030382D01*
X023732Y030373D01*
X023752Y030361D01*
X023770Y030345D01*
X023784Y030327D01*
X023796Y030307D01*
X023804Y030285D01*
X023808Y030262D01*
X023808Y030238D01*
X023804Y030215D01*
X023796Y030193D01*
X023784Y030173D01*
X023770Y030155D01*
X023752Y030139D01*
X023732Y030127D01*
X023710Y030118D01*
X023688Y030113D01*
X023664Y030112D01*
X023641Y030115D01*
X023619Y030122D01*
X023598Y030132D01*
X023579Y030146D01*
X023563Y030163D01*
X023550Y030183D01*
X023540Y030204D01*
X023534Y030227D01*
X023532Y030250D01*
X024032Y030250D02*
X024034Y030273D01*
X024040Y030296D01*
X024050Y030317D01*
X024063Y030337D01*
X024079Y030354D01*
X024098Y030368D01*
X024119Y030378D01*
X024141Y030385D01*
X024164Y030388D01*
X024188Y030387D01*
X024210Y030382D01*
X024232Y030373D01*
X024252Y030361D01*
X024270Y030345D01*
X024284Y030327D01*
X024296Y030307D01*
X024304Y030285D01*
X024308Y030262D01*
X024308Y030238D01*
X024304Y030215D01*
X024296Y030193D01*
X024284Y030173D01*
X024270Y030155D01*
X024252Y030139D01*
X024232Y030127D01*
X024210Y030118D01*
X024188Y030113D01*
X024164Y030112D01*
X024141Y030115D01*
X024119Y030122D01*
X024098Y030132D01*
X024079Y030146D01*
X024063Y030163D01*
X024050Y030183D01*
X024040Y030204D01*
X024034Y030227D01*
X024032Y030250D01*
X024532Y030250D02*
X024534Y030273D01*
X024540Y030296D01*
X024550Y030317D01*
X024563Y030337D01*
X024579Y030354D01*
X024598Y030368D01*
X024619Y030378D01*
X024641Y030385D01*
X024664Y030388D01*
X024688Y030387D01*
X024710Y030382D01*
X024732Y030373D01*
X024752Y030361D01*
X024770Y030345D01*
X024784Y030327D01*
X024796Y030307D01*
X024804Y030285D01*
X024808Y030262D01*
X024808Y030238D01*
X024804Y030215D01*
X024796Y030193D01*
X024784Y030173D01*
X024770Y030155D01*
X024752Y030139D01*
X024732Y030127D01*
X024710Y030118D01*
X024688Y030113D01*
X024664Y030112D01*
X024641Y030115D01*
X024619Y030122D01*
X024598Y030132D01*
X024579Y030146D01*
X024563Y030163D01*
X024550Y030183D01*
X024540Y030204D01*
X024534Y030227D01*
X024532Y030250D01*
D11*
X024670Y030250D03*
X024170Y030250D03*
X023670Y030250D03*
X023170Y030250D03*
X022670Y030250D03*
X022170Y030250D03*
X021670Y030250D03*
X021170Y030250D03*
X020670Y030250D03*
X020170Y030250D03*
X019670Y030250D03*
X019170Y030250D03*
X018670Y030250D03*
X018170Y030250D03*
X017670Y030250D03*
X017670Y030750D03*
X017670Y031250D03*
X017670Y031750D03*
X017670Y032250D03*
X017670Y032750D03*
X017670Y033250D03*
D12*
X012100Y030600D03*
X012100Y030560D03*
X012100Y030520D03*
X012100Y030480D03*
X012100Y030440D03*
X012100Y030400D03*
D13*
X012100Y030640D03*
X012100Y030680D03*
X012100Y030720D03*
X012100Y030760D03*
X012100Y030800D03*
X012100Y030840D03*
X012100Y030880D03*
X012100Y030920D03*
X012100Y030960D03*
X012100Y031000D03*
X012100Y031040D03*
X012100Y031080D03*
X012100Y031120D03*
X012100Y031160D03*
X012100Y031200D03*
X012100Y031240D03*
X012100Y031280D03*
X012100Y031320D03*
X012100Y031600D03*
X012100Y031640D03*
X012100Y031680D03*
X012100Y031720D03*
X012100Y031760D03*
X012100Y031800D03*
X012100Y031840D03*
X012100Y031880D03*
X012100Y031920D03*
X012100Y031960D03*
X012100Y032000D03*
X012100Y032040D03*
X013540Y032040D03*
X013540Y032000D03*
X013540Y031960D03*
X013540Y031920D03*
X013540Y031880D03*
X013540Y031840D03*
X013540Y031320D03*
X013540Y031280D03*
X013540Y031240D03*
X013540Y031200D03*
X013540Y031160D03*
X013540Y031120D03*
X013540Y031080D03*
X013540Y031040D03*
X013540Y031000D03*
X013540Y030960D03*
X013540Y030920D03*
X013540Y030880D03*
X013540Y030840D03*
X013540Y030800D03*
X013540Y030760D03*
X013540Y030720D03*
X013540Y030680D03*
X013540Y030640D03*
X013540Y030600D03*
X013540Y030560D03*
X013540Y030520D03*
X013540Y030480D03*
X013540Y030440D03*
X013540Y030400D03*
X014740Y030400D03*
X014740Y030440D03*
X014740Y030480D03*
X014740Y030520D03*
X014740Y030560D03*
X014740Y030600D03*
X014740Y030640D03*
X014740Y030680D03*
X014740Y030720D03*
X014740Y030760D03*
X014740Y030800D03*
X014740Y030840D03*
X014740Y030880D03*
X014740Y030920D03*
X014740Y030960D03*
X014740Y031000D03*
X014740Y031040D03*
X014740Y031080D03*
X014740Y031120D03*
X014740Y031160D03*
X014740Y031200D03*
X014740Y031240D03*
X014740Y031280D03*
X014740Y031320D03*
X014740Y031840D03*
X014740Y031880D03*
X014740Y031920D03*
X014740Y031960D03*
X014740Y032000D03*
X014740Y032040D03*
X015460Y031800D03*
X015460Y031760D03*
X015460Y031720D03*
X015460Y031680D03*
X015460Y031640D03*
X015460Y031600D03*
X015460Y031560D03*
X015460Y031520D03*
X015460Y031480D03*
X015460Y031440D03*
X015460Y031400D03*
X015460Y031360D03*
X015460Y031080D03*
X015460Y031040D03*
X015460Y031000D03*
X015460Y030960D03*
X015460Y030920D03*
X015460Y030880D03*
X015460Y030840D03*
X015460Y030800D03*
X015460Y030760D03*
X015460Y030720D03*
X015460Y030680D03*
X015460Y030640D03*
X016420Y030640D03*
X016420Y030680D03*
X016420Y030720D03*
X016420Y030760D03*
X016420Y030800D03*
X016420Y030840D03*
X016420Y030880D03*
X016420Y030920D03*
X016420Y030960D03*
X016420Y031000D03*
X016420Y031040D03*
X016420Y031080D03*
X016420Y031360D03*
X016420Y031400D03*
X016420Y031440D03*
X016420Y031480D03*
X016420Y031520D03*
X016420Y031560D03*
X016420Y031600D03*
X016420Y031640D03*
X016420Y031680D03*
X016420Y031720D03*
X016420Y031760D03*
X016420Y031800D03*
D14*
X015820Y031840D03*
X015820Y031880D03*
X015820Y031920D03*
X015820Y031960D03*
X015820Y032000D03*
X015820Y032040D03*
X015820Y031320D03*
X015820Y031280D03*
X015820Y031240D03*
X015820Y031200D03*
X015820Y031160D03*
X015820Y031120D03*
X015820Y030600D03*
X015820Y030560D03*
X015820Y030520D03*
X015820Y030480D03*
X015820Y030440D03*
X015820Y030400D03*
D15*
X014140Y031120D03*
X014140Y031160D03*
X014140Y031200D03*
X014140Y031240D03*
X014140Y031280D03*
X014140Y031320D03*
D16*
X013660Y031600D03*
X013660Y031640D03*
X013660Y031680D03*
X013660Y031720D03*
X013660Y031760D03*
X013660Y031800D03*
X014620Y031800D03*
X014620Y031760D03*
X014620Y031720D03*
X014620Y031680D03*
X014620Y031640D03*
X014620Y031600D03*
X011980Y031560D03*
X011980Y031520D03*
X011980Y031480D03*
X011980Y031440D03*
X011980Y031400D03*
X011980Y031360D03*
D17*
X014140Y031360D03*
X014140Y031400D03*
X014140Y031440D03*
X014140Y031480D03*
X014140Y031520D03*
X014140Y031560D03*
D18*
X015995Y029340D03*
X015995Y029310D03*
X015995Y029280D03*
X015995Y029250D03*
X015995Y029220D03*
X015995Y029190D03*
X015815Y028620D03*
X015815Y028590D03*
X015815Y028560D03*
X015815Y028530D03*
X015815Y028500D03*
X015815Y028470D03*
X007355Y028650D03*
X007355Y028680D03*
X007355Y028710D03*
X007355Y028740D03*
X007355Y028770D03*
X007355Y028800D03*
X007355Y029190D03*
X007355Y029220D03*
X007355Y029250D03*
X007355Y029280D03*
X007355Y029310D03*
X007355Y029340D03*
X007175Y028440D03*
X007175Y028410D03*
X007175Y028380D03*
X007175Y028350D03*
X007175Y028320D03*
X007175Y028290D03*
X005915Y028470D03*
X005915Y028500D03*
X005915Y028530D03*
X005915Y028560D03*
X005915Y028590D03*
X005915Y028620D03*
X005915Y028830D03*
X005915Y028860D03*
X005915Y028890D03*
X005915Y028920D03*
X005915Y028950D03*
X005915Y028980D03*
D19*
X006185Y029010D03*
X006185Y029040D03*
X006185Y029070D03*
X006185Y029100D03*
X006185Y029130D03*
X006185Y029160D03*
X006185Y028800D03*
X006185Y028770D03*
X006185Y028740D03*
X006185Y028710D03*
X006185Y028680D03*
X006185Y028650D03*
X005465Y028650D03*
X005465Y028680D03*
X005465Y028710D03*
X005465Y028740D03*
X005465Y028770D03*
X005465Y028800D03*
X004925Y028800D03*
X004925Y028830D03*
X004925Y028860D03*
X004925Y028890D03*
X004925Y028920D03*
X004925Y028950D03*
X004925Y028980D03*
X004925Y029010D03*
X004925Y029040D03*
X004925Y029070D03*
X004925Y029100D03*
X004925Y029130D03*
X004925Y029160D03*
X004925Y028770D03*
X004925Y028740D03*
X004925Y028710D03*
X004925Y028680D03*
X004925Y028650D03*
X004925Y028620D03*
X004925Y028590D03*
X004925Y028560D03*
X004925Y028530D03*
X004925Y028500D03*
X004925Y028470D03*
X004925Y029550D03*
X004925Y029580D03*
X004925Y029610D03*
X004925Y029640D03*
X004925Y029670D03*
X004925Y029700D03*
X004025Y029700D03*
X004025Y029670D03*
X004025Y029640D03*
X004025Y029610D03*
X004025Y029580D03*
X004025Y029550D03*
X004025Y029160D03*
X004025Y029130D03*
X004025Y029100D03*
X004025Y029070D03*
X004025Y029040D03*
X004025Y029010D03*
X004025Y028980D03*
X004025Y028950D03*
X004025Y028920D03*
X004025Y028890D03*
X004025Y028860D03*
X004025Y028830D03*
X004025Y028800D03*
X004025Y028770D03*
X004025Y028740D03*
X004025Y028710D03*
X004025Y028680D03*
X004025Y028650D03*
X004025Y028620D03*
X004025Y028590D03*
X004025Y028560D03*
X004025Y028530D03*
X004025Y028500D03*
X004025Y028470D03*
X006905Y028830D03*
X006905Y028860D03*
X006905Y028890D03*
X006905Y028920D03*
X006905Y028950D03*
X006905Y028980D03*
X006905Y029010D03*
X006905Y029040D03*
X006905Y029070D03*
X006905Y029100D03*
X006905Y029130D03*
X006905Y029160D03*
X007625Y029160D03*
X007625Y029130D03*
X007625Y029100D03*
X007625Y029070D03*
X007625Y029040D03*
X007625Y029010D03*
X007625Y028980D03*
X007625Y028950D03*
X007625Y028920D03*
X007625Y028890D03*
X007625Y028860D03*
X007625Y028830D03*
X007625Y028620D03*
X007625Y028590D03*
X007625Y028560D03*
X007625Y028530D03*
X007625Y028500D03*
X007625Y028470D03*
X008705Y028650D03*
X008705Y028680D03*
X008705Y028710D03*
X008705Y028740D03*
X008705Y028770D03*
X008705Y028800D03*
X008705Y028830D03*
X008705Y028860D03*
X008705Y028890D03*
X008705Y028920D03*
X008705Y028950D03*
X008705Y028980D03*
X008705Y029370D03*
X008705Y029400D03*
X008705Y029430D03*
X008705Y029460D03*
X008705Y029490D03*
X008705Y029520D03*
X009785Y029160D03*
X009785Y029130D03*
X009785Y029100D03*
X009785Y029070D03*
X009785Y029040D03*
X009785Y029010D03*
X009785Y028980D03*
X009785Y028950D03*
X009785Y028920D03*
X009785Y028890D03*
X009785Y028860D03*
X009785Y028830D03*
X009785Y028800D03*
X009785Y028770D03*
X009785Y028740D03*
X009785Y028710D03*
X009785Y028680D03*
X009785Y028650D03*
X012665Y028650D03*
X012665Y028680D03*
X012665Y028710D03*
X012665Y028740D03*
X012665Y028770D03*
X012665Y028800D03*
X012665Y028830D03*
X012665Y028860D03*
X012665Y028890D03*
X012665Y028920D03*
X012665Y028950D03*
X012665Y028980D03*
X012665Y029010D03*
X012665Y029040D03*
X012665Y029070D03*
X012665Y029100D03*
X012665Y029130D03*
X012665Y029160D03*
X012665Y029190D03*
X012665Y029220D03*
X012665Y029250D03*
X012665Y029280D03*
X012665Y029310D03*
X012665Y029340D03*
X012665Y029370D03*
X012665Y029400D03*
X012665Y029430D03*
X012665Y029460D03*
X012665Y029490D03*
X012665Y029520D03*
X013205Y029520D03*
X013205Y029490D03*
X013205Y029460D03*
X013205Y029430D03*
X013205Y029400D03*
X013205Y029370D03*
X013385Y029340D03*
X013385Y029310D03*
X013385Y029280D03*
X013385Y029250D03*
X013385Y029220D03*
X013385Y029190D03*
X013385Y029160D03*
X013385Y029130D03*
X013385Y029100D03*
X013385Y029070D03*
X013385Y029040D03*
X013385Y029010D03*
X013385Y028980D03*
X013385Y028950D03*
X013385Y028920D03*
X013385Y028890D03*
X013385Y028860D03*
X013385Y028830D03*
X013205Y028800D03*
X013205Y028770D03*
X013205Y028740D03*
X013205Y028710D03*
X013205Y028680D03*
X013205Y028650D03*
X014105Y028650D03*
X014105Y028680D03*
X014105Y028710D03*
X014105Y028740D03*
X014105Y028770D03*
X014105Y028800D03*
X014105Y029010D03*
X014105Y029040D03*
X014105Y029070D03*
X014105Y029100D03*
X014105Y029130D03*
X014105Y029160D03*
X014825Y029160D03*
X014825Y029130D03*
X014825Y029100D03*
X014825Y029070D03*
X014825Y029040D03*
X014825Y029010D03*
X015545Y029010D03*
X015545Y029040D03*
X015545Y029070D03*
X015545Y029100D03*
X015545Y029130D03*
X015545Y029160D03*
X016265Y028800D03*
X016265Y028770D03*
X016265Y028740D03*
X016265Y028710D03*
X016265Y028680D03*
X016265Y028650D03*
X016985Y028650D03*
X016985Y028680D03*
X016985Y028710D03*
X016985Y028740D03*
X016985Y028770D03*
X016985Y028800D03*
X016985Y028620D03*
X016985Y028590D03*
X016985Y028560D03*
X016985Y028530D03*
X016985Y028500D03*
X016985Y028470D03*
X016985Y029010D03*
X016985Y029040D03*
X016985Y029070D03*
X016985Y029100D03*
X016985Y029130D03*
X016985Y029160D03*
X016985Y029190D03*
X016985Y029220D03*
X016985Y029250D03*
X016985Y029280D03*
X016985Y029310D03*
X016985Y029340D03*
X016985Y029370D03*
X016985Y029400D03*
X016985Y029430D03*
X016985Y029460D03*
X016985Y029490D03*
X016985Y029520D03*
X017525Y029160D03*
X017525Y029130D03*
X017525Y029100D03*
X017525Y029070D03*
X017525Y029040D03*
X017525Y029010D03*
X017525Y028800D03*
X017525Y028770D03*
X017525Y028740D03*
X017525Y028710D03*
X017525Y028680D03*
X017525Y028650D03*
X017705Y028620D03*
X017705Y028590D03*
X017705Y028560D03*
X017705Y028530D03*
X017705Y028500D03*
X017705Y028470D03*
D20*
X017165Y028830D03*
X017165Y028860D03*
X017165Y028890D03*
X017165Y028920D03*
X017165Y028950D03*
X017165Y028980D03*
X015905Y028980D03*
X015905Y028950D03*
X015905Y028920D03*
X015905Y028890D03*
X015905Y028860D03*
X015905Y028830D03*
X014465Y028620D03*
X014465Y028590D03*
X014465Y028560D03*
X014465Y028530D03*
X014465Y028500D03*
X014465Y028470D03*
X014465Y029190D03*
X014465Y029220D03*
X014465Y029250D03*
X014465Y029280D03*
X014465Y029310D03*
X014465Y029340D03*
X012845Y029550D03*
X012845Y029580D03*
X012845Y029610D03*
X012845Y029640D03*
X012845Y029670D03*
X012845Y029700D03*
X012845Y028620D03*
X012845Y028590D03*
X012845Y028560D03*
X012845Y028530D03*
X012845Y028500D03*
X012845Y028470D03*
X010145Y028470D03*
X010145Y028500D03*
X010145Y028530D03*
X010145Y028560D03*
X010145Y028590D03*
X010145Y028620D03*
X010145Y029190D03*
X010145Y029220D03*
X010145Y029250D03*
X010145Y029280D03*
X010145Y029310D03*
X010145Y029340D03*
X008705Y028620D03*
X008705Y028590D03*
X008705Y028560D03*
X008705Y028530D03*
X008705Y028500D03*
X008705Y028470D03*
X005825Y029190D03*
X005825Y029220D03*
X005825Y029250D03*
X005825Y029280D03*
X005825Y029310D03*
X005825Y029340D03*
D21*
X014465Y028980D03*
X014465Y028950D03*
X014465Y028920D03*
X014465Y028890D03*
X014465Y028860D03*
X014465Y028830D03*
D22*
X004475Y029010D03*
X004475Y029040D03*
X004475Y029070D03*
X004475Y029100D03*
X004475Y029130D03*
X004475Y029160D03*
D23*
X004115Y029370D03*
X004115Y029400D03*
X004115Y029430D03*
X004115Y029460D03*
X004115Y029490D03*
X004115Y029520D03*
X004835Y029520D03*
X004835Y029490D03*
X004835Y029460D03*
X004835Y029430D03*
X004835Y029400D03*
X004835Y029370D03*
X008615Y029160D03*
X008615Y029130D03*
X008615Y029100D03*
X008615Y029070D03*
X008615Y029040D03*
X008615Y029010D03*
D24*
X004475Y029190D03*
X004475Y029220D03*
X004475Y029250D03*
X004475Y029280D03*
X004475Y029310D03*
X004475Y029340D03*
D25*
X024430Y020740D02*
X024430Y020490D01*
X024430Y018240D02*
X024430Y017990D01*
D26*
X016418Y027533D02*
X016044Y027533D01*
X016044Y028093D01*
X016418Y028093D01*
X016231Y027813D02*
X016044Y027813D01*
X015810Y027813D02*
X015623Y027813D01*
X015810Y027813D02*
X015810Y027626D01*
X015716Y027533D01*
X015530Y027533D01*
X015436Y027626D01*
X015436Y028000D01*
X015530Y028093D01*
X015716Y028093D01*
X015810Y028000D01*
X015202Y028000D02*
X015202Y027626D01*
X015109Y027533D01*
X014829Y027533D01*
X014829Y028093D01*
X015109Y028093D01*
X015202Y028000D01*
X014610Y028093D02*
X014423Y028093D01*
X014517Y028093D02*
X014517Y027533D01*
X014610Y027533D02*
X014423Y027533D01*
X014189Y027533D02*
X014003Y027720D01*
X014096Y027720D02*
X013816Y027720D01*
X013816Y027533D02*
X013816Y028093D01*
X014096Y028093D01*
X014189Y028000D01*
X014189Y027813D01*
X014096Y027720D01*
X013582Y028093D02*
X013208Y028093D01*
X013395Y028093D02*
X013395Y027533D01*
X012974Y027533D02*
X012787Y027720D01*
X012880Y027720D02*
X012600Y027720D01*
X012600Y027533D02*
X012600Y028093D01*
X012880Y028093D01*
X012974Y028000D01*
X012974Y027813D01*
X012880Y027720D01*
X012366Y027813D02*
X011993Y027813D01*
X011993Y027906D02*
X012179Y028093D01*
X012366Y027906D01*
X012366Y027533D01*
X011993Y027533D02*
X011993Y027906D01*
X011758Y028000D02*
X011665Y028093D01*
X011478Y028093D01*
X011385Y028000D01*
X011385Y027626D01*
X011478Y027533D01*
X011665Y027533D01*
X011758Y027626D01*
X010543Y027533D02*
X010169Y027533D01*
X010169Y028093D01*
X010543Y028093D01*
X010356Y027813D02*
X010169Y027813D01*
X009935Y027533D02*
X009562Y027533D01*
X009562Y028093D01*
X009328Y028000D02*
X009328Y027906D01*
X009234Y027813D01*
X008954Y027813D01*
X008954Y027533D02*
X008954Y028093D01*
X009234Y028093D01*
X009328Y028000D01*
X009234Y027813D02*
X009328Y027720D01*
X009328Y027626D01*
X009234Y027533D01*
X008954Y027533D01*
X008736Y027533D02*
X008549Y027533D01*
X008642Y027533D02*
X008642Y028093D01*
X008549Y028093D02*
X008736Y028093D01*
X008315Y028093D02*
X007941Y028093D01*
X008128Y028093D02*
X008128Y027533D01*
X007707Y027533D02*
X007707Y027906D01*
X007520Y028093D01*
X007333Y027906D01*
X007333Y027533D01*
X007333Y027813D02*
X007707Y027813D01*
X007099Y027813D02*
X007006Y027720D01*
X006726Y027720D01*
X006726Y027533D02*
X006726Y028093D01*
X007006Y028093D01*
X007099Y028000D01*
X007099Y027813D01*
X006492Y028093D02*
X006492Y027533D01*
X006118Y027533D02*
X006118Y028093D01*
X006305Y027906D01*
X006492Y028093D01*
X005884Y028000D02*
X005884Y027626D01*
X005790Y027533D01*
X005604Y027533D01*
X005510Y027626D01*
X005510Y028000D01*
X005604Y028093D01*
X005790Y028093D01*
X005884Y028000D01*
X005276Y028000D02*
X005183Y028093D01*
X004996Y028093D01*
X004902Y028000D01*
X004902Y027626D01*
X004996Y027533D01*
X005183Y027533D01*
X005276Y027626D01*
D27*
X008040Y029810D02*
X008040Y030110D01*
X009820Y030110D02*
X009820Y029810D01*
X009820Y032370D02*
X009820Y032670D01*
X008040Y032670D02*
X008040Y032370D01*
X007924Y003172D02*
X007924Y001222D01*
X006924Y001222D02*
X006924Y003172D01*
X005924Y003172D02*
X005924Y001222D01*
X004924Y001222D02*
X004924Y003172D01*
X003924Y003172D02*
X003924Y001222D01*
X002924Y001222D02*
X002924Y003172D01*
X008924Y003172D02*
X008924Y001222D01*
X009924Y001222D02*
X009924Y003172D01*
X010924Y003172D02*
X010924Y001222D01*
X011924Y001222D02*
X011924Y003172D01*
X012924Y003172D02*
X012924Y001222D01*
X013924Y001222D02*
X013924Y003172D01*
X014924Y003172D02*
X014924Y001222D01*
X015924Y001222D02*
X015924Y003172D01*
X016924Y003172D02*
X016924Y001222D01*
X017924Y001222D02*
X017924Y003172D01*
X018924Y003172D02*
X018924Y001222D01*
X019924Y001222D02*
X019924Y003172D01*
X020924Y003172D02*
X020924Y001222D01*
X021924Y001222D02*
X021924Y003172D01*
X022924Y003172D02*
X022924Y001222D01*
X023924Y001222D02*
X023924Y003172D01*
D28*
X013420Y017626D03*
D29*
X017040Y017250D02*
X017300Y017250D01*
X017300Y016250D02*
X017040Y016250D01*
X017040Y015250D02*
X017300Y015250D01*
X017300Y014250D02*
X017040Y014250D01*
X017040Y013250D02*
X017300Y013250D01*
X017300Y012250D02*
X017040Y012250D01*
X017040Y011250D02*
X017300Y011250D01*
X017300Y010250D02*
X017040Y010250D01*
X017040Y009250D02*
X017300Y009250D01*
X017300Y008250D02*
X017040Y008250D01*
X017040Y007250D02*
X017300Y007250D01*
X017300Y006250D02*
X017040Y006250D01*
X023040Y006250D02*
X023300Y006250D01*
X023300Y007250D02*
X023040Y007250D01*
X023040Y008250D02*
X023300Y008250D01*
X023300Y009250D02*
X023040Y009250D01*
X023040Y010250D02*
X023300Y010250D01*
X023300Y011250D02*
X023040Y011250D01*
X023040Y012250D02*
X023300Y012250D01*
X023300Y013250D02*
X023040Y013250D01*
X023040Y014250D02*
X023300Y014250D01*
X023300Y015250D02*
X023040Y015250D01*
X023040Y016250D02*
X023300Y016250D01*
X023300Y017250D02*
X023040Y017250D01*
X023040Y018250D02*
X023300Y018250D01*
X023300Y019250D02*
X023040Y019250D01*
X023040Y020250D02*
X023300Y020250D01*
X023300Y021250D02*
X023040Y021250D01*
X022920Y023620D02*
X022920Y023880D01*
X021920Y023880D02*
X021920Y023620D01*
X020920Y023620D02*
X020920Y023880D01*
X019920Y023880D02*
X019920Y023620D01*
X018920Y023620D02*
X018920Y023880D01*
X017920Y023880D02*
X017920Y023620D01*
X016920Y023620D02*
X016920Y023880D01*
X015920Y023880D02*
X015920Y023620D01*
X014920Y023620D02*
X014920Y023880D01*
X013920Y023880D02*
X013920Y023620D01*
X011920Y023620D02*
X011920Y023880D01*
X010920Y023880D02*
X010920Y023620D01*
X009920Y023620D02*
X009920Y023880D01*
X008920Y023880D02*
X008920Y023620D01*
X007920Y023620D02*
X007920Y023880D01*
X006920Y023880D02*
X006920Y023620D01*
X005920Y023620D02*
X005920Y023880D01*
X005920Y026620D02*
X005920Y026880D01*
X006920Y026880D02*
X006920Y026620D01*
X007920Y026620D02*
X007920Y026880D01*
X008920Y026880D02*
X008920Y026620D01*
X009920Y026620D02*
X009920Y026880D01*
X010920Y026880D02*
X010920Y026620D01*
X011920Y026620D02*
X011920Y026880D01*
X013920Y026880D02*
X013920Y026620D01*
X014920Y026620D02*
X014920Y026880D01*
X015920Y026880D02*
X015920Y026620D01*
X016920Y026620D02*
X016920Y026880D01*
X017920Y026880D02*
X017920Y026620D01*
X018920Y026620D02*
X018920Y026880D01*
X019920Y026880D02*
X019920Y026620D01*
X020920Y026620D02*
X020920Y026880D01*
X021920Y026880D02*
X021920Y026620D01*
X022920Y026620D02*
X022920Y026880D01*
X017300Y021250D02*
X017040Y021250D01*
X017040Y020250D02*
X017300Y020250D01*
X017300Y019250D02*
X017040Y019250D01*
X017040Y018250D02*
X017300Y018250D01*
X009800Y018250D02*
X009540Y018250D01*
X009540Y017250D02*
X009800Y017250D01*
X009800Y016250D02*
X009540Y016250D01*
X009540Y015250D02*
X009800Y015250D01*
X009800Y014250D02*
X009540Y014250D01*
X009540Y013250D02*
X009800Y013250D01*
X009800Y012250D02*
X009540Y012250D01*
X009540Y011250D02*
X009800Y011250D01*
X009800Y010250D02*
X009540Y010250D01*
X009540Y009250D02*
X009800Y009250D01*
X009800Y008250D02*
X009540Y008250D01*
X009540Y007250D02*
X009800Y007250D01*
X009800Y006250D02*
X009540Y006250D01*
X003800Y006250D02*
X003540Y006250D01*
X003540Y007250D02*
X003800Y007250D01*
X003800Y008250D02*
X003540Y008250D01*
X003540Y009250D02*
X003800Y009250D01*
X003800Y010250D02*
X003540Y010250D01*
X003540Y011250D02*
X003800Y011250D01*
X003800Y012250D02*
X003540Y012250D01*
X003540Y013250D02*
X003800Y013250D01*
X003800Y014250D02*
X003540Y014250D01*
X003540Y015250D02*
X003800Y015250D01*
X003800Y016250D02*
X003540Y016250D01*
X003540Y017250D02*
X003800Y017250D01*
X003800Y018250D02*
X003540Y018250D01*
X003540Y019250D02*
X003800Y019250D01*
X003800Y020250D02*
X003540Y020250D01*
X003540Y021250D02*
X003800Y021250D01*
X009540Y021250D02*
X009800Y021250D01*
X009800Y020250D02*
X009540Y020250D01*
X009540Y019250D02*
X009800Y019250D01*
D30*
X020920Y029000D03*
D31*
X023170Y022500D03*
X024170Y022500D03*
X004170Y024750D03*
X004170Y025750D03*
D32*
X024430Y021090D03*
X024430Y020740D03*
X024430Y020390D03*
X024430Y018590D03*
X024430Y018240D03*
X024430Y017890D03*
M02*
