G75*
G70*
%OFA0B0*%
%FSLAX24Y24*%
%IPPOS*%
%LPD*%
%AMOC8*
5,1,8,0,0,1.08239X$1,22.5*
%
%ADD10C,0.0000*%
%ADD11C,0.0600*%
%ADD12C,0.0520*%
%ADD13R,0.1000X0.2000*%
%ADD14OC8,0.0520*%
%ADD15R,0.0500X0.0250*%
%ADD16C,0.0400*%
%ADD17OC8,0.1000*%
%ADD18C,0.0160*%
%ADD19OC8,0.0356*%
%ADD20C,0.0100*%
%ADD21C,0.0900*%
D10*
X002482Y000500D02*
X002128Y001012D01*
X002128Y010146D01*
X001170Y010146D01*
X001170Y027862D01*
X002003Y027862D01*
X002003Y033571D01*
X024837Y033571D01*
X024837Y027862D01*
X025670Y027862D01*
X025670Y010146D01*
X024712Y010146D01*
X024712Y001012D01*
X024358Y000500D01*
X002482Y000500D01*
X012436Y017626D02*
X012438Y017688D01*
X012444Y017751D01*
X012454Y017812D01*
X012468Y017873D01*
X012485Y017933D01*
X012506Y017992D01*
X012532Y018049D01*
X012560Y018104D01*
X012592Y018158D01*
X012628Y018209D01*
X012666Y018259D01*
X012708Y018305D01*
X012752Y018349D01*
X012800Y018390D01*
X012849Y018428D01*
X012901Y018462D01*
X012955Y018493D01*
X013011Y018521D01*
X013069Y018545D01*
X013128Y018566D01*
X013188Y018582D01*
X013249Y018595D01*
X013311Y018604D01*
X013373Y018609D01*
X013436Y018610D01*
X013498Y018607D01*
X013560Y018600D01*
X013622Y018589D01*
X013682Y018574D01*
X013742Y018556D01*
X013800Y018534D01*
X013857Y018508D01*
X013912Y018478D01*
X013965Y018445D01*
X014016Y018409D01*
X014064Y018370D01*
X014110Y018327D01*
X014153Y018282D01*
X014193Y018234D01*
X014230Y018184D01*
X014264Y018131D01*
X014295Y018077D01*
X014321Y018021D01*
X014345Y017963D01*
X014364Y017903D01*
X014380Y017843D01*
X014392Y017781D01*
X014400Y017720D01*
X014404Y017657D01*
X014404Y017595D01*
X014400Y017532D01*
X014392Y017471D01*
X014380Y017409D01*
X014364Y017349D01*
X014345Y017289D01*
X014321Y017231D01*
X014295Y017175D01*
X014264Y017121D01*
X014230Y017068D01*
X014193Y017018D01*
X014153Y016970D01*
X014110Y016925D01*
X014064Y016882D01*
X014016Y016843D01*
X013965Y016807D01*
X013912Y016774D01*
X013857Y016744D01*
X013800Y016718D01*
X013742Y016696D01*
X013682Y016678D01*
X013622Y016663D01*
X013560Y016652D01*
X013498Y016645D01*
X013436Y016642D01*
X013373Y016643D01*
X013311Y016648D01*
X013249Y016657D01*
X013188Y016670D01*
X013128Y016686D01*
X013069Y016707D01*
X013011Y016731D01*
X012955Y016759D01*
X012901Y016790D01*
X012849Y016824D01*
X012800Y016862D01*
X012752Y016903D01*
X012708Y016947D01*
X012666Y016993D01*
X012628Y017043D01*
X012592Y017094D01*
X012560Y017148D01*
X012532Y017203D01*
X012506Y017260D01*
X012485Y017319D01*
X012468Y017379D01*
X012454Y017440D01*
X012444Y017501D01*
X012438Y017564D01*
X012436Y017626D01*
X017532Y030250D02*
X017534Y030273D01*
X017540Y030296D01*
X017550Y030317D01*
X017563Y030337D01*
X017579Y030354D01*
X017598Y030368D01*
X017619Y030378D01*
X017641Y030385D01*
X017664Y030388D01*
X017688Y030387D01*
X017710Y030382D01*
X017732Y030373D01*
X017752Y030361D01*
X017770Y030345D01*
X017784Y030327D01*
X017796Y030307D01*
X017804Y030285D01*
X017808Y030262D01*
X017808Y030238D01*
X017804Y030215D01*
X017796Y030193D01*
X017784Y030173D01*
X017770Y030155D01*
X017752Y030139D01*
X017732Y030127D01*
X017710Y030118D01*
X017688Y030113D01*
X017664Y030112D01*
X017641Y030115D01*
X017619Y030122D01*
X017598Y030132D01*
X017579Y030146D01*
X017563Y030163D01*
X017550Y030183D01*
X017540Y030204D01*
X017534Y030227D01*
X017532Y030250D01*
X017532Y030750D02*
X017534Y030773D01*
X017540Y030796D01*
X017550Y030817D01*
X017563Y030837D01*
X017579Y030854D01*
X017598Y030868D01*
X017619Y030878D01*
X017641Y030885D01*
X017664Y030888D01*
X017688Y030887D01*
X017710Y030882D01*
X017732Y030873D01*
X017752Y030861D01*
X017770Y030845D01*
X017784Y030827D01*
X017796Y030807D01*
X017804Y030785D01*
X017808Y030762D01*
X017808Y030738D01*
X017804Y030715D01*
X017796Y030693D01*
X017784Y030673D01*
X017770Y030655D01*
X017752Y030639D01*
X017732Y030627D01*
X017710Y030618D01*
X017688Y030613D01*
X017664Y030612D01*
X017641Y030615D01*
X017619Y030622D01*
X017598Y030632D01*
X017579Y030646D01*
X017563Y030663D01*
X017550Y030683D01*
X017540Y030704D01*
X017534Y030727D01*
X017532Y030750D01*
X017532Y031250D02*
X017534Y031273D01*
X017540Y031296D01*
X017550Y031317D01*
X017563Y031337D01*
X017579Y031354D01*
X017598Y031368D01*
X017619Y031378D01*
X017641Y031385D01*
X017664Y031388D01*
X017688Y031387D01*
X017710Y031382D01*
X017732Y031373D01*
X017752Y031361D01*
X017770Y031345D01*
X017784Y031327D01*
X017796Y031307D01*
X017804Y031285D01*
X017808Y031262D01*
X017808Y031238D01*
X017804Y031215D01*
X017796Y031193D01*
X017784Y031173D01*
X017770Y031155D01*
X017752Y031139D01*
X017732Y031127D01*
X017710Y031118D01*
X017688Y031113D01*
X017664Y031112D01*
X017641Y031115D01*
X017619Y031122D01*
X017598Y031132D01*
X017579Y031146D01*
X017563Y031163D01*
X017550Y031183D01*
X017540Y031204D01*
X017534Y031227D01*
X017532Y031250D01*
X017532Y031750D02*
X017534Y031773D01*
X017540Y031796D01*
X017550Y031817D01*
X017563Y031837D01*
X017579Y031854D01*
X017598Y031868D01*
X017619Y031878D01*
X017641Y031885D01*
X017664Y031888D01*
X017688Y031887D01*
X017710Y031882D01*
X017732Y031873D01*
X017752Y031861D01*
X017770Y031845D01*
X017784Y031827D01*
X017796Y031807D01*
X017804Y031785D01*
X017808Y031762D01*
X017808Y031738D01*
X017804Y031715D01*
X017796Y031693D01*
X017784Y031673D01*
X017770Y031655D01*
X017752Y031639D01*
X017732Y031627D01*
X017710Y031618D01*
X017688Y031613D01*
X017664Y031612D01*
X017641Y031615D01*
X017619Y031622D01*
X017598Y031632D01*
X017579Y031646D01*
X017563Y031663D01*
X017550Y031683D01*
X017540Y031704D01*
X017534Y031727D01*
X017532Y031750D01*
X017532Y032250D02*
X017534Y032273D01*
X017540Y032296D01*
X017550Y032317D01*
X017563Y032337D01*
X017579Y032354D01*
X017598Y032368D01*
X017619Y032378D01*
X017641Y032385D01*
X017664Y032388D01*
X017688Y032387D01*
X017710Y032382D01*
X017732Y032373D01*
X017752Y032361D01*
X017770Y032345D01*
X017784Y032327D01*
X017796Y032307D01*
X017804Y032285D01*
X017808Y032262D01*
X017808Y032238D01*
X017804Y032215D01*
X017796Y032193D01*
X017784Y032173D01*
X017770Y032155D01*
X017752Y032139D01*
X017732Y032127D01*
X017710Y032118D01*
X017688Y032113D01*
X017664Y032112D01*
X017641Y032115D01*
X017619Y032122D01*
X017598Y032132D01*
X017579Y032146D01*
X017563Y032163D01*
X017550Y032183D01*
X017540Y032204D01*
X017534Y032227D01*
X017532Y032250D01*
X017532Y032750D02*
X017534Y032773D01*
X017540Y032796D01*
X017550Y032817D01*
X017563Y032837D01*
X017579Y032854D01*
X017598Y032868D01*
X017619Y032878D01*
X017641Y032885D01*
X017664Y032888D01*
X017688Y032887D01*
X017710Y032882D01*
X017732Y032873D01*
X017752Y032861D01*
X017770Y032845D01*
X017784Y032827D01*
X017796Y032807D01*
X017804Y032785D01*
X017808Y032762D01*
X017808Y032738D01*
X017804Y032715D01*
X017796Y032693D01*
X017784Y032673D01*
X017770Y032655D01*
X017752Y032639D01*
X017732Y032627D01*
X017710Y032618D01*
X017688Y032613D01*
X017664Y032612D01*
X017641Y032615D01*
X017619Y032622D01*
X017598Y032632D01*
X017579Y032646D01*
X017563Y032663D01*
X017550Y032683D01*
X017540Y032704D01*
X017534Y032727D01*
X017532Y032750D01*
X017532Y033250D02*
X017534Y033273D01*
X017540Y033296D01*
X017550Y033317D01*
X017563Y033337D01*
X017579Y033354D01*
X017598Y033368D01*
X017619Y033378D01*
X017641Y033385D01*
X017664Y033388D01*
X017688Y033387D01*
X017710Y033382D01*
X017732Y033373D01*
X017752Y033361D01*
X017770Y033345D01*
X017784Y033327D01*
X017796Y033307D01*
X017804Y033285D01*
X017808Y033262D01*
X017808Y033238D01*
X017804Y033215D01*
X017796Y033193D01*
X017784Y033173D01*
X017770Y033155D01*
X017752Y033139D01*
X017732Y033127D01*
X017710Y033118D01*
X017688Y033113D01*
X017664Y033112D01*
X017641Y033115D01*
X017619Y033122D01*
X017598Y033132D01*
X017579Y033146D01*
X017563Y033163D01*
X017550Y033183D01*
X017540Y033204D01*
X017534Y033227D01*
X017532Y033250D01*
X018032Y030250D02*
X018034Y030273D01*
X018040Y030296D01*
X018050Y030317D01*
X018063Y030337D01*
X018079Y030354D01*
X018098Y030368D01*
X018119Y030378D01*
X018141Y030385D01*
X018164Y030388D01*
X018188Y030387D01*
X018210Y030382D01*
X018232Y030373D01*
X018252Y030361D01*
X018270Y030345D01*
X018284Y030327D01*
X018296Y030307D01*
X018304Y030285D01*
X018308Y030262D01*
X018308Y030238D01*
X018304Y030215D01*
X018296Y030193D01*
X018284Y030173D01*
X018270Y030155D01*
X018252Y030139D01*
X018232Y030127D01*
X018210Y030118D01*
X018188Y030113D01*
X018164Y030112D01*
X018141Y030115D01*
X018119Y030122D01*
X018098Y030132D01*
X018079Y030146D01*
X018063Y030163D01*
X018050Y030183D01*
X018040Y030204D01*
X018034Y030227D01*
X018032Y030250D01*
X018532Y030250D02*
X018534Y030273D01*
X018540Y030296D01*
X018550Y030317D01*
X018563Y030337D01*
X018579Y030354D01*
X018598Y030368D01*
X018619Y030378D01*
X018641Y030385D01*
X018664Y030388D01*
X018688Y030387D01*
X018710Y030382D01*
X018732Y030373D01*
X018752Y030361D01*
X018770Y030345D01*
X018784Y030327D01*
X018796Y030307D01*
X018804Y030285D01*
X018808Y030262D01*
X018808Y030238D01*
X018804Y030215D01*
X018796Y030193D01*
X018784Y030173D01*
X018770Y030155D01*
X018752Y030139D01*
X018732Y030127D01*
X018710Y030118D01*
X018688Y030113D01*
X018664Y030112D01*
X018641Y030115D01*
X018619Y030122D01*
X018598Y030132D01*
X018579Y030146D01*
X018563Y030163D01*
X018550Y030183D01*
X018540Y030204D01*
X018534Y030227D01*
X018532Y030250D01*
X019032Y030250D02*
X019034Y030273D01*
X019040Y030296D01*
X019050Y030317D01*
X019063Y030337D01*
X019079Y030354D01*
X019098Y030368D01*
X019119Y030378D01*
X019141Y030385D01*
X019164Y030388D01*
X019188Y030387D01*
X019210Y030382D01*
X019232Y030373D01*
X019252Y030361D01*
X019270Y030345D01*
X019284Y030327D01*
X019296Y030307D01*
X019304Y030285D01*
X019308Y030262D01*
X019308Y030238D01*
X019304Y030215D01*
X019296Y030193D01*
X019284Y030173D01*
X019270Y030155D01*
X019252Y030139D01*
X019232Y030127D01*
X019210Y030118D01*
X019188Y030113D01*
X019164Y030112D01*
X019141Y030115D01*
X019119Y030122D01*
X019098Y030132D01*
X019079Y030146D01*
X019063Y030163D01*
X019050Y030183D01*
X019040Y030204D01*
X019034Y030227D01*
X019032Y030250D01*
X019532Y030250D02*
X019534Y030273D01*
X019540Y030296D01*
X019550Y030317D01*
X019563Y030337D01*
X019579Y030354D01*
X019598Y030368D01*
X019619Y030378D01*
X019641Y030385D01*
X019664Y030388D01*
X019688Y030387D01*
X019710Y030382D01*
X019732Y030373D01*
X019752Y030361D01*
X019770Y030345D01*
X019784Y030327D01*
X019796Y030307D01*
X019804Y030285D01*
X019808Y030262D01*
X019808Y030238D01*
X019804Y030215D01*
X019796Y030193D01*
X019784Y030173D01*
X019770Y030155D01*
X019752Y030139D01*
X019732Y030127D01*
X019710Y030118D01*
X019688Y030113D01*
X019664Y030112D01*
X019641Y030115D01*
X019619Y030122D01*
X019598Y030132D01*
X019579Y030146D01*
X019563Y030163D01*
X019550Y030183D01*
X019540Y030204D01*
X019534Y030227D01*
X019532Y030250D01*
X020032Y030250D02*
X020034Y030273D01*
X020040Y030296D01*
X020050Y030317D01*
X020063Y030337D01*
X020079Y030354D01*
X020098Y030368D01*
X020119Y030378D01*
X020141Y030385D01*
X020164Y030388D01*
X020188Y030387D01*
X020210Y030382D01*
X020232Y030373D01*
X020252Y030361D01*
X020270Y030345D01*
X020284Y030327D01*
X020296Y030307D01*
X020304Y030285D01*
X020308Y030262D01*
X020308Y030238D01*
X020304Y030215D01*
X020296Y030193D01*
X020284Y030173D01*
X020270Y030155D01*
X020252Y030139D01*
X020232Y030127D01*
X020210Y030118D01*
X020188Y030113D01*
X020164Y030112D01*
X020141Y030115D01*
X020119Y030122D01*
X020098Y030132D01*
X020079Y030146D01*
X020063Y030163D01*
X020050Y030183D01*
X020040Y030204D01*
X020034Y030227D01*
X020032Y030250D01*
X020532Y030250D02*
X020534Y030273D01*
X020540Y030296D01*
X020550Y030317D01*
X020563Y030337D01*
X020579Y030354D01*
X020598Y030368D01*
X020619Y030378D01*
X020641Y030385D01*
X020664Y030388D01*
X020688Y030387D01*
X020710Y030382D01*
X020732Y030373D01*
X020752Y030361D01*
X020770Y030345D01*
X020784Y030327D01*
X020796Y030307D01*
X020804Y030285D01*
X020808Y030262D01*
X020808Y030238D01*
X020804Y030215D01*
X020796Y030193D01*
X020784Y030173D01*
X020770Y030155D01*
X020752Y030139D01*
X020732Y030127D01*
X020710Y030118D01*
X020688Y030113D01*
X020664Y030112D01*
X020641Y030115D01*
X020619Y030122D01*
X020598Y030132D01*
X020579Y030146D01*
X020563Y030163D01*
X020550Y030183D01*
X020540Y030204D01*
X020534Y030227D01*
X020532Y030250D01*
X021032Y030250D02*
X021034Y030273D01*
X021040Y030296D01*
X021050Y030317D01*
X021063Y030337D01*
X021079Y030354D01*
X021098Y030368D01*
X021119Y030378D01*
X021141Y030385D01*
X021164Y030388D01*
X021188Y030387D01*
X021210Y030382D01*
X021232Y030373D01*
X021252Y030361D01*
X021270Y030345D01*
X021284Y030327D01*
X021296Y030307D01*
X021304Y030285D01*
X021308Y030262D01*
X021308Y030238D01*
X021304Y030215D01*
X021296Y030193D01*
X021284Y030173D01*
X021270Y030155D01*
X021252Y030139D01*
X021232Y030127D01*
X021210Y030118D01*
X021188Y030113D01*
X021164Y030112D01*
X021141Y030115D01*
X021119Y030122D01*
X021098Y030132D01*
X021079Y030146D01*
X021063Y030163D01*
X021050Y030183D01*
X021040Y030204D01*
X021034Y030227D01*
X021032Y030250D01*
X021532Y030250D02*
X021534Y030273D01*
X021540Y030296D01*
X021550Y030317D01*
X021563Y030337D01*
X021579Y030354D01*
X021598Y030368D01*
X021619Y030378D01*
X021641Y030385D01*
X021664Y030388D01*
X021688Y030387D01*
X021710Y030382D01*
X021732Y030373D01*
X021752Y030361D01*
X021770Y030345D01*
X021784Y030327D01*
X021796Y030307D01*
X021804Y030285D01*
X021808Y030262D01*
X021808Y030238D01*
X021804Y030215D01*
X021796Y030193D01*
X021784Y030173D01*
X021770Y030155D01*
X021752Y030139D01*
X021732Y030127D01*
X021710Y030118D01*
X021688Y030113D01*
X021664Y030112D01*
X021641Y030115D01*
X021619Y030122D01*
X021598Y030132D01*
X021579Y030146D01*
X021563Y030163D01*
X021550Y030183D01*
X021540Y030204D01*
X021534Y030227D01*
X021532Y030250D01*
X022032Y030250D02*
X022034Y030273D01*
X022040Y030296D01*
X022050Y030317D01*
X022063Y030337D01*
X022079Y030354D01*
X022098Y030368D01*
X022119Y030378D01*
X022141Y030385D01*
X022164Y030388D01*
X022188Y030387D01*
X022210Y030382D01*
X022232Y030373D01*
X022252Y030361D01*
X022270Y030345D01*
X022284Y030327D01*
X022296Y030307D01*
X022304Y030285D01*
X022308Y030262D01*
X022308Y030238D01*
X022304Y030215D01*
X022296Y030193D01*
X022284Y030173D01*
X022270Y030155D01*
X022252Y030139D01*
X022232Y030127D01*
X022210Y030118D01*
X022188Y030113D01*
X022164Y030112D01*
X022141Y030115D01*
X022119Y030122D01*
X022098Y030132D01*
X022079Y030146D01*
X022063Y030163D01*
X022050Y030183D01*
X022040Y030204D01*
X022034Y030227D01*
X022032Y030250D01*
X022532Y030250D02*
X022534Y030273D01*
X022540Y030296D01*
X022550Y030317D01*
X022563Y030337D01*
X022579Y030354D01*
X022598Y030368D01*
X022619Y030378D01*
X022641Y030385D01*
X022664Y030388D01*
X022688Y030387D01*
X022710Y030382D01*
X022732Y030373D01*
X022752Y030361D01*
X022770Y030345D01*
X022784Y030327D01*
X022796Y030307D01*
X022804Y030285D01*
X022808Y030262D01*
X022808Y030238D01*
X022804Y030215D01*
X022796Y030193D01*
X022784Y030173D01*
X022770Y030155D01*
X022752Y030139D01*
X022732Y030127D01*
X022710Y030118D01*
X022688Y030113D01*
X022664Y030112D01*
X022641Y030115D01*
X022619Y030122D01*
X022598Y030132D01*
X022579Y030146D01*
X022563Y030163D01*
X022550Y030183D01*
X022540Y030204D01*
X022534Y030227D01*
X022532Y030250D01*
X023032Y030250D02*
X023034Y030273D01*
X023040Y030296D01*
X023050Y030317D01*
X023063Y030337D01*
X023079Y030354D01*
X023098Y030368D01*
X023119Y030378D01*
X023141Y030385D01*
X023164Y030388D01*
X023188Y030387D01*
X023210Y030382D01*
X023232Y030373D01*
X023252Y030361D01*
X023270Y030345D01*
X023284Y030327D01*
X023296Y030307D01*
X023304Y030285D01*
X023308Y030262D01*
X023308Y030238D01*
X023304Y030215D01*
X023296Y030193D01*
X023284Y030173D01*
X023270Y030155D01*
X023252Y030139D01*
X023232Y030127D01*
X023210Y030118D01*
X023188Y030113D01*
X023164Y030112D01*
X023141Y030115D01*
X023119Y030122D01*
X023098Y030132D01*
X023079Y030146D01*
X023063Y030163D01*
X023050Y030183D01*
X023040Y030204D01*
X023034Y030227D01*
X023032Y030250D01*
X023532Y030250D02*
X023534Y030273D01*
X023540Y030296D01*
X023550Y030317D01*
X023563Y030337D01*
X023579Y030354D01*
X023598Y030368D01*
X023619Y030378D01*
X023641Y030385D01*
X023664Y030388D01*
X023688Y030387D01*
X023710Y030382D01*
X023732Y030373D01*
X023752Y030361D01*
X023770Y030345D01*
X023784Y030327D01*
X023796Y030307D01*
X023804Y030285D01*
X023808Y030262D01*
X023808Y030238D01*
X023804Y030215D01*
X023796Y030193D01*
X023784Y030173D01*
X023770Y030155D01*
X023752Y030139D01*
X023732Y030127D01*
X023710Y030118D01*
X023688Y030113D01*
X023664Y030112D01*
X023641Y030115D01*
X023619Y030122D01*
X023598Y030132D01*
X023579Y030146D01*
X023563Y030163D01*
X023550Y030183D01*
X023540Y030204D01*
X023534Y030227D01*
X023532Y030250D01*
X024032Y030250D02*
X024034Y030273D01*
X024040Y030296D01*
X024050Y030317D01*
X024063Y030337D01*
X024079Y030354D01*
X024098Y030368D01*
X024119Y030378D01*
X024141Y030385D01*
X024164Y030388D01*
X024188Y030387D01*
X024210Y030382D01*
X024232Y030373D01*
X024252Y030361D01*
X024270Y030345D01*
X024284Y030327D01*
X024296Y030307D01*
X024304Y030285D01*
X024308Y030262D01*
X024308Y030238D01*
X024304Y030215D01*
X024296Y030193D01*
X024284Y030173D01*
X024270Y030155D01*
X024252Y030139D01*
X024232Y030127D01*
X024210Y030118D01*
X024188Y030113D01*
X024164Y030112D01*
X024141Y030115D01*
X024119Y030122D01*
X024098Y030132D01*
X024079Y030146D01*
X024063Y030163D01*
X024050Y030183D01*
X024040Y030204D01*
X024034Y030227D01*
X024032Y030250D01*
X024532Y030250D02*
X024534Y030273D01*
X024540Y030296D01*
X024550Y030317D01*
X024563Y030337D01*
X024579Y030354D01*
X024598Y030368D01*
X024619Y030378D01*
X024641Y030385D01*
X024664Y030388D01*
X024688Y030387D01*
X024710Y030382D01*
X024732Y030373D01*
X024752Y030361D01*
X024770Y030345D01*
X024784Y030327D01*
X024796Y030307D01*
X024804Y030285D01*
X024808Y030262D01*
X024808Y030238D01*
X024804Y030215D01*
X024796Y030193D01*
X024784Y030173D01*
X024770Y030155D01*
X024752Y030139D01*
X024732Y030127D01*
X024710Y030118D01*
X024688Y030113D01*
X024664Y030112D01*
X024641Y030115D01*
X024619Y030122D01*
X024598Y030132D01*
X024579Y030146D01*
X024563Y030163D01*
X024550Y030183D01*
X024540Y030204D01*
X024534Y030227D01*
X024532Y030250D01*
D11*
X009820Y030110D02*
X009820Y029810D01*
X008040Y029810D02*
X008040Y030110D01*
X008040Y032370D02*
X008040Y032670D01*
X009820Y032670D02*
X009820Y032370D01*
X009924Y003172D02*
X009924Y001222D01*
X010924Y001222D02*
X010924Y003172D01*
X011924Y003172D02*
X011924Y001222D01*
X012924Y001222D02*
X012924Y003172D01*
X013924Y003172D02*
X013924Y001222D01*
X014924Y001222D02*
X014924Y003172D01*
X015924Y003172D02*
X015924Y001222D01*
X016924Y001222D02*
X016924Y003172D01*
X017924Y003172D02*
X017924Y001222D01*
X018924Y001222D02*
X018924Y003172D01*
X019924Y003172D02*
X019924Y001222D01*
X020924Y001222D02*
X020924Y003172D01*
X021924Y003172D02*
X021924Y001222D01*
X022924Y001222D02*
X022924Y003172D01*
X023924Y003172D02*
X023924Y001222D01*
X008924Y001222D02*
X008924Y003172D01*
X007924Y003172D02*
X007924Y001222D01*
X006924Y001222D02*
X006924Y003172D01*
X005924Y003172D02*
X005924Y001222D01*
X004924Y001222D02*
X004924Y003172D01*
X003924Y003172D02*
X003924Y001222D01*
X002924Y001222D02*
X002924Y003172D01*
D12*
X003540Y006250D02*
X003800Y006250D01*
X003800Y007250D02*
X003540Y007250D01*
X003540Y008250D02*
X003800Y008250D01*
X003800Y009250D02*
X003540Y009250D01*
X003540Y010250D02*
X003800Y010250D01*
X003800Y011250D02*
X003540Y011250D01*
X003540Y012250D02*
X003800Y012250D01*
X003800Y013250D02*
X003540Y013250D01*
X003540Y014250D02*
X003800Y014250D01*
X003800Y015250D02*
X003540Y015250D01*
X003540Y016250D02*
X003800Y016250D01*
X003800Y017250D02*
X003540Y017250D01*
X003540Y018250D02*
X003800Y018250D01*
X003800Y019250D02*
X003540Y019250D01*
X003540Y020250D02*
X003800Y020250D01*
X003800Y021250D02*
X003540Y021250D01*
X005920Y023620D02*
X005920Y023880D01*
X006920Y023880D02*
X006920Y023620D01*
X007920Y023620D02*
X007920Y023880D01*
X008920Y023880D02*
X008920Y023620D01*
X009920Y023620D02*
X009920Y023880D01*
X010920Y023880D02*
X010920Y023620D01*
X011920Y023620D02*
X011920Y023880D01*
X013920Y023880D02*
X013920Y023620D01*
X014920Y023620D02*
X014920Y023880D01*
X015920Y023880D02*
X015920Y023620D01*
X016920Y023620D02*
X016920Y023880D01*
X017920Y023880D02*
X017920Y023620D01*
X018920Y023620D02*
X018920Y023880D01*
X019920Y023880D02*
X019920Y023620D01*
X020920Y023620D02*
X020920Y023880D01*
X021920Y023880D02*
X021920Y023620D01*
X022920Y023620D02*
X022920Y023880D01*
X023040Y021250D02*
X023300Y021250D01*
X023300Y020250D02*
X023040Y020250D01*
X023040Y019250D02*
X023300Y019250D01*
X023300Y018250D02*
X023040Y018250D01*
X023040Y017250D02*
X023300Y017250D01*
X023300Y016250D02*
X023040Y016250D01*
X023040Y015250D02*
X023300Y015250D01*
X023300Y014250D02*
X023040Y014250D01*
X023040Y013250D02*
X023300Y013250D01*
X023300Y012250D02*
X023040Y012250D01*
X023040Y011250D02*
X023300Y011250D01*
X023300Y010250D02*
X023040Y010250D01*
X023040Y009250D02*
X023300Y009250D01*
X023300Y008250D02*
X023040Y008250D01*
X023040Y007250D02*
X023300Y007250D01*
X023300Y006250D02*
X023040Y006250D01*
X017300Y006250D02*
X017040Y006250D01*
X017040Y007250D02*
X017300Y007250D01*
X017300Y008250D02*
X017040Y008250D01*
X017040Y009250D02*
X017300Y009250D01*
X017300Y010250D02*
X017040Y010250D01*
X017040Y011250D02*
X017300Y011250D01*
X017300Y012250D02*
X017040Y012250D01*
X017040Y013250D02*
X017300Y013250D01*
X017300Y014250D02*
X017040Y014250D01*
X017040Y015250D02*
X017300Y015250D01*
X017300Y016250D02*
X017040Y016250D01*
X017040Y017250D02*
X017300Y017250D01*
X017300Y018250D02*
X017040Y018250D01*
X017040Y019250D02*
X017300Y019250D01*
X017300Y020250D02*
X017040Y020250D01*
X017040Y021250D02*
X017300Y021250D01*
X016920Y026620D02*
X016920Y026880D01*
X015920Y026880D02*
X015920Y026620D01*
X014920Y026620D02*
X014920Y026880D01*
X013920Y026880D02*
X013920Y026620D01*
X011920Y026620D02*
X011920Y026880D01*
X010920Y026880D02*
X010920Y026620D01*
X009920Y026620D02*
X009920Y026880D01*
X008920Y026880D02*
X008920Y026620D01*
X007920Y026620D02*
X007920Y026880D01*
X006920Y026880D02*
X006920Y026620D01*
X005920Y026620D02*
X005920Y026880D01*
X009540Y021250D02*
X009800Y021250D01*
X009800Y020250D02*
X009540Y020250D01*
X009540Y019250D02*
X009800Y019250D01*
X009800Y018250D02*
X009540Y018250D01*
X009540Y017250D02*
X009800Y017250D01*
X009800Y016250D02*
X009540Y016250D01*
X009540Y015250D02*
X009800Y015250D01*
X009800Y014250D02*
X009540Y014250D01*
X009540Y013250D02*
X009800Y013250D01*
X009800Y012250D02*
X009540Y012250D01*
X009540Y011250D02*
X009800Y011250D01*
X009800Y010250D02*
X009540Y010250D01*
X009540Y009250D02*
X009800Y009250D01*
X009800Y008250D02*
X009540Y008250D01*
X009540Y007250D02*
X009800Y007250D01*
X009800Y006250D02*
X009540Y006250D01*
X017920Y026620D02*
X017920Y026880D01*
X018920Y026880D02*
X018920Y026620D01*
X019920Y026620D02*
X019920Y026880D01*
X020920Y026880D02*
X020920Y026620D01*
X021920Y026620D02*
X021920Y026880D01*
X022920Y026880D02*
X022920Y026620D01*
D13*
X020920Y029000D03*
D14*
X023170Y022500D03*
X024170Y022500D03*
X004170Y024750D03*
X004170Y025750D03*
D15*
X024430Y021090D03*
X024430Y020740D03*
X024430Y020390D03*
X024430Y018590D03*
X024430Y018240D03*
X024430Y017890D03*
D16*
X023160Y022490D02*
X014930Y022490D01*
X014420Y023000D01*
X012920Y023000D01*
X011920Y022000D01*
X009680Y022000D01*
X009670Y021990D01*
X009670Y021250D01*
X009680Y022000D02*
X004920Y022000D01*
X004170Y023000D02*
X011170Y023000D01*
X011920Y023750D01*
X011920Y024250D01*
X012170Y024500D01*
X022670Y024500D01*
X022920Y024250D01*
X022920Y023750D01*
X023170Y022500D02*
X023160Y022490D01*
X020920Y006250D02*
X017170Y006250D01*
X016420Y006250D01*
X015670Y005500D01*
X008420Y005500D01*
X007670Y006250D01*
X003670Y006250D01*
X002920Y006250D01*
X002920Y022250D01*
X003670Y023000D01*
X004170Y023000D01*
X002920Y006250D02*
X002920Y004500D01*
X002924Y002197D01*
X003924Y002197D02*
X003924Y003746D01*
X003920Y003750D01*
X004924Y003750D01*
X004924Y005246D01*
X004920Y005250D01*
X004924Y003750D02*
X004924Y002197D01*
X020920Y006250D02*
X021670Y005500D01*
X023670Y005500D01*
X023920Y005250D01*
X023920Y004500D01*
X023920Y002201D01*
X023924Y002197D01*
D17*
X023920Y004500D03*
X004920Y005250D03*
X002920Y004500D03*
X004920Y022000D03*
D18*
X004395Y022522D02*
X001410Y022522D01*
X001410Y022680D02*
X004554Y022680D01*
X004613Y022740D02*
X004180Y022307D01*
X004180Y021693D01*
X004313Y021560D01*
X004197Y021560D01*
X004083Y021674D01*
X003899Y021750D01*
X003441Y021750D01*
X003257Y021674D01*
X003116Y021533D01*
X003040Y021349D01*
X003040Y021151D01*
X003116Y020967D01*
X003257Y020826D01*
X003441Y020750D01*
X003257Y020674D01*
X003116Y020533D01*
X003040Y020349D01*
X003040Y020151D01*
X003116Y019967D01*
X003257Y019826D01*
X003441Y019750D01*
X003257Y019674D01*
X003116Y019533D01*
X003040Y019349D01*
X003040Y019151D01*
X003116Y018967D01*
X003257Y018826D01*
X003441Y018750D01*
X003257Y018674D01*
X003116Y018533D01*
X003040Y018349D01*
X003040Y018151D01*
X003116Y017967D01*
X003257Y017826D01*
X003441Y017750D01*
X003257Y017674D01*
X003116Y017533D01*
X003040Y017349D01*
X003040Y017151D01*
X003116Y016967D01*
X003257Y016826D01*
X003441Y016750D01*
X003257Y016674D01*
X003116Y016533D01*
X003040Y016349D01*
X003040Y016151D01*
X003116Y015967D01*
X003257Y015826D01*
X003441Y015750D01*
X003257Y015674D01*
X003116Y015533D01*
X003040Y015349D01*
X003040Y015151D01*
X003116Y014967D01*
X003257Y014826D01*
X003441Y014750D01*
X003257Y014674D01*
X003116Y014533D01*
X003040Y014349D01*
X003040Y014151D01*
X003116Y013967D01*
X003257Y013826D01*
X003441Y013750D01*
X003257Y013674D01*
X003116Y013533D01*
X003040Y013349D01*
X003040Y013151D01*
X003116Y012967D01*
X003257Y012826D01*
X003441Y012750D01*
X003257Y012674D01*
X003116Y012533D01*
X003040Y012349D01*
X003040Y012151D01*
X003116Y011967D01*
X003257Y011826D01*
X003441Y011750D01*
X003257Y011674D01*
X003116Y011533D01*
X003040Y011349D01*
X003040Y011151D01*
X003116Y010967D01*
X003257Y010826D01*
X003441Y010750D01*
X003257Y010674D01*
X003116Y010533D01*
X003040Y010349D01*
X003040Y010151D01*
X003116Y009967D01*
X003257Y009826D01*
X003441Y009750D01*
X003257Y009674D01*
X003116Y009533D01*
X003040Y009349D01*
X003040Y009151D01*
X003116Y008967D01*
X003257Y008826D01*
X003441Y008750D01*
X003257Y008674D01*
X003116Y008533D01*
X003040Y008349D01*
X003040Y008151D01*
X003116Y007967D01*
X003257Y007826D01*
X003441Y007750D01*
X003257Y007674D01*
X003116Y007533D01*
X003040Y007349D01*
X003040Y007151D01*
X003116Y006967D01*
X003257Y006826D01*
X003441Y006750D01*
X003899Y006750D01*
X004083Y006826D01*
X004187Y006930D01*
X007537Y006930D01*
X007899Y006569D01*
X007989Y006479D01*
X008106Y006430D01*
X009073Y006430D01*
X009040Y006349D01*
X009040Y006151D01*
X009116Y005967D01*
X009257Y005826D01*
X009441Y005750D01*
X009899Y005750D01*
X010083Y005826D01*
X010187Y005930D01*
X015734Y005930D01*
X015851Y005979D01*
X016303Y006430D01*
X016638Y006430D01*
X016632Y006419D01*
X016611Y006353D01*
X016600Y006285D01*
X016600Y006250D01*
X017170Y006250D01*
X017740Y006250D01*
X017740Y006285D01*
X017729Y006353D01*
X017708Y006419D01*
X017702Y006430D01*
X020149Y006430D01*
X020247Y006332D01*
X020593Y006332D01*
X020691Y006430D01*
X021037Y006430D01*
X021399Y006069D01*
X021489Y005979D01*
X021606Y005930D01*
X022653Y005930D01*
X022757Y005826D01*
X022941Y005750D01*
X023399Y005750D01*
X023583Y005826D01*
X023724Y005967D01*
X023800Y006151D01*
X023800Y006349D01*
X023724Y006533D01*
X023583Y006674D01*
X023399Y006750D01*
X023583Y006826D01*
X023724Y006967D01*
X023800Y007151D01*
X023800Y007349D01*
X023724Y007533D01*
X023583Y007674D01*
X023399Y007750D01*
X023583Y007826D01*
X023724Y007967D01*
X023800Y008151D01*
X023800Y008349D01*
X023724Y008533D01*
X023583Y008674D01*
X023399Y008750D01*
X023583Y008826D01*
X023724Y008967D01*
X023800Y009151D01*
X023800Y009349D01*
X023724Y009533D01*
X023583Y009674D01*
X023399Y009750D01*
X023583Y009826D01*
X023724Y009967D01*
X023800Y010151D01*
X023800Y010349D01*
X023724Y010533D01*
X023583Y010674D01*
X023399Y010750D01*
X023583Y010826D01*
X023724Y010967D01*
X023800Y011151D01*
X023800Y011349D01*
X023724Y011533D01*
X023583Y011674D01*
X023399Y011750D01*
X023583Y011826D01*
X023724Y011967D01*
X023800Y012151D01*
X023800Y012349D01*
X023724Y012533D01*
X023583Y012674D01*
X023399Y012750D01*
X023583Y012826D01*
X023724Y012967D01*
X023800Y013151D01*
X023800Y013349D01*
X023724Y013533D01*
X023583Y013674D01*
X023399Y013750D01*
X023583Y013826D01*
X023724Y013967D01*
X023800Y014151D01*
X023800Y014349D01*
X023724Y014533D01*
X023583Y014674D01*
X023399Y014750D01*
X023583Y014826D01*
X023724Y014967D01*
X023800Y015151D01*
X023800Y015349D01*
X023724Y015533D01*
X023583Y015674D01*
X023399Y015750D01*
X023583Y015826D01*
X023724Y015967D01*
X023800Y016151D01*
X023800Y016349D01*
X023724Y016533D01*
X023583Y016674D01*
X023399Y016750D01*
X023583Y016826D01*
X023724Y016967D01*
X023800Y017151D01*
X023800Y017349D01*
X023724Y017533D01*
X023583Y017674D01*
X023399Y017750D01*
X023583Y017826D01*
X023668Y017911D01*
X023757Y017822D01*
X023940Y017822D01*
X023940Y017717D01*
X023977Y017629D01*
X024044Y017562D01*
X024132Y017525D01*
X024728Y017525D01*
X024816Y017562D01*
X024824Y017570D01*
X024894Y017570D01*
X025011Y017619D01*
X025201Y017809D01*
X025250Y017926D01*
X025250Y021054D01*
X025201Y021171D01*
X025111Y021261D01*
X025011Y021361D01*
X024894Y021410D01*
X024824Y021410D01*
X024816Y021418D01*
X024728Y021455D01*
X024518Y021455D01*
X024451Y021521D01*
X024334Y021570D01*
X023687Y021570D01*
X023583Y021674D01*
X023399Y021750D01*
X022941Y021750D01*
X022757Y021674D01*
X022616Y021533D01*
X022540Y021349D01*
X022540Y021333D01*
X022351Y021521D01*
X022234Y021570D01*
X022106Y021570D01*
X017687Y021570D01*
X017583Y021674D01*
X017399Y021750D01*
X016941Y021750D01*
X016757Y021674D01*
X016653Y021570D01*
X015553Y021570D01*
X015073Y022050D01*
X022913Y022050D01*
X022963Y022000D01*
X023377Y022000D01*
X023670Y022293D01*
X023670Y022707D01*
X023377Y023000D01*
X022963Y023000D01*
X022893Y022930D01*
X015112Y022930D01*
X014922Y023120D01*
X015019Y023120D01*
X015203Y023196D01*
X015344Y023337D01*
X015420Y023521D01*
X015496Y023337D01*
X015637Y023196D01*
X015821Y023120D01*
X016019Y023120D01*
X016203Y023196D01*
X016344Y023337D01*
X016420Y023521D01*
X016496Y023337D01*
X016637Y023196D01*
X016821Y023120D01*
X017019Y023120D01*
X017203Y023196D01*
X017344Y023337D01*
X017420Y023521D01*
X017496Y023337D01*
X017637Y023196D01*
X017821Y023120D01*
X018019Y023120D01*
X018203Y023196D01*
X018344Y023337D01*
X018420Y023521D01*
X018420Y023979D01*
X018344Y024163D01*
X018203Y024304D01*
X018019Y024380D01*
X017821Y024380D01*
X017637Y024304D01*
X017496Y024163D01*
X017420Y023979D01*
X017420Y023521D01*
X017420Y023979D01*
X017344Y024163D01*
X017203Y024304D01*
X017019Y024380D01*
X016821Y024380D01*
X016637Y024304D01*
X016496Y024163D01*
X016420Y023979D01*
X016420Y023521D01*
X016420Y023979D01*
X016344Y024163D01*
X016203Y024304D01*
X016019Y024380D01*
X015821Y024380D01*
X015637Y024304D01*
X015496Y024163D01*
X015420Y023979D01*
X015420Y023521D01*
X015420Y023979D01*
X015344Y024163D01*
X015203Y024304D01*
X015019Y024380D01*
X014821Y024380D01*
X014637Y024304D01*
X014496Y024163D01*
X014420Y023979D01*
X014344Y024163D01*
X014203Y024304D01*
X014019Y024380D01*
X013821Y024380D01*
X013637Y024304D01*
X013496Y024163D01*
X013453Y024060D01*
X012866Y024060D01*
X012749Y024011D01*
X012659Y023921D01*
X012360Y023623D01*
X012360Y023750D01*
X012360Y023915D01*
X012349Y023983D01*
X012328Y024049D01*
X012296Y024111D01*
X012256Y024167D01*
X012207Y024216D01*
X012151Y024256D01*
X012089Y024288D01*
X012023Y024309D01*
X011955Y024320D01*
X011920Y024320D01*
X011920Y023750D01*
X011920Y023750D01*
X012360Y023750D01*
X011920Y023750D01*
X011920Y023750D01*
X011920Y023750D01*
X011480Y023750D01*
X011480Y023915D01*
X011491Y023983D01*
X011512Y024049D01*
X011544Y024111D01*
X011584Y024167D01*
X011633Y024216D01*
X011689Y024256D01*
X011751Y024288D01*
X011817Y024309D01*
X011885Y024320D01*
X011920Y024320D01*
X011920Y023750D01*
X011920Y023183D01*
X011920Y023183D01*
X011920Y023750D01*
X011920Y023750D01*
X011480Y023750D01*
X011480Y023585D01*
X011491Y023517D01*
X011512Y023451D01*
X011544Y023389D01*
X011584Y023333D01*
X011633Y023284D01*
X011689Y023244D01*
X011751Y023212D01*
X011817Y023191D01*
X011885Y023180D01*
X011917Y023180D01*
X011557Y022820D01*
X006441Y022820D01*
X006343Y022918D01*
X005997Y022918D01*
X005752Y022673D01*
X005752Y022440D01*
X005527Y022440D01*
X005227Y022740D01*
X004613Y022740D01*
X004170Y023000D02*
X004170Y024750D01*
X004170Y024750D01*
X004170Y025190D01*
X004352Y025190D01*
X004610Y024932D01*
X004610Y024750D01*
X004170Y024750D01*
X004170Y024750D01*
X004170Y024750D01*
X003730Y024750D01*
X003730Y024932D01*
X003988Y025190D01*
X004170Y025190D01*
X004170Y024750D01*
X004610Y024750D01*
X004610Y024568D01*
X004352Y024310D01*
X004170Y024310D01*
X004170Y024750D01*
X004170Y024750D01*
X003730Y024750D01*
X003730Y024568D01*
X003988Y024310D01*
X004170Y024310D01*
X004170Y024750D01*
X004170Y024741D02*
X004170Y024741D01*
X004170Y024899D02*
X004170Y024899D01*
X004170Y025058D02*
X004170Y025058D01*
X003963Y025250D02*
X004377Y025250D01*
X004670Y025543D01*
X004670Y025957D01*
X004377Y026250D01*
X003963Y026250D01*
X003670Y025957D01*
X003670Y025543D01*
X003963Y025250D01*
X003838Y025375D02*
X001410Y025375D01*
X001410Y025533D02*
X003680Y025533D01*
X003670Y025692D02*
X001410Y025692D01*
X001410Y025850D02*
X003670Y025850D01*
X003721Y026009D02*
X001410Y026009D01*
X001410Y026167D02*
X003880Y026167D01*
X004460Y026167D02*
X005707Y026167D01*
X005637Y026196D02*
X005821Y026120D01*
X006019Y026120D01*
X006203Y026196D01*
X006344Y026337D01*
X006420Y026521D01*
X006496Y026337D01*
X006637Y026196D01*
X006821Y026120D01*
X007019Y026120D01*
X007203Y026196D01*
X007344Y026337D01*
X007420Y026521D01*
X007420Y026979D01*
X007344Y027163D01*
X007203Y027304D01*
X007019Y027380D01*
X006821Y027380D01*
X006637Y027304D01*
X006496Y027163D01*
X006420Y026979D01*
X006420Y026521D01*
X006420Y026979D01*
X006344Y027163D01*
X006203Y027304D01*
X006019Y027380D01*
X005821Y027380D01*
X005637Y027304D01*
X005496Y027163D01*
X005420Y026979D01*
X005420Y026521D01*
X005496Y026337D01*
X005637Y026196D01*
X005507Y026326D02*
X001410Y026326D01*
X001410Y026484D02*
X005435Y026484D01*
X005420Y026643D02*
X001410Y026643D01*
X001410Y026801D02*
X005420Y026801D01*
X005420Y026960D02*
X001410Y026960D01*
X001410Y027118D02*
X005477Y027118D01*
X005609Y027277D02*
X001410Y027277D01*
X001410Y027435D02*
X020644Y027435D01*
X020734Y027344D02*
X020637Y027304D01*
X020496Y027163D01*
X020420Y026979D01*
X020344Y027163D01*
X020203Y027304D01*
X020019Y027380D01*
X019821Y027380D01*
X019637Y027304D01*
X019496Y027163D01*
X019420Y026979D01*
X019420Y026521D01*
X019496Y026337D01*
X019637Y026196D01*
X019821Y026120D01*
X020019Y026120D01*
X020203Y026196D01*
X020344Y026337D01*
X020420Y026521D01*
X020420Y026979D01*
X020420Y026521D01*
X020496Y026337D01*
X020637Y026196D01*
X020821Y026120D01*
X021019Y026120D01*
X021203Y026196D01*
X021344Y026337D01*
X021420Y026521D01*
X021496Y026337D01*
X021637Y026196D01*
X021821Y026120D01*
X022019Y026120D01*
X022203Y026196D01*
X022344Y026337D01*
X022420Y026521D01*
X022420Y026979D01*
X022344Y027163D01*
X022203Y027304D01*
X022019Y027380D01*
X021821Y027380D01*
X021637Y027304D01*
X021496Y027163D01*
X021420Y026979D01*
X021420Y026521D01*
X021420Y026979D01*
X021344Y027163D01*
X021203Y027304D01*
X021106Y027344D01*
X021338Y027577D01*
X021338Y027760D01*
X021468Y027760D01*
X021556Y027797D01*
X021623Y027864D01*
X021660Y027952D01*
X021660Y029872D01*
X021745Y029872D01*
X021884Y029930D01*
X021920Y029966D01*
X021956Y029930D01*
X022095Y029872D01*
X022245Y029872D01*
X022384Y029930D01*
X022420Y029966D01*
X022456Y029930D01*
X022595Y029872D01*
X022745Y029872D01*
X022884Y029930D01*
X022920Y029966D01*
X022956Y029930D01*
X023095Y029872D01*
X023245Y029872D01*
X023384Y029930D01*
X023420Y029966D01*
X023456Y029930D01*
X023595Y029872D01*
X023745Y029872D01*
X023884Y029930D01*
X023920Y029966D01*
X023956Y029930D01*
X024095Y029872D01*
X024245Y029872D01*
X024384Y029930D01*
X024420Y029966D01*
X024456Y029930D01*
X024595Y029872D01*
X024597Y029872D01*
X024597Y027814D01*
X024634Y027726D01*
X024701Y027659D01*
X024790Y027622D01*
X025430Y027622D01*
X025430Y010386D01*
X024665Y010386D01*
X024576Y010349D01*
X024509Y010282D01*
X024472Y010193D01*
X024472Y004240D01*
X023133Y004240D01*
X022338Y005034D01*
X022338Y005173D01*
X022093Y005418D01*
X021747Y005418D01*
X021502Y005173D01*
X021502Y005121D01*
X021317Y005306D01*
X021338Y005327D01*
X021338Y005673D01*
X021093Y005918D01*
X020747Y005918D01*
X020502Y005673D01*
X020502Y005621D01*
X020338Y005784D01*
X020338Y005923D01*
X020093Y006168D01*
X019747Y006168D01*
X019502Y005923D01*
X019502Y005577D01*
X019747Y005332D01*
X019886Y005332D01*
X019898Y005319D01*
X019752Y005173D01*
X019752Y005034D01*
X019653Y004935D01*
X019604Y004818D01*
X019604Y004240D01*
X019133Y004240D01*
X017941Y005431D01*
X017851Y005521D01*
X017734Y005570D01*
X017441Y005570D01*
X017343Y005668D01*
X016997Y005668D01*
X016795Y005466D01*
X016593Y005668D01*
X016247Y005668D01*
X016002Y005423D01*
X016002Y005077D01*
X016100Y004979D01*
X016100Y004436D01*
X016149Y004319D01*
X016227Y004240D01*
X016133Y004240D01*
X015191Y005181D01*
X015191Y005181D01*
X015101Y005271D01*
X014984Y005320D01*
X009191Y005320D01*
X009093Y005418D01*
X008747Y005418D01*
X008670Y005341D01*
X008593Y005418D01*
X008247Y005418D01*
X008170Y005341D01*
X008093Y005418D01*
X007747Y005418D01*
X007670Y005341D01*
X007593Y005418D01*
X007247Y005418D01*
X007002Y005173D01*
X007002Y004827D01*
X007247Y004582D01*
X007386Y004582D01*
X007727Y004240D01*
X005364Y004240D01*
X005364Y004647D01*
X005660Y004943D01*
X005660Y005557D01*
X005227Y005990D01*
X004613Y005990D01*
X004180Y005557D01*
X004180Y004943D01*
X004484Y004640D01*
X004484Y004240D01*
X002368Y004240D01*
X002368Y010193D01*
X002331Y010282D01*
X002264Y010349D01*
X002175Y010386D01*
X001410Y010386D01*
X001410Y027622D01*
X002050Y027622D01*
X002139Y027659D01*
X002206Y027726D01*
X002243Y027814D01*
X002243Y033331D01*
X017295Y033331D01*
X017292Y033325D01*
X017292Y033175D01*
X017350Y033036D01*
X017386Y033000D01*
X017350Y032964D01*
X017292Y032825D01*
X017292Y032675D01*
X017350Y032536D01*
X017386Y032500D01*
X017350Y032464D01*
X017292Y032325D01*
X017292Y032175D01*
X017350Y032036D01*
X017386Y032000D01*
X017350Y031964D01*
X017292Y031825D01*
X017292Y031675D01*
X017350Y031536D01*
X017386Y031500D01*
X017350Y031464D01*
X017292Y031325D01*
X017292Y031175D01*
X017350Y031036D01*
X017386Y031000D01*
X017350Y030964D01*
X017292Y030825D01*
X017292Y030675D01*
X017350Y030536D01*
X017386Y030500D01*
X017350Y030464D01*
X017292Y030325D01*
X017292Y030175D01*
X017350Y030036D01*
X017456Y029930D01*
X017595Y029872D01*
X017745Y029872D01*
X017884Y029930D01*
X017920Y029966D01*
X017956Y029930D01*
X018095Y029872D01*
X018245Y029872D01*
X018384Y029930D01*
X018420Y029966D01*
X018456Y029930D01*
X018595Y029872D01*
X018745Y029872D01*
X018884Y029930D01*
X018920Y029966D01*
X018956Y029930D01*
X019095Y029872D01*
X019245Y029872D01*
X019384Y029930D01*
X019420Y029966D01*
X019456Y029930D01*
X019595Y029872D01*
X019745Y029872D01*
X019884Y029930D01*
X019920Y029966D01*
X019956Y029930D01*
X020095Y029872D01*
X020180Y029872D01*
X020180Y027952D01*
X020217Y027864D01*
X020284Y027797D01*
X020372Y027760D01*
X020502Y027760D01*
X020502Y027577D01*
X020734Y027344D01*
X020609Y027277D02*
X020231Y027277D01*
X020363Y027118D02*
X020477Y027118D01*
X020420Y026960D02*
X020420Y026960D01*
X020420Y026801D02*
X020420Y026801D01*
X020420Y026643D02*
X020420Y026643D01*
X020405Y026484D02*
X020435Y026484D01*
X020507Y026326D02*
X020333Y026326D01*
X020133Y026167D02*
X020707Y026167D01*
X021133Y026167D02*
X021707Y026167D01*
X021507Y026326D02*
X021333Y026326D01*
X021405Y026484D02*
X021435Y026484D01*
X021420Y026643D02*
X021420Y026643D01*
X021420Y026801D02*
X021420Y026801D01*
X021420Y026960D02*
X021420Y026960D01*
X021363Y027118D02*
X021477Y027118D01*
X021609Y027277D02*
X021231Y027277D01*
X021196Y027435D02*
X025430Y027435D01*
X025430Y027277D02*
X023231Y027277D01*
X023203Y027304D02*
X023019Y027380D01*
X022821Y027380D01*
X022637Y027304D01*
X022496Y027163D01*
X022420Y026979D01*
X022420Y026521D01*
X022496Y026337D01*
X022600Y026233D01*
X022600Y025883D01*
X022037Y025320D01*
X017443Y025320D01*
X018191Y026069D01*
X018240Y026186D01*
X018240Y026233D01*
X018344Y026337D01*
X018420Y026521D01*
X018496Y026337D01*
X018637Y026196D01*
X018821Y026120D01*
X019019Y026120D01*
X019203Y026196D01*
X019344Y026337D01*
X019420Y026521D01*
X019420Y026979D01*
X019344Y027163D01*
X019203Y027304D01*
X019019Y027380D01*
X018821Y027380D01*
X018637Y027304D01*
X018496Y027163D01*
X018420Y026979D01*
X018420Y026521D01*
X018420Y026979D01*
X018344Y027163D01*
X018203Y027304D01*
X018019Y027380D01*
X017821Y027380D01*
X017637Y027304D01*
X017496Y027163D01*
X017420Y026979D01*
X017420Y026521D01*
X017496Y026337D01*
X017525Y026308D01*
X017037Y025820D01*
X014943Y025820D01*
X015191Y026069D01*
X015240Y026186D01*
X015240Y026233D01*
X015344Y026337D01*
X015420Y026521D01*
X015420Y026979D01*
X015344Y027163D01*
X015203Y027304D01*
X015019Y027380D01*
X014821Y027380D01*
X014637Y027304D01*
X014496Y027163D01*
X014420Y026979D01*
X014344Y027163D01*
X014203Y027304D01*
X014019Y027380D01*
X013821Y027380D01*
X013637Y027304D01*
X013496Y027163D01*
X013420Y026979D01*
X013420Y026521D01*
X013496Y026337D01*
X013513Y026320D01*
X012327Y026320D01*
X012344Y026337D01*
X012420Y026521D01*
X012420Y026979D01*
X012344Y027163D01*
X012203Y027304D01*
X012019Y027380D01*
X011821Y027380D01*
X011637Y027304D01*
X011496Y027163D01*
X011458Y027070D01*
X011382Y027070D01*
X011344Y027163D01*
X011203Y027304D01*
X011019Y027380D01*
X010821Y027380D01*
X010637Y027304D01*
X010496Y027163D01*
X010420Y026979D01*
X010344Y027163D01*
X010203Y027304D01*
X010019Y027380D01*
X009821Y027380D01*
X009637Y027304D01*
X009496Y027163D01*
X009420Y026979D01*
X009344Y027163D01*
X009203Y027304D01*
X009019Y027380D01*
X008821Y027380D01*
X008637Y027304D01*
X008496Y027163D01*
X008420Y026979D01*
X008344Y027163D01*
X008203Y027304D01*
X008019Y027380D01*
X007821Y027380D01*
X007637Y027304D01*
X007496Y027163D01*
X007420Y026979D01*
X007420Y026521D01*
X007496Y026337D01*
X007637Y026196D01*
X007821Y026120D01*
X008002Y026120D01*
X008002Y025827D01*
X008079Y025750D01*
X008002Y025673D01*
X008002Y025327D01*
X008009Y025320D01*
X006356Y025320D01*
X006239Y025271D01*
X005739Y024771D01*
X005649Y024681D01*
X005600Y024564D01*
X005600Y024267D01*
X005496Y024163D01*
X005420Y023979D01*
X005420Y023521D01*
X005496Y023337D01*
X005637Y023196D01*
X005821Y023120D01*
X006019Y023120D01*
X006203Y023196D01*
X006344Y023337D01*
X006420Y023521D01*
X006496Y023337D01*
X006637Y023196D01*
X006821Y023120D01*
X007019Y023120D01*
X007203Y023196D01*
X007344Y023337D01*
X007420Y023521D01*
X007496Y023337D01*
X007637Y023196D01*
X007821Y023120D01*
X008019Y023120D01*
X008203Y023196D01*
X008344Y023337D01*
X008420Y023521D01*
X008496Y023337D01*
X008637Y023196D01*
X008821Y023120D01*
X009019Y023120D01*
X009203Y023196D01*
X009344Y023337D01*
X009420Y023521D01*
X009496Y023337D01*
X009637Y023196D01*
X009821Y023120D01*
X010019Y023120D01*
X010203Y023196D01*
X010344Y023337D01*
X010382Y023430D01*
X010458Y023430D01*
X010496Y023337D01*
X010637Y023196D01*
X010821Y023120D01*
X011019Y023120D01*
X011203Y023196D01*
X011344Y023337D01*
X011420Y023521D01*
X011420Y023979D01*
X011344Y024163D01*
X011203Y024304D01*
X011019Y024380D01*
X010821Y024380D01*
X010637Y024304D01*
X010496Y024163D01*
X010458Y024070D01*
X010382Y024070D01*
X010344Y024163D01*
X010240Y024267D01*
X010240Y024314D01*
X010191Y024431D01*
X010101Y024521D01*
X009943Y024680D01*
X022234Y024680D01*
X022351Y024729D01*
X022441Y024819D01*
X023191Y025569D01*
X023240Y025686D01*
X023240Y026233D01*
X023344Y026337D01*
X023420Y026521D01*
X023420Y026979D01*
X023344Y027163D01*
X023203Y027304D01*
X023363Y027118D02*
X025430Y027118D01*
X025430Y026960D02*
X023420Y026960D01*
X023420Y026801D02*
X025430Y026801D01*
X025430Y026643D02*
X023420Y026643D01*
X023405Y026484D02*
X025430Y026484D01*
X025430Y026326D02*
X023333Y026326D01*
X023240Y026167D02*
X025430Y026167D01*
X025430Y026009D02*
X023240Y026009D01*
X023240Y025850D02*
X025430Y025850D01*
X025430Y025692D02*
X023240Y025692D01*
X023156Y025533D02*
X025430Y025533D01*
X025430Y025375D02*
X022997Y025375D01*
X022839Y025216D02*
X025430Y025216D01*
X025430Y025058D02*
X022680Y025058D01*
X022522Y024899D02*
X025430Y024899D01*
X025430Y024741D02*
X022363Y024741D01*
X022170Y025000D02*
X006420Y025000D01*
X005920Y024500D01*
X005920Y023750D01*
X005473Y024107D02*
X001410Y024107D01*
X001410Y024265D02*
X005598Y024265D01*
X005600Y024424D02*
X004466Y024424D01*
X004610Y024582D02*
X005608Y024582D01*
X005708Y024741D02*
X004610Y024741D01*
X004610Y024899D02*
X005866Y024899D01*
X006025Y025058D02*
X004485Y025058D01*
X004502Y025375D02*
X008002Y025375D01*
X008002Y025533D02*
X004660Y025533D01*
X004670Y025692D02*
X008020Y025692D01*
X008002Y025850D02*
X004670Y025850D01*
X004619Y026009D02*
X008002Y026009D01*
X007707Y026167D02*
X007133Y026167D01*
X007333Y026326D02*
X007507Y026326D01*
X007435Y026484D02*
X007405Y026484D01*
X007420Y026643D02*
X007420Y026643D01*
X007420Y026801D02*
X007420Y026801D01*
X007420Y026960D02*
X007420Y026960D01*
X007363Y027118D02*
X007477Y027118D01*
X007609Y027277D02*
X007231Y027277D01*
X006609Y027277D02*
X006231Y027277D01*
X006363Y027118D02*
X006477Y027118D01*
X006420Y026960D02*
X006420Y026960D01*
X006420Y026801D02*
X006420Y026801D01*
X006420Y026643D02*
X006420Y026643D01*
X006405Y026484D02*
X006435Y026484D01*
X006507Y026326D02*
X006333Y026326D01*
X006133Y026167D02*
X006707Y026167D01*
X006183Y025216D02*
X001410Y025216D01*
X001410Y025058D02*
X003855Y025058D01*
X003730Y024899D02*
X001410Y024899D01*
X001410Y024741D02*
X003730Y024741D01*
X003730Y024582D02*
X001410Y024582D01*
X001410Y024424D02*
X003874Y024424D01*
X004170Y024424D02*
X004170Y024424D01*
X004170Y024582D02*
X004170Y024582D01*
X005420Y023948D02*
X001410Y023948D01*
X001410Y023790D02*
X005420Y023790D01*
X005420Y023631D02*
X001410Y023631D01*
X001410Y023473D02*
X005440Y023473D01*
X005519Y023314D02*
X001410Y023314D01*
X001410Y023156D02*
X005735Y023156D01*
X005917Y022839D02*
X001410Y022839D01*
X001410Y022997D02*
X011734Y022997D01*
X011576Y022839D02*
X006423Y022839D01*
X006170Y022500D02*
X011690Y022500D01*
X012930Y023740D01*
X013910Y023740D01*
X013920Y023750D01*
X013473Y024107D02*
X012298Y024107D01*
X012355Y023948D02*
X012685Y023948D01*
X012527Y023790D02*
X012360Y023790D01*
X012360Y023631D02*
X012368Y023631D01*
X011920Y023631D02*
X011920Y023631D01*
X011920Y023473D02*
X011920Y023473D01*
X011920Y023314D02*
X011920Y023314D01*
X011893Y023156D02*
X011105Y023156D01*
X011321Y023314D02*
X011604Y023314D01*
X011505Y023473D02*
X011400Y023473D01*
X011420Y023631D02*
X011480Y023631D01*
X011480Y023790D02*
X011420Y023790D01*
X011420Y023948D02*
X011485Y023948D01*
X011542Y024107D02*
X011367Y024107D01*
X011242Y024265D02*
X011706Y024265D01*
X011920Y024265D02*
X011920Y024265D01*
X011920Y024107D02*
X011920Y024107D01*
X011920Y023948D02*
X011920Y023948D01*
X011920Y023790D02*
X011920Y023790D01*
X012134Y024265D02*
X013598Y024265D01*
X014242Y024265D02*
X014598Y024265D01*
X014473Y024107D02*
X014367Y024107D01*
X014420Y023979D02*
X014420Y023521D01*
X014387Y023440D01*
X014453Y023440D01*
X014420Y023521D01*
X014420Y023979D01*
X014420Y023948D02*
X014420Y023948D01*
X014420Y023790D02*
X014420Y023790D01*
X014420Y023631D02*
X014420Y023631D01*
X014400Y023473D02*
X014440Y023473D01*
X015045Y022997D02*
X022960Y022997D01*
X022955Y023180D02*
X023023Y023191D01*
X023089Y023212D01*
X023151Y023244D01*
X023207Y023284D01*
X023256Y023333D01*
X023296Y023389D01*
X023328Y023451D01*
X023349Y023517D01*
X023360Y023585D01*
X023360Y023750D01*
X023360Y023915D01*
X023349Y023983D01*
X023328Y024049D01*
X023296Y024111D01*
X023256Y024167D01*
X023207Y024216D01*
X023151Y024256D01*
X023089Y024288D01*
X023023Y024309D01*
X022955Y024320D01*
X022920Y024320D01*
X022920Y023750D01*
X023360Y023750D01*
X022920Y023750D01*
X022920Y023750D01*
X022920Y023750D01*
X022920Y023180D01*
X022955Y023180D01*
X022920Y023180D02*
X022920Y023750D01*
X022920Y023750D01*
X022920Y023750D01*
X022480Y023750D01*
X022480Y023915D01*
X022491Y023983D01*
X022512Y024049D01*
X022544Y024111D01*
X022584Y024167D01*
X022633Y024216D01*
X022689Y024256D01*
X022751Y024288D01*
X022817Y024309D01*
X022885Y024320D01*
X022920Y024320D01*
X022920Y023750D01*
X022480Y023750D01*
X022480Y023585D01*
X022491Y023517D01*
X022512Y023451D01*
X022544Y023389D01*
X022584Y023333D01*
X022633Y023284D01*
X022689Y023244D01*
X022751Y023212D01*
X022817Y023191D01*
X022885Y023180D01*
X022920Y023180D01*
X022920Y023314D02*
X022920Y023314D01*
X022920Y023473D02*
X022920Y023473D01*
X022920Y023631D02*
X022920Y023631D01*
X022920Y023790D02*
X022920Y023790D01*
X022920Y023948D02*
X022920Y023948D01*
X022920Y024107D02*
X022920Y024107D01*
X022920Y024265D02*
X022920Y024265D01*
X022706Y024265D02*
X022242Y024265D01*
X022203Y024304D02*
X022019Y024380D01*
X021821Y024380D01*
X021637Y024304D01*
X021496Y024163D01*
X021420Y023979D01*
X021420Y023521D01*
X021496Y023337D01*
X021637Y023196D01*
X021821Y023120D01*
X022019Y023120D01*
X022203Y023196D01*
X022344Y023337D01*
X022420Y023521D01*
X022420Y023979D01*
X022344Y024163D01*
X022203Y024304D01*
X022367Y024107D02*
X022542Y024107D01*
X022485Y023948D02*
X022420Y023948D01*
X022420Y023790D02*
X022480Y023790D01*
X022480Y023631D02*
X022420Y023631D01*
X022400Y023473D02*
X022505Y023473D01*
X022604Y023314D02*
X022321Y023314D01*
X022105Y023156D02*
X025430Y023156D01*
X025430Y023314D02*
X023236Y023314D01*
X023335Y023473D02*
X025430Y023473D01*
X025430Y023631D02*
X023360Y023631D01*
X023360Y023790D02*
X025430Y023790D01*
X025430Y023948D02*
X023355Y023948D01*
X023298Y024107D02*
X025430Y024107D01*
X025430Y024265D02*
X023134Y024265D01*
X022170Y025000D02*
X022920Y025750D01*
X022920Y026750D01*
X022477Y027118D02*
X022363Y027118D01*
X022420Y026960D02*
X022420Y026960D01*
X022420Y026801D02*
X022420Y026801D01*
X022420Y026643D02*
X022420Y026643D01*
X022405Y026484D02*
X022435Y026484D01*
X022507Y026326D02*
X022333Y026326D01*
X022133Y026167D02*
X022600Y026167D01*
X022600Y026009D02*
X018131Y026009D01*
X018232Y026167D02*
X018707Y026167D01*
X018507Y026326D02*
X018333Y026326D01*
X018405Y026484D02*
X018435Y026484D01*
X018420Y026643D02*
X018420Y026643D01*
X018420Y026801D02*
X018420Y026801D01*
X018420Y026960D02*
X018420Y026960D01*
X018363Y027118D02*
X018477Y027118D01*
X018609Y027277D02*
X018231Y027277D01*
X017920Y026750D02*
X017920Y026250D01*
X017170Y025500D01*
X011920Y025500D01*
X012333Y026326D02*
X013507Y026326D01*
X013435Y026484D02*
X012405Y026484D01*
X012420Y026643D02*
X013420Y026643D01*
X013420Y026801D02*
X012420Y026801D01*
X012420Y026960D02*
X013420Y026960D01*
X013477Y027118D02*
X012363Y027118D01*
X012231Y027277D02*
X013609Y027277D01*
X014231Y027277D02*
X014609Y027277D01*
X014477Y027118D02*
X014363Y027118D01*
X014420Y026979D02*
X014420Y026521D01*
X014344Y026337D01*
X014327Y026320D01*
X014513Y026320D01*
X014496Y026337D01*
X014420Y026521D01*
X014420Y026979D01*
X014420Y026960D02*
X014420Y026960D01*
X014420Y026801D02*
X014420Y026801D01*
X014420Y026643D02*
X014420Y026643D01*
X014405Y026484D02*
X014435Y026484D01*
X014507Y026326D02*
X014333Y026326D01*
X014670Y026000D02*
X008420Y026000D01*
X008378Y026418D02*
X008420Y026521D01*
X008420Y026979D01*
X008420Y026521D01*
X008462Y026418D01*
X008378Y026418D01*
X008405Y026484D02*
X008435Y026484D01*
X008420Y026643D02*
X008420Y026643D01*
X008420Y026801D02*
X008420Y026801D01*
X008420Y026960D02*
X008420Y026960D01*
X008363Y027118D02*
X008477Y027118D01*
X008609Y027277D02*
X008231Y027277D01*
X009231Y027277D02*
X009609Y027277D01*
X009477Y027118D02*
X009363Y027118D01*
X009420Y026979D02*
X009420Y026521D01*
X009344Y026337D01*
X009327Y026320D01*
X009513Y026320D01*
X009496Y026337D01*
X009420Y026521D01*
X009420Y026979D01*
X009420Y026960D02*
X009420Y026960D01*
X009420Y026801D02*
X009420Y026801D01*
X009420Y026643D02*
X009420Y026643D01*
X009405Y026484D02*
X009435Y026484D01*
X009507Y026326D02*
X009333Y026326D01*
X009920Y025500D02*
X008420Y025500D01*
X008327Y024180D02*
X008513Y024180D01*
X008496Y024163D01*
X008420Y023979D01*
X008420Y023521D01*
X008420Y023979D01*
X008344Y024163D01*
X008327Y024180D01*
X008367Y024107D02*
X008473Y024107D01*
X008420Y023948D02*
X008420Y023948D01*
X008420Y023790D02*
X008420Y023790D01*
X008420Y023631D02*
X008420Y023631D01*
X008400Y023473D02*
X008440Y023473D01*
X008519Y023314D02*
X008321Y023314D01*
X008105Y023156D02*
X008735Y023156D01*
X009105Y023156D02*
X009735Y023156D01*
X009519Y023314D02*
X009321Y023314D01*
X009400Y023473D02*
X009440Y023473D01*
X009420Y023521D02*
X009420Y023979D01*
X009496Y024163D01*
X009513Y024180D01*
X009327Y024180D01*
X009344Y024163D01*
X009420Y023979D01*
X009420Y023521D01*
X009420Y023631D02*
X009420Y023631D01*
X009420Y023790D02*
X009420Y023790D01*
X009420Y023948D02*
X009420Y023948D01*
X009367Y024107D02*
X009473Y024107D01*
X009670Y024500D02*
X009920Y024250D01*
X009920Y023750D01*
X010920Y023750D01*
X010473Y024107D02*
X010367Y024107D01*
X010242Y024265D02*
X010598Y024265D01*
X010194Y024424D02*
X025430Y024424D01*
X025430Y024582D02*
X010041Y024582D01*
X010101Y024521D02*
X010101Y024521D01*
X009670Y024500D02*
X006420Y024500D01*
X006462Y024082D02*
X006420Y023979D01*
X006420Y023521D01*
X006420Y023979D01*
X006378Y024082D01*
X006462Y024082D01*
X006420Y023948D02*
X006420Y023948D01*
X006420Y023790D02*
X006420Y023790D01*
X006420Y023631D02*
X006420Y023631D01*
X006400Y023473D02*
X006440Y023473D01*
X006519Y023314D02*
X006321Y023314D01*
X006105Y023156D02*
X006735Y023156D01*
X007105Y023156D02*
X007735Y023156D01*
X007519Y023314D02*
X007321Y023314D01*
X007400Y023473D02*
X007440Y023473D01*
X007420Y023521D02*
X007420Y023979D01*
X007496Y024163D01*
X007513Y024180D01*
X007327Y024180D01*
X007344Y024163D01*
X007420Y023979D01*
X007420Y023521D01*
X007420Y023631D02*
X007420Y023631D01*
X007420Y023790D02*
X007420Y023790D01*
X007420Y023948D02*
X007420Y023948D01*
X007367Y024107D02*
X007473Y024107D01*
X005759Y022680D02*
X005286Y022680D01*
X005445Y022522D02*
X005752Y022522D01*
X004430Y021240D02*
X004930Y020740D01*
X010680Y020740D01*
X010940Y020250D02*
X012680Y021990D01*
X014180Y021990D01*
X015430Y020740D01*
X022180Y020740D01*
X022680Y020240D01*
X023160Y020240D01*
X023170Y020250D01*
X022680Y020740D02*
X024430Y020740D01*
X024430Y021090D02*
X024270Y021250D01*
X023170Y021250D01*
X022890Y021729D02*
X017450Y021729D01*
X017687Y021571D02*
X022653Y021571D01*
X022566Y021412D02*
X022461Y021412D01*
X022170Y021250D02*
X022680Y020740D01*
X022170Y021250D02*
X017170Y021250D01*
X015420Y021250D01*
X014180Y022490D01*
X013430Y022490D01*
X014170Y021500D02*
X012670Y021500D01*
X010920Y019750D01*
X008170Y019750D01*
X007670Y020250D01*
X003670Y020250D01*
X003441Y019750D02*
X003899Y019750D01*
X003441Y019750D01*
X003256Y019827D02*
X001410Y019827D01*
X001410Y019669D02*
X003251Y019669D01*
X003107Y019510D02*
X001410Y019510D01*
X001410Y019352D02*
X003041Y019352D01*
X003040Y019193D02*
X001410Y019193D01*
X001410Y019035D02*
X003088Y019035D01*
X003207Y018876D02*
X001410Y018876D01*
X001410Y018718D02*
X003362Y018718D01*
X003441Y018750D02*
X003899Y018750D01*
X004083Y018674D01*
X004187Y018570D01*
X007734Y018570D01*
X007851Y018521D01*
X008303Y018070D01*
X009073Y018070D01*
X009040Y018151D01*
X009040Y018349D01*
X009073Y018430D01*
X008106Y018430D01*
X007989Y018479D01*
X007899Y018569D01*
X007537Y018930D01*
X004187Y018930D01*
X004083Y018826D01*
X003899Y018750D01*
X003441Y018750D01*
X003142Y018559D02*
X001410Y018559D01*
X001410Y018401D02*
X003061Y018401D01*
X003040Y018242D02*
X001410Y018242D01*
X001410Y018084D02*
X003068Y018084D01*
X003158Y017925D02*
X001410Y017925D01*
X001410Y017767D02*
X003401Y017767D01*
X003441Y017750D02*
X003899Y017750D01*
X004083Y017674D01*
X004187Y017570D01*
X007734Y017570D01*
X007851Y017521D01*
X008303Y017070D01*
X009073Y017070D01*
X009040Y017151D01*
X009040Y017349D01*
X009073Y017430D01*
X008106Y017430D01*
X007989Y017479D01*
X007899Y017569D01*
X007537Y017930D01*
X004187Y017930D01*
X004083Y017826D01*
X003899Y017750D01*
X003441Y017750D01*
X003191Y017608D02*
X001410Y017608D01*
X001410Y017450D02*
X003081Y017450D01*
X003040Y017291D02*
X001410Y017291D01*
X001410Y017133D02*
X003047Y017133D01*
X003113Y016974D02*
X001410Y016974D01*
X001410Y016816D02*
X003282Y016816D01*
X003240Y016657D02*
X001410Y016657D01*
X001410Y016499D02*
X003102Y016499D01*
X003040Y016340D02*
X001410Y016340D01*
X001410Y016182D02*
X003040Y016182D01*
X003093Y016023D02*
X001410Y016023D01*
X001410Y015865D02*
X003218Y015865D01*
X003334Y015706D02*
X001410Y015706D01*
X001410Y015548D02*
X003130Y015548D01*
X003056Y015389D02*
X001410Y015389D01*
X001410Y015231D02*
X003040Y015231D01*
X003073Y015072D02*
X001410Y015072D01*
X001410Y014914D02*
X003169Y014914D01*
X003428Y014755D02*
X001410Y014755D01*
X001410Y014597D02*
X003179Y014597D01*
X003077Y014438D02*
X001410Y014438D01*
X001410Y014280D02*
X003040Y014280D01*
X003052Y014121D02*
X001410Y014121D01*
X001410Y013963D02*
X003120Y013963D01*
X003310Y013804D02*
X001410Y013804D01*
X001410Y013646D02*
X003228Y013646D01*
X003097Y013487D02*
X001410Y013487D01*
X001410Y013329D02*
X003040Y013329D01*
X003040Y013170D02*
X001410Y013170D01*
X001410Y013012D02*
X003098Y013012D01*
X003230Y012853D02*
X001410Y012853D01*
X001410Y012695D02*
X003307Y012695D01*
X003441Y012750D02*
X003899Y012750D01*
X004083Y012674D01*
X004187Y012570D01*
X007734Y012570D01*
X007851Y012521D01*
X008303Y012070D01*
X009073Y012070D01*
X009040Y012151D01*
X009040Y012349D01*
X009073Y012430D01*
X008106Y012430D01*
X007989Y012479D01*
X007899Y012569D01*
X007537Y012930D01*
X004187Y012930D01*
X004083Y012826D01*
X003899Y012750D01*
X003441Y012750D01*
X003119Y012536D02*
X001410Y012536D01*
X001410Y012378D02*
X003052Y012378D01*
X003040Y012219D02*
X001410Y012219D01*
X001410Y012061D02*
X003077Y012061D01*
X003181Y011902D02*
X001410Y011902D01*
X001410Y011744D02*
X003425Y011744D01*
X003441Y011750D02*
X003899Y011750D01*
X004083Y011674D01*
X004187Y011570D01*
X007734Y011570D01*
X007851Y011521D01*
X008303Y011070D01*
X009073Y011070D01*
X009040Y011151D01*
X009040Y011349D01*
X009073Y011430D01*
X008106Y011430D01*
X007989Y011479D01*
X007899Y011569D01*
X007537Y011930D01*
X004187Y011930D01*
X004083Y011826D01*
X003899Y011750D01*
X003441Y011750D01*
X003168Y011585D02*
X001410Y011585D01*
X001410Y011427D02*
X003072Y011427D01*
X003040Y011268D02*
X001410Y011268D01*
X001410Y011110D02*
X003057Y011110D01*
X003132Y010951D02*
X001410Y010951D01*
X001410Y010793D02*
X003338Y010793D01*
X003441Y010750D02*
X003899Y010750D01*
X004083Y010674D01*
X004187Y010570D01*
X007734Y010570D01*
X007851Y010521D01*
X008303Y010070D01*
X009073Y010070D01*
X009040Y010151D01*
X009040Y010349D01*
X009073Y010430D01*
X008106Y010430D01*
X007989Y010479D01*
X007899Y010569D01*
X007537Y010930D01*
X004187Y010930D01*
X004083Y010826D01*
X003899Y010750D01*
X003441Y010750D01*
X003217Y010634D02*
X001410Y010634D01*
X001410Y010476D02*
X003092Y010476D01*
X003040Y010317D02*
X002296Y010317D01*
X002368Y010159D02*
X003040Y010159D01*
X003102Y010000D02*
X002368Y010000D01*
X002368Y009842D02*
X003241Y009842D01*
X003279Y009683D02*
X002368Y009683D01*
X002368Y009525D02*
X003113Y009525D01*
X003047Y009366D02*
X002368Y009366D01*
X002368Y009208D02*
X003040Y009208D01*
X003082Y009049D02*
X002368Y009049D01*
X002368Y008891D02*
X003192Y008891D01*
X003397Y008732D02*
X002368Y008732D01*
X002368Y008574D02*
X003156Y008574D01*
X003067Y008415D02*
X002368Y008415D01*
X002368Y008257D02*
X003040Y008257D01*
X003062Y008098D02*
X002368Y008098D01*
X002368Y007940D02*
X003143Y007940D01*
X003366Y007781D02*
X002368Y007781D01*
X002368Y007623D02*
X003205Y007623D01*
X003087Y007464D02*
X002368Y007464D01*
X002368Y007306D02*
X003040Y007306D01*
X003041Y007147D02*
X002368Y007147D01*
X002368Y006989D02*
X003107Y006989D01*
X003253Y006830D02*
X002368Y006830D01*
X002368Y006672D02*
X003413Y006672D01*
X003437Y006679D02*
X003371Y006658D01*
X003309Y006626D01*
X003253Y006586D01*
X003204Y006537D01*
X003164Y006481D01*
X003132Y006419D01*
X003111Y006353D01*
X003100Y006285D01*
X003100Y006250D01*
X003670Y006250D01*
X003670Y006250D01*
X003670Y006690D01*
X003835Y006690D01*
X003903Y006679D01*
X003969Y006658D01*
X004031Y006626D01*
X004087Y006586D01*
X004136Y006537D01*
X004176Y006481D01*
X004208Y006419D01*
X004229Y006353D01*
X004240Y006285D01*
X004240Y006250D01*
X003670Y006250D01*
X003670Y006250D01*
X003670Y005810D01*
X003835Y005810D01*
X003903Y005821D01*
X003969Y005842D01*
X004031Y005874D01*
X004087Y005914D01*
X004136Y005963D01*
X004176Y006019D01*
X004208Y006081D01*
X004229Y006147D01*
X004240Y006215D01*
X004240Y006250D01*
X003670Y006250D01*
X003670Y006250D01*
X003670Y006250D01*
X003670Y006690D01*
X003505Y006690D01*
X003437Y006679D01*
X003670Y006672D02*
X003670Y006672D01*
X003670Y006513D02*
X003670Y006513D01*
X003670Y006355D02*
X003670Y006355D01*
X003670Y006250D02*
X003100Y006250D01*
X003100Y006215D01*
X003111Y006147D01*
X003132Y006081D01*
X003164Y006019D01*
X003204Y005963D01*
X003253Y005914D01*
X003309Y005874D01*
X003371Y005842D01*
X003437Y005821D01*
X003505Y005810D01*
X003670Y005810D01*
X003670Y006250D01*
X003670Y006196D02*
X003670Y006196D01*
X003670Y006038D02*
X003670Y006038D01*
X003670Y005879D02*
X003670Y005879D01*
X004038Y005879D02*
X004502Y005879D01*
X004344Y005721D02*
X002368Y005721D01*
X002368Y005879D02*
X003302Y005879D01*
X003154Y006038D02*
X002368Y006038D01*
X002368Y006196D02*
X003103Y006196D01*
X003111Y006355D02*
X002368Y006355D01*
X002368Y006513D02*
X003187Y006513D01*
X003670Y007250D02*
X007670Y007250D01*
X008170Y006750D01*
X015670Y006750D01*
X016170Y007250D01*
X017170Y007250D01*
X019920Y007250D01*
X020338Y007306D02*
X021023Y007306D01*
X021002Y007327D02*
X021247Y007082D01*
X021386Y007082D01*
X021399Y007069D01*
X021399Y007069D01*
X021489Y006979D01*
X021606Y006930D01*
X022653Y006930D01*
X022757Y006826D01*
X022941Y006750D01*
X023399Y006750D01*
X022941Y006750D01*
X022757Y006674D01*
X022653Y006570D01*
X021803Y006570D01*
X021351Y007021D01*
X021234Y007070D01*
X020691Y007070D01*
X020593Y007168D01*
X020338Y007168D01*
X020338Y007423D01*
X020331Y007430D01*
X021002Y007430D01*
X021002Y007327D01*
X021182Y007147D02*
X020614Y007147D01*
X020420Y006750D02*
X021170Y006750D01*
X021670Y006250D01*
X023170Y006250D01*
X023586Y006672D02*
X024472Y006672D01*
X024472Y006830D02*
X023587Y006830D01*
X023733Y006989D02*
X024472Y006989D01*
X024472Y007147D02*
X023799Y007147D01*
X023800Y007306D02*
X024472Y007306D01*
X024472Y007464D02*
X023753Y007464D01*
X023635Y007623D02*
X024472Y007623D01*
X024472Y007781D02*
X023474Y007781D01*
X023399Y007750D02*
X022941Y007750D01*
X022757Y007826D01*
X022653Y007930D01*
X021606Y007930D01*
X021489Y007979D01*
X021399Y008069D01*
X021338Y008129D01*
X021338Y008077D01*
X021303Y008041D01*
X021351Y008021D01*
X021454Y007918D01*
X021593Y007918D01*
X021838Y007673D01*
X021838Y007570D01*
X022653Y007570D01*
X022757Y007674D01*
X022941Y007750D01*
X023399Y007750D01*
X023697Y007940D02*
X024472Y007940D01*
X024472Y008098D02*
X023778Y008098D01*
X023800Y008257D02*
X024472Y008257D01*
X024472Y008415D02*
X023773Y008415D01*
X023684Y008574D02*
X024472Y008574D01*
X024472Y008732D02*
X023443Y008732D01*
X023399Y008750D02*
X022941Y008750D01*
X022757Y008826D01*
X022653Y008930D01*
X022331Y008930D01*
X022338Y008923D01*
X022338Y008577D01*
X022331Y008570D01*
X022653Y008570D01*
X022757Y008674D01*
X022941Y008750D01*
X023399Y008750D01*
X023648Y008891D02*
X024472Y008891D01*
X024472Y009049D02*
X023758Y009049D01*
X023800Y009208D02*
X024472Y009208D01*
X024472Y009366D02*
X023793Y009366D01*
X023727Y009525D02*
X024472Y009525D01*
X024472Y009683D02*
X023561Y009683D01*
X023599Y009842D02*
X024472Y009842D01*
X024472Y010000D02*
X023738Y010000D01*
X023800Y010159D02*
X024472Y010159D01*
X024544Y010317D02*
X023800Y010317D01*
X023748Y010476D02*
X025430Y010476D01*
X025430Y010634D02*
X023623Y010634D01*
X023502Y010793D02*
X025430Y010793D01*
X025430Y010951D02*
X023708Y010951D01*
X023783Y011110D02*
X025430Y011110D01*
X025430Y011268D02*
X023800Y011268D01*
X023768Y011427D02*
X025430Y011427D01*
X025430Y011585D02*
X023672Y011585D01*
X023415Y011744D02*
X025430Y011744D01*
X025430Y011902D02*
X023659Y011902D01*
X023763Y012061D02*
X025430Y012061D01*
X025430Y012219D02*
X023800Y012219D01*
X023788Y012378D02*
X025430Y012378D01*
X025430Y012536D02*
X023721Y012536D01*
X023533Y012695D02*
X025430Y012695D01*
X025430Y012853D02*
X023610Y012853D01*
X023742Y013012D02*
X025430Y013012D01*
X025430Y013170D02*
X023800Y013170D01*
X023800Y013329D02*
X025430Y013329D01*
X025430Y013487D02*
X023743Y013487D01*
X023612Y013646D02*
X025430Y013646D01*
X025430Y013804D02*
X023530Y013804D01*
X023399Y013750D02*
X022941Y013750D01*
X022757Y013826D01*
X022653Y013930D01*
X021606Y013930D01*
X021489Y013979D01*
X021399Y014069D01*
X021037Y014430D01*
X017767Y014430D01*
X017800Y014349D01*
X017800Y014151D01*
X017724Y013967D01*
X017583Y013826D01*
X017399Y013750D01*
X016941Y013750D01*
X016757Y013826D01*
X016653Y013930D01*
X016303Y013930D01*
X015943Y013570D01*
X016653Y013570D01*
X016757Y013674D01*
X016941Y013750D01*
X017399Y013750D01*
X017583Y013674D01*
X017687Y013570D01*
X018149Y013570D01*
X018247Y013668D01*
X018593Y013668D01*
X018838Y013423D01*
X018838Y013077D01*
X018831Y013070D01*
X019009Y013070D01*
X019002Y013077D01*
X019002Y013423D01*
X019247Y013668D01*
X019593Y013668D01*
X019691Y013570D01*
X022653Y013570D01*
X022757Y013674D01*
X022941Y013750D01*
X023399Y013750D01*
X023720Y013963D02*
X025430Y013963D01*
X025430Y014121D02*
X023788Y014121D01*
X023800Y014280D02*
X025430Y014280D01*
X025430Y014438D02*
X023763Y014438D01*
X023661Y014597D02*
X025430Y014597D01*
X025430Y014755D02*
X023412Y014755D01*
X023399Y014750D02*
X022941Y014750D01*
X022757Y014826D01*
X022653Y014930D01*
X021606Y014930D01*
X021489Y014979D01*
X021399Y015069D01*
X021037Y015430D01*
X017767Y015430D01*
X017800Y015349D01*
X017800Y015151D01*
X017767Y015070D01*
X021234Y015070D01*
X021351Y015021D01*
X021803Y014570D01*
X022653Y014570D01*
X022757Y014674D01*
X022941Y014750D01*
X023399Y014750D01*
X023671Y014914D02*
X025430Y014914D01*
X025430Y015072D02*
X023767Y015072D01*
X023800Y015231D02*
X025430Y015231D01*
X025430Y015389D02*
X023784Y015389D01*
X023710Y015548D02*
X025430Y015548D01*
X025430Y015706D02*
X023506Y015706D01*
X023399Y015750D02*
X022941Y015750D01*
X023399Y015750D01*
X023622Y015865D02*
X025430Y015865D01*
X025430Y016023D02*
X023747Y016023D01*
X023800Y016182D02*
X025430Y016182D01*
X025430Y016340D02*
X023800Y016340D01*
X023738Y016499D02*
X025430Y016499D01*
X025430Y016657D02*
X023600Y016657D01*
X023558Y016816D02*
X025430Y016816D01*
X025430Y016974D02*
X023727Y016974D01*
X023793Y017133D02*
X025430Y017133D01*
X025430Y017291D02*
X023800Y017291D01*
X023759Y017450D02*
X025430Y017450D01*
X025430Y017608D02*
X024985Y017608D01*
X025159Y017767D02*
X025430Y017767D01*
X025430Y017925D02*
X025249Y017925D01*
X025250Y018084D02*
X025430Y018084D01*
X025430Y018242D02*
X025250Y018242D01*
X025250Y018401D02*
X025430Y018401D01*
X025430Y018559D02*
X025250Y018559D01*
X025250Y018718D02*
X025430Y018718D01*
X025430Y018876D02*
X025250Y018876D01*
X025250Y019035D02*
X025430Y019035D01*
X025430Y019193D02*
X025250Y019193D01*
X025250Y019352D02*
X025430Y019352D01*
X025430Y019510D02*
X025250Y019510D01*
X025250Y019669D02*
X025430Y019669D01*
X025430Y019827D02*
X025250Y019827D01*
X025250Y019986D02*
X025430Y019986D01*
X025430Y020144D02*
X025250Y020144D01*
X025250Y020303D02*
X025430Y020303D01*
X025430Y020461D02*
X025250Y020461D01*
X025250Y020620D02*
X025430Y020620D01*
X025430Y020778D02*
X025250Y020778D01*
X025250Y020937D02*
X025430Y020937D01*
X025430Y021095D02*
X025233Y021095D01*
X025119Y021254D02*
X025430Y021254D01*
X025430Y021412D02*
X024822Y021412D01*
X024830Y021090D02*
X024430Y021090D01*
X024830Y021090D02*
X024930Y020990D01*
X024930Y017990D01*
X024830Y017890D01*
X024430Y017890D01*
X024430Y018240D02*
X023930Y018240D01*
X024080Y018590D02*
X023930Y018740D01*
X021680Y018740D01*
X021170Y019250D01*
X019420Y019250D01*
X018920Y019250D02*
X017170Y019250D01*
X015420Y019250D01*
X014170Y020500D01*
X012670Y020500D01*
X010920Y018750D01*
X008170Y018750D01*
X007670Y019250D01*
X003670Y019250D01*
X003899Y019750D02*
X004083Y019674D01*
X004187Y019570D01*
X007734Y019570D01*
X007851Y019521D01*
X008303Y019070D01*
X009073Y019070D01*
X009040Y019151D01*
X009040Y019349D01*
X009073Y019430D01*
X008106Y019430D01*
X007989Y019479D01*
X007899Y019569D01*
X007537Y019930D01*
X004187Y019930D01*
X004083Y019826D01*
X003899Y019750D01*
X004084Y019827D02*
X007640Y019827D01*
X007799Y019669D02*
X004089Y019669D01*
X004133Y018876D02*
X007591Y018876D01*
X007750Y018718D02*
X003978Y018718D01*
X003670Y018250D02*
X007670Y018250D01*
X008170Y017750D01*
X010670Y017750D01*
X010920Y017750D01*
X012670Y019500D01*
X014170Y019500D01*
X015420Y018250D01*
X017170Y018250D01*
X017767Y018070D02*
X017800Y018151D01*
X017800Y018332D01*
X018093Y018332D01*
X018191Y018430D01*
X021037Y018430D01*
X021399Y018069D01*
X021489Y017979D01*
X021606Y017930D01*
X022653Y017930D01*
X022757Y017826D01*
X022941Y017750D01*
X023399Y017750D01*
X022941Y017750D01*
X022757Y017674D01*
X022653Y017570D01*
X021803Y017570D01*
X021351Y018021D01*
X021234Y018070D01*
X017767Y018070D01*
X017772Y018084D02*
X021384Y018084D01*
X021448Y017925D02*
X022658Y017925D01*
X022901Y017767D02*
X021606Y017767D01*
X021765Y017608D02*
X022691Y017608D01*
X023170Y017250D02*
X021670Y017250D01*
X021170Y017750D01*
X015420Y017750D01*
X014170Y019000D01*
X012670Y019000D01*
X011170Y017500D01*
X010920Y017250D01*
X009670Y017250D01*
X009040Y017291D02*
X008082Y017291D01*
X008059Y017450D02*
X007923Y017450D01*
X007859Y017608D02*
X004149Y017608D01*
X003939Y017767D02*
X007701Y017767D01*
X007542Y017925D02*
X004182Y017925D01*
X003670Y017250D02*
X007670Y017250D01*
X008170Y016750D01*
X011420Y016750D01*
X011920Y016250D01*
X013670Y016250D01*
X015170Y016250D01*
X016170Y017250D01*
X017170Y017250D01*
X017767Y017430D02*
X021037Y017430D01*
X021399Y017069D01*
X021489Y016979D01*
X021606Y016930D01*
X022653Y016930D01*
X022757Y016826D01*
X022941Y016750D01*
X023399Y016750D01*
X022941Y016750D01*
X022757Y016674D01*
X022653Y016570D01*
X021803Y016570D01*
X021351Y017021D01*
X021234Y017070D01*
X017767Y017070D01*
X017800Y017151D01*
X017800Y017349D01*
X017767Y017430D01*
X017800Y017291D02*
X021176Y017291D01*
X021335Y017133D02*
X017793Y017133D01*
X017767Y016430D02*
X021037Y016430D01*
X021489Y015979D01*
X021606Y015930D01*
X022653Y015930D01*
X022757Y015826D01*
X022941Y015750D01*
X022757Y015674D01*
X022653Y015570D01*
X021803Y015570D01*
X021351Y016021D01*
X021234Y016070D01*
X017767Y016070D01*
X017800Y016151D01*
X017800Y016349D01*
X017767Y016430D01*
X017800Y016340D02*
X021127Y016340D01*
X021286Y016182D02*
X017800Y016182D01*
X017784Y015389D02*
X021078Y015389D01*
X021237Y015231D02*
X017800Y015231D01*
X017767Y015072D02*
X021395Y015072D01*
X021459Y014914D02*
X022669Y014914D01*
X022928Y014755D02*
X021618Y014755D01*
X021776Y014597D02*
X022679Y014597D01*
X023170Y014250D02*
X021670Y014250D01*
X021170Y014750D01*
X016170Y014750D01*
X015170Y013750D01*
X011920Y013750D01*
X011420Y014250D01*
X011170Y014250D01*
X009670Y014250D01*
X009073Y014430D02*
X009040Y014349D01*
X009040Y014151D01*
X009073Y014070D01*
X008303Y014070D01*
X007851Y014521D01*
X007734Y014570D01*
X004187Y014570D01*
X004083Y014674D01*
X003899Y014750D01*
X003441Y014750D01*
X003899Y014750D01*
X004083Y014826D01*
X004187Y014930D01*
X007537Y014930D01*
X007899Y014569D01*
X007989Y014479D01*
X008106Y014430D01*
X009073Y014430D01*
X009040Y014280D02*
X008093Y014280D01*
X008087Y014438D02*
X007935Y014438D01*
X007871Y014597D02*
X004161Y014597D01*
X003912Y014755D02*
X007712Y014755D01*
X007554Y014914D02*
X004171Y014914D01*
X003670Y015250D02*
X007670Y015250D01*
X008170Y014750D01*
X011420Y014750D01*
X011920Y014250D01*
X014670Y014250D01*
X015170Y014250D01*
X016170Y015250D01*
X017170Y015250D01*
X017170Y014250D02*
X016170Y014250D01*
X015170Y013250D01*
X011920Y013250D01*
X011420Y013750D01*
X008170Y013750D01*
X007670Y014250D01*
X003670Y014250D01*
X003441Y013750D02*
X003899Y013750D01*
X003441Y013750D01*
X003899Y013750D02*
X004083Y013674D01*
X004187Y013570D01*
X007734Y013570D01*
X007851Y013521D01*
X008303Y013070D01*
X009073Y013070D01*
X009040Y013151D01*
X009040Y013349D01*
X009073Y013430D01*
X008106Y013430D01*
X007989Y013479D01*
X007899Y013569D01*
X007537Y013930D01*
X004187Y013930D01*
X004083Y013826D01*
X003899Y013750D01*
X004030Y013804D02*
X007663Y013804D01*
X007822Y013646D02*
X004112Y013646D01*
X003670Y013250D02*
X007670Y013250D01*
X008170Y012750D01*
X015420Y012750D01*
X015920Y013250D01*
X017170Y013250D01*
X018420Y013250D01*
X018838Y013329D02*
X019002Y013329D01*
X019002Y013170D02*
X018838Y013170D01*
X018774Y013487D02*
X019066Y013487D01*
X019224Y013646D02*
X018616Y013646D01*
X018224Y013646D02*
X017612Y013646D01*
X017530Y013804D02*
X022810Y013804D01*
X022728Y013646D02*
X019616Y013646D01*
X019420Y013250D02*
X023170Y013250D01*
X022941Y012750D02*
X023399Y012750D01*
X022941Y012750D01*
X022757Y012826D01*
X022653Y012930D01*
X021443Y012930D01*
X021803Y012570D01*
X022653Y012570D01*
X022757Y012674D01*
X022941Y012750D01*
X022807Y012695D02*
X021678Y012695D01*
X021520Y012853D02*
X022730Y012853D01*
X023170Y012250D02*
X021670Y012250D01*
X021170Y012750D01*
X016170Y012750D01*
X015670Y012250D01*
X012170Y012250D01*
X009670Y012250D01*
X009040Y012219D02*
X008154Y012219D01*
X007995Y012378D02*
X009052Y012378D01*
X009040Y013170D02*
X008203Y013170D01*
X008044Y013329D02*
X009040Y013329D01*
X009052Y014121D02*
X008252Y014121D01*
X007980Y013487D02*
X007886Y013487D01*
X007614Y012853D02*
X004110Y012853D01*
X004033Y012695D02*
X007773Y012695D01*
X007816Y012536D02*
X007931Y012536D01*
X007670Y012250D02*
X008170Y011750D01*
X015670Y011750D01*
X016170Y012250D01*
X017170Y012250D01*
X018920Y012250D01*
X019338Y012219D02*
X021248Y012219D01*
X021234Y012070D02*
X019331Y012070D01*
X019338Y012077D01*
X019338Y012423D01*
X019331Y012430D01*
X021037Y012430D01*
X021399Y012069D01*
X021489Y011979D01*
X021606Y011930D01*
X022653Y011930D01*
X022757Y011826D01*
X022941Y011750D01*
X023399Y011750D01*
X022941Y011750D01*
X022757Y011674D01*
X022653Y011570D01*
X021803Y011570D01*
X021351Y012021D01*
X021234Y012070D01*
X021257Y012061D02*
X021407Y012061D01*
X021471Y011902D02*
X022681Y011902D01*
X022925Y011744D02*
X021629Y011744D01*
X021788Y011585D02*
X022668Y011585D01*
X023170Y011250D02*
X021670Y011250D01*
X021170Y011750D01*
X016170Y011750D01*
X015670Y011250D01*
X009670Y011250D01*
X009072Y011427D02*
X007946Y011427D01*
X007882Y011585D02*
X004172Y011585D01*
X003915Y011744D02*
X007724Y011744D01*
X007565Y011902D02*
X004159Y011902D01*
X003670Y012250D02*
X007670Y012250D01*
X007670Y011250D02*
X008170Y010750D01*
X015670Y010750D01*
X016170Y011250D01*
X017170Y011250D01*
X019420Y011250D01*
X019838Y011268D02*
X021199Y011268D01*
X021234Y011070D02*
X019831Y011070D01*
X019838Y011077D01*
X019838Y011423D01*
X019831Y011430D01*
X021037Y011430D01*
X021399Y011069D01*
X021489Y010979D01*
X021606Y010930D01*
X022653Y010930D01*
X022757Y010826D01*
X022941Y010750D01*
X023399Y010750D01*
X022941Y010750D01*
X022757Y010674D01*
X022653Y010570D01*
X021803Y010570D01*
X021351Y011021D01*
X021234Y011070D01*
X021358Y011110D02*
X019838Y011110D01*
X019835Y011427D02*
X021041Y011427D01*
X021422Y010951D02*
X021556Y010951D01*
X021580Y010793D02*
X022838Y010793D01*
X022717Y010634D02*
X021739Y010634D01*
X021670Y010250D02*
X023170Y010250D01*
X022941Y009750D02*
X022838Y009792D01*
X022838Y009708D01*
X022941Y009750D01*
X023399Y009750D01*
X022941Y009750D01*
X023170Y009250D02*
X021670Y009250D01*
X021170Y009750D01*
X016170Y009750D01*
X015670Y009250D01*
X009670Y009250D01*
X009073Y009430D02*
X009040Y009349D01*
X009040Y009151D01*
X009073Y009070D01*
X008303Y009070D01*
X007851Y009521D01*
X007734Y009570D01*
X004187Y009570D01*
X004083Y009674D01*
X003899Y009750D01*
X003441Y009750D01*
X003899Y009750D01*
X004083Y009826D01*
X004187Y009930D01*
X007537Y009930D01*
X007899Y009569D01*
X007989Y009479D01*
X008106Y009430D01*
X009073Y009430D01*
X009047Y009366D02*
X008007Y009366D01*
X007943Y009525D02*
X007843Y009525D01*
X007784Y009683D02*
X004061Y009683D01*
X004099Y009842D02*
X007626Y009842D01*
X007670Y010250D02*
X008170Y009750D01*
X015670Y009750D01*
X016170Y010250D01*
X017170Y010250D01*
X021170Y010250D01*
X021670Y009750D01*
X022420Y009750D01*
X022338Y008891D02*
X022692Y008891D01*
X022897Y008732D02*
X022338Y008732D01*
X022335Y008574D02*
X022656Y008574D01*
X023170Y008250D02*
X021670Y008250D01*
X021170Y008750D01*
X020420Y008750D01*
X016170Y008750D01*
X015670Y008250D01*
X015170Y008250D01*
X009670Y008250D01*
X009073Y008430D02*
X009040Y008349D01*
X009040Y008151D01*
X009073Y008070D01*
X008303Y008070D01*
X007851Y008521D01*
X007734Y008570D01*
X004187Y008570D01*
X004083Y008674D01*
X003899Y008750D01*
X003441Y008750D01*
X003899Y008750D01*
X004083Y008826D01*
X004187Y008930D01*
X007537Y008930D01*
X007899Y008569D01*
X007989Y008479D01*
X008106Y008430D01*
X009073Y008430D01*
X009067Y008415D02*
X007958Y008415D01*
X007894Y008574D02*
X004184Y008574D01*
X003943Y008732D02*
X007735Y008732D01*
X007577Y008891D02*
X004148Y008891D01*
X003670Y009250D02*
X007670Y009250D01*
X008170Y008750D01*
X015170Y008750D01*
X015670Y008750D01*
X016170Y009250D01*
X017170Y009250D01*
X021170Y009250D01*
X021670Y008750D01*
X021920Y008750D01*
X021369Y008098D02*
X021338Y008098D01*
X021433Y007940D02*
X021583Y007940D01*
X021730Y007781D02*
X022866Y007781D01*
X022705Y007623D02*
X021838Y007623D01*
X021670Y007250D02*
X021420Y007500D01*
X021170Y007750D01*
X016170Y007750D01*
X015670Y007250D01*
X009670Y007250D01*
X009073Y007430D02*
X009040Y007349D01*
X009040Y007151D01*
X009073Y007070D01*
X008303Y007070D01*
X007851Y007521D01*
X007734Y007570D01*
X004187Y007570D01*
X004083Y007674D01*
X003899Y007750D01*
X003441Y007750D01*
X003899Y007750D01*
X004083Y007826D01*
X004187Y007930D01*
X007537Y007930D01*
X007899Y007569D01*
X007989Y007479D01*
X008106Y007430D01*
X009073Y007430D01*
X009040Y007306D02*
X008067Y007306D01*
X008024Y007464D02*
X007909Y007464D01*
X007845Y007623D02*
X004135Y007623D01*
X003974Y007781D02*
X007686Y007781D01*
X007670Y008250D02*
X008170Y007750D01*
X015670Y007750D01*
X016170Y008250D01*
X017170Y008250D01*
X020920Y008250D01*
X021670Y007250D02*
X023170Y007250D01*
X022753Y006830D02*
X021543Y006830D01*
X021479Y006989D02*
X021384Y006989D01*
X021701Y006672D02*
X022754Y006672D01*
X022704Y005879D02*
X021132Y005879D01*
X021291Y005721D02*
X024472Y005721D01*
X024472Y005879D02*
X023636Y005879D01*
X023753Y006038D02*
X024472Y006038D01*
X024472Y006196D02*
X023800Y006196D01*
X023798Y006355D02*
X024472Y006355D01*
X024472Y006513D02*
X023732Y006513D01*
X024472Y005562D02*
X021338Y005562D01*
X021338Y005404D02*
X021732Y005404D01*
X021574Y005245D02*
X021378Y005245D01*
X020920Y005250D02*
X020920Y005500D01*
X020920Y005250D02*
X021924Y004246D01*
X021924Y002197D01*
X022924Y002197D02*
X022924Y003996D01*
X021920Y005000D01*
X022266Y005245D02*
X024472Y005245D01*
X024472Y005087D02*
X022338Y005087D01*
X022445Y004928D02*
X024472Y004928D01*
X024472Y004770D02*
X022603Y004770D01*
X022762Y004611D02*
X024472Y004611D01*
X024472Y004453D02*
X022920Y004453D01*
X023079Y004294D02*
X024472Y004294D01*
X024472Y005404D02*
X022108Y005404D01*
X021430Y006038D02*
X020224Y006038D01*
X020338Y005879D02*
X020708Y005879D01*
X020549Y005721D02*
X020402Y005721D01*
X019920Y005750D02*
X020924Y004746D01*
X020924Y002197D01*
X019924Y002197D02*
X019924Y004754D01*
X020170Y005000D01*
X019824Y005245D02*
X018128Y005245D01*
X018286Y005087D02*
X019752Y005087D01*
X019650Y004928D02*
X018445Y004928D01*
X018603Y004770D02*
X019604Y004770D01*
X019604Y004611D02*
X018762Y004611D01*
X018920Y004453D02*
X019604Y004453D01*
X019604Y004294D02*
X019079Y004294D01*
X018924Y003996D02*
X017670Y005250D01*
X017170Y005250D01*
X016891Y005562D02*
X016699Y005562D01*
X016871Y005842D02*
X016937Y005821D01*
X017005Y005810D01*
X017170Y005810D01*
X017335Y005810D01*
X017403Y005821D01*
X017469Y005842D01*
X017531Y005874D01*
X017587Y005914D01*
X017636Y005963D01*
X017676Y006019D01*
X017708Y006081D01*
X017729Y006147D01*
X017740Y006215D01*
X017740Y006250D01*
X017170Y006250D01*
X017170Y006250D01*
X017170Y005810D01*
X017170Y006250D01*
X017170Y006250D01*
X017170Y006250D01*
X016600Y006250D01*
X016600Y006215D01*
X016611Y006147D01*
X016632Y006081D01*
X016664Y006019D01*
X016704Y005963D01*
X016753Y005914D01*
X016809Y005874D01*
X016871Y005842D01*
X016802Y005879D02*
X010136Y005879D01*
X009670Y006250D02*
X015670Y006250D01*
X016170Y006750D01*
X020420Y006750D01*
X020616Y006355D02*
X021113Y006355D01*
X021271Y006196D02*
X017737Y006196D01*
X017729Y006355D02*
X020224Y006355D01*
X019616Y006038D02*
X017686Y006038D01*
X017538Y005879D02*
X019502Y005879D01*
X019502Y005721D02*
X005496Y005721D01*
X005338Y005879D02*
X009204Y005879D01*
X009087Y006038D02*
X004186Y006038D01*
X004237Y006196D02*
X009040Y006196D01*
X009042Y006355D02*
X004229Y006355D01*
X004153Y006513D02*
X007954Y006513D01*
X007796Y006672D02*
X003927Y006672D01*
X004087Y006830D02*
X007637Y006830D01*
X008226Y007147D02*
X009041Y007147D01*
X009062Y008098D02*
X008275Y008098D01*
X008116Y008257D02*
X009040Y008257D01*
X009040Y009208D02*
X008165Y009208D01*
X008214Y010159D02*
X009040Y010159D01*
X009040Y010317D02*
X008056Y010317D01*
X007996Y010476D02*
X007897Y010476D01*
X007833Y010634D02*
X004123Y010634D01*
X004002Y010793D02*
X007675Y010793D01*
X007670Y010250D02*
X003670Y010250D01*
X003670Y011250D02*
X007670Y011250D01*
X008105Y011268D02*
X009040Y011268D01*
X009057Y011110D02*
X008263Y011110D01*
X009670Y010250D02*
X011670Y010250D01*
X015670Y010250D01*
X016170Y010750D01*
X021170Y010750D01*
X021670Y010250D01*
X021090Y012378D02*
X019338Y012378D01*
X017788Y014121D02*
X021346Y014121D01*
X021188Y014280D02*
X017800Y014280D01*
X017720Y013963D02*
X021528Y013963D01*
X021670Y015250D02*
X023170Y015250D01*
X022834Y015706D02*
X021667Y015706D01*
X021508Y015865D02*
X022718Y015865D01*
X023170Y016250D02*
X021670Y016250D01*
X021170Y016750D01*
X016170Y016750D01*
X015170Y015750D01*
X013170Y015750D01*
X011920Y015750D01*
X011420Y016250D01*
X009670Y016250D01*
X009073Y016430D02*
X009040Y016349D01*
X009040Y016151D01*
X009073Y016070D01*
X008303Y016070D01*
X007851Y016521D01*
X007734Y016570D01*
X004187Y016570D01*
X004083Y016674D01*
X003899Y016750D01*
X003441Y016750D01*
X003899Y016750D01*
X004083Y016826D01*
X004187Y016930D01*
X007537Y016930D01*
X007899Y016569D01*
X007989Y016479D01*
X008106Y016430D01*
X009073Y016430D01*
X009040Y016340D02*
X008033Y016340D01*
X007969Y016499D02*
X007874Y016499D01*
X007810Y016657D02*
X004100Y016657D01*
X004058Y016816D02*
X007652Y016816D01*
X007670Y016250D02*
X008170Y015750D01*
X011420Y015750D01*
X011920Y015250D01*
X014170Y015250D01*
X015170Y015250D01*
X016170Y016250D01*
X017170Y016250D01*
X016170Y015750D02*
X021170Y015750D01*
X021670Y015250D01*
X021444Y016023D02*
X021347Y016023D01*
X021716Y016657D02*
X022740Y016657D01*
X022782Y016816D02*
X021557Y016816D01*
X021500Y016974D02*
X021399Y016974D01*
X021225Y018242D02*
X017800Y018242D01*
X018162Y018401D02*
X021067Y018401D01*
X021170Y018750D02*
X021670Y018250D01*
X023170Y018250D01*
X023439Y017767D02*
X023940Y017767D01*
X023998Y017608D02*
X023649Y017608D01*
X024080Y018590D02*
X024430Y018590D01*
X024430Y020390D01*
X023687Y021571D02*
X025430Y021571D01*
X025430Y021729D02*
X023450Y021729D01*
X023423Y022046D02*
X025430Y022046D01*
X025430Y021888D02*
X015235Y021888D01*
X015077Y022046D02*
X022917Y022046D01*
X023380Y022997D02*
X025430Y022997D01*
X025430Y022839D02*
X024454Y022839D01*
X024352Y022940D02*
X024170Y022940D01*
X024170Y022500D01*
X024610Y022500D01*
X024610Y022682D01*
X024352Y022940D01*
X024170Y022940D02*
X024170Y022500D01*
X024170Y022500D01*
X024170Y022500D01*
X024610Y022500D01*
X024610Y022318D01*
X024352Y022060D01*
X024170Y022060D01*
X024170Y022500D01*
X024170Y022500D01*
X024170Y022500D01*
X023730Y022500D01*
X023730Y022682D01*
X023988Y022940D01*
X024170Y022940D01*
X024170Y022839D02*
X024170Y022839D01*
X024170Y022680D02*
X024170Y022680D01*
X024170Y022522D02*
X024170Y022522D01*
X024170Y022500D02*
X023730Y022500D01*
X023730Y022318D01*
X023988Y022060D01*
X024170Y022060D01*
X024170Y022500D01*
X024170Y022363D02*
X024170Y022363D01*
X024170Y022205D02*
X024170Y022205D01*
X024497Y022205D02*
X025430Y022205D01*
X025430Y022363D02*
X024610Y022363D01*
X024610Y022522D02*
X025430Y022522D01*
X025430Y022680D02*
X024610Y022680D01*
X023886Y022839D02*
X023539Y022839D01*
X023670Y022680D02*
X023730Y022680D01*
X023730Y022522D02*
X023670Y022522D01*
X023670Y022363D02*
X023730Y022363D01*
X023843Y022205D02*
X023582Y022205D01*
X021920Y020250D02*
X017170Y020250D01*
X015420Y020250D01*
X014170Y021500D01*
X014170Y021000D02*
X015420Y019750D01*
X021170Y019750D01*
X021670Y019250D01*
X023170Y019250D01*
X021170Y018750D02*
X017920Y018750D01*
X015420Y018750D01*
X014170Y020000D01*
X012670Y020000D01*
X010920Y018250D01*
X009670Y018250D01*
X009068Y018084D02*
X008289Y018084D01*
X008131Y018242D02*
X009040Y018242D01*
X009061Y018401D02*
X007972Y018401D01*
X007908Y018559D02*
X007760Y018559D01*
X008180Y019193D02*
X009040Y019193D01*
X009041Y019352D02*
X008021Y019352D01*
X007957Y019510D02*
X007863Y019510D01*
X008240Y017133D02*
X009047Y017133D01*
X009040Y016182D02*
X008191Y016182D01*
X007670Y016250D02*
X003670Y016250D01*
X003441Y015750D02*
X003899Y015750D01*
X003441Y015750D01*
X003899Y015750D02*
X004083Y015674D01*
X004187Y015570D01*
X007734Y015570D01*
X007851Y015521D01*
X008303Y015070D01*
X009073Y015070D01*
X009040Y015151D01*
X009040Y015349D01*
X009073Y015430D01*
X008106Y015430D01*
X007989Y015479D01*
X007899Y015569D01*
X007537Y015930D01*
X004187Y015930D01*
X004083Y015826D01*
X003899Y015750D01*
X004006Y015706D02*
X007761Y015706D01*
X007788Y015548D02*
X007920Y015548D01*
X007984Y015389D02*
X009056Y015389D01*
X009040Y015231D02*
X008142Y015231D01*
X008301Y015072D02*
X009073Y015072D01*
X009670Y015250D02*
X011420Y015250D01*
X011920Y014750D01*
X012670Y014750D01*
X015170Y014750D01*
X016170Y015750D01*
X016177Y013804D02*
X016810Y013804D01*
X016728Y013646D02*
X016018Y013646D01*
X010920Y019250D02*
X012670Y021000D01*
X014170Y021000D01*
X015394Y021729D02*
X016890Y021729D01*
X016653Y021571D02*
X015552Y021571D01*
X015735Y023156D02*
X015105Y023156D01*
X015321Y023314D02*
X015519Y023314D01*
X015440Y023473D02*
X015400Y023473D01*
X015420Y023631D02*
X015420Y023631D01*
X015420Y023790D02*
X015420Y023790D01*
X015420Y023948D02*
X015420Y023948D01*
X015367Y024107D02*
X015473Y024107D01*
X015598Y024265D02*
X015242Y024265D01*
X016105Y023156D02*
X016735Y023156D01*
X016519Y023314D02*
X016321Y023314D01*
X016400Y023473D02*
X016440Y023473D01*
X016420Y023631D02*
X016420Y023631D01*
X016420Y023790D02*
X016420Y023790D01*
X016420Y023948D02*
X016420Y023948D01*
X016367Y024107D02*
X016473Y024107D01*
X016598Y024265D02*
X016242Y024265D01*
X017105Y023156D02*
X017735Y023156D01*
X017519Y023314D02*
X017321Y023314D01*
X017400Y023473D02*
X017440Y023473D01*
X017420Y023631D02*
X017420Y023631D01*
X017420Y023790D02*
X017420Y023790D01*
X017420Y023948D02*
X017420Y023948D01*
X017367Y024107D02*
X017473Y024107D01*
X017598Y024265D02*
X017242Y024265D01*
X018242Y024265D02*
X018598Y024265D01*
X018637Y024304D02*
X018496Y024163D01*
X018420Y023979D01*
X018420Y023521D01*
X018496Y023337D01*
X018637Y023196D01*
X018821Y023120D01*
X019019Y023120D01*
X019203Y023196D01*
X019344Y023337D01*
X019420Y023521D01*
X019420Y023979D01*
X019344Y024163D01*
X019203Y024304D01*
X019019Y024380D01*
X018821Y024380D01*
X018637Y024304D01*
X018473Y024107D02*
X018367Y024107D01*
X018420Y023948D02*
X018420Y023948D01*
X018420Y023790D02*
X018420Y023790D01*
X018420Y023631D02*
X018420Y023631D01*
X018400Y023473D02*
X018440Y023473D01*
X018519Y023314D02*
X018321Y023314D01*
X018105Y023156D02*
X018735Y023156D01*
X019105Y023156D02*
X019735Y023156D01*
X019821Y023120D02*
X020019Y023120D01*
X020203Y023196D01*
X020344Y023337D01*
X020420Y023521D01*
X020496Y023337D01*
X020637Y023196D01*
X020821Y023120D01*
X021019Y023120D01*
X021203Y023196D01*
X021344Y023337D01*
X021420Y023521D01*
X021420Y023979D01*
X021344Y024163D01*
X021203Y024304D01*
X021019Y024380D01*
X020821Y024380D01*
X020637Y024304D01*
X020496Y024163D01*
X020420Y023979D01*
X020420Y023521D01*
X020420Y023979D01*
X020344Y024163D01*
X020203Y024304D01*
X020019Y024380D01*
X019821Y024380D01*
X019637Y024304D01*
X019496Y024163D01*
X019420Y023979D01*
X019420Y023521D01*
X019496Y023337D01*
X019637Y023196D01*
X019821Y023120D01*
X020105Y023156D02*
X020735Y023156D01*
X020519Y023314D02*
X020321Y023314D01*
X020400Y023473D02*
X020440Y023473D01*
X020420Y023631D02*
X020420Y023631D01*
X020420Y023790D02*
X020420Y023790D01*
X020420Y023948D02*
X020420Y023948D01*
X020367Y024107D02*
X020473Y024107D01*
X020598Y024265D02*
X020242Y024265D01*
X019598Y024265D02*
X019242Y024265D01*
X019367Y024107D02*
X019473Y024107D01*
X019420Y023948D02*
X019420Y023948D01*
X019420Y023790D02*
X019420Y023790D01*
X019420Y023631D02*
X019420Y023631D01*
X019400Y023473D02*
X019440Y023473D01*
X019519Y023314D02*
X019321Y023314D01*
X021105Y023156D02*
X021735Y023156D01*
X021519Y023314D02*
X021321Y023314D01*
X021400Y023473D02*
X021440Y023473D01*
X021420Y023631D02*
X021420Y023631D01*
X021420Y023790D02*
X021420Y023790D01*
X021420Y023948D02*
X021420Y023948D01*
X021367Y024107D02*
X021473Y024107D01*
X021598Y024265D02*
X021242Y024265D01*
X022092Y025375D02*
X017497Y025375D01*
X017656Y025533D02*
X022250Y025533D01*
X022409Y025692D02*
X017814Y025692D01*
X017973Y025850D02*
X022567Y025850D01*
X022609Y027277D02*
X022231Y027277D01*
X021643Y027911D02*
X024597Y027911D01*
X024597Y028069D02*
X021660Y028069D01*
X021660Y028228D02*
X024597Y028228D01*
X024597Y028386D02*
X021660Y028386D01*
X021660Y028545D02*
X024597Y028545D01*
X024597Y028703D02*
X021660Y028703D01*
X021660Y028862D02*
X024597Y028862D01*
X024597Y029020D02*
X021660Y029020D01*
X021660Y029179D02*
X024597Y029179D01*
X024597Y029337D02*
X021660Y029337D01*
X021660Y029496D02*
X024597Y029496D01*
X024597Y029654D02*
X021660Y029654D01*
X021660Y029813D02*
X024597Y029813D01*
X024623Y027752D02*
X021338Y027752D01*
X021338Y027594D02*
X025430Y027594D01*
X020920Y027750D02*
X020920Y029000D01*
X020180Y029020D02*
X002243Y029020D01*
X002243Y028862D02*
X020180Y028862D01*
X020180Y028703D02*
X002243Y028703D01*
X002243Y028545D02*
X020180Y028545D01*
X020180Y028386D02*
X002243Y028386D01*
X002243Y028228D02*
X020180Y028228D01*
X020180Y028069D02*
X002243Y028069D01*
X002243Y027911D02*
X020197Y027911D01*
X020502Y027752D02*
X002217Y027752D01*
X001410Y027594D02*
X020502Y027594D01*
X019609Y027277D02*
X019231Y027277D01*
X019363Y027118D02*
X019477Y027118D01*
X019420Y026960D02*
X019420Y026960D01*
X019420Y026801D02*
X019420Y026801D01*
X019420Y026643D02*
X019420Y026643D01*
X019405Y026484D02*
X019435Y026484D01*
X019507Y026326D02*
X019333Y026326D01*
X019133Y026167D02*
X019707Y026167D01*
X017609Y027277D02*
X017231Y027277D01*
X017203Y027304D02*
X017019Y027380D01*
X016821Y027380D01*
X016637Y027304D01*
X016496Y027163D01*
X016420Y026979D01*
X016420Y026521D01*
X016496Y026337D01*
X016637Y026196D01*
X016821Y026120D01*
X017019Y026120D01*
X017203Y026196D01*
X017344Y026337D01*
X017420Y026521D01*
X017420Y026979D01*
X017344Y027163D01*
X017203Y027304D01*
X017363Y027118D02*
X017477Y027118D01*
X017420Y026960D02*
X017420Y026960D01*
X017420Y026801D02*
X017420Y026801D01*
X017420Y026643D02*
X017420Y026643D01*
X017405Y026484D02*
X017435Y026484D01*
X017507Y026326D02*
X017333Y026326D01*
X017384Y026167D02*
X017133Y026167D01*
X017226Y026009D02*
X015131Y026009D01*
X015232Y026167D02*
X015707Y026167D01*
X015637Y026196D02*
X015821Y026120D01*
X016019Y026120D01*
X016203Y026196D01*
X016344Y026337D01*
X016420Y026521D01*
X016420Y026979D01*
X016344Y027163D01*
X016203Y027304D01*
X016019Y027380D01*
X015821Y027380D01*
X015637Y027304D01*
X015496Y027163D01*
X015420Y026979D01*
X015420Y026521D01*
X015496Y026337D01*
X015637Y026196D01*
X015507Y026326D02*
X015333Y026326D01*
X015405Y026484D02*
X015435Y026484D01*
X015420Y026643D02*
X015420Y026643D01*
X015420Y026801D02*
X015420Y026801D01*
X015420Y026960D02*
X015420Y026960D01*
X015363Y027118D02*
X015477Y027118D01*
X015609Y027277D02*
X015231Y027277D01*
X014920Y026750D02*
X014920Y026250D01*
X014670Y026000D01*
X014973Y025850D02*
X017067Y025850D01*
X016707Y026167D02*
X016133Y026167D01*
X016333Y026326D02*
X016507Y026326D01*
X016435Y026484D02*
X016405Y026484D01*
X016420Y026643D02*
X016420Y026643D01*
X016420Y026801D02*
X016420Y026801D01*
X016420Y026960D02*
X016420Y026960D01*
X016363Y027118D02*
X016477Y027118D01*
X016609Y027277D02*
X016231Y027277D01*
X017415Y029971D02*
X009840Y029971D01*
X009840Y029980D02*
X010300Y029980D01*
X010300Y030148D01*
X010288Y030222D01*
X010265Y030294D01*
X010231Y030362D01*
X010186Y030423D01*
X010133Y030476D01*
X010072Y030521D01*
X010004Y030555D01*
X009932Y030578D01*
X009858Y030590D01*
X009840Y030590D01*
X009840Y029980D01*
X009840Y029940D01*
X010300Y029940D01*
X010300Y029772D01*
X010288Y029698D01*
X010265Y029626D01*
X010231Y029558D01*
X010186Y029497D01*
X010133Y029444D01*
X010072Y029399D01*
X010004Y029365D01*
X009932Y029342D01*
X009858Y029330D01*
X009840Y029330D01*
X009840Y029940D01*
X009800Y029940D01*
X009800Y029330D01*
X009782Y029330D01*
X009708Y029342D01*
X009636Y029365D01*
X009568Y029399D01*
X009507Y029444D01*
X009454Y029497D01*
X009409Y029558D01*
X009375Y029626D01*
X009352Y029698D01*
X009340Y029772D01*
X009340Y029940D01*
X009800Y029940D01*
X009800Y029980D01*
X009800Y030590D01*
X009782Y030590D01*
X009708Y030578D01*
X009636Y030555D01*
X009568Y030521D01*
X009507Y030476D01*
X009454Y030423D01*
X009409Y030362D01*
X009375Y030294D01*
X009352Y030222D01*
X009340Y030148D01*
X009340Y029980D01*
X009800Y029980D01*
X009840Y029980D01*
X009800Y029971D02*
X008580Y029971D01*
X008580Y029813D02*
X009340Y029813D01*
X009366Y029654D02*
X008560Y029654D01*
X008580Y029703D02*
X008498Y029504D01*
X008346Y029352D01*
X008147Y029270D01*
X007933Y029270D01*
X007734Y029352D01*
X007582Y029504D01*
X007500Y029703D01*
X007500Y030217D01*
X007582Y030416D01*
X007734Y030568D01*
X007933Y030650D01*
X008147Y030650D01*
X008346Y030568D01*
X008498Y030416D01*
X008580Y030217D01*
X008580Y029703D01*
X008489Y029496D02*
X009456Y029496D01*
X009738Y029337D02*
X008309Y029337D01*
X007771Y029337D02*
X002243Y029337D01*
X002243Y029179D02*
X020180Y029179D01*
X020180Y029337D02*
X009902Y029337D01*
X009840Y029337D02*
X009800Y029337D01*
X009800Y029496D02*
X009840Y029496D01*
X009840Y029654D02*
X009800Y029654D01*
X009800Y029813D02*
X009840Y029813D01*
X009840Y030130D02*
X009800Y030130D01*
X009800Y030288D02*
X009840Y030288D01*
X009840Y030447D02*
X009800Y030447D01*
X009478Y030447D02*
X008467Y030447D01*
X008551Y030288D02*
X009373Y030288D01*
X009340Y030130D02*
X008580Y030130D01*
X008256Y030605D02*
X017321Y030605D01*
X017342Y030447D02*
X010162Y030447D01*
X010267Y030288D02*
X017292Y030288D01*
X017311Y030130D02*
X010300Y030130D01*
X010300Y029813D02*
X020180Y029813D01*
X020180Y029654D02*
X010274Y029654D01*
X010184Y029496D02*
X020180Y029496D01*
X017292Y030764D02*
X002243Y030764D01*
X002243Y030922D02*
X007022Y030922D01*
X007039Y030905D02*
X007293Y030800D01*
X007567Y030800D01*
X007821Y030905D01*
X008015Y031099D01*
X008120Y031353D01*
X008120Y031627D01*
X008036Y031830D01*
X008147Y031830D01*
X008346Y031912D01*
X008498Y032064D01*
X008580Y032263D01*
X008580Y032777D01*
X008498Y032976D01*
X008346Y033128D01*
X008147Y033210D01*
X007933Y033210D01*
X007734Y033128D01*
X007582Y032976D01*
X007500Y032777D01*
X007500Y032263D01*
X007534Y032180D01*
X007293Y032180D01*
X007039Y032075D01*
X006845Y031881D01*
X006740Y031627D01*
X006740Y031353D01*
X006845Y031099D01*
X007039Y030905D01*
X006864Y031081D02*
X002243Y031081D01*
X002243Y031239D02*
X006787Y031239D01*
X006740Y031398D02*
X002243Y031398D01*
X002243Y031556D02*
X006740Y031556D01*
X006776Y031715D02*
X002243Y031715D01*
X002243Y031873D02*
X006842Y031873D01*
X006996Y032032D02*
X002243Y032032D01*
X002243Y032190D02*
X007530Y032190D01*
X007500Y032349D02*
X002243Y032349D01*
X002243Y032507D02*
X007500Y032507D01*
X007500Y032666D02*
X002243Y032666D01*
X002243Y032824D02*
X007519Y032824D01*
X007589Y032983D02*
X002243Y032983D01*
X002243Y033141D02*
X007766Y033141D01*
X008314Y033141D02*
X009726Y033141D01*
X009708Y033138D02*
X009636Y033115D01*
X009568Y033081D01*
X009507Y033036D01*
X009454Y032983D01*
X009409Y032922D01*
X009375Y032854D01*
X009352Y032782D01*
X009340Y032708D01*
X009340Y032540D01*
X009800Y032540D01*
X009800Y033150D01*
X009782Y033150D01*
X009708Y033138D01*
X009800Y033141D02*
X009840Y033141D01*
X009840Y033150D02*
X009840Y032540D01*
X010300Y032540D01*
X010300Y032708D01*
X010288Y032782D01*
X010265Y032854D01*
X010231Y032922D01*
X010186Y032983D01*
X010133Y033036D01*
X010072Y033081D01*
X010004Y033115D01*
X009932Y033138D01*
X009858Y033150D01*
X009840Y033150D01*
X009914Y033141D02*
X017306Y033141D01*
X017292Y033300D02*
X002243Y033300D01*
X002243Y030605D02*
X007824Y030605D01*
X007613Y030447D02*
X002243Y030447D01*
X002243Y030288D02*
X007529Y030288D01*
X007500Y030130D02*
X002243Y030130D01*
X002243Y029971D02*
X007500Y029971D01*
X007500Y029813D02*
X002243Y029813D01*
X002243Y029654D02*
X007520Y029654D01*
X007591Y029496D02*
X002243Y029496D01*
X007838Y030922D02*
X010022Y030922D01*
X010039Y030905D02*
X010293Y030800D01*
X010567Y030800D01*
X010821Y030905D01*
X011015Y031099D01*
X011120Y031353D01*
X011120Y031627D01*
X011015Y031881D01*
X010821Y032075D01*
X010567Y032180D01*
X010293Y032180D01*
X010254Y032164D01*
X010265Y032186D01*
X010288Y032258D01*
X010300Y032332D01*
X010300Y032500D01*
X009840Y032500D01*
X009840Y032540D01*
X009800Y032540D01*
X009800Y032500D01*
X009840Y032500D01*
X009840Y031890D01*
X009854Y031890D01*
X009845Y031881D01*
X009740Y031627D01*
X009740Y031353D01*
X009845Y031099D01*
X010039Y030905D01*
X009864Y031081D02*
X007996Y031081D01*
X008073Y031239D02*
X009787Y031239D01*
X009740Y031398D02*
X008120Y031398D01*
X008120Y031556D02*
X009740Y031556D01*
X009776Y031715D02*
X008084Y031715D01*
X008251Y031873D02*
X009842Y031873D01*
X009800Y031890D02*
X009800Y032500D01*
X009340Y032500D01*
X009340Y032332D01*
X009352Y032258D01*
X009375Y032186D01*
X009409Y032118D01*
X009454Y032057D01*
X009507Y032004D01*
X009568Y031959D01*
X009636Y031925D01*
X009708Y031902D01*
X009782Y031890D01*
X009800Y031890D01*
X009800Y032032D02*
X009840Y032032D01*
X009840Y032190D02*
X009800Y032190D01*
X009800Y032349D02*
X009840Y032349D01*
X009840Y032507D02*
X017379Y032507D01*
X017302Y032349D02*
X010300Y032349D01*
X010266Y032190D02*
X017292Y032190D01*
X017354Y032032D02*
X010864Y032032D01*
X011018Y031873D02*
X017312Y031873D01*
X017292Y031715D02*
X011084Y031715D01*
X011120Y031556D02*
X017341Y031556D01*
X017322Y031398D02*
X011120Y031398D01*
X011073Y031239D02*
X017292Y031239D01*
X017331Y031081D02*
X010996Y031081D01*
X010838Y030922D02*
X017332Y030922D01*
X017296Y032666D02*
X010300Y032666D01*
X010275Y032824D02*
X017292Y032824D01*
X017368Y032983D02*
X010186Y032983D01*
X009840Y032983D02*
X009800Y032983D01*
X009800Y032824D02*
X009840Y032824D01*
X009840Y032666D02*
X009800Y032666D01*
X009800Y032507D02*
X008580Y032507D01*
X008580Y032349D02*
X009340Y032349D01*
X009374Y032190D02*
X008550Y032190D01*
X008465Y032032D02*
X009480Y032032D01*
X009340Y032666D02*
X008580Y032666D01*
X008561Y032824D02*
X009365Y032824D01*
X009454Y032983D02*
X008491Y032983D01*
X010231Y027277D02*
X010609Y027277D01*
X010477Y027118D02*
X010363Y027118D01*
X010420Y026979D02*
X010420Y026521D01*
X010344Y026337D01*
X010327Y026320D01*
X010513Y026320D01*
X010496Y026337D01*
X010420Y026521D01*
X010420Y026979D01*
X010420Y026960D02*
X010420Y026960D01*
X010420Y026801D02*
X010420Y026801D01*
X010420Y026643D02*
X010420Y026643D01*
X010405Y026484D02*
X010435Y026484D01*
X010507Y026326D02*
X010333Y026326D01*
X010920Y026750D02*
X011920Y026750D01*
X011477Y027118D02*
X011363Y027118D01*
X011231Y027277D02*
X011609Y027277D01*
X010519Y023314D02*
X010321Y023314D01*
X010105Y023156D02*
X010735Y023156D01*
X010940Y020250D02*
X009670Y020250D01*
X009670Y019250D02*
X010920Y019250D01*
X007603Y015865D02*
X004122Y015865D01*
X003108Y019986D02*
X001410Y019986D01*
X001410Y020144D02*
X003043Y020144D01*
X003040Y020303D02*
X001410Y020303D01*
X001410Y020461D02*
X003086Y020461D01*
X003202Y020620D02*
X001410Y020620D01*
X001410Y020778D02*
X003373Y020778D01*
X003441Y020750D02*
X003899Y020750D01*
X004083Y020674D01*
X004187Y020570D01*
X004647Y020570D01*
X004297Y020920D01*
X004177Y020920D01*
X004083Y020826D01*
X003899Y020750D01*
X003441Y020750D01*
X003146Y020937D02*
X001410Y020937D01*
X001410Y021095D02*
X003063Y021095D01*
X003040Y021254D02*
X001410Y021254D01*
X001410Y021412D02*
X003066Y021412D01*
X003153Y021571D02*
X001410Y021571D01*
X001410Y021729D02*
X003390Y021729D01*
X003670Y021250D02*
X003680Y021240D01*
X004430Y021240D01*
X004303Y021571D02*
X004187Y021571D01*
X004180Y021729D02*
X003950Y021729D01*
X004180Y021888D02*
X001410Y021888D01*
X001410Y022046D02*
X004180Y022046D01*
X004180Y022205D02*
X001410Y022205D01*
X001410Y022363D02*
X004237Y022363D01*
X004439Y020778D02*
X003967Y020778D01*
X004138Y020620D02*
X004598Y020620D01*
X003670Y008250D02*
X007670Y008250D01*
X007608Y005404D02*
X007732Y005404D01*
X008108Y005404D02*
X008232Y005404D01*
X008608Y005404D02*
X008732Y005404D01*
X008920Y005000D02*
X014920Y005000D01*
X015920Y004000D01*
X015924Y002197D01*
X016924Y002197D02*
X016920Y004000D01*
X016420Y004500D01*
X016420Y005250D01*
X016002Y005245D02*
X015128Y005245D01*
X015286Y005087D02*
X016002Y005087D01*
X016100Y004928D02*
X015445Y004928D01*
X015603Y004770D02*
X016100Y004770D01*
X016100Y004611D02*
X015762Y004611D01*
X015920Y004453D02*
X016100Y004453D01*
X016079Y004294D02*
X016173Y004294D01*
X016002Y005404D02*
X009108Y005404D01*
X008420Y005000D02*
X008920Y004500D01*
X012670Y004500D01*
X012920Y004250D01*
X012924Y002197D01*
X010924Y002197D02*
X010920Y003750D01*
X010670Y004000D01*
X008920Y004000D01*
X007920Y005000D01*
X007420Y005000D02*
X008920Y003500D01*
X008924Y002197D01*
X007673Y004294D02*
X005364Y004294D01*
X005364Y004453D02*
X007515Y004453D01*
X007218Y004611D02*
X005364Y004611D01*
X005486Y004770D02*
X007059Y004770D01*
X007002Y004928D02*
X005645Y004928D01*
X005660Y005087D02*
X007002Y005087D01*
X007074Y005245D02*
X005660Y005245D01*
X005660Y005404D02*
X007232Y005404D01*
X005655Y005562D02*
X016141Y005562D01*
X015910Y006038D02*
X016654Y006038D01*
X016603Y006196D02*
X016069Y006196D01*
X016227Y006355D02*
X016611Y006355D01*
X017170Y006196D02*
X017170Y006196D01*
X017170Y006038D02*
X017170Y006038D01*
X017170Y005879D02*
X017170Y005879D01*
X017753Y005562D02*
X019517Y005562D01*
X019675Y005404D02*
X017969Y005404D01*
X017420Y004750D02*
X017924Y004246D01*
X017924Y002197D01*
X018924Y002197D02*
X018924Y003996D01*
X004484Y004294D02*
X002368Y004294D01*
X002368Y004453D02*
X004484Y004453D01*
X004484Y004611D02*
X002368Y004611D01*
X002368Y004770D02*
X004354Y004770D01*
X004195Y004928D02*
X002368Y004928D01*
X002368Y005087D02*
X004180Y005087D01*
X004180Y005245D02*
X002368Y005245D01*
X002368Y005404D02*
X004180Y005404D01*
X004185Y005562D02*
X002368Y005562D01*
D19*
X007420Y005000D03*
X007920Y005000D03*
X008420Y005000D03*
X008920Y005000D03*
X011670Y010250D03*
X012170Y012250D03*
X011170Y014250D03*
X012670Y014750D03*
X013170Y015750D03*
X013670Y016250D03*
X014170Y015250D03*
X014670Y014250D03*
X011170Y017500D03*
X010670Y017750D03*
X010680Y020740D03*
X012920Y023000D03*
X013430Y022490D03*
X011920Y025500D03*
X009920Y025500D03*
X008420Y025500D03*
X008420Y026000D03*
X006420Y024500D03*
X006170Y022500D03*
X015670Y009250D03*
X015170Y008750D03*
X015170Y008250D03*
X016170Y008250D03*
X016170Y007750D03*
X016420Y005250D03*
X017170Y005250D03*
X017420Y004750D03*
X019920Y005750D03*
X020170Y005000D03*
X020920Y005500D03*
X021920Y005000D03*
X020420Y006750D03*
X019920Y007250D03*
X020920Y008250D03*
X020420Y008750D03*
X021420Y007500D03*
X021920Y008750D03*
X022420Y009750D03*
X019420Y011250D03*
X018920Y012250D03*
X018420Y013250D03*
X019420Y013250D03*
X017920Y018750D03*
X018920Y019250D03*
X019420Y019250D03*
X021920Y020250D03*
X023930Y018240D03*
X020920Y027750D03*
D20*
X024430Y020740D02*
X024430Y020490D01*
X024430Y018240D02*
X024430Y017990D01*
D21*
X010430Y031490D03*
X007430Y031490D03*
M02*
