G75*
G70*
%OFA0B0*%
%FSLAX24Y24*%
%IPPOS*%
%LPD*%
%AMOC8*
5,1,8,0,0,1.08239X$1,22.5*
%
%ADD10C,0.0000*%
%ADD11C,0.0600*%
%ADD12C,0.0520*%
%ADD13R,0.1000X0.2000*%
%ADD14OC8,0.0520*%
%ADD15R,0.0500X0.0250*%
%ADD16C,0.0400*%
%ADD17OC8,0.1000*%
%ADD18C,0.0160*%
%ADD19OC8,0.0356*%
%ADD20C,0.0100*%
%ADD21C,0.0900*%
D10*
X002232Y000500D02*
X001878Y001012D01*
X001878Y010146D01*
X000920Y010146D01*
X000920Y027862D01*
X001753Y027862D01*
X001753Y033571D01*
X024587Y033571D01*
X024587Y027862D01*
X025420Y027862D01*
X025420Y010146D01*
X024462Y010146D01*
X024462Y001012D01*
X024108Y000500D01*
X002232Y000500D01*
X012186Y017626D02*
X012188Y017688D01*
X012194Y017751D01*
X012204Y017812D01*
X012218Y017873D01*
X012235Y017933D01*
X012256Y017992D01*
X012282Y018049D01*
X012310Y018104D01*
X012342Y018158D01*
X012378Y018209D01*
X012416Y018259D01*
X012458Y018305D01*
X012502Y018349D01*
X012550Y018390D01*
X012599Y018428D01*
X012651Y018462D01*
X012705Y018493D01*
X012761Y018521D01*
X012819Y018545D01*
X012878Y018566D01*
X012938Y018582D01*
X012999Y018595D01*
X013061Y018604D01*
X013123Y018609D01*
X013186Y018610D01*
X013248Y018607D01*
X013310Y018600D01*
X013372Y018589D01*
X013432Y018574D01*
X013492Y018556D01*
X013550Y018534D01*
X013607Y018508D01*
X013662Y018478D01*
X013715Y018445D01*
X013766Y018409D01*
X013814Y018370D01*
X013860Y018327D01*
X013903Y018282D01*
X013943Y018234D01*
X013980Y018184D01*
X014014Y018131D01*
X014045Y018077D01*
X014071Y018021D01*
X014095Y017963D01*
X014114Y017903D01*
X014130Y017843D01*
X014142Y017781D01*
X014150Y017720D01*
X014154Y017657D01*
X014154Y017595D01*
X014150Y017532D01*
X014142Y017471D01*
X014130Y017409D01*
X014114Y017349D01*
X014095Y017289D01*
X014071Y017231D01*
X014045Y017175D01*
X014014Y017121D01*
X013980Y017068D01*
X013943Y017018D01*
X013903Y016970D01*
X013860Y016925D01*
X013814Y016882D01*
X013766Y016843D01*
X013715Y016807D01*
X013662Y016774D01*
X013607Y016744D01*
X013550Y016718D01*
X013492Y016696D01*
X013432Y016678D01*
X013372Y016663D01*
X013310Y016652D01*
X013248Y016645D01*
X013186Y016642D01*
X013123Y016643D01*
X013061Y016648D01*
X012999Y016657D01*
X012938Y016670D01*
X012878Y016686D01*
X012819Y016707D01*
X012761Y016731D01*
X012705Y016759D01*
X012651Y016790D01*
X012599Y016824D01*
X012550Y016862D01*
X012502Y016903D01*
X012458Y016947D01*
X012416Y016993D01*
X012378Y017043D01*
X012342Y017094D01*
X012310Y017148D01*
X012282Y017203D01*
X012256Y017260D01*
X012235Y017319D01*
X012218Y017379D01*
X012204Y017440D01*
X012194Y017501D01*
X012188Y017564D01*
X012186Y017626D01*
X017282Y030250D02*
X017284Y030273D01*
X017290Y030296D01*
X017300Y030317D01*
X017313Y030337D01*
X017329Y030354D01*
X017348Y030368D01*
X017369Y030378D01*
X017391Y030385D01*
X017414Y030388D01*
X017438Y030387D01*
X017460Y030382D01*
X017482Y030373D01*
X017502Y030361D01*
X017520Y030345D01*
X017534Y030327D01*
X017546Y030307D01*
X017554Y030285D01*
X017558Y030262D01*
X017558Y030238D01*
X017554Y030215D01*
X017546Y030193D01*
X017534Y030173D01*
X017520Y030155D01*
X017502Y030139D01*
X017482Y030127D01*
X017460Y030118D01*
X017438Y030113D01*
X017414Y030112D01*
X017391Y030115D01*
X017369Y030122D01*
X017348Y030132D01*
X017329Y030146D01*
X017313Y030163D01*
X017300Y030183D01*
X017290Y030204D01*
X017284Y030227D01*
X017282Y030250D01*
X017282Y030750D02*
X017284Y030773D01*
X017290Y030796D01*
X017300Y030817D01*
X017313Y030837D01*
X017329Y030854D01*
X017348Y030868D01*
X017369Y030878D01*
X017391Y030885D01*
X017414Y030888D01*
X017438Y030887D01*
X017460Y030882D01*
X017482Y030873D01*
X017502Y030861D01*
X017520Y030845D01*
X017534Y030827D01*
X017546Y030807D01*
X017554Y030785D01*
X017558Y030762D01*
X017558Y030738D01*
X017554Y030715D01*
X017546Y030693D01*
X017534Y030673D01*
X017520Y030655D01*
X017502Y030639D01*
X017482Y030627D01*
X017460Y030618D01*
X017438Y030613D01*
X017414Y030612D01*
X017391Y030615D01*
X017369Y030622D01*
X017348Y030632D01*
X017329Y030646D01*
X017313Y030663D01*
X017300Y030683D01*
X017290Y030704D01*
X017284Y030727D01*
X017282Y030750D01*
X017282Y031250D02*
X017284Y031273D01*
X017290Y031296D01*
X017300Y031317D01*
X017313Y031337D01*
X017329Y031354D01*
X017348Y031368D01*
X017369Y031378D01*
X017391Y031385D01*
X017414Y031388D01*
X017438Y031387D01*
X017460Y031382D01*
X017482Y031373D01*
X017502Y031361D01*
X017520Y031345D01*
X017534Y031327D01*
X017546Y031307D01*
X017554Y031285D01*
X017558Y031262D01*
X017558Y031238D01*
X017554Y031215D01*
X017546Y031193D01*
X017534Y031173D01*
X017520Y031155D01*
X017502Y031139D01*
X017482Y031127D01*
X017460Y031118D01*
X017438Y031113D01*
X017414Y031112D01*
X017391Y031115D01*
X017369Y031122D01*
X017348Y031132D01*
X017329Y031146D01*
X017313Y031163D01*
X017300Y031183D01*
X017290Y031204D01*
X017284Y031227D01*
X017282Y031250D01*
X017282Y031750D02*
X017284Y031773D01*
X017290Y031796D01*
X017300Y031817D01*
X017313Y031837D01*
X017329Y031854D01*
X017348Y031868D01*
X017369Y031878D01*
X017391Y031885D01*
X017414Y031888D01*
X017438Y031887D01*
X017460Y031882D01*
X017482Y031873D01*
X017502Y031861D01*
X017520Y031845D01*
X017534Y031827D01*
X017546Y031807D01*
X017554Y031785D01*
X017558Y031762D01*
X017558Y031738D01*
X017554Y031715D01*
X017546Y031693D01*
X017534Y031673D01*
X017520Y031655D01*
X017502Y031639D01*
X017482Y031627D01*
X017460Y031618D01*
X017438Y031613D01*
X017414Y031612D01*
X017391Y031615D01*
X017369Y031622D01*
X017348Y031632D01*
X017329Y031646D01*
X017313Y031663D01*
X017300Y031683D01*
X017290Y031704D01*
X017284Y031727D01*
X017282Y031750D01*
X017282Y032250D02*
X017284Y032273D01*
X017290Y032296D01*
X017300Y032317D01*
X017313Y032337D01*
X017329Y032354D01*
X017348Y032368D01*
X017369Y032378D01*
X017391Y032385D01*
X017414Y032388D01*
X017438Y032387D01*
X017460Y032382D01*
X017482Y032373D01*
X017502Y032361D01*
X017520Y032345D01*
X017534Y032327D01*
X017546Y032307D01*
X017554Y032285D01*
X017558Y032262D01*
X017558Y032238D01*
X017554Y032215D01*
X017546Y032193D01*
X017534Y032173D01*
X017520Y032155D01*
X017502Y032139D01*
X017482Y032127D01*
X017460Y032118D01*
X017438Y032113D01*
X017414Y032112D01*
X017391Y032115D01*
X017369Y032122D01*
X017348Y032132D01*
X017329Y032146D01*
X017313Y032163D01*
X017300Y032183D01*
X017290Y032204D01*
X017284Y032227D01*
X017282Y032250D01*
X017282Y032750D02*
X017284Y032773D01*
X017290Y032796D01*
X017300Y032817D01*
X017313Y032837D01*
X017329Y032854D01*
X017348Y032868D01*
X017369Y032878D01*
X017391Y032885D01*
X017414Y032888D01*
X017438Y032887D01*
X017460Y032882D01*
X017482Y032873D01*
X017502Y032861D01*
X017520Y032845D01*
X017534Y032827D01*
X017546Y032807D01*
X017554Y032785D01*
X017558Y032762D01*
X017558Y032738D01*
X017554Y032715D01*
X017546Y032693D01*
X017534Y032673D01*
X017520Y032655D01*
X017502Y032639D01*
X017482Y032627D01*
X017460Y032618D01*
X017438Y032613D01*
X017414Y032612D01*
X017391Y032615D01*
X017369Y032622D01*
X017348Y032632D01*
X017329Y032646D01*
X017313Y032663D01*
X017300Y032683D01*
X017290Y032704D01*
X017284Y032727D01*
X017282Y032750D01*
X017282Y033250D02*
X017284Y033273D01*
X017290Y033296D01*
X017300Y033317D01*
X017313Y033337D01*
X017329Y033354D01*
X017348Y033368D01*
X017369Y033378D01*
X017391Y033385D01*
X017414Y033388D01*
X017438Y033387D01*
X017460Y033382D01*
X017482Y033373D01*
X017502Y033361D01*
X017520Y033345D01*
X017534Y033327D01*
X017546Y033307D01*
X017554Y033285D01*
X017558Y033262D01*
X017558Y033238D01*
X017554Y033215D01*
X017546Y033193D01*
X017534Y033173D01*
X017520Y033155D01*
X017502Y033139D01*
X017482Y033127D01*
X017460Y033118D01*
X017438Y033113D01*
X017414Y033112D01*
X017391Y033115D01*
X017369Y033122D01*
X017348Y033132D01*
X017329Y033146D01*
X017313Y033163D01*
X017300Y033183D01*
X017290Y033204D01*
X017284Y033227D01*
X017282Y033250D01*
X017782Y030250D02*
X017784Y030273D01*
X017790Y030296D01*
X017800Y030317D01*
X017813Y030337D01*
X017829Y030354D01*
X017848Y030368D01*
X017869Y030378D01*
X017891Y030385D01*
X017914Y030388D01*
X017938Y030387D01*
X017960Y030382D01*
X017982Y030373D01*
X018002Y030361D01*
X018020Y030345D01*
X018034Y030327D01*
X018046Y030307D01*
X018054Y030285D01*
X018058Y030262D01*
X018058Y030238D01*
X018054Y030215D01*
X018046Y030193D01*
X018034Y030173D01*
X018020Y030155D01*
X018002Y030139D01*
X017982Y030127D01*
X017960Y030118D01*
X017938Y030113D01*
X017914Y030112D01*
X017891Y030115D01*
X017869Y030122D01*
X017848Y030132D01*
X017829Y030146D01*
X017813Y030163D01*
X017800Y030183D01*
X017790Y030204D01*
X017784Y030227D01*
X017782Y030250D01*
X018282Y030250D02*
X018284Y030273D01*
X018290Y030296D01*
X018300Y030317D01*
X018313Y030337D01*
X018329Y030354D01*
X018348Y030368D01*
X018369Y030378D01*
X018391Y030385D01*
X018414Y030388D01*
X018438Y030387D01*
X018460Y030382D01*
X018482Y030373D01*
X018502Y030361D01*
X018520Y030345D01*
X018534Y030327D01*
X018546Y030307D01*
X018554Y030285D01*
X018558Y030262D01*
X018558Y030238D01*
X018554Y030215D01*
X018546Y030193D01*
X018534Y030173D01*
X018520Y030155D01*
X018502Y030139D01*
X018482Y030127D01*
X018460Y030118D01*
X018438Y030113D01*
X018414Y030112D01*
X018391Y030115D01*
X018369Y030122D01*
X018348Y030132D01*
X018329Y030146D01*
X018313Y030163D01*
X018300Y030183D01*
X018290Y030204D01*
X018284Y030227D01*
X018282Y030250D01*
X018782Y030250D02*
X018784Y030273D01*
X018790Y030296D01*
X018800Y030317D01*
X018813Y030337D01*
X018829Y030354D01*
X018848Y030368D01*
X018869Y030378D01*
X018891Y030385D01*
X018914Y030388D01*
X018938Y030387D01*
X018960Y030382D01*
X018982Y030373D01*
X019002Y030361D01*
X019020Y030345D01*
X019034Y030327D01*
X019046Y030307D01*
X019054Y030285D01*
X019058Y030262D01*
X019058Y030238D01*
X019054Y030215D01*
X019046Y030193D01*
X019034Y030173D01*
X019020Y030155D01*
X019002Y030139D01*
X018982Y030127D01*
X018960Y030118D01*
X018938Y030113D01*
X018914Y030112D01*
X018891Y030115D01*
X018869Y030122D01*
X018848Y030132D01*
X018829Y030146D01*
X018813Y030163D01*
X018800Y030183D01*
X018790Y030204D01*
X018784Y030227D01*
X018782Y030250D01*
X019282Y030250D02*
X019284Y030273D01*
X019290Y030296D01*
X019300Y030317D01*
X019313Y030337D01*
X019329Y030354D01*
X019348Y030368D01*
X019369Y030378D01*
X019391Y030385D01*
X019414Y030388D01*
X019438Y030387D01*
X019460Y030382D01*
X019482Y030373D01*
X019502Y030361D01*
X019520Y030345D01*
X019534Y030327D01*
X019546Y030307D01*
X019554Y030285D01*
X019558Y030262D01*
X019558Y030238D01*
X019554Y030215D01*
X019546Y030193D01*
X019534Y030173D01*
X019520Y030155D01*
X019502Y030139D01*
X019482Y030127D01*
X019460Y030118D01*
X019438Y030113D01*
X019414Y030112D01*
X019391Y030115D01*
X019369Y030122D01*
X019348Y030132D01*
X019329Y030146D01*
X019313Y030163D01*
X019300Y030183D01*
X019290Y030204D01*
X019284Y030227D01*
X019282Y030250D01*
X019782Y030250D02*
X019784Y030273D01*
X019790Y030296D01*
X019800Y030317D01*
X019813Y030337D01*
X019829Y030354D01*
X019848Y030368D01*
X019869Y030378D01*
X019891Y030385D01*
X019914Y030388D01*
X019938Y030387D01*
X019960Y030382D01*
X019982Y030373D01*
X020002Y030361D01*
X020020Y030345D01*
X020034Y030327D01*
X020046Y030307D01*
X020054Y030285D01*
X020058Y030262D01*
X020058Y030238D01*
X020054Y030215D01*
X020046Y030193D01*
X020034Y030173D01*
X020020Y030155D01*
X020002Y030139D01*
X019982Y030127D01*
X019960Y030118D01*
X019938Y030113D01*
X019914Y030112D01*
X019891Y030115D01*
X019869Y030122D01*
X019848Y030132D01*
X019829Y030146D01*
X019813Y030163D01*
X019800Y030183D01*
X019790Y030204D01*
X019784Y030227D01*
X019782Y030250D01*
X020282Y030250D02*
X020284Y030273D01*
X020290Y030296D01*
X020300Y030317D01*
X020313Y030337D01*
X020329Y030354D01*
X020348Y030368D01*
X020369Y030378D01*
X020391Y030385D01*
X020414Y030388D01*
X020438Y030387D01*
X020460Y030382D01*
X020482Y030373D01*
X020502Y030361D01*
X020520Y030345D01*
X020534Y030327D01*
X020546Y030307D01*
X020554Y030285D01*
X020558Y030262D01*
X020558Y030238D01*
X020554Y030215D01*
X020546Y030193D01*
X020534Y030173D01*
X020520Y030155D01*
X020502Y030139D01*
X020482Y030127D01*
X020460Y030118D01*
X020438Y030113D01*
X020414Y030112D01*
X020391Y030115D01*
X020369Y030122D01*
X020348Y030132D01*
X020329Y030146D01*
X020313Y030163D01*
X020300Y030183D01*
X020290Y030204D01*
X020284Y030227D01*
X020282Y030250D01*
X020782Y030250D02*
X020784Y030273D01*
X020790Y030296D01*
X020800Y030317D01*
X020813Y030337D01*
X020829Y030354D01*
X020848Y030368D01*
X020869Y030378D01*
X020891Y030385D01*
X020914Y030388D01*
X020938Y030387D01*
X020960Y030382D01*
X020982Y030373D01*
X021002Y030361D01*
X021020Y030345D01*
X021034Y030327D01*
X021046Y030307D01*
X021054Y030285D01*
X021058Y030262D01*
X021058Y030238D01*
X021054Y030215D01*
X021046Y030193D01*
X021034Y030173D01*
X021020Y030155D01*
X021002Y030139D01*
X020982Y030127D01*
X020960Y030118D01*
X020938Y030113D01*
X020914Y030112D01*
X020891Y030115D01*
X020869Y030122D01*
X020848Y030132D01*
X020829Y030146D01*
X020813Y030163D01*
X020800Y030183D01*
X020790Y030204D01*
X020784Y030227D01*
X020782Y030250D01*
X021282Y030250D02*
X021284Y030273D01*
X021290Y030296D01*
X021300Y030317D01*
X021313Y030337D01*
X021329Y030354D01*
X021348Y030368D01*
X021369Y030378D01*
X021391Y030385D01*
X021414Y030388D01*
X021438Y030387D01*
X021460Y030382D01*
X021482Y030373D01*
X021502Y030361D01*
X021520Y030345D01*
X021534Y030327D01*
X021546Y030307D01*
X021554Y030285D01*
X021558Y030262D01*
X021558Y030238D01*
X021554Y030215D01*
X021546Y030193D01*
X021534Y030173D01*
X021520Y030155D01*
X021502Y030139D01*
X021482Y030127D01*
X021460Y030118D01*
X021438Y030113D01*
X021414Y030112D01*
X021391Y030115D01*
X021369Y030122D01*
X021348Y030132D01*
X021329Y030146D01*
X021313Y030163D01*
X021300Y030183D01*
X021290Y030204D01*
X021284Y030227D01*
X021282Y030250D01*
X021782Y030250D02*
X021784Y030273D01*
X021790Y030296D01*
X021800Y030317D01*
X021813Y030337D01*
X021829Y030354D01*
X021848Y030368D01*
X021869Y030378D01*
X021891Y030385D01*
X021914Y030388D01*
X021938Y030387D01*
X021960Y030382D01*
X021982Y030373D01*
X022002Y030361D01*
X022020Y030345D01*
X022034Y030327D01*
X022046Y030307D01*
X022054Y030285D01*
X022058Y030262D01*
X022058Y030238D01*
X022054Y030215D01*
X022046Y030193D01*
X022034Y030173D01*
X022020Y030155D01*
X022002Y030139D01*
X021982Y030127D01*
X021960Y030118D01*
X021938Y030113D01*
X021914Y030112D01*
X021891Y030115D01*
X021869Y030122D01*
X021848Y030132D01*
X021829Y030146D01*
X021813Y030163D01*
X021800Y030183D01*
X021790Y030204D01*
X021784Y030227D01*
X021782Y030250D01*
X022282Y030250D02*
X022284Y030273D01*
X022290Y030296D01*
X022300Y030317D01*
X022313Y030337D01*
X022329Y030354D01*
X022348Y030368D01*
X022369Y030378D01*
X022391Y030385D01*
X022414Y030388D01*
X022438Y030387D01*
X022460Y030382D01*
X022482Y030373D01*
X022502Y030361D01*
X022520Y030345D01*
X022534Y030327D01*
X022546Y030307D01*
X022554Y030285D01*
X022558Y030262D01*
X022558Y030238D01*
X022554Y030215D01*
X022546Y030193D01*
X022534Y030173D01*
X022520Y030155D01*
X022502Y030139D01*
X022482Y030127D01*
X022460Y030118D01*
X022438Y030113D01*
X022414Y030112D01*
X022391Y030115D01*
X022369Y030122D01*
X022348Y030132D01*
X022329Y030146D01*
X022313Y030163D01*
X022300Y030183D01*
X022290Y030204D01*
X022284Y030227D01*
X022282Y030250D01*
X022782Y030250D02*
X022784Y030273D01*
X022790Y030296D01*
X022800Y030317D01*
X022813Y030337D01*
X022829Y030354D01*
X022848Y030368D01*
X022869Y030378D01*
X022891Y030385D01*
X022914Y030388D01*
X022938Y030387D01*
X022960Y030382D01*
X022982Y030373D01*
X023002Y030361D01*
X023020Y030345D01*
X023034Y030327D01*
X023046Y030307D01*
X023054Y030285D01*
X023058Y030262D01*
X023058Y030238D01*
X023054Y030215D01*
X023046Y030193D01*
X023034Y030173D01*
X023020Y030155D01*
X023002Y030139D01*
X022982Y030127D01*
X022960Y030118D01*
X022938Y030113D01*
X022914Y030112D01*
X022891Y030115D01*
X022869Y030122D01*
X022848Y030132D01*
X022829Y030146D01*
X022813Y030163D01*
X022800Y030183D01*
X022790Y030204D01*
X022784Y030227D01*
X022782Y030250D01*
X023282Y030250D02*
X023284Y030273D01*
X023290Y030296D01*
X023300Y030317D01*
X023313Y030337D01*
X023329Y030354D01*
X023348Y030368D01*
X023369Y030378D01*
X023391Y030385D01*
X023414Y030388D01*
X023438Y030387D01*
X023460Y030382D01*
X023482Y030373D01*
X023502Y030361D01*
X023520Y030345D01*
X023534Y030327D01*
X023546Y030307D01*
X023554Y030285D01*
X023558Y030262D01*
X023558Y030238D01*
X023554Y030215D01*
X023546Y030193D01*
X023534Y030173D01*
X023520Y030155D01*
X023502Y030139D01*
X023482Y030127D01*
X023460Y030118D01*
X023438Y030113D01*
X023414Y030112D01*
X023391Y030115D01*
X023369Y030122D01*
X023348Y030132D01*
X023329Y030146D01*
X023313Y030163D01*
X023300Y030183D01*
X023290Y030204D01*
X023284Y030227D01*
X023282Y030250D01*
X023782Y030250D02*
X023784Y030273D01*
X023790Y030296D01*
X023800Y030317D01*
X023813Y030337D01*
X023829Y030354D01*
X023848Y030368D01*
X023869Y030378D01*
X023891Y030385D01*
X023914Y030388D01*
X023938Y030387D01*
X023960Y030382D01*
X023982Y030373D01*
X024002Y030361D01*
X024020Y030345D01*
X024034Y030327D01*
X024046Y030307D01*
X024054Y030285D01*
X024058Y030262D01*
X024058Y030238D01*
X024054Y030215D01*
X024046Y030193D01*
X024034Y030173D01*
X024020Y030155D01*
X024002Y030139D01*
X023982Y030127D01*
X023960Y030118D01*
X023938Y030113D01*
X023914Y030112D01*
X023891Y030115D01*
X023869Y030122D01*
X023848Y030132D01*
X023829Y030146D01*
X023813Y030163D01*
X023800Y030183D01*
X023790Y030204D01*
X023784Y030227D01*
X023782Y030250D01*
X024282Y030250D02*
X024284Y030273D01*
X024290Y030296D01*
X024300Y030317D01*
X024313Y030337D01*
X024329Y030354D01*
X024348Y030368D01*
X024369Y030378D01*
X024391Y030385D01*
X024414Y030388D01*
X024438Y030387D01*
X024460Y030382D01*
X024482Y030373D01*
X024502Y030361D01*
X024520Y030345D01*
X024534Y030327D01*
X024546Y030307D01*
X024554Y030285D01*
X024558Y030262D01*
X024558Y030238D01*
X024554Y030215D01*
X024546Y030193D01*
X024534Y030173D01*
X024520Y030155D01*
X024502Y030139D01*
X024482Y030127D01*
X024460Y030118D01*
X024438Y030113D01*
X024414Y030112D01*
X024391Y030115D01*
X024369Y030122D01*
X024348Y030132D01*
X024329Y030146D01*
X024313Y030163D01*
X024300Y030183D01*
X024290Y030204D01*
X024284Y030227D01*
X024282Y030250D01*
D11*
X009570Y030110D02*
X009570Y029810D01*
X007790Y029810D02*
X007790Y030110D01*
X007790Y032370D02*
X007790Y032670D01*
X009570Y032670D02*
X009570Y032370D01*
X009674Y003172D02*
X009674Y001222D01*
X010674Y001222D02*
X010674Y003172D01*
X011674Y003172D02*
X011674Y001222D01*
X012674Y001222D02*
X012674Y003172D01*
X013674Y003172D02*
X013674Y001222D01*
X014674Y001222D02*
X014674Y003172D01*
X015674Y003172D02*
X015674Y001222D01*
X016674Y001222D02*
X016674Y003172D01*
X017674Y003172D02*
X017674Y001222D01*
X018674Y001222D02*
X018674Y003172D01*
X019674Y003172D02*
X019674Y001222D01*
X020674Y001222D02*
X020674Y003172D01*
X021674Y003172D02*
X021674Y001222D01*
X022674Y001222D02*
X022674Y003172D01*
X023674Y003172D02*
X023674Y001222D01*
X008674Y001222D02*
X008674Y003172D01*
X007674Y003172D02*
X007674Y001222D01*
X006674Y001222D02*
X006674Y003172D01*
X005674Y003172D02*
X005674Y001222D01*
X004674Y001222D02*
X004674Y003172D01*
X003674Y003172D02*
X003674Y001222D01*
X002674Y001222D02*
X002674Y003172D01*
D12*
X003290Y006250D02*
X003550Y006250D01*
X003550Y007250D02*
X003290Y007250D01*
X003290Y008250D02*
X003550Y008250D01*
X003550Y009250D02*
X003290Y009250D01*
X003290Y010250D02*
X003550Y010250D01*
X003550Y011250D02*
X003290Y011250D01*
X003290Y012250D02*
X003550Y012250D01*
X003550Y013250D02*
X003290Y013250D01*
X003290Y014250D02*
X003550Y014250D01*
X003550Y015250D02*
X003290Y015250D01*
X003290Y016250D02*
X003550Y016250D01*
X003550Y017250D02*
X003290Y017250D01*
X003290Y018250D02*
X003550Y018250D01*
X003550Y019250D02*
X003290Y019250D01*
X003290Y020250D02*
X003550Y020250D01*
X003550Y021250D02*
X003290Y021250D01*
X005670Y023620D02*
X005670Y023880D01*
X006670Y023880D02*
X006670Y023620D01*
X007670Y023620D02*
X007670Y023880D01*
X008670Y023880D02*
X008670Y023620D01*
X009670Y023620D02*
X009670Y023880D01*
X010670Y023880D02*
X010670Y023620D01*
X011670Y023620D02*
X011670Y023880D01*
X013670Y023880D02*
X013670Y023620D01*
X014670Y023620D02*
X014670Y023880D01*
X015670Y023880D02*
X015670Y023620D01*
X016670Y023620D02*
X016670Y023880D01*
X017670Y023880D02*
X017670Y023620D01*
X018670Y023620D02*
X018670Y023880D01*
X019670Y023880D02*
X019670Y023620D01*
X020670Y023620D02*
X020670Y023880D01*
X021670Y023880D02*
X021670Y023620D01*
X022670Y023620D02*
X022670Y023880D01*
X022790Y021250D02*
X023050Y021250D01*
X023050Y020250D02*
X022790Y020250D01*
X022790Y019250D02*
X023050Y019250D01*
X023050Y018250D02*
X022790Y018250D01*
X022790Y017250D02*
X023050Y017250D01*
X023050Y016250D02*
X022790Y016250D01*
X022790Y015250D02*
X023050Y015250D01*
X023050Y014250D02*
X022790Y014250D01*
X022790Y013250D02*
X023050Y013250D01*
X023050Y012250D02*
X022790Y012250D01*
X022790Y011250D02*
X023050Y011250D01*
X023050Y010250D02*
X022790Y010250D01*
X022790Y009250D02*
X023050Y009250D01*
X023050Y008250D02*
X022790Y008250D01*
X022790Y007250D02*
X023050Y007250D01*
X023050Y006250D02*
X022790Y006250D01*
X017050Y006250D02*
X016790Y006250D01*
X016790Y007250D02*
X017050Y007250D01*
X017050Y008250D02*
X016790Y008250D01*
X016790Y009250D02*
X017050Y009250D01*
X017050Y010250D02*
X016790Y010250D01*
X016790Y011250D02*
X017050Y011250D01*
X017050Y012250D02*
X016790Y012250D01*
X016790Y013250D02*
X017050Y013250D01*
X017050Y014250D02*
X016790Y014250D01*
X016790Y015250D02*
X017050Y015250D01*
X017050Y016250D02*
X016790Y016250D01*
X016790Y017250D02*
X017050Y017250D01*
X017050Y018250D02*
X016790Y018250D01*
X016790Y019250D02*
X017050Y019250D01*
X017050Y020250D02*
X016790Y020250D01*
X016790Y021250D02*
X017050Y021250D01*
X016670Y026620D02*
X016670Y026880D01*
X015670Y026880D02*
X015670Y026620D01*
X014670Y026620D02*
X014670Y026880D01*
X013670Y026880D02*
X013670Y026620D01*
X011670Y026620D02*
X011670Y026880D01*
X010670Y026880D02*
X010670Y026620D01*
X009670Y026620D02*
X009670Y026880D01*
X008670Y026880D02*
X008670Y026620D01*
X007670Y026620D02*
X007670Y026880D01*
X006670Y026880D02*
X006670Y026620D01*
X005670Y026620D02*
X005670Y026880D01*
X009290Y021250D02*
X009550Y021250D01*
X009550Y020250D02*
X009290Y020250D01*
X009290Y019250D02*
X009550Y019250D01*
X009550Y018250D02*
X009290Y018250D01*
X009290Y017250D02*
X009550Y017250D01*
X009550Y016250D02*
X009290Y016250D01*
X009290Y015250D02*
X009550Y015250D01*
X009550Y014250D02*
X009290Y014250D01*
X009290Y013250D02*
X009550Y013250D01*
X009550Y012250D02*
X009290Y012250D01*
X009290Y011250D02*
X009550Y011250D01*
X009550Y010250D02*
X009290Y010250D01*
X009290Y009250D02*
X009550Y009250D01*
X009550Y008250D02*
X009290Y008250D01*
X009290Y007250D02*
X009550Y007250D01*
X009550Y006250D02*
X009290Y006250D01*
X017670Y026620D02*
X017670Y026880D01*
X018670Y026880D02*
X018670Y026620D01*
X019670Y026620D02*
X019670Y026880D01*
X020670Y026880D02*
X020670Y026620D01*
X021670Y026620D02*
X021670Y026880D01*
X022670Y026880D02*
X022670Y026620D01*
D13*
X020670Y029000D03*
D14*
X022920Y022500D03*
X023920Y022500D03*
X003920Y024750D03*
X003920Y025750D03*
D15*
X024180Y021090D03*
X024180Y020740D03*
X024180Y020390D03*
X024180Y018590D03*
X024180Y018240D03*
X024180Y017890D03*
D16*
X022910Y022490D02*
X014680Y022490D01*
X014170Y023000D01*
X012670Y023000D01*
X011670Y022000D01*
X009430Y022000D01*
X009420Y021990D01*
X009420Y021250D01*
X009430Y022000D02*
X004670Y022000D01*
X003920Y023000D02*
X010920Y023000D01*
X011670Y023750D01*
X011670Y024250D01*
X011920Y024500D01*
X022420Y024500D01*
X022670Y024250D01*
X022670Y023750D01*
X022920Y022500D02*
X022910Y022490D01*
X020670Y006250D02*
X016920Y006250D01*
X016170Y006250D01*
X015420Y005500D01*
X008170Y005500D01*
X007420Y006250D01*
X003420Y006250D01*
X002670Y006250D01*
X002670Y022250D01*
X003420Y023000D01*
X003920Y023000D01*
X002670Y006250D02*
X002670Y004500D01*
X002674Y002197D01*
X003674Y002197D02*
X003674Y003746D01*
X003670Y003750D01*
X004674Y003750D01*
X004674Y005246D01*
X004670Y005250D01*
X004674Y003750D02*
X004674Y002197D01*
X020670Y006250D02*
X021420Y005500D01*
X023420Y005500D01*
X023670Y005250D01*
X023670Y004500D01*
X023670Y002201D01*
X023674Y002197D01*
D17*
X023670Y004500D03*
X004670Y005250D03*
X002670Y004500D03*
X004670Y022000D03*
D18*
X005036Y022680D02*
X005509Y022680D01*
X005502Y022673D02*
X005502Y022440D01*
X005277Y022440D01*
X004977Y022740D01*
X004363Y022740D01*
X003930Y022307D01*
X003930Y021693D01*
X004063Y021560D01*
X003947Y021560D01*
X003833Y021674D01*
X003649Y021750D01*
X003191Y021750D01*
X003007Y021674D01*
X002866Y021533D01*
X002790Y021349D01*
X002790Y021151D01*
X002866Y020967D01*
X003007Y020826D01*
X003191Y020750D01*
X003007Y020674D01*
X002866Y020533D01*
X002790Y020349D01*
X002790Y020151D01*
X002866Y019967D01*
X003007Y019826D01*
X003191Y019750D01*
X003007Y019674D01*
X002866Y019533D01*
X002790Y019349D01*
X002790Y019151D01*
X002866Y018967D01*
X003007Y018826D01*
X003191Y018750D01*
X003007Y018674D01*
X002866Y018533D01*
X002790Y018349D01*
X002790Y018151D01*
X002866Y017967D01*
X003007Y017826D01*
X003191Y017750D01*
X003007Y017674D01*
X002866Y017533D01*
X002790Y017349D01*
X002790Y017151D01*
X002866Y016967D01*
X003007Y016826D01*
X003191Y016750D01*
X003007Y016674D01*
X002866Y016533D01*
X002790Y016349D01*
X002790Y016151D01*
X002866Y015967D01*
X003007Y015826D01*
X003191Y015750D01*
X003007Y015674D01*
X002866Y015533D01*
X002790Y015349D01*
X002790Y015151D01*
X002866Y014967D01*
X003007Y014826D01*
X003191Y014750D01*
X003007Y014674D01*
X002866Y014533D01*
X002790Y014349D01*
X002790Y014151D01*
X002866Y013967D01*
X003007Y013826D01*
X003191Y013750D01*
X003007Y013674D01*
X002866Y013533D01*
X002790Y013349D01*
X002790Y013151D01*
X002866Y012967D01*
X003007Y012826D01*
X003191Y012750D01*
X003007Y012674D01*
X002866Y012533D01*
X002790Y012349D01*
X002790Y012151D01*
X002866Y011967D01*
X003007Y011826D01*
X003191Y011750D01*
X003007Y011674D01*
X002866Y011533D01*
X002790Y011349D01*
X002790Y011151D01*
X002866Y010967D01*
X003007Y010826D01*
X003191Y010750D01*
X003007Y010674D01*
X002866Y010533D01*
X002790Y010349D01*
X002790Y010151D01*
X002866Y009967D01*
X003007Y009826D01*
X003191Y009750D01*
X003007Y009674D01*
X002866Y009533D01*
X002790Y009349D01*
X002790Y009151D01*
X002866Y008967D01*
X003007Y008826D01*
X003191Y008750D01*
X003007Y008674D01*
X002866Y008533D01*
X002790Y008349D01*
X002790Y008151D01*
X002866Y007967D01*
X003007Y007826D01*
X003191Y007750D01*
X003007Y007674D01*
X002866Y007533D01*
X002790Y007349D01*
X002790Y007151D01*
X002866Y006967D01*
X003007Y006826D01*
X003191Y006750D01*
X003649Y006750D01*
X003833Y006826D01*
X003937Y006930D01*
X007287Y006930D01*
X007649Y006569D01*
X007739Y006479D01*
X007856Y006430D01*
X008823Y006430D01*
X008790Y006349D01*
X008790Y006151D01*
X008866Y005967D01*
X009007Y005826D01*
X009191Y005750D01*
X009649Y005750D01*
X009833Y005826D01*
X009937Y005930D01*
X015484Y005930D01*
X015601Y005979D01*
X016053Y006430D01*
X016388Y006430D01*
X016382Y006419D01*
X016361Y006353D01*
X016350Y006285D01*
X016350Y006250D01*
X016920Y006250D01*
X017490Y006250D01*
X017490Y006285D01*
X017479Y006353D01*
X017458Y006419D01*
X017452Y006430D01*
X019899Y006430D01*
X019997Y006332D01*
X020343Y006332D01*
X020441Y006430D01*
X020787Y006430D01*
X021149Y006069D01*
X021239Y005979D01*
X021356Y005930D01*
X022403Y005930D01*
X022507Y005826D01*
X022691Y005750D01*
X023149Y005750D01*
X023333Y005826D01*
X023474Y005967D01*
X023550Y006151D01*
X023550Y006349D01*
X023474Y006533D01*
X023333Y006674D01*
X023149Y006750D01*
X023333Y006826D01*
X023474Y006967D01*
X023550Y007151D01*
X023550Y007349D01*
X023474Y007533D01*
X023333Y007674D01*
X023149Y007750D01*
X023333Y007826D01*
X023474Y007967D01*
X023550Y008151D01*
X023550Y008349D01*
X023474Y008533D01*
X023333Y008674D01*
X023149Y008750D01*
X023333Y008826D01*
X023474Y008967D01*
X023550Y009151D01*
X023550Y009349D01*
X023474Y009533D01*
X023333Y009674D01*
X023149Y009750D01*
X023333Y009826D01*
X023474Y009967D01*
X023550Y010151D01*
X023550Y010349D01*
X023474Y010533D01*
X023333Y010674D01*
X023149Y010750D01*
X023333Y010826D01*
X023474Y010967D01*
X023550Y011151D01*
X023550Y011349D01*
X023474Y011533D01*
X023333Y011674D01*
X023149Y011750D01*
X023333Y011826D01*
X023474Y011967D01*
X023550Y012151D01*
X023550Y012349D01*
X023474Y012533D01*
X023333Y012674D01*
X023149Y012750D01*
X023333Y012826D01*
X023474Y012967D01*
X023550Y013151D01*
X023550Y013349D01*
X023474Y013533D01*
X023333Y013674D01*
X023149Y013750D01*
X023333Y013826D01*
X023474Y013967D01*
X023550Y014151D01*
X023550Y014349D01*
X023474Y014533D01*
X023333Y014674D01*
X023149Y014750D01*
X023333Y014826D01*
X023474Y014967D01*
X023550Y015151D01*
X023550Y015349D01*
X023474Y015533D01*
X023333Y015674D01*
X023149Y015750D01*
X023333Y015826D01*
X023474Y015967D01*
X023550Y016151D01*
X023550Y016349D01*
X023474Y016533D01*
X023333Y016674D01*
X023149Y016750D01*
X023333Y016826D01*
X023474Y016967D01*
X023550Y017151D01*
X023550Y017349D01*
X023474Y017533D01*
X023333Y017674D01*
X023149Y017750D01*
X023333Y017826D01*
X023418Y017911D01*
X023507Y017822D01*
X023690Y017822D01*
X023690Y017717D01*
X023727Y017629D01*
X023794Y017562D01*
X023882Y017525D01*
X024478Y017525D01*
X024566Y017562D01*
X024574Y017570D01*
X024644Y017570D01*
X024761Y017619D01*
X024951Y017809D01*
X025000Y017926D01*
X025000Y021054D01*
X024951Y021171D01*
X024861Y021261D01*
X024761Y021361D01*
X024644Y021410D01*
X024574Y021410D01*
X024566Y021418D01*
X024478Y021455D01*
X024268Y021455D01*
X024201Y021521D01*
X024084Y021570D01*
X023437Y021570D01*
X023333Y021674D01*
X023149Y021750D01*
X022691Y021750D01*
X022507Y021674D01*
X022366Y021533D01*
X022290Y021349D01*
X022290Y021333D01*
X022101Y021521D01*
X021984Y021570D01*
X017437Y021570D01*
X017333Y021674D01*
X017149Y021750D01*
X016691Y021750D01*
X016507Y021674D01*
X016403Y021570D01*
X015303Y021570D01*
X014823Y022050D01*
X022663Y022050D01*
X022713Y022000D01*
X023127Y022000D01*
X023420Y022293D01*
X023420Y022707D01*
X023127Y023000D01*
X022713Y023000D01*
X022643Y022930D01*
X014862Y022930D01*
X014672Y023120D01*
X014769Y023120D01*
X014953Y023196D01*
X015094Y023337D01*
X015170Y023521D01*
X015170Y023979D01*
X015094Y024163D01*
X014953Y024304D01*
X014769Y024380D01*
X014571Y024380D01*
X014387Y024304D01*
X014246Y024163D01*
X014170Y023979D01*
X014094Y024163D01*
X013953Y024304D01*
X013769Y024380D01*
X013571Y024380D01*
X013387Y024304D01*
X013246Y024163D01*
X013203Y024060D01*
X012616Y024060D01*
X012499Y024011D01*
X012409Y023921D01*
X012110Y023623D01*
X012110Y023750D01*
X012110Y023915D01*
X012099Y023983D01*
X012078Y024049D01*
X012046Y024111D01*
X012006Y024167D01*
X011957Y024216D01*
X011901Y024256D01*
X011839Y024288D01*
X011773Y024309D01*
X011705Y024320D01*
X011670Y024320D01*
X011670Y023750D01*
X011670Y023750D01*
X012110Y023750D01*
X011670Y023750D01*
X011670Y023750D01*
X011670Y023750D01*
X011230Y023750D01*
X011230Y023915D01*
X011241Y023983D01*
X011262Y024049D01*
X011294Y024111D01*
X011334Y024167D01*
X011383Y024216D01*
X011439Y024256D01*
X011501Y024288D01*
X011567Y024309D01*
X011635Y024320D01*
X011670Y024320D01*
X011670Y023750D01*
X011670Y023183D01*
X011670Y023183D01*
X011670Y023750D01*
X011670Y023750D01*
X011230Y023750D01*
X011230Y023585D01*
X011241Y023517D01*
X011262Y023451D01*
X011294Y023389D01*
X011334Y023333D01*
X011383Y023284D01*
X011439Y023244D01*
X011501Y023212D01*
X011567Y023191D01*
X011635Y023180D01*
X011667Y023180D01*
X011307Y022820D01*
X006191Y022820D01*
X006093Y022918D01*
X005747Y022918D01*
X005502Y022673D01*
X005502Y022522D02*
X005195Y022522D01*
X005667Y022839D02*
X001160Y022839D01*
X001160Y022997D02*
X011484Y022997D01*
X011326Y022839D02*
X006173Y022839D01*
X006387Y023196D02*
X006571Y023120D01*
X006769Y023120D01*
X006953Y023196D01*
X007094Y023337D01*
X007170Y023521D01*
X007246Y023337D01*
X007387Y023196D01*
X007571Y023120D01*
X007769Y023120D01*
X007953Y023196D01*
X008094Y023337D01*
X008170Y023521D01*
X008246Y023337D01*
X008387Y023196D01*
X008571Y023120D01*
X008769Y023120D01*
X008953Y023196D01*
X009094Y023337D01*
X009170Y023521D01*
X009246Y023337D01*
X009387Y023196D01*
X009571Y023120D01*
X009769Y023120D01*
X009953Y023196D01*
X010094Y023337D01*
X010132Y023430D01*
X010208Y023430D01*
X010246Y023337D01*
X010387Y023196D01*
X010571Y023120D01*
X010769Y023120D01*
X010953Y023196D01*
X011094Y023337D01*
X011170Y023521D01*
X011170Y023979D01*
X011094Y024163D01*
X010953Y024304D01*
X010769Y024380D01*
X010571Y024380D01*
X010387Y024304D01*
X010246Y024163D01*
X010208Y024070D01*
X010132Y024070D01*
X010094Y024163D01*
X009990Y024267D01*
X009990Y024314D01*
X009941Y024431D01*
X009851Y024521D01*
X009693Y024680D01*
X021984Y024680D01*
X022101Y024729D01*
X022191Y024819D01*
X022941Y025569D01*
X022990Y025686D01*
X022990Y026233D01*
X023094Y026337D01*
X023170Y026521D01*
X023170Y026979D01*
X023094Y027163D01*
X022953Y027304D01*
X022769Y027380D01*
X022571Y027380D01*
X022387Y027304D01*
X022246Y027163D01*
X022170Y026979D01*
X022170Y026521D01*
X022246Y026337D01*
X022350Y026233D01*
X022350Y025883D01*
X021787Y025320D01*
X017193Y025320D01*
X017941Y026069D01*
X017990Y026186D01*
X017990Y026233D01*
X018094Y026337D01*
X018170Y026521D01*
X018170Y026979D01*
X018094Y027163D01*
X017953Y027304D01*
X017769Y027380D01*
X017571Y027380D01*
X017387Y027304D01*
X017246Y027163D01*
X017170Y026979D01*
X017094Y027163D01*
X016953Y027304D01*
X016769Y027380D01*
X016571Y027380D01*
X016387Y027304D01*
X016246Y027163D01*
X016170Y026979D01*
X016094Y027163D01*
X015953Y027304D01*
X015769Y027380D01*
X015571Y027380D01*
X015387Y027304D01*
X015246Y027163D01*
X015170Y026979D01*
X015170Y026521D01*
X015246Y026337D01*
X015387Y026196D01*
X015571Y026120D01*
X015769Y026120D01*
X015953Y026196D01*
X016094Y026337D01*
X016170Y026521D01*
X016170Y026979D01*
X016170Y026521D01*
X016246Y026337D01*
X016387Y026196D01*
X016571Y026120D01*
X016769Y026120D01*
X016953Y026196D01*
X017094Y026337D01*
X017170Y026521D01*
X017170Y026979D01*
X017170Y026521D01*
X017246Y026337D01*
X017275Y026308D01*
X016787Y025820D01*
X014693Y025820D01*
X014941Y026069D01*
X014990Y026186D01*
X014990Y026233D01*
X015094Y026337D01*
X015170Y026521D01*
X015170Y026979D01*
X015094Y027163D01*
X014953Y027304D01*
X014769Y027380D01*
X014571Y027380D01*
X014387Y027304D01*
X014246Y027163D01*
X014170Y026979D01*
X014094Y027163D01*
X013953Y027304D01*
X013769Y027380D01*
X013571Y027380D01*
X013387Y027304D01*
X013246Y027163D01*
X013170Y026979D01*
X013170Y026521D01*
X013246Y026337D01*
X013263Y026320D01*
X012077Y026320D01*
X012094Y026337D01*
X012170Y026521D01*
X012170Y026979D01*
X012094Y027163D01*
X011953Y027304D01*
X011769Y027380D01*
X011571Y027380D01*
X011387Y027304D01*
X011246Y027163D01*
X011208Y027070D01*
X011132Y027070D01*
X011094Y027163D01*
X010953Y027304D01*
X010769Y027380D01*
X010571Y027380D01*
X010387Y027304D01*
X010246Y027163D01*
X010170Y026979D01*
X010094Y027163D01*
X009953Y027304D01*
X009769Y027380D01*
X009571Y027380D01*
X009387Y027304D01*
X009246Y027163D01*
X009170Y026979D01*
X009094Y027163D01*
X008953Y027304D01*
X008769Y027380D01*
X008571Y027380D01*
X008387Y027304D01*
X008246Y027163D01*
X008170Y026979D01*
X008094Y027163D01*
X007953Y027304D01*
X007769Y027380D01*
X007571Y027380D01*
X007387Y027304D01*
X007246Y027163D01*
X007170Y026979D01*
X007170Y026521D01*
X007246Y026337D01*
X007387Y026196D01*
X007571Y026120D01*
X007752Y026120D01*
X007752Y025827D01*
X007997Y025582D01*
X008343Y025582D01*
X008441Y025680D01*
X011259Y025680D01*
X011252Y025673D01*
X011252Y025327D01*
X011259Y025320D01*
X006106Y025320D01*
X005989Y025271D01*
X005489Y024771D01*
X005399Y024681D01*
X005350Y024564D01*
X005350Y024267D01*
X005246Y024163D01*
X005170Y023979D01*
X005170Y023521D01*
X005246Y023337D01*
X005387Y023196D01*
X005571Y023120D01*
X005769Y023120D01*
X005953Y023196D01*
X006094Y023337D01*
X006170Y023521D01*
X006246Y023337D01*
X006387Y023196D01*
X006485Y023156D02*
X005855Y023156D01*
X006071Y023314D02*
X006269Y023314D01*
X006190Y023473D02*
X006150Y023473D01*
X006170Y023521D02*
X006170Y023979D01*
X006170Y023521D01*
X006170Y023631D02*
X006170Y023631D01*
X006170Y023790D02*
X006170Y023790D01*
X006170Y023948D02*
X006170Y023948D01*
X006170Y023979D02*
X006212Y024082D01*
X006128Y024082D01*
X006170Y023979D01*
X006170Y024500D02*
X009420Y024500D01*
X009670Y024250D01*
X009670Y023750D01*
X010670Y023750D01*
X010348Y024265D02*
X009992Y024265D01*
X009944Y024424D02*
X025180Y024424D01*
X025180Y024582D02*
X009791Y024582D01*
X009851Y024521D02*
X009851Y024521D01*
X010117Y024107D02*
X010223Y024107D01*
X010992Y024265D02*
X011456Y024265D01*
X011670Y024265D02*
X011670Y024265D01*
X011670Y024107D02*
X011670Y024107D01*
X011670Y023948D02*
X011670Y023948D01*
X011670Y023790D02*
X011670Y023790D01*
X011670Y023631D02*
X011670Y023631D01*
X011670Y023473D02*
X011670Y023473D01*
X011670Y023314D02*
X011670Y023314D01*
X011643Y023156D02*
X010855Y023156D01*
X011071Y023314D02*
X011354Y023314D01*
X011255Y023473D02*
X011150Y023473D01*
X011170Y023631D02*
X011230Y023631D01*
X011230Y023790D02*
X011170Y023790D01*
X011170Y023948D02*
X011235Y023948D01*
X011292Y024107D02*
X011117Y024107D01*
X011884Y024265D02*
X013348Y024265D01*
X013223Y024107D02*
X012048Y024107D01*
X012105Y023948D02*
X012435Y023948D01*
X012277Y023790D02*
X012110Y023790D01*
X012110Y023631D02*
X012118Y023631D01*
X012680Y023740D02*
X013660Y023740D01*
X013670Y023750D01*
X013992Y024265D02*
X014348Y024265D01*
X014223Y024107D02*
X014117Y024107D01*
X014170Y023979D02*
X014170Y023521D01*
X014137Y023440D01*
X014203Y023440D01*
X014170Y023521D01*
X014170Y023979D01*
X014170Y023948D02*
X014170Y023948D01*
X014170Y023790D02*
X014170Y023790D01*
X014170Y023631D02*
X014170Y023631D01*
X014150Y023473D02*
X014190Y023473D01*
X014855Y023156D02*
X015485Y023156D01*
X015571Y023120D02*
X015769Y023120D01*
X015953Y023196D01*
X016094Y023337D01*
X016170Y023521D01*
X016170Y023979D01*
X016094Y024163D01*
X015953Y024304D01*
X015769Y024380D01*
X015571Y024380D01*
X015387Y024304D01*
X015246Y024163D01*
X015170Y023979D01*
X015170Y023521D01*
X015246Y023337D01*
X015387Y023196D01*
X015571Y023120D01*
X015855Y023156D02*
X016485Y023156D01*
X016571Y023120D02*
X016387Y023196D01*
X016246Y023337D01*
X016170Y023521D01*
X016170Y023979D01*
X016246Y024163D01*
X016387Y024304D01*
X016571Y024380D01*
X016769Y024380D01*
X016953Y024304D01*
X017094Y024163D01*
X017170Y023979D01*
X017170Y023521D01*
X017094Y023337D01*
X016953Y023196D01*
X016769Y023120D01*
X016571Y023120D01*
X016855Y023156D02*
X017485Y023156D01*
X017571Y023120D02*
X017769Y023120D01*
X017953Y023196D01*
X018094Y023337D01*
X018170Y023521D01*
X018246Y023337D01*
X018387Y023196D01*
X018571Y023120D01*
X018769Y023120D01*
X018953Y023196D01*
X019094Y023337D01*
X019170Y023521D01*
X019246Y023337D01*
X019387Y023196D01*
X019571Y023120D01*
X019769Y023120D01*
X019953Y023196D01*
X020094Y023337D01*
X020170Y023521D01*
X020170Y023979D01*
X020094Y024163D01*
X019953Y024304D01*
X019769Y024380D01*
X019571Y024380D01*
X019387Y024304D01*
X019246Y024163D01*
X019170Y023979D01*
X019170Y023521D01*
X019170Y023979D01*
X019094Y024163D01*
X018953Y024304D01*
X018769Y024380D01*
X018571Y024380D01*
X018387Y024304D01*
X018246Y024163D01*
X018170Y023979D01*
X018170Y023521D01*
X018170Y023979D01*
X018094Y024163D01*
X017953Y024304D01*
X017769Y024380D01*
X017571Y024380D01*
X017387Y024304D01*
X017246Y024163D01*
X017170Y023979D01*
X017170Y023521D01*
X017246Y023337D01*
X017387Y023196D01*
X017571Y023120D01*
X017855Y023156D02*
X018485Y023156D01*
X018269Y023314D02*
X018071Y023314D01*
X018150Y023473D02*
X018190Y023473D01*
X018170Y023631D02*
X018170Y023631D01*
X018170Y023790D02*
X018170Y023790D01*
X018170Y023948D02*
X018170Y023948D01*
X018117Y024107D02*
X018223Y024107D01*
X018348Y024265D02*
X017992Y024265D01*
X017348Y024265D02*
X016992Y024265D01*
X017117Y024107D02*
X017223Y024107D01*
X017170Y023948D02*
X017170Y023948D01*
X017170Y023790D02*
X017170Y023790D01*
X017170Y023631D02*
X017170Y023631D01*
X017150Y023473D02*
X017190Y023473D01*
X017269Y023314D02*
X017071Y023314D01*
X016269Y023314D02*
X016071Y023314D01*
X016150Y023473D02*
X016190Y023473D01*
X016170Y023631D02*
X016170Y023631D01*
X016170Y023790D02*
X016170Y023790D01*
X016170Y023948D02*
X016170Y023948D01*
X016117Y024107D02*
X016223Y024107D01*
X016348Y024265D02*
X015992Y024265D01*
X015348Y024265D02*
X014992Y024265D01*
X015117Y024107D02*
X015223Y024107D01*
X015170Y023948D02*
X015170Y023948D01*
X015170Y023790D02*
X015170Y023790D01*
X015170Y023631D02*
X015170Y023631D01*
X015150Y023473D02*
X015190Y023473D01*
X015269Y023314D02*
X015071Y023314D01*
X014795Y022997D02*
X022710Y022997D01*
X022705Y023180D02*
X022773Y023191D01*
X022839Y023212D01*
X022901Y023244D01*
X022957Y023284D01*
X023006Y023333D01*
X023046Y023389D01*
X023078Y023451D01*
X023099Y023517D01*
X023110Y023585D01*
X023110Y023750D01*
X023110Y023915D01*
X023099Y023983D01*
X023078Y024049D01*
X023046Y024111D01*
X023006Y024167D01*
X022957Y024216D01*
X022901Y024256D01*
X022839Y024288D01*
X022773Y024309D01*
X022705Y024320D01*
X022670Y024320D01*
X022670Y023750D01*
X023110Y023750D01*
X022670Y023750D01*
X022670Y023750D01*
X022670Y023750D01*
X022670Y023180D01*
X022705Y023180D01*
X022670Y023180D02*
X022670Y023750D01*
X022670Y023750D01*
X022670Y023750D01*
X022230Y023750D01*
X022230Y023915D01*
X022241Y023983D01*
X022262Y024049D01*
X022294Y024111D01*
X022334Y024167D01*
X022383Y024216D01*
X022439Y024256D01*
X022501Y024288D01*
X022567Y024309D01*
X022635Y024320D01*
X022670Y024320D01*
X022670Y023750D01*
X022230Y023750D01*
X022230Y023585D01*
X022241Y023517D01*
X022262Y023451D01*
X022294Y023389D01*
X022334Y023333D01*
X022383Y023284D01*
X022439Y023244D01*
X022501Y023212D01*
X022567Y023191D01*
X022635Y023180D01*
X022670Y023180D01*
X022670Y023314D02*
X022670Y023314D01*
X022670Y023473D02*
X022670Y023473D01*
X022670Y023631D02*
X022670Y023631D01*
X022670Y023790D02*
X022670Y023790D01*
X022670Y023948D02*
X022670Y023948D01*
X022670Y024107D02*
X022670Y024107D01*
X022670Y024265D02*
X022670Y024265D01*
X022456Y024265D02*
X021992Y024265D01*
X021953Y024304D02*
X022094Y024163D01*
X022170Y023979D01*
X022170Y023521D01*
X022094Y023337D01*
X021953Y023196D01*
X021769Y023120D01*
X021571Y023120D01*
X021387Y023196D01*
X021246Y023337D01*
X021170Y023521D01*
X021170Y023979D01*
X021094Y024163D01*
X020953Y024304D01*
X020769Y024380D01*
X020571Y024380D01*
X020387Y024304D01*
X020246Y024163D01*
X020170Y023979D01*
X020170Y023521D01*
X020246Y023337D01*
X020387Y023196D01*
X020571Y023120D01*
X020769Y023120D01*
X020953Y023196D01*
X021094Y023337D01*
X021170Y023521D01*
X021170Y023979D01*
X021246Y024163D01*
X021387Y024304D01*
X021571Y024380D01*
X021769Y024380D01*
X021953Y024304D01*
X022117Y024107D02*
X022292Y024107D01*
X022235Y023948D02*
X022170Y023948D01*
X022170Y023790D02*
X022230Y023790D01*
X022230Y023631D02*
X022170Y023631D01*
X022150Y023473D02*
X022255Y023473D01*
X022354Y023314D02*
X022071Y023314D01*
X021855Y023156D02*
X025180Y023156D01*
X025180Y023314D02*
X022986Y023314D01*
X023085Y023473D02*
X025180Y023473D01*
X025180Y023631D02*
X023110Y023631D01*
X023110Y023790D02*
X025180Y023790D01*
X025180Y023948D02*
X023105Y023948D01*
X023048Y024107D02*
X025180Y024107D01*
X025180Y024265D02*
X022884Y024265D01*
X022272Y024899D02*
X025180Y024899D01*
X025180Y024741D02*
X022113Y024741D01*
X021920Y025000D02*
X006170Y025000D01*
X005670Y024500D01*
X005670Y023750D01*
X005170Y023790D02*
X001160Y023790D01*
X001160Y023948D02*
X005170Y023948D01*
X005223Y024107D02*
X001160Y024107D01*
X001160Y024265D02*
X005348Y024265D01*
X005350Y024424D02*
X004216Y024424D01*
X004102Y024310D02*
X004360Y024568D01*
X004360Y024750D01*
X004360Y024932D01*
X004102Y025190D01*
X003920Y025190D01*
X003920Y024750D01*
X003930Y024740D01*
X004680Y024740D01*
X005680Y025740D01*
X007680Y025740D01*
X007752Y025850D02*
X004420Y025850D01*
X004420Y025957D02*
X004127Y026250D01*
X003713Y026250D01*
X003420Y025957D01*
X003420Y025543D01*
X003713Y025250D01*
X004127Y025250D01*
X004420Y025543D01*
X004420Y025957D01*
X004369Y026009D02*
X007752Y026009D01*
X007457Y026167D02*
X006883Y026167D01*
X006953Y026196D02*
X007094Y026337D01*
X007170Y026521D01*
X007170Y026979D01*
X007094Y027163D01*
X006953Y027304D01*
X006769Y027380D01*
X006571Y027380D01*
X006387Y027304D01*
X006246Y027163D01*
X006170Y026979D01*
X006094Y027163D01*
X005953Y027304D01*
X005769Y027380D01*
X005571Y027380D01*
X005387Y027304D01*
X005246Y027163D01*
X005170Y026979D01*
X005170Y026521D01*
X005246Y026337D01*
X005387Y026196D01*
X005571Y026120D01*
X005769Y026120D01*
X005953Y026196D01*
X006094Y026337D01*
X006170Y026521D01*
X006170Y026979D01*
X006170Y026521D01*
X006246Y026337D01*
X006387Y026196D01*
X006571Y026120D01*
X006769Y026120D01*
X006953Y026196D01*
X007083Y026326D02*
X007257Y026326D01*
X007185Y026484D02*
X007155Y026484D01*
X007170Y026643D02*
X007170Y026643D01*
X007170Y026801D02*
X007170Y026801D01*
X007170Y026960D02*
X007170Y026960D01*
X007113Y027118D02*
X007227Y027118D01*
X007359Y027277D02*
X006981Y027277D01*
X006359Y027277D02*
X005981Y027277D01*
X006113Y027118D02*
X006227Y027118D01*
X006170Y026960D02*
X006170Y026960D01*
X006170Y026801D02*
X006170Y026801D01*
X006170Y026643D02*
X006170Y026643D01*
X006155Y026484D02*
X006185Y026484D01*
X006257Y026326D02*
X006083Y026326D01*
X005883Y026167D02*
X006457Y026167D01*
X005933Y025216D02*
X001160Y025216D01*
X001160Y025058D02*
X003605Y025058D01*
X003480Y024932D02*
X003480Y024750D01*
X003920Y024750D01*
X003920Y023000D01*
X004304Y022680D02*
X001160Y022680D01*
X001160Y022522D02*
X004145Y022522D01*
X003987Y022363D02*
X001160Y022363D01*
X001160Y022205D02*
X003930Y022205D01*
X003930Y022046D02*
X001160Y022046D01*
X001160Y021888D02*
X003930Y021888D01*
X003930Y021729D02*
X003700Y021729D01*
X003937Y021571D02*
X004053Y021571D01*
X004180Y021240D02*
X003430Y021240D01*
X003420Y021250D01*
X003191Y020750D02*
X003649Y020750D01*
X003191Y020750D01*
X003123Y020778D02*
X001160Y020778D01*
X001160Y020620D02*
X002952Y020620D01*
X002836Y020461D02*
X001160Y020461D01*
X001160Y020303D02*
X002790Y020303D01*
X002793Y020144D02*
X001160Y020144D01*
X001160Y019986D02*
X002858Y019986D01*
X003006Y019827D02*
X001160Y019827D01*
X001160Y019669D02*
X003001Y019669D01*
X003191Y019750D02*
X003649Y019750D01*
X003833Y019674D01*
X003937Y019570D01*
X007484Y019570D01*
X007601Y019521D01*
X008053Y019070D01*
X008823Y019070D01*
X008790Y019151D01*
X008790Y019349D01*
X008823Y019430D01*
X007856Y019430D01*
X007739Y019479D01*
X007649Y019569D01*
X007287Y019930D01*
X003937Y019930D01*
X003833Y019826D01*
X003649Y019750D01*
X003191Y019750D01*
X002857Y019510D02*
X001160Y019510D01*
X001160Y019352D02*
X002791Y019352D01*
X002790Y019193D02*
X001160Y019193D01*
X001160Y019035D02*
X002838Y019035D01*
X002957Y018876D02*
X001160Y018876D01*
X001160Y018718D02*
X003112Y018718D01*
X003191Y018750D02*
X003649Y018750D01*
X003833Y018674D01*
X003937Y018570D01*
X007484Y018570D01*
X007601Y018521D01*
X008053Y018070D01*
X008823Y018070D01*
X008790Y018151D01*
X008790Y018349D01*
X008823Y018430D01*
X007856Y018430D01*
X007739Y018479D01*
X007649Y018569D01*
X007287Y018930D01*
X003937Y018930D01*
X003833Y018826D01*
X003649Y018750D01*
X003191Y018750D01*
X002892Y018559D02*
X001160Y018559D01*
X001160Y018401D02*
X002811Y018401D01*
X002790Y018242D02*
X001160Y018242D01*
X001160Y018084D02*
X002818Y018084D01*
X002908Y017925D02*
X001160Y017925D01*
X001160Y017767D02*
X003151Y017767D01*
X003191Y017750D02*
X003649Y017750D01*
X003833Y017674D01*
X003937Y017570D01*
X007484Y017570D01*
X007601Y017521D01*
X008053Y017070D01*
X008823Y017070D01*
X008790Y017151D01*
X008790Y017349D01*
X008823Y017430D01*
X007856Y017430D01*
X007739Y017479D01*
X007649Y017569D01*
X007287Y017930D01*
X003937Y017930D01*
X003833Y017826D01*
X003649Y017750D01*
X003191Y017750D01*
X002941Y017608D02*
X001160Y017608D01*
X001160Y017450D02*
X002831Y017450D01*
X002790Y017291D02*
X001160Y017291D01*
X001160Y017133D02*
X002797Y017133D01*
X002863Y016974D02*
X001160Y016974D01*
X001160Y016816D02*
X003032Y016816D01*
X002990Y016657D02*
X001160Y016657D01*
X001160Y016499D02*
X002852Y016499D01*
X002790Y016340D02*
X001160Y016340D01*
X001160Y016182D02*
X002790Y016182D01*
X002843Y016023D02*
X001160Y016023D01*
X001160Y015865D02*
X002968Y015865D01*
X003084Y015706D02*
X001160Y015706D01*
X001160Y015548D02*
X002880Y015548D01*
X002806Y015389D02*
X001160Y015389D01*
X001160Y015231D02*
X002790Y015231D01*
X002823Y015072D02*
X001160Y015072D01*
X001160Y014914D02*
X002919Y014914D01*
X003178Y014755D02*
X001160Y014755D01*
X001160Y014597D02*
X002929Y014597D01*
X002827Y014438D02*
X001160Y014438D01*
X001160Y014280D02*
X002790Y014280D01*
X002802Y014121D02*
X001160Y014121D01*
X001160Y013963D02*
X002870Y013963D01*
X003060Y013804D02*
X001160Y013804D01*
X001160Y013646D02*
X002978Y013646D01*
X002847Y013487D02*
X001160Y013487D01*
X001160Y013329D02*
X002790Y013329D01*
X002790Y013170D02*
X001160Y013170D01*
X001160Y013012D02*
X002848Y013012D01*
X002980Y012853D02*
X001160Y012853D01*
X001160Y012695D02*
X003057Y012695D01*
X003191Y012750D02*
X003649Y012750D01*
X003833Y012674D01*
X003937Y012570D01*
X007484Y012570D01*
X007601Y012521D01*
X008053Y012070D01*
X008823Y012070D01*
X008790Y012151D01*
X008790Y012349D01*
X008823Y012430D01*
X007856Y012430D01*
X007739Y012479D01*
X007649Y012569D01*
X007287Y012930D01*
X003937Y012930D01*
X003833Y012826D01*
X003649Y012750D01*
X003191Y012750D01*
X002869Y012536D02*
X001160Y012536D01*
X001160Y012378D02*
X002802Y012378D01*
X002790Y012219D02*
X001160Y012219D01*
X001160Y012061D02*
X002827Y012061D01*
X002931Y011902D02*
X001160Y011902D01*
X001160Y011744D02*
X003175Y011744D01*
X003191Y011750D02*
X003649Y011750D01*
X003833Y011674D01*
X003937Y011570D01*
X007484Y011570D01*
X007601Y011521D01*
X008053Y011070D01*
X008823Y011070D01*
X008790Y011151D01*
X008790Y011349D01*
X008823Y011430D01*
X007856Y011430D01*
X007739Y011479D01*
X007649Y011569D01*
X007287Y011930D01*
X003937Y011930D01*
X003833Y011826D01*
X003649Y011750D01*
X003191Y011750D01*
X002918Y011585D02*
X001160Y011585D01*
X001160Y011427D02*
X002822Y011427D01*
X002790Y011268D02*
X001160Y011268D01*
X001160Y011110D02*
X002807Y011110D01*
X002882Y010951D02*
X001160Y010951D01*
X001160Y010793D02*
X003088Y010793D01*
X003191Y010750D02*
X003649Y010750D01*
X003833Y010674D01*
X003937Y010570D01*
X007484Y010570D01*
X007601Y010521D01*
X008053Y010070D01*
X008823Y010070D01*
X008790Y010151D01*
X008790Y010349D01*
X008823Y010430D01*
X007856Y010430D01*
X007739Y010479D01*
X007649Y010569D01*
X007287Y010930D01*
X003937Y010930D01*
X003833Y010826D01*
X003649Y010750D01*
X003191Y010750D01*
X002967Y010634D02*
X001160Y010634D01*
X001160Y010476D02*
X002842Y010476D01*
X002790Y010317D02*
X002046Y010317D01*
X002014Y010349D02*
X001925Y010386D01*
X001160Y010386D01*
X001160Y027622D01*
X001800Y027622D01*
X001889Y027659D01*
X001956Y027726D01*
X001993Y027814D01*
X001993Y033331D01*
X017045Y033331D01*
X017042Y033325D01*
X017042Y033175D01*
X017100Y033036D01*
X017136Y033000D01*
X017100Y032964D01*
X017042Y032825D01*
X017042Y032675D01*
X017100Y032536D01*
X017136Y032500D01*
X017100Y032464D01*
X017042Y032325D01*
X017042Y032175D01*
X017100Y032036D01*
X017136Y032000D01*
X017100Y031964D01*
X017042Y031825D01*
X017042Y031675D01*
X017100Y031536D01*
X017136Y031500D01*
X017100Y031464D01*
X017042Y031325D01*
X017042Y031175D01*
X017100Y031036D01*
X017136Y031000D01*
X017100Y030964D01*
X017042Y030825D01*
X017042Y030675D01*
X017100Y030536D01*
X017136Y030500D01*
X017100Y030464D01*
X017042Y030325D01*
X017042Y030175D01*
X017100Y030036D01*
X017206Y029930D01*
X017345Y029872D01*
X017495Y029872D01*
X017634Y029930D01*
X017670Y029966D01*
X017706Y029930D01*
X017845Y029872D01*
X017995Y029872D01*
X018134Y029930D01*
X018170Y029966D01*
X018206Y029930D01*
X018345Y029872D01*
X018495Y029872D01*
X018634Y029930D01*
X018670Y029966D01*
X018706Y029930D01*
X018845Y029872D01*
X018995Y029872D01*
X019134Y029930D01*
X019170Y029966D01*
X019206Y029930D01*
X019345Y029872D01*
X019495Y029872D01*
X019634Y029930D01*
X019670Y029966D01*
X019706Y029930D01*
X019845Y029872D01*
X019930Y029872D01*
X019930Y027952D01*
X019967Y027864D01*
X020034Y027797D01*
X020122Y027760D01*
X020252Y027760D01*
X020252Y027577D01*
X020484Y027344D01*
X020387Y027304D01*
X020246Y027163D01*
X020170Y026979D01*
X020094Y027163D01*
X019953Y027304D01*
X019769Y027380D01*
X019571Y027380D01*
X019387Y027304D01*
X019246Y027163D01*
X019170Y026979D01*
X019094Y027163D01*
X018953Y027304D01*
X018769Y027380D01*
X018571Y027380D01*
X018387Y027304D01*
X018246Y027163D01*
X018170Y026979D01*
X018170Y026521D01*
X018246Y026337D01*
X018387Y026196D01*
X018571Y026120D01*
X018769Y026120D01*
X018953Y026196D01*
X019094Y026337D01*
X019170Y026521D01*
X019170Y026979D01*
X019170Y026521D01*
X019246Y026337D01*
X019387Y026196D01*
X019571Y026120D01*
X019769Y026120D01*
X019953Y026196D01*
X020094Y026337D01*
X020170Y026521D01*
X020170Y026979D01*
X020170Y026521D01*
X020246Y026337D01*
X020387Y026196D01*
X020571Y026120D01*
X020769Y026120D01*
X020953Y026196D01*
X021094Y026337D01*
X021170Y026521D01*
X021246Y026337D01*
X021387Y026196D01*
X021571Y026120D01*
X021769Y026120D01*
X021953Y026196D01*
X022094Y026337D01*
X022170Y026521D01*
X022170Y026979D01*
X022094Y027163D01*
X021953Y027304D01*
X021769Y027380D01*
X021571Y027380D01*
X021387Y027304D01*
X021246Y027163D01*
X021170Y026979D01*
X021170Y026521D01*
X021170Y026979D01*
X021094Y027163D01*
X020953Y027304D01*
X020856Y027344D01*
X021088Y027577D01*
X021088Y027760D01*
X021218Y027760D01*
X021306Y027797D01*
X021373Y027864D01*
X021410Y027952D01*
X021410Y029872D01*
X021495Y029872D01*
X021634Y029930D01*
X021670Y029966D01*
X021706Y029930D01*
X021845Y029872D01*
X021995Y029872D01*
X022134Y029930D01*
X022170Y029966D01*
X022206Y029930D01*
X022345Y029872D01*
X022495Y029872D01*
X022634Y029930D01*
X022670Y029966D01*
X022706Y029930D01*
X022845Y029872D01*
X022995Y029872D01*
X023134Y029930D01*
X023170Y029966D01*
X023206Y029930D01*
X023345Y029872D01*
X023495Y029872D01*
X023634Y029930D01*
X023670Y029966D01*
X023706Y029930D01*
X023845Y029872D01*
X023995Y029872D01*
X024134Y029930D01*
X024170Y029966D01*
X024206Y029930D01*
X024345Y029872D01*
X024347Y029872D01*
X024347Y027814D01*
X024384Y027726D01*
X024451Y027659D01*
X024540Y027622D01*
X025180Y027622D01*
X025180Y010386D01*
X024415Y010386D01*
X024326Y010349D01*
X024259Y010282D01*
X024222Y010193D01*
X024222Y004240D01*
X022883Y004240D01*
X022088Y005034D01*
X022088Y005173D01*
X021843Y005418D01*
X021497Y005418D01*
X021252Y005173D01*
X021252Y005121D01*
X021067Y005306D01*
X021088Y005327D01*
X021088Y005673D01*
X020843Y005918D01*
X020497Y005918D01*
X020252Y005673D01*
X020252Y005621D01*
X020088Y005784D01*
X020088Y005923D01*
X019843Y006168D01*
X019497Y006168D01*
X019252Y005923D01*
X019252Y005577D01*
X019497Y005332D01*
X019636Y005332D01*
X019648Y005319D01*
X019502Y005173D01*
X019502Y005034D01*
X019403Y004935D01*
X019354Y004818D01*
X019354Y004240D01*
X018883Y004240D01*
X017691Y005431D01*
X017601Y005521D01*
X017484Y005570D01*
X017191Y005570D01*
X017093Y005668D01*
X016747Y005668D01*
X016545Y005466D01*
X016343Y005668D01*
X015997Y005668D01*
X015752Y005423D01*
X015752Y005077D01*
X015850Y004979D01*
X015850Y004436D01*
X015899Y004319D01*
X015977Y004240D01*
X015883Y004240D01*
X014941Y005181D01*
X014941Y005181D01*
X014851Y005271D01*
X014734Y005320D01*
X008941Y005320D01*
X008843Y005418D01*
X008497Y005418D01*
X008420Y005341D01*
X008343Y005418D01*
X007997Y005418D01*
X007920Y005341D01*
X007843Y005418D01*
X007497Y005418D01*
X007420Y005341D01*
X007343Y005418D01*
X006997Y005418D01*
X006752Y005173D01*
X006752Y004827D01*
X006997Y004582D01*
X007136Y004582D01*
X007477Y004240D01*
X005114Y004240D01*
X005114Y004647D01*
X005410Y004943D01*
X005410Y005557D01*
X004977Y005990D01*
X004363Y005990D01*
X003930Y005557D01*
X003930Y004943D01*
X004234Y004640D01*
X004234Y004240D01*
X002118Y004240D01*
X002118Y010193D01*
X002081Y010282D01*
X002014Y010349D01*
X002118Y010159D02*
X002790Y010159D01*
X002852Y010000D02*
X002118Y010000D01*
X002118Y009842D02*
X002991Y009842D01*
X003029Y009683D02*
X002118Y009683D01*
X002118Y009525D02*
X002863Y009525D01*
X002797Y009366D02*
X002118Y009366D01*
X002118Y009208D02*
X002790Y009208D01*
X002832Y009049D02*
X002118Y009049D01*
X002118Y008891D02*
X002942Y008891D01*
X003147Y008732D02*
X002118Y008732D01*
X002118Y008574D02*
X002906Y008574D01*
X002817Y008415D02*
X002118Y008415D01*
X002118Y008257D02*
X002790Y008257D01*
X002812Y008098D02*
X002118Y008098D01*
X002118Y007940D02*
X002893Y007940D01*
X003116Y007781D02*
X002118Y007781D01*
X002118Y007623D02*
X002955Y007623D01*
X002837Y007464D02*
X002118Y007464D01*
X002118Y007306D02*
X002790Y007306D01*
X002791Y007147D02*
X002118Y007147D01*
X002118Y006989D02*
X002857Y006989D01*
X003003Y006830D02*
X002118Y006830D01*
X002118Y006672D02*
X003163Y006672D01*
X003187Y006679D02*
X003121Y006658D01*
X003059Y006626D01*
X003003Y006586D01*
X002954Y006537D01*
X002914Y006481D01*
X002882Y006419D01*
X002861Y006353D01*
X002850Y006285D01*
X002850Y006250D01*
X003420Y006250D01*
X003420Y006250D01*
X003420Y006690D01*
X003585Y006690D01*
X003653Y006679D01*
X003719Y006658D01*
X003781Y006626D01*
X003837Y006586D01*
X003886Y006537D01*
X003926Y006481D01*
X003958Y006419D01*
X003979Y006353D01*
X003990Y006285D01*
X003990Y006250D01*
X003420Y006250D01*
X003420Y006250D01*
X003420Y005810D01*
X003585Y005810D01*
X003653Y005821D01*
X003719Y005842D01*
X003781Y005874D01*
X003837Y005914D01*
X003886Y005963D01*
X003926Y006019D01*
X003958Y006081D01*
X003979Y006147D01*
X003990Y006215D01*
X003990Y006250D01*
X003420Y006250D01*
X003420Y006250D01*
X003420Y006250D01*
X003420Y006690D01*
X003255Y006690D01*
X003187Y006679D01*
X003420Y006672D02*
X003420Y006672D01*
X003420Y006513D02*
X003420Y006513D01*
X003420Y006355D02*
X003420Y006355D01*
X003420Y006250D02*
X002850Y006250D01*
X002850Y006215D01*
X002861Y006147D01*
X002882Y006081D01*
X002914Y006019D01*
X002954Y005963D01*
X003003Y005914D01*
X003059Y005874D01*
X003121Y005842D01*
X003187Y005821D01*
X003255Y005810D01*
X003420Y005810D01*
X003420Y006250D01*
X003420Y006196D02*
X003420Y006196D01*
X003420Y006038D02*
X003420Y006038D01*
X003420Y005879D02*
X003420Y005879D01*
X003788Y005879D02*
X004252Y005879D01*
X004094Y005721D02*
X002118Y005721D01*
X002118Y005879D02*
X003052Y005879D01*
X002904Y006038D02*
X002118Y006038D01*
X002118Y006196D02*
X002853Y006196D01*
X002861Y006355D02*
X002118Y006355D01*
X002118Y006513D02*
X002937Y006513D01*
X003420Y007250D02*
X007420Y007250D01*
X007920Y006750D01*
X015420Y006750D01*
X015920Y007250D01*
X016920Y007250D01*
X019670Y007250D01*
X020088Y007306D02*
X020773Y007306D01*
X020752Y007327D02*
X020997Y007082D01*
X021136Y007082D01*
X021149Y007069D01*
X021149Y007069D01*
X021239Y006979D01*
X021356Y006930D01*
X022403Y006930D01*
X022507Y006826D01*
X022691Y006750D01*
X023149Y006750D01*
X022691Y006750D01*
X022507Y006674D01*
X022403Y006570D01*
X021553Y006570D01*
X021101Y007021D01*
X020984Y007070D01*
X020441Y007070D01*
X020343Y007168D01*
X020088Y007168D01*
X020088Y007423D01*
X020081Y007430D01*
X020752Y007430D01*
X020752Y007327D01*
X020932Y007147D02*
X020364Y007147D01*
X020170Y006750D02*
X020920Y006750D01*
X021420Y006250D01*
X022920Y006250D01*
X023336Y006672D02*
X024222Y006672D01*
X024222Y006830D02*
X023337Y006830D01*
X023483Y006989D02*
X024222Y006989D01*
X024222Y007147D02*
X023549Y007147D01*
X023550Y007306D02*
X024222Y007306D01*
X024222Y007464D02*
X023503Y007464D01*
X023385Y007623D02*
X024222Y007623D01*
X024222Y007781D02*
X023224Y007781D01*
X023149Y007750D02*
X022691Y007750D01*
X022507Y007826D01*
X022403Y007930D01*
X021356Y007930D01*
X021239Y007979D01*
X021149Y008069D01*
X021088Y008129D01*
X021088Y008077D01*
X021053Y008041D01*
X021101Y008021D01*
X021204Y007918D01*
X021343Y007918D01*
X021588Y007673D01*
X021588Y007570D01*
X022403Y007570D01*
X022507Y007674D01*
X022691Y007750D01*
X023149Y007750D01*
X023447Y007940D02*
X024222Y007940D01*
X024222Y008098D02*
X023528Y008098D01*
X023550Y008257D02*
X024222Y008257D01*
X024222Y008415D02*
X023523Y008415D01*
X023434Y008574D02*
X024222Y008574D01*
X024222Y008732D02*
X023193Y008732D01*
X023149Y008750D02*
X022691Y008750D01*
X022507Y008826D01*
X022403Y008930D01*
X022081Y008930D01*
X022088Y008923D01*
X022088Y008577D01*
X022081Y008570D01*
X022403Y008570D01*
X022507Y008674D01*
X022691Y008750D01*
X023149Y008750D01*
X023398Y008891D02*
X024222Y008891D01*
X024222Y009049D02*
X023508Y009049D01*
X023550Y009208D02*
X024222Y009208D01*
X024222Y009366D02*
X023543Y009366D01*
X023477Y009525D02*
X024222Y009525D01*
X024222Y009683D02*
X023311Y009683D01*
X023349Y009842D02*
X024222Y009842D01*
X024222Y010000D02*
X023488Y010000D01*
X023550Y010159D02*
X024222Y010159D01*
X024294Y010317D02*
X023550Y010317D01*
X023498Y010476D02*
X025180Y010476D01*
X025180Y010634D02*
X023373Y010634D01*
X023252Y010793D02*
X025180Y010793D01*
X025180Y010951D02*
X023458Y010951D01*
X023533Y011110D02*
X025180Y011110D01*
X025180Y011268D02*
X023550Y011268D01*
X023518Y011427D02*
X025180Y011427D01*
X025180Y011585D02*
X023422Y011585D01*
X023165Y011744D02*
X025180Y011744D01*
X025180Y011902D02*
X023409Y011902D01*
X023513Y012061D02*
X025180Y012061D01*
X025180Y012219D02*
X023550Y012219D01*
X023538Y012378D02*
X025180Y012378D01*
X025180Y012536D02*
X023471Y012536D01*
X023283Y012695D02*
X025180Y012695D01*
X025180Y012853D02*
X023360Y012853D01*
X023492Y013012D02*
X025180Y013012D01*
X025180Y013170D02*
X023550Y013170D01*
X023550Y013329D02*
X025180Y013329D01*
X025180Y013487D02*
X023493Y013487D01*
X023362Y013646D02*
X025180Y013646D01*
X025180Y013804D02*
X023280Y013804D01*
X023149Y013750D02*
X022691Y013750D01*
X022507Y013826D01*
X022403Y013930D01*
X021356Y013930D01*
X021239Y013979D01*
X021149Y014069D01*
X020787Y014430D01*
X017517Y014430D01*
X017550Y014349D01*
X017550Y014151D01*
X017474Y013967D01*
X017333Y013826D01*
X017149Y013750D01*
X016691Y013750D01*
X016507Y013826D01*
X016403Y013930D01*
X016053Y013930D01*
X015693Y013570D01*
X016403Y013570D01*
X016507Y013674D01*
X016691Y013750D01*
X017149Y013750D01*
X017333Y013674D01*
X017437Y013570D01*
X017899Y013570D01*
X017997Y013668D01*
X018343Y013668D01*
X018588Y013423D01*
X018588Y013077D01*
X018581Y013070D01*
X018759Y013070D01*
X018752Y013077D01*
X018752Y013423D01*
X018997Y013668D01*
X019343Y013668D01*
X019441Y013570D01*
X022403Y013570D01*
X022507Y013674D01*
X022691Y013750D01*
X023149Y013750D01*
X023470Y013963D02*
X025180Y013963D01*
X025180Y014121D02*
X023538Y014121D01*
X023550Y014280D02*
X025180Y014280D01*
X025180Y014438D02*
X023513Y014438D01*
X023411Y014597D02*
X025180Y014597D01*
X025180Y014755D02*
X023162Y014755D01*
X023149Y014750D02*
X022691Y014750D01*
X022507Y014826D01*
X022403Y014930D01*
X021356Y014930D01*
X021239Y014979D01*
X021149Y015069D01*
X020787Y015430D01*
X017517Y015430D01*
X017550Y015349D01*
X017550Y015151D01*
X017517Y015070D01*
X020984Y015070D01*
X021101Y015021D01*
X021553Y014570D01*
X022403Y014570D01*
X022507Y014674D01*
X022691Y014750D01*
X023149Y014750D01*
X023421Y014914D02*
X025180Y014914D01*
X025180Y015072D02*
X023517Y015072D01*
X023550Y015231D02*
X025180Y015231D01*
X025180Y015389D02*
X023534Y015389D01*
X023460Y015548D02*
X025180Y015548D01*
X025180Y015706D02*
X023256Y015706D01*
X023149Y015750D02*
X022691Y015750D01*
X023149Y015750D01*
X023372Y015865D02*
X025180Y015865D01*
X025180Y016023D02*
X023497Y016023D01*
X023550Y016182D02*
X025180Y016182D01*
X025180Y016340D02*
X023550Y016340D01*
X023488Y016499D02*
X025180Y016499D01*
X025180Y016657D02*
X023350Y016657D01*
X023308Y016816D02*
X025180Y016816D01*
X025180Y016974D02*
X023477Y016974D01*
X023543Y017133D02*
X025180Y017133D01*
X025180Y017291D02*
X023550Y017291D01*
X023509Y017450D02*
X025180Y017450D01*
X025180Y017608D02*
X024735Y017608D01*
X024909Y017767D02*
X025180Y017767D01*
X025180Y017925D02*
X024999Y017925D01*
X025000Y018084D02*
X025180Y018084D01*
X025180Y018242D02*
X025000Y018242D01*
X025000Y018401D02*
X025180Y018401D01*
X025180Y018559D02*
X025000Y018559D01*
X025000Y018718D02*
X025180Y018718D01*
X025180Y018876D02*
X025000Y018876D01*
X025000Y019035D02*
X025180Y019035D01*
X025180Y019193D02*
X025000Y019193D01*
X025000Y019352D02*
X025180Y019352D01*
X025180Y019510D02*
X025000Y019510D01*
X025000Y019669D02*
X025180Y019669D01*
X025180Y019827D02*
X025000Y019827D01*
X025000Y019986D02*
X025180Y019986D01*
X025180Y020144D02*
X025000Y020144D01*
X025000Y020303D02*
X025180Y020303D01*
X025180Y020461D02*
X025000Y020461D01*
X025000Y020620D02*
X025180Y020620D01*
X025180Y020778D02*
X025000Y020778D01*
X025000Y020937D02*
X025180Y020937D01*
X025180Y021095D02*
X024983Y021095D01*
X024869Y021254D02*
X025180Y021254D01*
X025180Y021412D02*
X024572Y021412D01*
X024580Y021090D02*
X024180Y021090D01*
X024020Y021250D01*
X022920Y021250D01*
X022640Y021729D02*
X017200Y021729D01*
X017437Y021571D02*
X022403Y021571D01*
X022316Y021412D02*
X022211Y021412D01*
X021920Y021250D02*
X022430Y020740D01*
X024180Y020740D01*
X024180Y020390D02*
X024180Y018590D01*
X023830Y018590D01*
X023680Y018740D01*
X021430Y018740D01*
X020920Y019250D01*
X019170Y019250D01*
X018670Y019250D02*
X016920Y019250D01*
X015170Y019250D01*
X013920Y020500D01*
X012420Y020500D01*
X010670Y018750D01*
X007920Y018750D01*
X007420Y019250D01*
X003420Y019250D01*
X003839Y019669D02*
X007549Y019669D01*
X007613Y019510D02*
X007707Y019510D01*
X007771Y019352D02*
X008791Y019352D01*
X008790Y019193D02*
X007930Y019193D01*
X007658Y018559D02*
X007510Y018559D01*
X007500Y018718D02*
X003728Y018718D01*
X003883Y018876D02*
X007341Y018876D01*
X007722Y018401D02*
X008811Y018401D01*
X008790Y018242D02*
X007881Y018242D01*
X008039Y018084D02*
X008818Y018084D01*
X009420Y018250D02*
X010670Y018250D01*
X012420Y020000D01*
X013920Y020000D01*
X015170Y018750D01*
X017670Y018750D01*
X020920Y018750D01*
X021420Y018250D01*
X022920Y018250D01*
X022691Y017750D02*
X022507Y017826D01*
X022403Y017930D01*
X021356Y017930D01*
X021239Y017979D01*
X021149Y018069D01*
X020787Y018430D01*
X017941Y018430D01*
X017843Y018332D01*
X017550Y018332D01*
X017550Y018151D01*
X017517Y018070D01*
X020984Y018070D01*
X021101Y018021D01*
X021553Y017570D01*
X022403Y017570D01*
X022507Y017674D01*
X022691Y017750D01*
X023149Y017750D01*
X022691Y017750D01*
X022651Y017767D02*
X021356Y017767D01*
X021198Y017925D02*
X022408Y017925D01*
X022441Y017608D02*
X021515Y017608D01*
X021420Y017250D02*
X022920Y017250D01*
X022691Y016750D02*
X022507Y016826D01*
X022403Y016930D01*
X021356Y016930D01*
X021239Y016979D01*
X021149Y017069D01*
X020787Y017430D01*
X017517Y017430D01*
X017550Y017349D01*
X017550Y017151D01*
X017517Y017070D01*
X020984Y017070D01*
X021101Y017021D01*
X021553Y016570D01*
X022403Y016570D01*
X022507Y016674D01*
X022691Y016750D01*
X023149Y016750D01*
X022691Y016750D01*
X022532Y016816D02*
X021307Y016816D01*
X021250Y016974D02*
X021149Y016974D01*
X021085Y017133D02*
X017543Y017133D01*
X017550Y017291D02*
X020926Y017291D01*
X020920Y017750D02*
X021420Y017250D01*
X021466Y016657D02*
X022490Y016657D01*
X022920Y016250D02*
X021420Y016250D01*
X020920Y016750D01*
X015920Y016750D01*
X014920Y015750D01*
X012920Y015750D01*
X011670Y015750D01*
X011170Y016250D01*
X009420Y016250D01*
X008823Y016430D02*
X008790Y016349D01*
X008790Y016151D01*
X008823Y016070D01*
X008053Y016070D01*
X007601Y016521D01*
X007484Y016570D01*
X003937Y016570D01*
X003833Y016674D01*
X003649Y016750D01*
X003191Y016750D01*
X003649Y016750D01*
X003833Y016826D01*
X003937Y016930D01*
X007287Y016930D01*
X007649Y016569D01*
X007739Y016479D01*
X007856Y016430D01*
X008823Y016430D01*
X008790Y016340D02*
X007783Y016340D01*
X007719Y016499D02*
X007624Y016499D01*
X007560Y016657D02*
X003850Y016657D01*
X003808Y016816D02*
X007402Y016816D01*
X007420Y017250D02*
X007920Y016750D01*
X011170Y016750D01*
X011670Y016250D01*
X013420Y016250D01*
X014920Y016250D01*
X015920Y017250D01*
X016920Y017250D01*
X017517Y016430D02*
X020787Y016430D01*
X021239Y015979D01*
X021356Y015930D01*
X022403Y015930D01*
X022507Y015826D01*
X022691Y015750D01*
X022507Y015674D01*
X022403Y015570D01*
X021553Y015570D01*
X021101Y016021D01*
X020984Y016070D01*
X017517Y016070D01*
X017550Y016151D01*
X017550Y016349D01*
X017517Y016430D01*
X017550Y016340D02*
X020877Y016340D01*
X021036Y016182D02*
X017550Y016182D01*
X016920Y016250D02*
X015920Y016250D01*
X014920Y015250D01*
X013920Y015250D01*
X011670Y015250D01*
X011170Y015750D01*
X007920Y015750D01*
X007420Y016250D01*
X003420Y016250D01*
X003191Y015750D02*
X003649Y015750D01*
X003191Y015750D01*
X003649Y015750D02*
X003833Y015674D01*
X003937Y015570D01*
X007484Y015570D01*
X007601Y015521D01*
X008053Y015070D01*
X008823Y015070D01*
X008790Y015151D01*
X008790Y015349D01*
X008823Y015430D01*
X007856Y015430D01*
X007739Y015479D01*
X007649Y015569D01*
X007287Y015930D01*
X003937Y015930D01*
X003833Y015826D01*
X003649Y015750D01*
X003756Y015706D02*
X007511Y015706D01*
X007538Y015548D02*
X007670Y015548D01*
X007734Y015389D02*
X008806Y015389D01*
X008790Y015231D02*
X007892Y015231D01*
X008051Y015072D02*
X008823Y015072D01*
X009420Y015250D02*
X011170Y015250D01*
X011670Y014750D01*
X012420Y014750D01*
X014920Y014750D01*
X015920Y015750D01*
X020920Y015750D01*
X021420Y015250D01*
X022920Y015250D01*
X022678Y014755D02*
X021368Y014755D01*
X021526Y014597D02*
X022429Y014597D01*
X022419Y014914D02*
X021209Y014914D01*
X021145Y015072D02*
X017517Y015072D01*
X017550Y015231D02*
X020987Y015231D01*
X020828Y015389D02*
X017534Y015389D01*
X016920Y015250D02*
X015920Y015250D01*
X014920Y014250D01*
X014420Y014250D01*
X011670Y014250D01*
X011170Y014750D01*
X007920Y014750D01*
X007420Y015250D01*
X003420Y015250D01*
X003191Y014750D02*
X003649Y014750D01*
X003191Y014750D01*
X003649Y014750D02*
X003833Y014674D01*
X003937Y014570D01*
X007484Y014570D01*
X007601Y014521D01*
X008053Y014070D01*
X008823Y014070D01*
X008790Y014151D01*
X008790Y014349D01*
X008823Y014430D01*
X007856Y014430D01*
X007739Y014479D01*
X007649Y014569D01*
X007287Y014930D01*
X003937Y014930D01*
X003833Y014826D01*
X003649Y014750D01*
X003662Y014755D02*
X007462Y014755D01*
X007304Y014914D02*
X003921Y014914D01*
X003911Y014597D02*
X007621Y014597D01*
X007685Y014438D02*
X007837Y014438D01*
X007843Y014280D02*
X008790Y014280D01*
X008802Y014121D02*
X008002Y014121D01*
X007920Y013750D02*
X011170Y013750D01*
X011670Y013250D01*
X014920Y013250D01*
X015920Y014250D01*
X016920Y014250D01*
X017280Y013804D02*
X022560Y013804D01*
X022478Y013646D02*
X019366Y013646D01*
X018974Y013646D02*
X018366Y013646D01*
X018524Y013487D02*
X018816Y013487D01*
X018752Y013329D02*
X018588Y013329D01*
X018588Y013170D02*
X018752Y013170D01*
X019170Y013250D02*
X022920Y013250D01*
X022691Y012750D02*
X023149Y012750D01*
X022691Y012750D01*
X022507Y012826D01*
X022403Y012930D01*
X021193Y012930D01*
X021553Y012570D01*
X022403Y012570D01*
X022507Y012674D01*
X022691Y012750D01*
X022557Y012695D02*
X021428Y012695D01*
X021270Y012853D02*
X022480Y012853D01*
X022920Y012250D02*
X021420Y012250D01*
X020920Y012750D01*
X015920Y012750D01*
X015420Y012250D01*
X011920Y012250D01*
X009420Y012250D01*
X008790Y012219D02*
X007904Y012219D01*
X007745Y012378D02*
X008802Y012378D01*
X008823Y013070D02*
X008053Y013070D01*
X007601Y013521D01*
X007484Y013570D01*
X003937Y013570D01*
X003833Y013674D01*
X003649Y013750D01*
X003191Y013750D01*
X003649Y013750D01*
X003833Y013826D01*
X003937Y013930D01*
X007287Y013930D01*
X007649Y013569D01*
X007739Y013479D01*
X007856Y013430D01*
X008823Y013430D01*
X008790Y013349D01*
X008790Y013151D01*
X008823Y013070D01*
X008790Y013170D02*
X007953Y013170D01*
X007794Y013329D02*
X008790Y013329D01*
X009420Y014250D02*
X010920Y014250D01*
X011170Y014250D01*
X011670Y013750D01*
X014920Y013750D01*
X015920Y014750D01*
X020920Y014750D01*
X021420Y014250D01*
X022920Y014250D01*
X022584Y015706D02*
X021417Y015706D01*
X021258Y015865D02*
X022468Y015865D01*
X021194Y016023D02*
X021097Y016023D01*
X020920Y017750D02*
X015170Y017750D01*
X013920Y019000D01*
X012420Y019000D01*
X010920Y017500D01*
X010670Y017250D01*
X009420Y017250D01*
X008790Y017291D02*
X007832Y017291D01*
X007809Y017450D02*
X007673Y017450D01*
X007609Y017608D02*
X003899Y017608D01*
X003689Y017767D02*
X007451Y017767D01*
X007292Y017925D02*
X003932Y017925D01*
X003420Y018250D02*
X007420Y018250D01*
X007920Y017750D01*
X010420Y017750D01*
X010670Y017750D01*
X012420Y019500D01*
X013920Y019500D01*
X015170Y018250D01*
X016920Y018250D01*
X017522Y018084D02*
X021134Y018084D01*
X020975Y018242D02*
X017550Y018242D01*
X017912Y018401D02*
X020817Y018401D01*
X021420Y019250D02*
X022920Y019250D01*
X022910Y020240D02*
X022430Y020240D01*
X021930Y020740D01*
X015180Y020740D01*
X013930Y021990D01*
X012430Y021990D01*
X010690Y020250D01*
X009420Y020250D01*
X009420Y019250D02*
X010670Y019250D01*
X012420Y021000D01*
X013920Y021000D01*
X015170Y019750D01*
X020920Y019750D01*
X021420Y019250D01*
X021670Y020250D02*
X016920Y020250D01*
X015170Y020250D01*
X013920Y021500D01*
X012420Y021500D01*
X010670Y019750D01*
X007920Y019750D01*
X007420Y020250D01*
X003420Y020250D01*
X003649Y020750D02*
X003833Y020674D01*
X003937Y020570D01*
X004397Y020570D01*
X004047Y020920D01*
X003927Y020920D01*
X003833Y020826D01*
X003649Y020750D01*
X003717Y020778D02*
X004189Y020778D01*
X004348Y020620D02*
X003888Y020620D01*
X004180Y021240D02*
X004680Y020740D01*
X010430Y020740D01*
X011440Y022500D02*
X012680Y023740D01*
X013180Y022490D02*
X013930Y022490D01*
X015170Y021250D01*
X016920Y021250D01*
X021920Y021250D01*
X022667Y022046D02*
X014827Y022046D01*
X014985Y021888D02*
X025180Y021888D01*
X025180Y022046D02*
X023173Y022046D01*
X023332Y022205D02*
X023593Y022205D01*
X023480Y022318D02*
X023738Y022060D01*
X023920Y022060D01*
X024102Y022060D01*
X024360Y022318D01*
X024360Y022500D01*
X024360Y022682D01*
X024102Y022940D01*
X023920Y022940D01*
X023920Y022500D01*
X024360Y022500D01*
X023920Y022500D01*
X023920Y022500D01*
X023920Y022500D01*
X023920Y022060D01*
X023920Y022500D01*
X023920Y022500D01*
X023920Y022500D01*
X023480Y022500D01*
X023480Y022682D01*
X023738Y022940D01*
X023920Y022940D01*
X023920Y022500D01*
X023480Y022500D01*
X023480Y022318D01*
X023480Y022363D02*
X023420Y022363D01*
X023420Y022522D02*
X023480Y022522D01*
X023480Y022680D02*
X023420Y022680D01*
X023289Y022839D02*
X023636Y022839D01*
X023920Y022839D02*
X023920Y022839D01*
X023920Y022680D02*
X023920Y022680D01*
X023920Y022522D02*
X023920Y022522D01*
X023920Y022363D02*
X023920Y022363D01*
X023920Y022205D02*
X023920Y022205D01*
X024247Y022205D02*
X025180Y022205D01*
X025180Y022363D02*
X024360Y022363D01*
X024360Y022522D02*
X025180Y022522D01*
X025180Y022680D02*
X024360Y022680D01*
X024204Y022839D02*
X025180Y022839D01*
X025180Y022997D02*
X023130Y022997D01*
X023200Y021729D02*
X025180Y021729D01*
X025180Y021571D02*
X023437Y021571D01*
X024580Y021090D02*
X024680Y020990D01*
X024680Y017990D01*
X024580Y017890D01*
X024180Y017890D01*
X024180Y018240D02*
X023680Y018240D01*
X023690Y017767D02*
X023189Y017767D01*
X023399Y017608D02*
X023748Y017608D01*
X022910Y020240D02*
X022920Y020250D01*
X021485Y023156D02*
X020855Y023156D01*
X021071Y023314D02*
X021269Y023314D01*
X021190Y023473D02*
X021150Y023473D01*
X021170Y023631D02*
X021170Y023631D01*
X021170Y023790D02*
X021170Y023790D01*
X021170Y023948D02*
X021170Y023948D01*
X021117Y024107D02*
X021223Y024107D01*
X021348Y024265D02*
X020992Y024265D01*
X020348Y024265D02*
X019992Y024265D01*
X020117Y024107D02*
X020223Y024107D01*
X020170Y023948D02*
X020170Y023948D01*
X020170Y023790D02*
X020170Y023790D01*
X020170Y023631D02*
X020170Y023631D01*
X020150Y023473D02*
X020190Y023473D01*
X020269Y023314D02*
X020071Y023314D01*
X019855Y023156D02*
X020485Y023156D01*
X019485Y023156D02*
X018855Y023156D01*
X019071Y023314D02*
X019269Y023314D01*
X019190Y023473D02*
X019150Y023473D01*
X019170Y023631D02*
X019170Y023631D01*
X019170Y023790D02*
X019170Y023790D01*
X019170Y023948D02*
X019170Y023948D01*
X019117Y024107D02*
X019223Y024107D01*
X019348Y024265D02*
X018992Y024265D01*
X018883Y026167D02*
X019457Y026167D01*
X019257Y026326D02*
X019083Y026326D01*
X019155Y026484D02*
X019185Y026484D01*
X019170Y026643D02*
X019170Y026643D01*
X019170Y026801D02*
X019170Y026801D01*
X019170Y026960D02*
X019170Y026960D01*
X019113Y027118D02*
X019227Y027118D01*
X019359Y027277D02*
X018981Y027277D01*
X018359Y027277D02*
X017981Y027277D01*
X018113Y027118D02*
X018227Y027118D01*
X018170Y026960D02*
X018170Y026960D01*
X018170Y026801D02*
X018170Y026801D01*
X018170Y026643D02*
X018170Y026643D01*
X018155Y026484D02*
X018185Y026484D01*
X018257Y026326D02*
X018083Y026326D01*
X017982Y026167D02*
X018457Y026167D01*
X017881Y026009D02*
X022350Y026009D01*
X022350Y026167D02*
X021883Y026167D01*
X022083Y026326D02*
X022257Y026326D01*
X022185Y026484D02*
X022155Y026484D01*
X022170Y026643D02*
X022170Y026643D01*
X022170Y026801D02*
X022170Y026801D01*
X022170Y026960D02*
X022170Y026960D01*
X022113Y027118D02*
X022227Y027118D01*
X022359Y027277D02*
X021981Y027277D01*
X022670Y026750D02*
X022670Y025750D01*
X021920Y025000D01*
X021842Y025375D02*
X017247Y025375D01*
X017406Y025533D02*
X022000Y025533D01*
X022159Y025692D02*
X017564Y025692D01*
X017723Y025850D02*
X022317Y025850D01*
X022747Y025375D02*
X025180Y025375D01*
X025180Y025533D02*
X022906Y025533D01*
X022990Y025692D02*
X025180Y025692D01*
X025180Y025850D02*
X022990Y025850D01*
X022990Y026009D02*
X025180Y026009D01*
X025180Y026167D02*
X022990Y026167D01*
X023083Y026326D02*
X025180Y026326D01*
X025180Y026484D02*
X023155Y026484D01*
X023170Y026643D02*
X025180Y026643D01*
X025180Y026801D02*
X023170Y026801D01*
X023170Y026960D02*
X025180Y026960D01*
X025180Y027118D02*
X023113Y027118D01*
X022981Y027277D02*
X025180Y027277D01*
X025180Y027435D02*
X020946Y027435D01*
X020981Y027277D02*
X021359Y027277D01*
X021227Y027118D02*
X021113Y027118D01*
X021170Y026960D02*
X021170Y026960D01*
X021170Y026801D02*
X021170Y026801D01*
X021170Y026643D02*
X021170Y026643D01*
X021155Y026484D02*
X021185Y026484D01*
X021257Y026326D02*
X021083Y026326D01*
X020883Y026167D02*
X021457Y026167D01*
X022430Y025058D02*
X025180Y025058D01*
X025180Y025216D02*
X022589Y025216D01*
X021088Y027594D02*
X025180Y027594D01*
X024373Y027752D02*
X021088Y027752D01*
X021393Y027911D02*
X024347Y027911D01*
X024347Y028069D02*
X021410Y028069D01*
X021410Y028228D02*
X024347Y028228D01*
X024347Y028386D02*
X021410Y028386D01*
X021410Y028545D02*
X024347Y028545D01*
X024347Y028703D02*
X021410Y028703D01*
X021410Y028862D02*
X024347Y028862D01*
X024347Y029020D02*
X021410Y029020D01*
X021410Y029179D02*
X024347Y029179D01*
X024347Y029337D02*
X021410Y029337D01*
X021410Y029496D02*
X024347Y029496D01*
X024347Y029654D02*
X021410Y029654D01*
X021410Y029813D02*
X024347Y029813D01*
X020670Y029000D02*
X020670Y027750D01*
X020394Y027435D02*
X001160Y027435D01*
X001160Y027277D02*
X005359Y027277D01*
X005227Y027118D02*
X001160Y027118D01*
X001160Y026960D02*
X005170Y026960D01*
X005170Y026801D02*
X001160Y026801D01*
X001160Y026643D02*
X005170Y026643D01*
X005185Y026484D02*
X001160Y026484D01*
X001160Y026326D02*
X005257Y026326D01*
X005457Y026167D02*
X004210Y026167D01*
X004420Y025692D02*
X007887Y025692D01*
X008170Y026000D02*
X014420Y026000D01*
X014670Y026250D01*
X014670Y026750D01*
X015170Y026801D02*
X015170Y026801D01*
X015170Y026643D02*
X015170Y026643D01*
X015155Y026484D02*
X015185Y026484D01*
X015257Y026326D02*
X015083Y026326D01*
X014982Y026167D02*
X015457Y026167D01*
X015883Y026167D02*
X016457Y026167D01*
X016257Y026326D02*
X016083Y026326D01*
X016155Y026484D02*
X016185Y026484D01*
X016170Y026643D02*
X016170Y026643D01*
X016170Y026801D02*
X016170Y026801D01*
X016170Y026960D02*
X016170Y026960D01*
X016113Y027118D02*
X016227Y027118D01*
X016359Y027277D02*
X015981Y027277D01*
X015359Y027277D02*
X014981Y027277D01*
X015113Y027118D02*
X015227Y027118D01*
X015170Y026960D02*
X015170Y026960D01*
X014359Y027277D02*
X013981Y027277D01*
X014113Y027118D02*
X014227Y027118D01*
X014170Y026979D02*
X014170Y026521D01*
X014094Y026337D01*
X014077Y026320D01*
X014263Y026320D01*
X014246Y026337D01*
X014170Y026521D01*
X014170Y026979D01*
X014170Y026960D02*
X014170Y026960D01*
X014170Y026801D02*
X014170Y026801D01*
X014170Y026643D02*
X014170Y026643D01*
X014155Y026484D02*
X014185Y026484D01*
X014257Y026326D02*
X014083Y026326D01*
X014723Y025850D02*
X016817Y025850D01*
X016976Y026009D02*
X014881Y026009D01*
X013359Y027277D02*
X011981Y027277D01*
X012113Y027118D02*
X013227Y027118D01*
X013170Y026960D02*
X012170Y026960D01*
X012170Y026801D02*
X013170Y026801D01*
X013170Y026643D02*
X012170Y026643D01*
X012155Y026484D02*
X013185Y026484D01*
X013257Y026326D02*
X012083Y026326D01*
X011670Y026750D02*
X010670Y026750D01*
X011113Y027118D02*
X011227Y027118D01*
X011359Y027277D02*
X010981Y027277D01*
X010359Y027277D02*
X009981Y027277D01*
X010113Y027118D02*
X010227Y027118D01*
X010170Y026979D02*
X010170Y026521D01*
X010094Y026337D01*
X010077Y026320D01*
X010263Y026320D01*
X010246Y026337D01*
X010170Y026521D01*
X010170Y026979D01*
X010170Y026960D02*
X010170Y026960D01*
X010170Y026801D02*
X010170Y026801D01*
X010170Y026643D02*
X010170Y026643D01*
X010155Y026484D02*
X010185Y026484D01*
X010257Y026326D02*
X010083Y026326D01*
X009263Y026320D02*
X009077Y026320D01*
X009094Y026337D01*
X009170Y026521D01*
X009170Y026979D01*
X009170Y026521D01*
X009246Y026337D01*
X009263Y026320D01*
X009257Y026326D02*
X009083Y026326D01*
X009155Y026484D02*
X009185Y026484D01*
X009170Y026643D02*
X009170Y026643D01*
X009170Y026801D02*
X009170Y026801D01*
X009170Y026960D02*
X009170Y026960D01*
X009113Y027118D02*
X009227Y027118D01*
X009359Y027277D02*
X008981Y027277D01*
X008359Y027277D02*
X007981Y027277D01*
X008113Y027118D02*
X008227Y027118D01*
X008170Y026979D02*
X008170Y026521D01*
X008128Y026418D01*
X008212Y026418D01*
X008170Y026521D01*
X008170Y026979D01*
X008170Y026960D02*
X008170Y026960D01*
X008170Y026801D02*
X008170Y026801D01*
X008170Y026643D02*
X008170Y026643D01*
X008155Y026484D02*
X008185Y026484D01*
X008263Y024180D02*
X008077Y024180D01*
X008094Y024163D01*
X008170Y023979D01*
X008170Y023521D01*
X008170Y023979D01*
X008246Y024163D01*
X008263Y024180D01*
X008223Y024107D02*
X008117Y024107D01*
X008170Y023948D02*
X008170Y023948D01*
X008170Y023790D02*
X008170Y023790D01*
X008170Y023631D02*
X008170Y023631D01*
X008150Y023473D02*
X008190Y023473D01*
X008269Y023314D02*
X008071Y023314D01*
X007855Y023156D02*
X008485Y023156D01*
X008855Y023156D02*
X009485Y023156D01*
X009269Y023314D02*
X009071Y023314D01*
X009150Y023473D02*
X009190Y023473D01*
X009170Y023521D02*
X009170Y023979D01*
X009246Y024163D01*
X009263Y024180D01*
X009077Y024180D01*
X009094Y024163D01*
X009170Y023979D01*
X009170Y023521D01*
X009170Y023631D02*
X009170Y023631D01*
X009170Y023790D02*
X009170Y023790D01*
X009170Y023948D02*
X009170Y023948D01*
X009117Y024107D02*
X009223Y024107D01*
X009855Y023156D02*
X010485Y023156D01*
X010269Y023314D02*
X010071Y023314D01*
X011440Y022500D02*
X005920Y022500D01*
X005485Y023156D02*
X001160Y023156D01*
X001160Y023314D02*
X005269Y023314D01*
X005190Y023473D02*
X001160Y023473D01*
X001160Y023631D02*
X005170Y023631D01*
X005358Y024582D02*
X004360Y024582D01*
X004360Y024741D02*
X005458Y024741D01*
X005616Y024899D02*
X004360Y024899D01*
X004360Y024750D02*
X003920Y024750D01*
X003920Y024750D01*
X003920Y024750D01*
X003920Y024750D01*
X003920Y025190D01*
X003738Y025190D01*
X003480Y024932D01*
X003480Y024899D02*
X001160Y024899D01*
X001160Y024741D02*
X003480Y024741D01*
X003480Y024750D02*
X003480Y024568D01*
X003738Y024310D01*
X003920Y024310D01*
X004102Y024310D01*
X003920Y024310D02*
X003920Y024750D01*
X004360Y024750D01*
X004235Y025058D02*
X005775Y025058D01*
X004410Y025533D02*
X011252Y025533D01*
X011252Y025375D02*
X004252Y025375D01*
X003920Y025058D02*
X003920Y025058D01*
X003920Y024899D02*
X003920Y024899D01*
X003920Y024750D02*
X003480Y024750D01*
X003480Y024582D02*
X001160Y024582D01*
X001160Y024424D02*
X003624Y024424D01*
X003920Y024424D02*
X003920Y024424D01*
X003920Y024310D02*
X003920Y024750D01*
X003920Y024750D01*
X003920Y024741D02*
X003920Y024741D01*
X003920Y024582D02*
X003920Y024582D01*
X003588Y025375D02*
X001160Y025375D01*
X001160Y025533D02*
X003430Y025533D01*
X003420Y025692D02*
X001160Y025692D01*
X001160Y025850D02*
X003420Y025850D01*
X003471Y026009D02*
X001160Y026009D01*
X001160Y026167D02*
X003630Y026167D01*
X001967Y027752D02*
X020252Y027752D01*
X020252Y027594D02*
X001160Y027594D01*
X001993Y027911D02*
X019947Y027911D01*
X019930Y028069D02*
X001993Y028069D01*
X001993Y028228D02*
X019930Y028228D01*
X019930Y028386D02*
X001993Y028386D01*
X001993Y028545D02*
X019930Y028545D01*
X019930Y028703D02*
X001993Y028703D01*
X001993Y028862D02*
X019930Y028862D01*
X019930Y029020D02*
X001993Y029020D01*
X001993Y029179D02*
X019930Y029179D01*
X019930Y029337D02*
X009652Y029337D01*
X009682Y029342D02*
X009754Y029365D01*
X009822Y029399D01*
X009883Y029444D01*
X009936Y029497D01*
X009981Y029558D01*
X010015Y029626D01*
X010038Y029698D01*
X010050Y029772D01*
X010050Y029940D01*
X009590Y029940D01*
X009590Y029980D01*
X010050Y029980D01*
X010050Y030148D01*
X010038Y030222D01*
X010015Y030294D01*
X009981Y030362D01*
X009936Y030423D01*
X009883Y030476D01*
X009822Y030521D01*
X009754Y030555D01*
X009682Y030578D01*
X009608Y030590D01*
X009590Y030590D01*
X009590Y029980D01*
X009550Y029980D01*
X009550Y030590D01*
X009532Y030590D01*
X009458Y030578D01*
X009386Y030555D01*
X009318Y030521D01*
X009257Y030476D01*
X009204Y030423D01*
X009159Y030362D01*
X009125Y030294D01*
X009102Y030222D01*
X009090Y030148D01*
X009090Y029980D01*
X009550Y029980D01*
X009550Y029940D01*
X009590Y029940D01*
X009590Y029330D01*
X009608Y029330D01*
X009682Y029342D01*
X009590Y029337D02*
X009550Y029337D01*
X009550Y029330D02*
X009550Y029940D01*
X009090Y029940D01*
X009090Y029772D01*
X009102Y029698D01*
X009125Y029626D01*
X009159Y029558D01*
X009204Y029497D01*
X009257Y029444D01*
X009318Y029399D01*
X009386Y029365D01*
X009458Y029342D01*
X009532Y029330D01*
X009550Y029330D01*
X009488Y029337D02*
X008059Y029337D01*
X008096Y029352D02*
X008248Y029504D01*
X008330Y029703D01*
X008330Y030217D01*
X008248Y030416D01*
X008096Y030568D01*
X007897Y030650D01*
X007683Y030650D01*
X007484Y030568D01*
X007332Y030416D01*
X007250Y030217D01*
X007250Y029703D01*
X007332Y029504D01*
X007484Y029352D01*
X007683Y029270D01*
X007897Y029270D01*
X008096Y029352D01*
X008239Y029496D02*
X009206Y029496D01*
X009116Y029654D02*
X008310Y029654D01*
X008330Y029813D02*
X009090Y029813D01*
X009090Y030130D02*
X008330Y030130D01*
X008330Y029971D02*
X009550Y029971D01*
X009590Y029971D02*
X017165Y029971D01*
X017061Y030130D02*
X010050Y030130D01*
X010017Y030288D02*
X017042Y030288D01*
X017092Y030447D02*
X009912Y030447D01*
X009590Y030447D02*
X009550Y030447D01*
X009550Y030288D02*
X009590Y030288D01*
X009590Y030130D02*
X009550Y030130D01*
X009550Y029813D02*
X009590Y029813D01*
X009590Y029654D02*
X009550Y029654D01*
X009550Y029496D02*
X009590Y029496D01*
X009934Y029496D02*
X019930Y029496D01*
X019930Y029654D02*
X010024Y029654D01*
X010050Y029813D02*
X019930Y029813D01*
X019981Y027277D02*
X020359Y027277D01*
X020227Y027118D02*
X020113Y027118D01*
X020170Y026960D02*
X020170Y026960D01*
X020170Y026801D02*
X020170Y026801D01*
X020170Y026643D02*
X020170Y026643D01*
X020155Y026484D02*
X020185Y026484D01*
X020257Y026326D02*
X020083Y026326D01*
X019883Y026167D02*
X020457Y026167D01*
X017670Y026250D02*
X016920Y025500D01*
X011670Y025500D01*
X015144Y021729D02*
X016640Y021729D01*
X016403Y021571D02*
X015302Y021571D01*
X016883Y026167D02*
X017134Y026167D01*
X017083Y026326D02*
X017257Y026326D01*
X017185Y026484D02*
X017155Y026484D01*
X017170Y026643D02*
X017170Y026643D01*
X017170Y026801D02*
X017170Y026801D01*
X017170Y026960D02*
X017170Y026960D01*
X017113Y027118D02*
X017227Y027118D01*
X017359Y027277D02*
X016981Y027277D01*
X017670Y026750D02*
X017670Y026250D01*
X017071Y030605D02*
X008006Y030605D01*
X008217Y030447D02*
X009228Y030447D01*
X009123Y030288D02*
X008301Y030288D01*
X007574Y030605D02*
X001993Y030605D01*
X001993Y030447D02*
X007363Y030447D01*
X007279Y030288D02*
X001993Y030288D01*
X001993Y030130D02*
X007250Y030130D01*
X007250Y029971D02*
X001993Y029971D01*
X001993Y029813D02*
X007250Y029813D01*
X007270Y029654D02*
X001993Y029654D01*
X001993Y029496D02*
X007341Y029496D01*
X007521Y029337D02*
X001993Y029337D01*
X001993Y030764D02*
X017042Y030764D01*
X017082Y030922D02*
X010588Y030922D01*
X010571Y030905D02*
X010765Y031099D01*
X010870Y031353D01*
X010870Y031627D01*
X010765Y031881D01*
X010571Y032075D01*
X010317Y032180D01*
X010043Y032180D01*
X010004Y032164D01*
X010015Y032186D01*
X010038Y032258D01*
X010050Y032332D01*
X010050Y032500D01*
X009590Y032500D01*
X009590Y032540D01*
X010050Y032540D01*
X010050Y032708D01*
X010038Y032782D01*
X010015Y032854D01*
X009981Y032922D01*
X009936Y032983D01*
X009883Y033036D01*
X009822Y033081D01*
X009754Y033115D01*
X009682Y033138D01*
X009608Y033150D01*
X009590Y033150D01*
X009590Y032540D01*
X009550Y032540D01*
X009550Y033150D01*
X009532Y033150D01*
X009458Y033138D01*
X009386Y033115D01*
X009318Y033081D01*
X009257Y033036D01*
X009204Y032983D01*
X009159Y032922D01*
X009125Y032854D01*
X009102Y032782D01*
X009090Y032708D01*
X009090Y032540D01*
X009550Y032540D01*
X009550Y032500D01*
X009590Y032500D01*
X009590Y031890D01*
X009604Y031890D01*
X009595Y031881D01*
X009490Y031627D01*
X009490Y031353D01*
X009595Y031099D01*
X009789Y030905D01*
X010043Y030800D01*
X010317Y030800D01*
X010571Y030905D01*
X010746Y031081D02*
X017081Y031081D01*
X017042Y031239D02*
X010823Y031239D01*
X010870Y031398D02*
X017072Y031398D01*
X017091Y031556D02*
X010870Y031556D01*
X010834Y031715D02*
X017042Y031715D01*
X017062Y031873D02*
X010768Y031873D01*
X010614Y032032D02*
X017104Y032032D01*
X017042Y032190D02*
X010016Y032190D01*
X010050Y032349D02*
X017052Y032349D01*
X017129Y032507D02*
X009590Y032507D01*
X009550Y032507D02*
X008330Y032507D01*
X008330Y032349D02*
X009090Y032349D01*
X009090Y032332D02*
X009102Y032258D01*
X009125Y032186D01*
X009159Y032118D01*
X009204Y032057D01*
X009257Y032004D01*
X009318Y031959D01*
X009386Y031925D01*
X009458Y031902D01*
X009532Y031890D01*
X009550Y031890D01*
X009550Y032500D01*
X009090Y032500D01*
X009090Y032332D01*
X009124Y032190D02*
X008300Y032190D01*
X008330Y032263D02*
X008330Y032777D01*
X008248Y032976D01*
X008096Y033128D01*
X007897Y033210D01*
X007683Y033210D01*
X007484Y033128D01*
X007332Y032976D01*
X007250Y032777D01*
X007250Y032263D01*
X007284Y032180D01*
X007043Y032180D01*
X006789Y032075D01*
X006595Y031881D01*
X006490Y031627D01*
X006490Y031353D01*
X006595Y031099D01*
X006789Y030905D01*
X007043Y030800D01*
X007317Y030800D01*
X007571Y030905D01*
X007765Y031099D01*
X007870Y031353D01*
X007870Y031627D01*
X007786Y031830D01*
X007897Y031830D01*
X008096Y031912D01*
X008248Y032064D01*
X008330Y032263D01*
X008215Y032032D02*
X009230Y032032D01*
X009550Y032032D02*
X009590Y032032D01*
X009590Y032190D02*
X009550Y032190D01*
X009550Y032349D02*
X009590Y032349D01*
X009590Y032666D02*
X009550Y032666D01*
X009550Y032824D02*
X009590Y032824D01*
X009590Y032983D02*
X009550Y032983D01*
X009550Y033141D02*
X009590Y033141D01*
X009664Y033141D02*
X017056Y033141D01*
X017042Y033300D02*
X001993Y033300D01*
X001993Y033141D02*
X007516Y033141D01*
X007339Y032983D02*
X001993Y032983D01*
X001993Y032824D02*
X007269Y032824D01*
X007250Y032666D02*
X001993Y032666D01*
X001993Y032507D02*
X007250Y032507D01*
X007250Y032349D02*
X001993Y032349D01*
X001993Y032190D02*
X007280Y032190D01*
X006746Y032032D02*
X001993Y032032D01*
X001993Y031873D02*
X006592Y031873D01*
X006526Y031715D02*
X001993Y031715D01*
X001993Y031556D02*
X006490Y031556D01*
X006490Y031398D02*
X001993Y031398D01*
X001993Y031239D02*
X006537Y031239D01*
X006614Y031081D02*
X001993Y031081D01*
X001993Y030922D02*
X006772Y030922D01*
X007588Y030922D02*
X009772Y030922D01*
X009614Y031081D02*
X007746Y031081D01*
X007823Y031239D02*
X009537Y031239D01*
X009490Y031398D02*
X007870Y031398D01*
X007870Y031556D02*
X009490Y031556D01*
X009526Y031715D02*
X007834Y031715D01*
X008001Y031873D02*
X009592Y031873D01*
X010050Y032666D02*
X017046Y032666D01*
X017042Y032824D02*
X010025Y032824D01*
X009936Y032983D02*
X017118Y032983D01*
X009476Y033141D02*
X008064Y033141D01*
X008241Y032983D02*
X009204Y032983D01*
X009115Y032824D02*
X008311Y032824D01*
X008330Y032666D02*
X009090Y032666D01*
X007263Y024180D02*
X007246Y024163D01*
X007170Y023979D01*
X007170Y023521D01*
X007170Y023979D01*
X007094Y024163D01*
X007077Y024180D01*
X007263Y024180D01*
X007223Y024107D02*
X007117Y024107D01*
X007170Y023948D02*
X007170Y023948D01*
X007170Y023790D02*
X007170Y023790D01*
X007170Y023631D02*
X007170Y023631D01*
X007150Y023473D02*
X007190Y023473D01*
X007269Y023314D02*
X007071Y023314D01*
X006855Y023156D02*
X007485Y023156D01*
X007390Y019827D02*
X003834Y019827D01*
X002896Y020937D02*
X001160Y020937D01*
X001160Y021095D02*
X002813Y021095D01*
X002790Y021254D02*
X001160Y021254D01*
X001160Y021412D02*
X002816Y021412D01*
X002903Y021571D02*
X001160Y021571D01*
X001160Y021729D02*
X003140Y021729D01*
X003420Y017250D02*
X007420Y017250D01*
X007990Y017133D02*
X008797Y017133D01*
X008790Y016182D02*
X007941Y016182D01*
X007353Y015865D02*
X003872Y015865D01*
X003420Y014250D02*
X007420Y014250D01*
X007920Y013750D01*
X007730Y013487D02*
X007636Y013487D01*
X007572Y013646D02*
X003862Y013646D01*
X003780Y013804D02*
X007413Y013804D01*
X007420Y013250D02*
X007920Y012750D01*
X015170Y012750D01*
X015670Y013250D01*
X016920Y013250D01*
X018170Y013250D01*
X017974Y013646D02*
X017362Y013646D01*
X017470Y013963D02*
X021278Y013963D01*
X021096Y014121D02*
X017538Y014121D01*
X017550Y014280D02*
X020938Y014280D01*
X020787Y012430D02*
X021149Y012069D01*
X021239Y011979D01*
X021356Y011930D01*
X022403Y011930D01*
X022507Y011826D01*
X022691Y011750D01*
X023149Y011750D01*
X022691Y011750D01*
X022507Y011674D01*
X022403Y011570D01*
X021553Y011570D01*
X021101Y012021D01*
X020984Y012070D01*
X019081Y012070D01*
X019088Y012077D01*
X019088Y012423D01*
X019081Y012430D01*
X020787Y012430D01*
X020840Y012378D02*
X019088Y012378D01*
X019088Y012219D02*
X020998Y012219D01*
X021007Y012061D02*
X021157Y012061D01*
X021221Y011902D02*
X022431Y011902D01*
X022675Y011744D02*
X021379Y011744D01*
X021538Y011585D02*
X022418Y011585D01*
X022920Y011250D02*
X021420Y011250D01*
X020920Y011750D01*
X015920Y011750D01*
X015420Y011250D01*
X009420Y011250D01*
X008822Y011427D02*
X007696Y011427D01*
X007632Y011585D02*
X003922Y011585D01*
X003665Y011744D02*
X007474Y011744D01*
X007315Y011902D02*
X003909Y011902D01*
X003420Y012250D02*
X007420Y012250D01*
X007920Y011750D01*
X015420Y011750D01*
X015920Y012250D01*
X016920Y012250D01*
X018670Y012250D01*
X019170Y011250D02*
X016920Y011250D01*
X015920Y011250D01*
X015420Y010750D01*
X007920Y010750D01*
X007420Y011250D01*
X003420Y011250D01*
X003752Y010793D02*
X007425Y010793D01*
X007583Y010634D02*
X003873Y010634D01*
X003420Y010250D02*
X007420Y010250D01*
X007920Y009750D01*
X015420Y009750D01*
X015920Y010250D01*
X016920Y010250D01*
X020920Y010250D01*
X021420Y009750D01*
X022170Y009750D01*
X022588Y009792D02*
X022691Y009750D01*
X023149Y009750D01*
X022691Y009750D01*
X022588Y009708D01*
X022588Y009792D01*
X022920Y010250D02*
X021420Y010250D01*
X020920Y010750D01*
X015920Y010750D01*
X015420Y010250D01*
X011420Y010250D01*
X009420Y010250D01*
X008790Y010317D02*
X007806Y010317D01*
X007746Y010476D02*
X007647Y010476D01*
X007964Y010159D02*
X008790Y010159D01*
X008823Y009430D02*
X008790Y009349D01*
X008790Y009151D01*
X008823Y009070D01*
X008053Y009070D01*
X007601Y009521D01*
X007484Y009570D01*
X003937Y009570D01*
X003833Y009674D01*
X003649Y009750D01*
X003191Y009750D01*
X003649Y009750D01*
X003833Y009826D01*
X003937Y009930D01*
X007287Y009930D01*
X007649Y009569D01*
X007739Y009479D01*
X007856Y009430D01*
X008823Y009430D01*
X008797Y009366D02*
X007757Y009366D01*
X007693Y009525D02*
X007593Y009525D01*
X007534Y009683D02*
X003811Y009683D01*
X003849Y009842D02*
X007376Y009842D01*
X007420Y009250D02*
X007920Y008750D01*
X014920Y008750D01*
X015420Y008750D01*
X015920Y009250D01*
X016920Y009250D01*
X020920Y009250D01*
X021420Y008750D01*
X021670Y008750D01*
X021420Y009250D02*
X022920Y009250D01*
X022647Y008732D02*
X022088Y008732D01*
X022088Y008891D02*
X022442Y008891D01*
X022406Y008574D02*
X022085Y008574D01*
X021420Y008250D02*
X022920Y008250D01*
X022616Y007781D02*
X021480Y007781D01*
X021588Y007623D02*
X022455Y007623D01*
X022920Y007250D02*
X021420Y007250D01*
X021170Y007500D01*
X020920Y007750D01*
X015920Y007750D01*
X015420Y007250D01*
X009420Y007250D01*
X008823Y007430D02*
X008790Y007349D01*
X008790Y007151D01*
X008823Y007070D01*
X008053Y007070D01*
X007601Y007521D01*
X007484Y007570D01*
X003937Y007570D01*
X003833Y007674D01*
X003649Y007750D01*
X003191Y007750D01*
X003649Y007750D01*
X003833Y007826D01*
X003937Y007930D01*
X007287Y007930D01*
X007649Y007569D01*
X007739Y007479D01*
X007856Y007430D01*
X008823Y007430D01*
X008790Y007306D02*
X007817Y007306D01*
X007774Y007464D02*
X007659Y007464D01*
X007595Y007623D02*
X003885Y007623D01*
X003724Y007781D02*
X007436Y007781D01*
X007420Y008250D02*
X007920Y007750D01*
X015420Y007750D01*
X015920Y008250D01*
X016920Y008250D01*
X020670Y008250D01*
X021088Y008098D02*
X021119Y008098D01*
X021183Y007940D02*
X021333Y007940D01*
X021420Y008250D02*
X020920Y008750D01*
X020170Y008750D01*
X015920Y008750D01*
X015420Y008250D01*
X014920Y008250D01*
X009420Y008250D01*
X008823Y008430D02*
X008790Y008349D01*
X008790Y008151D01*
X008823Y008070D01*
X008053Y008070D01*
X007601Y008521D01*
X007484Y008570D01*
X003937Y008570D01*
X003833Y008674D01*
X003649Y008750D01*
X003191Y008750D01*
X003649Y008750D01*
X003833Y008826D01*
X003937Y008930D01*
X007287Y008930D01*
X007649Y008569D01*
X007739Y008479D01*
X007856Y008430D01*
X008823Y008430D01*
X008817Y008415D02*
X007708Y008415D01*
X007644Y008574D02*
X003934Y008574D01*
X003693Y008732D02*
X007485Y008732D01*
X007327Y008891D02*
X003898Y008891D01*
X003420Y009250D02*
X007420Y009250D01*
X007915Y009208D02*
X008790Y009208D01*
X009420Y009250D02*
X015420Y009250D01*
X015920Y009750D01*
X020920Y009750D01*
X021420Y009250D01*
X021553Y010570D02*
X021101Y011021D01*
X020984Y011070D01*
X019581Y011070D01*
X019588Y011077D01*
X019588Y011423D01*
X019581Y011430D01*
X020787Y011430D01*
X021149Y011069D01*
X021239Y010979D01*
X021356Y010930D01*
X022403Y010930D01*
X022507Y010826D01*
X022691Y010750D01*
X023149Y010750D01*
X022691Y010750D01*
X022507Y010674D01*
X022403Y010570D01*
X021553Y010570D01*
X021489Y010634D02*
X022467Y010634D01*
X022588Y010793D02*
X021330Y010793D01*
X021306Y010951D02*
X021172Y010951D01*
X021108Y011110D02*
X019588Y011110D01*
X019588Y011268D02*
X020949Y011268D01*
X020791Y011427D02*
X019585Y011427D01*
X016560Y013804D02*
X015927Y013804D01*
X015768Y013646D02*
X016478Y013646D01*
X021134Y006989D02*
X021229Y006989D01*
X021293Y006830D02*
X022503Y006830D01*
X022504Y006672D02*
X021451Y006672D01*
X021021Y006196D02*
X017487Y006196D01*
X017490Y006215D02*
X017490Y006250D01*
X016920Y006250D01*
X016920Y006250D01*
X016920Y005810D01*
X017085Y005810D01*
X017153Y005821D01*
X017219Y005842D01*
X017281Y005874D01*
X017337Y005914D01*
X017386Y005963D01*
X017426Y006019D01*
X017458Y006081D01*
X017479Y006147D01*
X017490Y006215D01*
X017479Y006355D02*
X019974Y006355D01*
X019974Y006038D02*
X021180Y006038D01*
X020882Y005879D02*
X022454Y005879D01*
X022016Y005245D02*
X024222Y005245D01*
X024222Y005087D02*
X022088Y005087D01*
X022195Y004928D02*
X024222Y004928D01*
X024222Y004770D02*
X022353Y004770D01*
X022512Y004611D02*
X024222Y004611D01*
X024222Y004453D02*
X022670Y004453D01*
X022829Y004294D02*
X024222Y004294D01*
X024222Y005404D02*
X021858Y005404D01*
X021482Y005404D02*
X021088Y005404D01*
X021088Y005562D02*
X024222Y005562D01*
X024222Y005721D02*
X021041Y005721D01*
X020670Y005500D02*
X020670Y005250D01*
X021674Y004246D01*
X021674Y002197D01*
X020674Y002197D02*
X020674Y004746D01*
X019670Y005750D01*
X019366Y006038D02*
X017436Y006038D01*
X017288Y005879D02*
X019252Y005879D01*
X019252Y005721D02*
X005246Y005721D01*
X005088Y005879D02*
X008954Y005879D01*
X008837Y006038D02*
X003936Y006038D01*
X003987Y006196D02*
X008790Y006196D01*
X008792Y006355D02*
X003979Y006355D01*
X003903Y006513D02*
X007704Y006513D01*
X007546Y006672D02*
X003677Y006672D01*
X003837Y006830D02*
X007387Y006830D01*
X007976Y007147D02*
X008791Y007147D01*
X008812Y008098D02*
X008025Y008098D01*
X007866Y008257D02*
X008790Y008257D01*
X007420Y008250D02*
X003420Y008250D01*
X003935Y005562D02*
X002118Y005562D01*
X002118Y005404D02*
X003930Y005404D01*
X003930Y005245D02*
X002118Y005245D01*
X002118Y005087D02*
X003930Y005087D01*
X003945Y004928D02*
X002118Y004928D01*
X002118Y004770D02*
X004104Y004770D01*
X004234Y004611D02*
X002118Y004611D01*
X002118Y004453D02*
X004234Y004453D01*
X004234Y004294D02*
X002118Y004294D01*
X005114Y004294D02*
X007423Y004294D01*
X007265Y004453D02*
X005114Y004453D01*
X005114Y004611D02*
X006968Y004611D01*
X006809Y004770D02*
X005236Y004770D01*
X005395Y004928D02*
X006752Y004928D01*
X006752Y005087D02*
X005410Y005087D01*
X005410Y005245D02*
X006824Y005245D01*
X006982Y005404D02*
X005410Y005404D01*
X005405Y005562D02*
X015891Y005562D01*
X015752Y005404D02*
X008858Y005404D01*
X008482Y005404D02*
X008358Y005404D01*
X007982Y005404D02*
X007858Y005404D01*
X007482Y005404D02*
X007358Y005404D01*
X007170Y005000D02*
X008670Y003500D01*
X008674Y002197D01*
X008670Y004000D02*
X007670Y005000D01*
X008170Y005000D02*
X008670Y004500D01*
X012420Y004500D01*
X012670Y004250D01*
X012674Y002197D01*
X010674Y002197D02*
X010670Y003750D01*
X010420Y004000D01*
X008670Y004000D01*
X008670Y005000D02*
X014670Y005000D01*
X015670Y004000D01*
X015674Y002197D01*
X016674Y002197D02*
X016670Y004000D01*
X016170Y004500D01*
X016170Y005250D01*
X015752Y005245D02*
X014878Y005245D01*
X015036Y005087D02*
X015752Y005087D01*
X015850Y004928D02*
X015195Y004928D01*
X015353Y004770D02*
X015850Y004770D01*
X015850Y004611D02*
X015512Y004611D01*
X015670Y004453D02*
X015850Y004453D01*
X015829Y004294D02*
X015923Y004294D01*
X016449Y005562D02*
X016641Y005562D01*
X016687Y005821D02*
X016755Y005810D01*
X016920Y005810D01*
X016920Y006250D01*
X016920Y006250D01*
X016920Y006250D01*
X016350Y006250D01*
X016350Y006215D01*
X016361Y006147D01*
X016382Y006081D01*
X016414Y006019D01*
X016454Y005963D01*
X016503Y005914D01*
X016559Y005874D01*
X016621Y005842D01*
X016687Y005821D01*
X016552Y005879D02*
X009886Y005879D01*
X009420Y006250D02*
X015420Y006250D01*
X015920Y006750D01*
X020170Y006750D01*
X020366Y006355D02*
X020863Y006355D01*
X020458Y005879D02*
X020088Y005879D01*
X020152Y005721D02*
X020299Y005721D01*
X019920Y005000D02*
X019674Y004754D01*
X019674Y002197D01*
X018674Y002197D02*
X018674Y003996D01*
X017420Y005250D01*
X016920Y005250D01*
X016920Y005879D02*
X016920Y005879D01*
X016920Y006038D02*
X016920Y006038D01*
X016920Y006196D02*
X016920Y006196D01*
X016404Y006038D02*
X015660Y006038D01*
X015819Y006196D02*
X016353Y006196D01*
X016361Y006355D02*
X015977Y006355D01*
X017170Y004750D02*
X017674Y004246D01*
X017674Y002197D01*
X018829Y004294D02*
X019354Y004294D01*
X019354Y004453D02*
X018670Y004453D01*
X018512Y004611D02*
X019354Y004611D01*
X019354Y004770D02*
X018353Y004770D01*
X018195Y004928D02*
X019400Y004928D01*
X019502Y005087D02*
X018036Y005087D01*
X017878Y005245D02*
X019574Y005245D01*
X019425Y005404D02*
X017719Y005404D01*
X017503Y005562D02*
X019267Y005562D01*
X021128Y005245D02*
X021324Y005245D01*
X021670Y005000D02*
X022674Y003996D01*
X022674Y002197D01*
X023386Y005879D02*
X024222Y005879D01*
X024222Y006038D02*
X023503Y006038D01*
X023550Y006196D02*
X024222Y006196D01*
X024222Y006355D02*
X023548Y006355D01*
X023482Y006513D02*
X024222Y006513D01*
X008807Y011110D02*
X008013Y011110D01*
X007855Y011268D02*
X008790Y011268D01*
X007681Y012536D02*
X007566Y012536D01*
X007523Y012695D02*
X003783Y012695D01*
X003860Y012853D02*
X007364Y012853D01*
X007420Y013250D02*
X003420Y013250D01*
D19*
X007170Y005000D03*
X007670Y005000D03*
X008170Y005000D03*
X008670Y005000D03*
X011420Y010250D03*
X011920Y012250D03*
X010920Y014250D03*
X012420Y014750D03*
X012920Y015750D03*
X013420Y016250D03*
X013920Y015250D03*
X014420Y014250D03*
X010920Y017500D03*
X010420Y017750D03*
X010430Y020740D03*
X012670Y023000D03*
X013180Y022490D03*
X011670Y025500D03*
X008170Y026000D03*
X007680Y025740D03*
X006170Y024500D03*
X005920Y022500D03*
X015420Y009250D03*
X014920Y008750D03*
X014920Y008250D03*
X015920Y008250D03*
X015920Y007750D03*
X016170Y005250D03*
X016920Y005250D03*
X017170Y004750D03*
X019670Y005750D03*
X019920Y005000D03*
X020670Y005500D03*
X021670Y005000D03*
X020170Y006750D03*
X019670Y007250D03*
X020670Y008250D03*
X020170Y008750D03*
X021170Y007500D03*
X021670Y008750D03*
X022170Y009750D03*
X019170Y011250D03*
X018670Y012250D03*
X018170Y013250D03*
X019170Y013250D03*
X017670Y018750D03*
X018670Y019250D03*
X019170Y019250D03*
X021670Y020250D03*
X023680Y018240D03*
X020670Y027750D03*
D20*
X024180Y020740D02*
X024180Y020490D01*
X024180Y018240D02*
X024180Y017990D01*
D21*
X010180Y031490D03*
X007180Y031490D03*
M02*
