%
M48
M72
T01C0.0236
T02C0.0276
T03C0.0320
T04C0.0400
T05C0.0591
T06C0.0600
T07C0.1969
%
T01
X7170Y5000
X7670Y5000
X8170Y5000
X8670Y5000
X11420Y10250
X11920Y12250
X10920Y14250
X12420Y14750
X12920Y15750
X13420Y16250
X13920Y15250
X14420Y14250
X10920Y17500
X10420Y17750
X10430Y20740
X12670Y23000
X13180Y22490
X11670Y25500
X8170Y26000
X7680Y25740
X6170Y24500
X5920Y22500
X15420Y9250
X14920Y8750
X14920Y8250
X15920Y8250
X15920Y7750
X16170Y5250
X16920Y5250
X17170Y4750
X19670Y5750
X19920Y5000
X20670Y5500
X21670Y5000
X20170Y6750
X19670Y7250
X20670Y8250
X20170Y8750
X21170Y7500
X21670Y8750
X22170Y9750
X19170Y11250
X18670Y12250
X18170Y13250
X19170Y13250
X17670Y18750
X18670Y19250
X19170Y19250
X21670Y20250
X23680Y18240
X20670Y27750
T02
X17420Y30250
X17420Y30750
X17420Y31250
X17420Y31750
X17420Y32250
X17420Y32750
X17420Y33250
X17920Y30250
X18420Y30250
X18920Y30250
X19420Y30250
X19920Y30250
X20420Y30250
X20920Y30250
X21420Y30250
X21920Y30250
X22420Y30250
X22920Y30250
X23420Y30250
X23920Y30250
X24420Y30250
T03
X3420Y6250
X3420Y7250
X3420Y8250
X3420Y9250
X3420Y10250
X3420Y11250
X3420Y12250
X3420Y13250
X3420Y14250
X3420Y15250
X3420Y16250
X3420Y17250
X3420Y18250
X3420Y19250
X3420Y20250
X3420Y21250
X5670Y23750
X6670Y23750
X7670Y23750
X8670Y23750
X9670Y23750
X10670Y23750
X11670Y23750
X13670Y23750
X14670Y23750
X15670Y23750
X16670Y23750
X17670Y23750
X18670Y23750
X19670Y23750
X20670Y23750
X21670Y23750
X22670Y23750
X22920Y22500
X23920Y22500
X22920Y21250
X22920Y20250
X22920Y19250
X22920Y18250
X22920Y17250
X22920Y16250
X22920Y15250
X22920Y14250
X22920Y13250
X22920Y12250
X22920Y11250
X22920Y10250
X22920Y9250
X22920Y8250
X22920Y7250
X22920Y6250
X16920Y6250
X16920Y7250
X16920Y8250
X16920Y9250
X16920Y10250
X16920Y11250
X16920Y12250
X16920Y13250
X16920Y14250
X16920Y15250
X16920Y16250
X16920Y17250
X16920Y18250
X16920Y19250
X16920Y20250
X16920Y21250
X9420Y17250
X9420Y16250
X9420Y15250
X9420Y14250
X9420Y13250
X9420Y12250
X9420Y11250
X9420Y10250
X9420Y9250
X9420Y8250
X9420Y7250
X9420Y6250
X9420Y18250
X9420Y19250
X9420Y20250
X9420Y21250
X9670Y26750
X8670Y26750
X7670Y26750
X6670Y26750
X5670Y26750
X3920Y25750
X3920Y24750
X10670Y26750
X11670Y26750
X13670Y26750
X14670Y26750
X15670Y26750
X16670Y26750
X17670Y26750
X18670Y26750
X19670Y26750
X20670Y26750
X21670Y26750
X22670Y26750
T04
X9570Y29960
X7790Y29960
X7790Y32520
X9570Y32520
T05
X2670Y4500
X4670Y5250
X4670Y22000
X23670Y4500
T06
X10180Y31490
X7180Y31490
T07
X13170Y17626
M30
