G75*
G70*
%OFA0B0*%
%FSLAX24Y24*%
%IPPOS*%
%LPD*%
%AMOC8*
5,1,8,0,0,1.08239X$1,22.5*
%
%ADD10C,0.0000*%
%ADD11C,0.0600*%
%ADD12C,0.0520*%
%ADD13R,0.1000X0.2000*%
%ADD14OC8,0.0520*%
%ADD15R,0.0250X0.0500*%
%ADD16OC8,0.1000*%
%ADD17C,0.0400*%
%ADD18C,0.0160*%
%ADD19OC8,0.0356*%
%ADD20C,0.0900*%
%ADD21C,0.0100*%
D10*
X002232Y000500D02*
X001878Y001012D01*
X001878Y010146D01*
X000920Y010146D01*
X000920Y027862D01*
X001753Y027862D01*
X001753Y033571D01*
X024587Y033571D01*
X024587Y027862D01*
X025420Y027862D01*
X025420Y010146D01*
X024462Y010146D01*
X024462Y001012D01*
X024108Y000500D01*
X002232Y000500D01*
X012186Y017626D02*
X012188Y017688D01*
X012194Y017751D01*
X012204Y017812D01*
X012218Y017873D01*
X012235Y017933D01*
X012256Y017992D01*
X012282Y018049D01*
X012310Y018104D01*
X012342Y018158D01*
X012378Y018209D01*
X012416Y018259D01*
X012458Y018305D01*
X012502Y018349D01*
X012550Y018390D01*
X012599Y018428D01*
X012651Y018462D01*
X012705Y018493D01*
X012761Y018521D01*
X012819Y018545D01*
X012878Y018566D01*
X012938Y018582D01*
X012999Y018595D01*
X013061Y018604D01*
X013123Y018609D01*
X013186Y018610D01*
X013248Y018607D01*
X013310Y018600D01*
X013372Y018589D01*
X013432Y018574D01*
X013492Y018556D01*
X013550Y018534D01*
X013607Y018508D01*
X013662Y018478D01*
X013715Y018445D01*
X013766Y018409D01*
X013814Y018370D01*
X013860Y018327D01*
X013903Y018282D01*
X013943Y018234D01*
X013980Y018184D01*
X014014Y018131D01*
X014045Y018077D01*
X014071Y018021D01*
X014095Y017963D01*
X014114Y017903D01*
X014130Y017843D01*
X014142Y017781D01*
X014150Y017720D01*
X014154Y017657D01*
X014154Y017595D01*
X014150Y017532D01*
X014142Y017471D01*
X014130Y017409D01*
X014114Y017349D01*
X014095Y017289D01*
X014071Y017231D01*
X014045Y017175D01*
X014014Y017121D01*
X013980Y017068D01*
X013943Y017018D01*
X013903Y016970D01*
X013860Y016925D01*
X013814Y016882D01*
X013766Y016843D01*
X013715Y016807D01*
X013662Y016774D01*
X013607Y016744D01*
X013550Y016718D01*
X013492Y016696D01*
X013432Y016678D01*
X013372Y016663D01*
X013310Y016652D01*
X013248Y016645D01*
X013186Y016642D01*
X013123Y016643D01*
X013061Y016648D01*
X012999Y016657D01*
X012938Y016670D01*
X012878Y016686D01*
X012819Y016707D01*
X012761Y016731D01*
X012705Y016759D01*
X012651Y016790D01*
X012599Y016824D01*
X012550Y016862D01*
X012502Y016903D01*
X012458Y016947D01*
X012416Y016993D01*
X012378Y017043D01*
X012342Y017094D01*
X012310Y017148D01*
X012282Y017203D01*
X012256Y017260D01*
X012235Y017319D01*
X012218Y017379D01*
X012204Y017440D01*
X012194Y017501D01*
X012188Y017564D01*
X012186Y017626D01*
X017282Y030250D02*
X017284Y030273D01*
X017290Y030296D01*
X017300Y030317D01*
X017313Y030337D01*
X017329Y030354D01*
X017348Y030368D01*
X017369Y030378D01*
X017391Y030385D01*
X017414Y030388D01*
X017438Y030387D01*
X017460Y030382D01*
X017482Y030373D01*
X017502Y030361D01*
X017520Y030345D01*
X017534Y030327D01*
X017546Y030307D01*
X017554Y030285D01*
X017558Y030262D01*
X017558Y030238D01*
X017554Y030215D01*
X017546Y030193D01*
X017534Y030173D01*
X017520Y030155D01*
X017502Y030139D01*
X017482Y030127D01*
X017460Y030118D01*
X017438Y030113D01*
X017414Y030112D01*
X017391Y030115D01*
X017369Y030122D01*
X017348Y030132D01*
X017329Y030146D01*
X017313Y030163D01*
X017300Y030183D01*
X017290Y030204D01*
X017284Y030227D01*
X017282Y030250D01*
X017282Y030750D02*
X017284Y030773D01*
X017290Y030796D01*
X017300Y030817D01*
X017313Y030837D01*
X017329Y030854D01*
X017348Y030868D01*
X017369Y030878D01*
X017391Y030885D01*
X017414Y030888D01*
X017438Y030887D01*
X017460Y030882D01*
X017482Y030873D01*
X017502Y030861D01*
X017520Y030845D01*
X017534Y030827D01*
X017546Y030807D01*
X017554Y030785D01*
X017558Y030762D01*
X017558Y030738D01*
X017554Y030715D01*
X017546Y030693D01*
X017534Y030673D01*
X017520Y030655D01*
X017502Y030639D01*
X017482Y030627D01*
X017460Y030618D01*
X017438Y030613D01*
X017414Y030612D01*
X017391Y030615D01*
X017369Y030622D01*
X017348Y030632D01*
X017329Y030646D01*
X017313Y030663D01*
X017300Y030683D01*
X017290Y030704D01*
X017284Y030727D01*
X017282Y030750D01*
X017282Y031250D02*
X017284Y031273D01*
X017290Y031296D01*
X017300Y031317D01*
X017313Y031337D01*
X017329Y031354D01*
X017348Y031368D01*
X017369Y031378D01*
X017391Y031385D01*
X017414Y031388D01*
X017438Y031387D01*
X017460Y031382D01*
X017482Y031373D01*
X017502Y031361D01*
X017520Y031345D01*
X017534Y031327D01*
X017546Y031307D01*
X017554Y031285D01*
X017558Y031262D01*
X017558Y031238D01*
X017554Y031215D01*
X017546Y031193D01*
X017534Y031173D01*
X017520Y031155D01*
X017502Y031139D01*
X017482Y031127D01*
X017460Y031118D01*
X017438Y031113D01*
X017414Y031112D01*
X017391Y031115D01*
X017369Y031122D01*
X017348Y031132D01*
X017329Y031146D01*
X017313Y031163D01*
X017300Y031183D01*
X017290Y031204D01*
X017284Y031227D01*
X017282Y031250D01*
X017282Y031750D02*
X017284Y031773D01*
X017290Y031796D01*
X017300Y031817D01*
X017313Y031837D01*
X017329Y031854D01*
X017348Y031868D01*
X017369Y031878D01*
X017391Y031885D01*
X017414Y031888D01*
X017438Y031887D01*
X017460Y031882D01*
X017482Y031873D01*
X017502Y031861D01*
X017520Y031845D01*
X017534Y031827D01*
X017546Y031807D01*
X017554Y031785D01*
X017558Y031762D01*
X017558Y031738D01*
X017554Y031715D01*
X017546Y031693D01*
X017534Y031673D01*
X017520Y031655D01*
X017502Y031639D01*
X017482Y031627D01*
X017460Y031618D01*
X017438Y031613D01*
X017414Y031612D01*
X017391Y031615D01*
X017369Y031622D01*
X017348Y031632D01*
X017329Y031646D01*
X017313Y031663D01*
X017300Y031683D01*
X017290Y031704D01*
X017284Y031727D01*
X017282Y031750D01*
X017282Y032250D02*
X017284Y032273D01*
X017290Y032296D01*
X017300Y032317D01*
X017313Y032337D01*
X017329Y032354D01*
X017348Y032368D01*
X017369Y032378D01*
X017391Y032385D01*
X017414Y032388D01*
X017438Y032387D01*
X017460Y032382D01*
X017482Y032373D01*
X017502Y032361D01*
X017520Y032345D01*
X017534Y032327D01*
X017546Y032307D01*
X017554Y032285D01*
X017558Y032262D01*
X017558Y032238D01*
X017554Y032215D01*
X017546Y032193D01*
X017534Y032173D01*
X017520Y032155D01*
X017502Y032139D01*
X017482Y032127D01*
X017460Y032118D01*
X017438Y032113D01*
X017414Y032112D01*
X017391Y032115D01*
X017369Y032122D01*
X017348Y032132D01*
X017329Y032146D01*
X017313Y032163D01*
X017300Y032183D01*
X017290Y032204D01*
X017284Y032227D01*
X017282Y032250D01*
X017282Y032750D02*
X017284Y032773D01*
X017290Y032796D01*
X017300Y032817D01*
X017313Y032837D01*
X017329Y032854D01*
X017348Y032868D01*
X017369Y032878D01*
X017391Y032885D01*
X017414Y032888D01*
X017438Y032887D01*
X017460Y032882D01*
X017482Y032873D01*
X017502Y032861D01*
X017520Y032845D01*
X017534Y032827D01*
X017546Y032807D01*
X017554Y032785D01*
X017558Y032762D01*
X017558Y032738D01*
X017554Y032715D01*
X017546Y032693D01*
X017534Y032673D01*
X017520Y032655D01*
X017502Y032639D01*
X017482Y032627D01*
X017460Y032618D01*
X017438Y032613D01*
X017414Y032612D01*
X017391Y032615D01*
X017369Y032622D01*
X017348Y032632D01*
X017329Y032646D01*
X017313Y032663D01*
X017300Y032683D01*
X017290Y032704D01*
X017284Y032727D01*
X017282Y032750D01*
X017282Y033250D02*
X017284Y033273D01*
X017290Y033296D01*
X017300Y033317D01*
X017313Y033337D01*
X017329Y033354D01*
X017348Y033368D01*
X017369Y033378D01*
X017391Y033385D01*
X017414Y033388D01*
X017438Y033387D01*
X017460Y033382D01*
X017482Y033373D01*
X017502Y033361D01*
X017520Y033345D01*
X017534Y033327D01*
X017546Y033307D01*
X017554Y033285D01*
X017558Y033262D01*
X017558Y033238D01*
X017554Y033215D01*
X017546Y033193D01*
X017534Y033173D01*
X017520Y033155D01*
X017502Y033139D01*
X017482Y033127D01*
X017460Y033118D01*
X017438Y033113D01*
X017414Y033112D01*
X017391Y033115D01*
X017369Y033122D01*
X017348Y033132D01*
X017329Y033146D01*
X017313Y033163D01*
X017300Y033183D01*
X017290Y033204D01*
X017284Y033227D01*
X017282Y033250D01*
X017782Y030250D02*
X017784Y030273D01*
X017790Y030296D01*
X017800Y030317D01*
X017813Y030337D01*
X017829Y030354D01*
X017848Y030368D01*
X017869Y030378D01*
X017891Y030385D01*
X017914Y030388D01*
X017938Y030387D01*
X017960Y030382D01*
X017982Y030373D01*
X018002Y030361D01*
X018020Y030345D01*
X018034Y030327D01*
X018046Y030307D01*
X018054Y030285D01*
X018058Y030262D01*
X018058Y030238D01*
X018054Y030215D01*
X018046Y030193D01*
X018034Y030173D01*
X018020Y030155D01*
X018002Y030139D01*
X017982Y030127D01*
X017960Y030118D01*
X017938Y030113D01*
X017914Y030112D01*
X017891Y030115D01*
X017869Y030122D01*
X017848Y030132D01*
X017829Y030146D01*
X017813Y030163D01*
X017800Y030183D01*
X017790Y030204D01*
X017784Y030227D01*
X017782Y030250D01*
X018282Y030250D02*
X018284Y030273D01*
X018290Y030296D01*
X018300Y030317D01*
X018313Y030337D01*
X018329Y030354D01*
X018348Y030368D01*
X018369Y030378D01*
X018391Y030385D01*
X018414Y030388D01*
X018438Y030387D01*
X018460Y030382D01*
X018482Y030373D01*
X018502Y030361D01*
X018520Y030345D01*
X018534Y030327D01*
X018546Y030307D01*
X018554Y030285D01*
X018558Y030262D01*
X018558Y030238D01*
X018554Y030215D01*
X018546Y030193D01*
X018534Y030173D01*
X018520Y030155D01*
X018502Y030139D01*
X018482Y030127D01*
X018460Y030118D01*
X018438Y030113D01*
X018414Y030112D01*
X018391Y030115D01*
X018369Y030122D01*
X018348Y030132D01*
X018329Y030146D01*
X018313Y030163D01*
X018300Y030183D01*
X018290Y030204D01*
X018284Y030227D01*
X018282Y030250D01*
X018782Y030250D02*
X018784Y030273D01*
X018790Y030296D01*
X018800Y030317D01*
X018813Y030337D01*
X018829Y030354D01*
X018848Y030368D01*
X018869Y030378D01*
X018891Y030385D01*
X018914Y030388D01*
X018938Y030387D01*
X018960Y030382D01*
X018982Y030373D01*
X019002Y030361D01*
X019020Y030345D01*
X019034Y030327D01*
X019046Y030307D01*
X019054Y030285D01*
X019058Y030262D01*
X019058Y030238D01*
X019054Y030215D01*
X019046Y030193D01*
X019034Y030173D01*
X019020Y030155D01*
X019002Y030139D01*
X018982Y030127D01*
X018960Y030118D01*
X018938Y030113D01*
X018914Y030112D01*
X018891Y030115D01*
X018869Y030122D01*
X018848Y030132D01*
X018829Y030146D01*
X018813Y030163D01*
X018800Y030183D01*
X018790Y030204D01*
X018784Y030227D01*
X018782Y030250D01*
X019282Y030250D02*
X019284Y030273D01*
X019290Y030296D01*
X019300Y030317D01*
X019313Y030337D01*
X019329Y030354D01*
X019348Y030368D01*
X019369Y030378D01*
X019391Y030385D01*
X019414Y030388D01*
X019438Y030387D01*
X019460Y030382D01*
X019482Y030373D01*
X019502Y030361D01*
X019520Y030345D01*
X019534Y030327D01*
X019546Y030307D01*
X019554Y030285D01*
X019558Y030262D01*
X019558Y030238D01*
X019554Y030215D01*
X019546Y030193D01*
X019534Y030173D01*
X019520Y030155D01*
X019502Y030139D01*
X019482Y030127D01*
X019460Y030118D01*
X019438Y030113D01*
X019414Y030112D01*
X019391Y030115D01*
X019369Y030122D01*
X019348Y030132D01*
X019329Y030146D01*
X019313Y030163D01*
X019300Y030183D01*
X019290Y030204D01*
X019284Y030227D01*
X019282Y030250D01*
X019782Y030250D02*
X019784Y030273D01*
X019790Y030296D01*
X019800Y030317D01*
X019813Y030337D01*
X019829Y030354D01*
X019848Y030368D01*
X019869Y030378D01*
X019891Y030385D01*
X019914Y030388D01*
X019938Y030387D01*
X019960Y030382D01*
X019982Y030373D01*
X020002Y030361D01*
X020020Y030345D01*
X020034Y030327D01*
X020046Y030307D01*
X020054Y030285D01*
X020058Y030262D01*
X020058Y030238D01*
X020054Y030215D01*
X020046Y030193D01*
X020034Y030173D01*
X020020Y030155D01*
X020002Y030139D01*
X019982Y030127D01*
X019960Y030118D01*
X019938Y030113D01*
X019914Y030112D01*
X019891Y030115D01*
X019869Y030122D01*
X019848Y030132D01*
X019829Y030146D01*
X019813Y030163D01*
X019800Y030183D01*
X019790Y030204D01*
X019784Y030227D01*
X019782Y030250D01*
X020282Y030250D02*
X020284Y030273D01*
X020290Y030296D01*
X020300Y030317D01*
X020313Y030337D01*
X020329Y030354D01*
X020348Y030368D01*
X020369Y030378D01*
X020391Y030385D01*
X020414Y030388D01*
X020438Y030387D01*
X020460Y030382D01*
X020482Y030373D01*
X020502Y030361D01*
X020520Y030345D01*
X020534Y030327D01*
X020546Y030307D01*
X020554Y030285D01*
X020558Y030262D01*
X020558Y030238D01*
X020554Y030215D01*
X020546Y030193D01*
X020534Y030173D01*
X020520Y030155D01*
X020502Y030139D01*
X020482Y030127D01*
X020460Y030118D01*
X020438Y030113D01*
X020414Y030112D01*
X020391Y030115D01*
X020369Y030122D01*
X020348Y030132D01*
X020329Y030146D01*
X020313Y030163D01*
X020300Y030183D01*
X020290Y030204D01*
X020284Y030227D01*
X020282Y030250D01*
X020782Y030250D02*
X020784Y030273D01*
X020790Y030296D01*
X020800Y030317D01*
X020813Y030337D01*
X020829Y030354D01*
X020848Y030368D01*
X020869Y030378D01*
X020891Y030385D01*
X020914Y030388D01*
X020938Y030387D01*
X020960Y030382D01*
X020982Y030373D01*
X021002Y030361D01*
X021020Y030345D01*
X021034Y030327D01*
X021046Y030307D01*
X021054Y030285D01*
X021058Y030262D01*
X021058Y030238D01*
X021054Y030215D01*
X021046Y030193D01*
X021034Y030173D01*
X021020Y030155D01*
X021002Y030139D01*
X020982Y030127D01*
X020960Y030118D01*
X020938Y030113D01*
X020914Y030112D01*
X020891Y030115D01*
X020869Y030122D01*
X020848Y030132D01*
X020829Y030146D01*
X020813Y030163D01*
X020800Y030183D01*
X020790Y030204D01*
X020784Y030227D01*
X020782Y030250D01*
X021282Y030250D02*
X021284Y030273D01*
X021290Y030296D01*
X021300Y030317D01*
X021313Y030337D01*
X021329Y030354D01*
X021348Y030368D01*
X021369Y030378D01*
X021391Y030385D01*
X021414Y030388D01*
X021438Y030387D01*
X021460Y030382D01*
X021482Y030373D01*
X021502Y030361D01*
X021520Y030345D01*
X021534Y030327D01*
X021546Y030307D01*
X021554Y030285D01*
X021558Y030262D01*
X021558Y030238D01*
X021554Y030215D01*
X021546Y030193D01*
X021534Y030173D01*
X021520Y030155D01*
X021502Y030139D01*
X021482Y030127D01*
X021460Y030118D01*
X021438Y030113D01*
X021414Y030112D01*
X021391Y030115D01*
X021369Y030122D01*
X021348Y030132D01*
X021329Y030146D01*
X021313Y030163D01*
X021300Y030183D01*
X021290Y030204D01*
X021284Y030227D01*
X021282Y030250D01*
X021782Y030250D02*
X021784Y030273D01*
X021790Y030296D01*
X021800Y030317D01*
X021813Y030337D01*
X021829Y030354D01*
X021848Y030368D01*
X021869Y030378D01*
X021891Y030385D01*
X021914Y030388D01*
X021938Y030387D01*
X021960Y030382D01*
X021982Y030373D01*
X022002Y030361D01*
X022020Y030345D01*
X022034Y030327D01*
X022046Y030307D01*
X022054Y030285D01*
X022058Y030262D01*
X022058Y030238D01*
X022054Y030215D01*
X022046Y030193D01*
X022034Y030173D01*
X022020Y030155D01*
X022002Y030139D01*
X021982Y030127D01*
X021960Y030118D01*
X021938Y030113D01*
X021914Y030112D01*
X021891Y030115D01*
X021869Y030122D01*
X021848Y030132D01*
X021829Y030146D01*
X021813Y030163D01*
X021800Y030183D01*
X021790Y030204D01*
X021784Y030227D01*
X021782Y030250D01*
X022282Y030250D02*
X022284Y030273D01*
X022290Y030296D01*
X022300Y030317D01*
X022313Y030337D01*
X022329Y030354D01*
X022348Y030368D01*
X022369Y030378D01*
X022391Y030385D01*
X022414Y030388D01*
X022438Y030387D01*
X022460Y030382D01*
X022482Y030373D01*
X022502Y030361D01*
X022520Y030345D01*
X022534Y030327D01*
X022546Y030307D01*
X022554Y030285D01*
X022558Y030262D01*
X022558Y030238D01*
X022554Y030215D01*
X022546Y030193D01*
X022534Y030173D01*
X022520Y030155D01*
X022502Y030139D01*
X022482Y030127D01*
X022460Y030118D01*
X022438Y030113D01*
X022414Y030112D01*
X022391Y030115D01*
X022369Y030122D01*
X022348Y030132D01*
X022329Y030146D01*
X022313Y030163D01*
X022300Y030183D01*
X022290Y030204D01*
X022284Y030227D01*
X022282Y030250D01*
X022782Y030250D02*
X022784Y030273D01*
X022790Y030296D01*
X022800Y030317D01*
X022813Y030337D01*
X022829Y030354D01*
X022848Y030368D01*
X022869Y030378D01*
X022891Y030385D01*
X022914Y030388D01*
X022938Y030387D01*
X022960Y030382D01*
X022982Y030373D01*
X023002Y030361D01*
X023020Y030345D01*
X023034Y030327D01*
X023046Y030307D01*
X023054Y030285D01*
X023058Y030262D01*
X023058Y030238D01*
X023054Y030215D01*
X023046Y030193D01*
X023034Y030173D01*
X023020Y030155D01*
X023002Y030139D01*
X022982Y030127D01*
X022960Y030118D01*
X022938Y030113D01*
X022914Y030112D01*
X022891Y030115D01*
X022869Y030122D01*
X022848Y030132D01*
X022829Y030146D01*
X022813Y030163D01*
X022800Y030183D01*
X022790Y030204D01*
X022784Y030227D01*
X022782Y030250D01*
X023282Y030250D02*
X023284Y030273D01*
X023290Y030296D01*
X023300Y030317D01*
X023313Y030337D01*
X023329Y030354D01*
X023348Y030368D01*
X023369Y030378D01*
X023391Y030385D01*
X023414Y030388D01*
X023438Y030387D01*
X023460Y030382D01*
X023482Y030373D01*
X023502Y030361D01*
X023520Y030345D01*
X023534Y030327D01*
X023546Y030307D01*
X023554Y030285D01*
X023558Y030262D01*
X023558Y030238D01*
X023554Y030215D01*
X023546Y030193D01*
X023534Y030173D01*
X023520Y030155D01*
X023502Y030139D01*
X023482Y030127D01*
X023460Y030118D01*
X023438Y030113D01*
X023414Y030112D01*
X023391Y030115D01*
X023369Y030122D01*
X023348Y030132D01*
X023329Y030146D01*
X023313Y030163D01*
X023300Y030183D01*
X023290Y030204D01*
X023284Y030227D01*
X023282Y030250D01*
X023782Y030250D02*
X023784Y030273D01*
X023790Y030296D01*
X023800Y030317D01*
X023813Y030337D01*
X023829Y030354D01*
X023848Y030368D01*
X023869Y030378D01*
X023891Y030385D01*
X023914Y030388D01*
X023938Y030387D01*
X023960Y030382D01*
X023982Y030373D01*
X024002Y030361D01*
X024020Y030345D01*
X024034Y030327D01*
X024046Y030307D01*
X024054Y030285D01*
X024058Y030262D01*
X024058Y030238D01*
X024054Y030215D01*
X024046Y030193D01*
X024034Y030173D01*
X024020Y030155D01*
X024002Y030139D01*
X023982Y030127D01*
X023960Y030118D01*
X023938Y030113D01*
X023914Y030112D01*
X023891Y030115D01*
X023869Y030122D01*
X023848Y030132D01*
X023829Y030146D01*
X023813Y030163D01*
X023800Y030183D01*
X023790Y030204D01*
X023784Y030227D01*
X023782Y030250D01*
X024282Y030250D02*
X024284Y030273D01*
X024290Y030296D01*
X024300Y030317D01*
X024313Y030337D01*
X024329Y030354D01*
X024348Y030368D01*
X024369Y030378D01*
X024391Y030385D01*
X024414Y030388D01*
X024438Y030387D01*
X024460Y030382D01*
X024482Y030373D01*
X024502Y030361D01*
X024520Y030345D01*
X024534Y030327D01*
X024546Y030307D01*
X024554Y030285D01*
X024558Y030262D01*
X024558Y030238D01*
X024554Y030215D01*
X024546Y030193D01*
X024534Y030173D01*
X024520Y030155D01*
X024502Y030139D01*
X024482Y030127D01*
X024460Y030118D01*
X024438Y030113D01*
X024414Y030112D01*
X024391Y030115D01*
X024369Y030122D01*
X024348Y030132D01*
X024329Y030146D01*
X024313Y030163D01*
X024300Y030183D01*
X024290Y030204D01*
X024284Y030227D01*
X024282Y030250D01*
D11*
X009570Y030110D02*
X009570Y029810D01*
X007790Y029810D02*
X007790Y030110D01*
X007790Y032370D02*
X007790Y032670D01*
X009570Y032670D02*
X009570Y032370D01*
X009674Y003172D02*
X009674Y001222D01*
X010674Y001222D02*
X010674Y003172D01*
X011674Y003172D02*
X011674Y001222D01*
X012674Y001222D02*
X012674Y003172D01*
X013674Y003172D02*
X013674Y001222D01*
X014674Y001222D02*
X014674Y003172D01*
X015674Y003172D02*
X015674Y001222D01*
X016674Y001222D02*
X016674Y003172D01*
X017674Y003172D02*
X017674Y001222D01*
X018674Y001222D02*
X018674Y003172D01*
X019674Y003172D02*
X019674Y001222D01*
X020674Y001222D02*
X020674Y003172D01*
X021674Y003172D02*
X021674Y001222D01*
X022674Y001222D02*
X022674Y003172D01*
X023674Y003172D02*
X023674Y001222D01*
X008674Y001222D02*
X008674Y003172D01*
X007674Y003172D02*
X007674Y001222D01*
X006674Y001222D02*
X006674Y003172D01*
X005674Y003172D02*
X005674Y001222D01*
X004674Y001222D02*
X004674Y003172D01*
X003674Y003172D02*
X003674Y001222D01*
X002674Y001222D02*
X002674Y003172D01*
D12*
X003290Y006250D02*
X003550Y006250D01*
X003550Y007250D02*
X003290Y007250D01*
X003290Y008250D02*
X003550Y008250D01*
X003550Y009250D02*
X003290Y009250D01*
X003290Y010250D02*
X003550Y010250D01*
X003550Y011250D02*
X003290Y011250D01*
X003290Y012250D02*
X003550Y012250D01*
X003550Y013250D02*
X003290Y013250D01*
X003290Y014250D02*
X003550Y014250D01*
X003550Y015250D02*
X003290Y015250D01*
X003290Y016250D02*
X003550Y016250D01*
X003550Y017250D02*
X003290Y017250D01*
X003290Y018250D02*
X003550Y018250D01*
X003550Y019250D02*
X003290Y019250D01*
X003290Y020250D02*
X003550Y020250D01*
X003550Y021250D02*
X003290Y021250D01*
X005670Y023620D02*
X005670Y023880D01*
X006670Y023880D02*
X006670Y023620D01*
X007670Y023620D02*
X007670Y023880D01*
X008670Y023880D02*
X008670Y023620D01*
X009670Y023620D02*
X009670Y023880D01*
X010670Y023880D02*
X010670Y023620D01*
X011670Y023620D02*
X011670Y023880D01*
X013670Y023880D02*
X013670Y023620D01*
X014670Y023620D02*
X014670Y023880D01*
X015670Y023880D02*
X015670Y023620D01*
X016670Y023620D02*
X016670Y023880D01*
X017670Y023880D02*
X017670Y023620D01*
X018670Y023620D02*
X018670Y023880D01*
X019670Y023880D02*
X019670Y023620D01*
X020670Y023620D02*
X020670Y023880D01*
X021670Y023880D02*
X021670Y023620D01*
X022670Y023620D02*
X022670Y023880D01*
X022790Y021250D02*
X023050Y021250D01*
X023050Y020250D02*
X022790Y020250D01*
X022790Y019250D02*
X023050Y019250D01*
X023050Y018250D02*
X022790Y018250D01*
X022790Y017250D02*
X023050Y017250D01*
X023050Y016250D02*
X022790Y016250D01*
X022790Y015250D02*
X023050Y015250D01*
X023050Y014250D02*
X022790Y014250D01*
X022790Y013250D02*
X023050Y013250D01*
X023050Y012250D02*
X022790Y012250D01*
X022790Y011250D02*
X023050Y011250D01*
X023050Y010250D02*
X022790Y010250D01*
X022790Y009250D02*
X023050Y009250D01*
X023050Y008250D02*
X022790Y008250D01*
X022790Y007250D02*
X023050Y007250D01*
X023050Y006250D02*
X022790Y006250D01*
X017050Y006250D02*
X016790Y006250D01*
X016790Y007250D02*
X017050Y007250D01*
X017050Y008250D02*
X016790Y008250D01*
X016790Y009250D02*
X017050Y009250D01*
X017050Y010250D02*
X016790Y010250D01*
X016790Y011250D02*
X017050Y011250D01*
X017050Y012250D02*
X016790Y012250D01*
X016790Y013250D02*
X017050Y013250D01*
X017050Y014250D02*
X016790Y014250D01*
X016790Y015250D02*
X017050Y015250D01*
X017050Y016250D02*
X016790Y016250D01*
X016790Y017250D02*
X017050Y017250D01*
X017050Y018250D02*
X016790Y018250D01*
X016790Y019250D02*
X017050Y019250D01*
X017050Y020250D02*
X016790Y020250D01*
X016790Y021250D02*
X017050Y021250D01*
X016670Y026620D02*
X016670Y026880D01*
X015670Y026880D02*
X015670Y026620D01*
X014670Y026620D02*
X014670Y026880D01*
X013670Y026880D02*
X013670Y026620D01*
X011670Y026620D02*
X011670Y026880D01*
X010670Y026880D02*
X010670Y026620D01*
X009670Y026620D02*
X009670Y026880D01*
X008670Y026880D02*
X008670Y026620D01*
X007670Y026620D02*
X007670Y026880D01*
X006670Y026880D02*
X006670Y026620D01*
X005670Y026620D02*
X005670Y026880D01*
X009290Y021250D02*
X009550Y021250D01*
X009550Y020250D02*
X009290Y020250D01*
X009290Y019250D02*
X009550Y019250D01*
X009550Y018250D02*
X009290Y018250D01*
X009290Y017250D02*
X009550Y017250D01*
X009550Y016250D02*
X009290Y016250D01*
X009290Y015250D02*
X009550Y015250D01*
X009550Y014250D02*
X009290Y014250D01*
X009290Y013250D02*
X009550Y013250D01*
X009550Y012250D02*
X009290Y012250D01*
X009290Y011250D02*
X009550Y011250D01*
X009550Y010250D02*
X009290Y010250D01*
X009290Y009250D02*
X009550Y009250D01*
X009550Y008250D02*
X009290Y008250D01*
X009290Y007250D02*
X009550Y007250D01*
X009550Y006250D02*
X009290Y006250D01*
X017670Y026620D02*
X017670Y026880D01*
X018670Y026880D02*
X018670Y026620D01*
X019670Y026620D02*
X019670Y026880D01*
X020670Y026880D02*
X020670Y026620D01*
X021670Y026620D02*
X021670Y026880D01*
X022670Y026880D02*
X022670Y026620D01*
D13*
X020670Y029000D03*
D14*
X022920Y022500D03*
X023920Y022500D03*
X003920Y024750D03*
X003920Y025750D03*
D15*
X007580Y025240D03*
X007930Y025240D03*
X008280Y025240D03*
D16*
X004670Y022000D03*
X004670Y005250D03*
X002670Y004500D03*
X023670Y004500D03*
D17*
X023674Y004496D01*
X023674Y002197D01*
X022920Y021250D02*
X022920Y022500D01*
X013670Y026750D02*
X012670Y025750D01*
X012670Y023000D01*
X005670Y026750D02*
X004670Y025750D01*
X004670Y022000D01*
X004670Y005250D01*
X002670Y004500D02*
X002674Y002197D01*
D18*
X002118Y004240D02*
X002118Y010193D01*
X002081Y010282D01*
X002014Y010349D01*
X001925Y010386D01*
X001160Y010386D01*
X001160Y027622D01*
X001800Y027622D01*
X001889Y027659D01*
X001956Y027726D01*
X001993Y027814D01*
X001993Y033331D01*
X017045Y033331D01*
X017042Y033325D01*
X017042Y033175D01*
X017100Y033036D01*
X017136Y033000D01*
X017100Y032964D01*
X017042Y032825D01*
X017042Y032675D01*
X017100Y032536D01*
X017136Y032500D01*
X017100Y032464D01*
X017042Y032325D01*
X017042Y032175D01*
X017100Y032036D01*
X017136Y032000D01*
X017100Y031964D01*
X017042Y031825D01*
X017042Y031675D01*
X017100Y031536D01*
X017136Y031500D01*
X017100Y031464D01*
X017042Y031325D01*
X017042Y031175D01*
X017100Y031036D01*
X017136Y031000D01*
X017100Y030964D01*
X017042Y030825D01*
X017042Y030675D01*
X017100Y030536D01*
X017136Y030500D01*
X017100Y030464D01*
X017042Y030325D01*
X017042Y030175D01*
X017100Y030036D01*
X017206Y029930D01*
X017345Y029872D01*
X017495Y029872D01*
X017634Y029930D01*
X017670Y029966D01*
X017706Y029930D01*
X017845Y029872D01*
X017995Y029872D01*
X018134Y029930D01*
X018170Y029966D01*
X018206Y029930D01*
X018345Y029872D01*
X018495Y029872D01*
X018634Y029930D01*
X018670Y029966D01*
X018706Y029930D01*
X018845Y029872D01*
X018995Y029872D01*
X019134Y029930D01*
X019170Y029966D01*
X019206Y029930D01*
X019345Y029872D01*
X019495Y029872D01*
X019634Y029930D01*
X019670Y029966D01*
X019706Y029930D01*
X019845Y029872D01*
X019990Y029872D01*
X019990Y029080D01*
X020590Y029080D01*
X020590Y028920D01*
X020590Y028168D01*
X020750Y028168D01*
X020750Y028920D01*
X020750Y029080D01*
X021350Y029080D01*
X021350Y029872D01*
X021495Y029872D01*
X021634Y029930D01*
X021670Y029966D01*
X021706Y029930D01*
X021845Y029872D01*
X021995Y029872D01*
X022134Y029930D01*
X022170Y029966D01*
X022206Y029930D01*
X022345Y029872D01*
X022495Y029872D01*
X022634Y029930D01*
X022670Y029966D01*
X022706Y029930D01*
X022845Y029872D01*
X022995Y029872D01*
X023134Y029930D01*
X023170Y029966D01*
X023206Y029930D01*
X023345Y029872D01*
X023495Y029872D01*
X023634Y029930D01*
X023670Y029966D01*
X023706Y029930D01*
X023845Y029872D01*
X023995Y029872D01*
X024134Y029930D01*
X024170Y029966D01*
X024206Y029930D01*
X024345Y029872D01*
X024347Y029872D01*
X024347Y027814D01*
X024384Y027726D01*
X024451Y027659D01*
X024540Y027622D01*
X025180Y027622D01*
X025180Y010386D01*
X024415Y010386D01*
X024326Y010349D01*
X024259Y010282D01*
X024222Y010193D01*
X024222Y004240D01*
X022994Y004240D01*
X022994Y004810D01*
X022945Y004927D01*
X022855Y005017D01*
X022490Y005383D01*
X022490Y005843D01*
X022507Y005826D01*
X022691Y005750D01*
X023149Y005750D01*
X023333Y005826D01*
X023474Y005967D01*
X023550Y006151D01*
X023550Y006349D01*
X023474Y006533D01*
X023333Y006674D01*
X023149Y006750D01*
X023333Y006826D01*
X023474Y006967D01*
X023550Y007151D01*
X023550Y007349D01*
X023474Y007533D01*
X023333Y007674D01*
X023149Y007750D01*
X023333Y007826D01*
X023474Y007967D01*
X023550Y008151D01*
X023550Y008349D01*
X023474Y008533D01*
X023333Y008674D01*
X023149Y008750D01*
X023333Y008826D01*
X023474Y008967D01*
X023550Y009151D01*
X023550Y009349D01*
X023474Y009533D01*
X023333Y009674D01*
X023149Y009750D01*
X023333Y009826D01*
X023474Y009967D01*
X023550Y010151D01*
X023550Y010349D01*
X023474Y010533D01*
X023333Y010674D01*
X023149Y010750D01*
X023333Y010826D01*
X023474Y010967D01*
X023550Y011151D01*
X023550Y011349D01*
X023474Y011533D01*
X023333Y011674D01*
X023149Y011750D01*
X022691Y011750D01*
X022507Y011674D01*
X022366Y011533D01*
X022290Y011349D01*
X022290Y011151D01*
X022366Y010967D01*
X022507Y010826D01*
X022691Y010750D01*
X023149Y010750D01*
X022691Y010750D01*
X022507Y010674D01*
X022366Y010533D01*
X022290Y010349D01*
X022290Y010168D01*
X021997Y010168D01*
X021752Y009923D01*
X021752Y009577D01*
X021850Y009479D01*
X021850Y009161D01*
X021843Y009168D01*
X021497Y009168D01*
X021490Y009161D01*
X021490Y019839D01*
X021497Y019832D01*
X021843Y019832D01*
X021850Y019839D01*
X021850Y019436D01*
X021899Y019319D01*
X022149Y019069D01*
X022239Y018979D01*
X022356Y018930D01*
X022403Y018930D01*
X022507Y018826D01*
X022691Y018750D01*
X023149Y018750D01*
X023333Y018674D01*
X023360Y018647D01*
X023360Y018853D01*
X023333Y018826D01*
X023149Y018750D01*
X022691Y018750D01*
X022507Y018674D01*
X022366Y018533D01*
X022290Y018349D01*
X022290Y018151D01*
X022366Y017967D01*
X022507Y017826D01*
X022691Y017750D01*
X022507Y017674D01*
X022366Y017533D01*
X022290Y017349D01*
X022290Y017151D01*
X022366Y016967D01*
X022507Y016826D01*
X022691Y016750D01*
X022507Y016674D01*
X022366Y016533D01*
X022290Y016349D01*
X022290Y016151D01*
X022366Y015967D01*
X022507Y015826D01*
X022691Y015750D01*
X022507Y015674D01*
X022366Y015533D01*
X022290Y015349D01*
X022290Y015151D01*
X022366Y014967D01*
X022507Y014826D01*
X022691Y014750D01*
X022507Y014674D01*
X022366Y014533D01*
X022290Y014349D01*
X022290Y014151D01*
X022366Y013967D01*
X022507Y013826D01*
X022691Y013750D01*
X022507Y013674D01*
X022366Y013533D01*
X022290Y013349D01*
X022290Y013151D01*
X022366Y012967D01*
X022507Y012826D01*
X022691Y012750D01*
X022507Y012674D01*
X022366Y012533D01*
X022290Y012349D01*
X022290Y012151D01*
X022366Y011967D01*
X022507Y011826D01*
X022691Y011750D01*
X023149Y011750D01*
X023333Y011826D01*
X023474Y011967D01*
X023550Y012151D01*
X023550Y012349D01*
X023474Y012533D01*
X023333Y012674D01*
X023149Y012750D01*
X022691Y012750D01*
X023149Y012750D01*
X023333Y012826D01*
X023474Y012967D01*
X023550Y013151D01*
X023550Y013349D01*
X023474Y013533D01*
X023333Y013674D01*
X023149Y013750D01*
X022691Y013750D01*
X023149Y013750D01*
X023333Y013826D01*
X023474Y013967D01*
X023550Y014151D01*
X023550Y014349D01*
X023474Y014533D01*
X023333Y014674D01*
X023149Y014750D01*
X022691Y014750D01*
X023149Y014750D01*
X023333Y014826D01*
X023474Y014967D01*
X023550Y015151D01*
X023550Y015349D01*
X023474Y015533D01*
X023333Y015674D01*
X023149Y015750D01*
X022691Y015750D01*
X023149Y015750D01*
X023333Y015826D01*
X023474Y015967D01*
X023550Y016151D01*
X023550Y016349D01*
X023474Y016533D01*
X023333Y016674D01*
X023149Y016750D01*
X022691Y016750D01*
X023149Y016750D01*
X023333Y016826D01*
X023474Y016967D01*
X023550Y017151D01*
X023550Y017349D01*
X023474Y017533D01*
X023333Y017674D01*
X023149Y017750D01*
X022691Y017750D01*
X023149Y017750D01*
X023333Y017826D01*
X023418Y017911D01*
X023507Y017822D01*
X023853Y017822D01*
X024098Y018067D01*
X024098Y018413D01*
X024000Y018511D01*
X024000Y020054D01*
X023951Y020171D01*
X023861Y020261D01*
X023601Y020521D01*
X023484Y020570D01*
X023437Y020570D01*
X023333Y020674D01*
X023149Y020750D01*
X023333Y020826D01*
X023474Y020967D01*
X023550Y021151D01*
X023550Y021349D01*
X023474Y021533D01*
X023360Y021647D01*
X023360Y022233D01*
X023420Y022293D01*
X023420Y022707D01*
X023127Y023000D01*
X022713Y023000D01*
X022490Y022777D01*
X022490Y023218D01*
X022501Y023212D01*
X022567Y023191D01*
X022635Y023180D01*
X022670Y023180D01*
X022705Y023180D01*
X022773Y023191D01*
X022839Y023212D01*
X022901Y023244D01*
X022957Y023284D01*
X023006Y023333D01*
X023046Y023389D01*
X023078Y023451D01*
X023099Y023517D01*
X023110Y023585D01*
X023110Y023750D01*
X023110Y023915D01*
X023099Y023983D01*
X023078Y024049D01*
X023046Y024111D01*
X023006Y024167D01*
X022957Y024216D01*
X022901Y024256D01*
X022839Y024288D01*
X022773Y024309D01*
X022705Y024320D01*
X022670Y024320D01*
X022670Y023750D01*
X023920Y022500D01*
X024360Y022500D01*
X024360Y022682D01*
X024102Y022940D01*
X023920Y022940D01*
X023920Y022500D01*
X023920Y022500D01*
X023920Y022500D01*
X024360Y022500D01*
X024360Y022318D01*
X024102Y022060D01*
X023920Y022060D01*
X023920Y022500D01*
X023920Y022500D01*
X023920Y022500D01*
X023480Y022500D01*
X023480Y022682D01*
X023738Y022940D01*
X023920Y022940D01*
X023920Y022500D01*
X023920Y022060D01*
X023738Y022060D01*
X023480Y022318D01*
X023480Y022500D01*
X023920Y022500D01*
X023920Y022522D02*
X023920Y022522D01*
X023920Y022680D02*
X023920Y022680D01*
X023920Y022839D02*
X023920Y022839D01*
X024204Y022839D02*
X025180Y022839D01*
X025180Y022997D02*
X023130Y022997D01*
X023289Y022839D02*
X023636Y022839D01*
X023480Y022680D02*
X023420Y022680D01*
X023420Y022522D02*
X023480Y022522D01*
X023480Y022363D02*
X023420Y022363D01*
X023360Y022205D02*
X023593Y022205D01*
X023360Y022046D02*
X025180Y022046D01*
X025180Y021888D02*
X023360Y021888D01*
X023360Y021729D02*
X025180Y021729D01*
X025180Y021571D02*
X023437Y021571D01*
X023524Y021412D02*
X025180Y021412D01*
X025180Y021254D02*
X023550Y021254D01*
X023527Y021095D02*
X025180Y021095D01*
X025180Y020937D02*
X023444Y020937D01*
X023217Y020778D02*
X025180Y020778D01*
X025180Y020620D02*
X023388Y020620D01*
X023149Y020750D02*
X022691Y020750D01*
X022507Y020826D01*
X022490Y020843D01*
X022490Y020657D01*
X022507Y020674D01*
X022691Y020750D01*
X023149Y020750D01*
X022623Y020778D02*
X022490Y020778D01*
X022920Y020250D02*
X023420Y020250D01*
X023680Y019990D01*
X023680Y018240D01*
X024098Y018242D02*
X025180Y018242D01*
X025180Y018084D02*
X024098Y018084D01*
X023956Y017925D02*
X025180Y017925D01*
X025180Y017767D02*
X023189Y017767D01*
X023399Y017608D02*
X025180Y017608D01*
X025180Y017450D02*
X023509Y017450D01*
X023550Y017291D02*
X025180Y017291D01*
X025180Y017133D02*
X023543Y017133D01*
X023477Y016974D02*
X025180Y016974D01*
X025180Y016816D02*
X023308Y016816D01*
X023350Y016657D02*
X025180Y016657D01*
X025180Y016499D02*
X023488Y016499D01*
X023550Y016340D02*
X025180Y016340D01*
X025180Y016182D02*
X023550Y016182D01*
X023497Y016023D02*
X025180Y016023D01*
X025180Y015865D02*
X023372Y015865D01*
X023256Y015706D02*
X025180Y015706D01*
X025180Y015548D02*
X023460Y015548D01*
X023534Y015389D02*
X025180Y015389D01*
X025180Y015231D02*
X023550Y015231D01*
X023517Y015072D02*
X025180Y015072D01*
X025180Y014914D02*
X023421Y014914D01*
X023162Y014755D02*
X025180Y014755D01*
X025180Y014597D02*
X023411Y014597D01*
X023513Y014438D02*
X025180Y014438D01*
X025180Y014280D02*
X023550Y014280D01*
X023538Y014121D02*
X025180Y014121D01*
X025180Y013963D02*
X023470Y013963D01*
X023280Y013804D02*
X025180Y013804D01*
X025180Y013646D02*
X023362Y013646D01*
X023493Y013487D02*
X025180Y013487D01*
X025180Y013329D02*
X023550Y013329D01*
X023550Y013170D02*
X025180Y013170D01*
X025180Y013012D02*
X023492Y013012D01*
X023360Y012853D02*
X025180Y012853D01*
X025180Y012695D02*
X023283Y012695D01*
X023471Y012536D02*
X025180Y012536D01*
X025180Y012378D02*
X023538Y012378D01*
X023550Y012219D02*
X025180Y012219D01*
X025180Y012061D02*
X023513Y012061D01*
X023409Y011902D02*
X025180Y011902D01*
X025180Y011744D02*
X023165Y011744D01*
X023422Y011585D02*
X025180Y011585D01*
X025180Y011427D02*
X023518Y011427D01*
X023550Y011268D02*
X025180Y011268D01*
X025180Y011110D02*
X023533Y011110D01*
X023458Y010951D02*
X025180Y010951D01*
X025180Y010793D02*
X023252Y010793D01*
X023373Y010634D02*
X025180Y010634D01*
X025180Y010476D02*
X023498Y010476D01*
X023550Y010317D02*
X024294Y010317D01*
X024222Y010159D02*
X023550Y010159D01*
X023488Y010000D02*
X024222Y010000D01*
X024222Y009842D02*
X023349Y009842D01*
X023311Y009683D02*
X024222Y009683D01*
X024222Y009525D02*
X023477Y009525D01*
X023543Y009366D02*
X024222Y009366D01*
X024222Y009208D02*
X023550Y009208D01*
X023508Y009049D02*
X024222Y009049D01*
X024222Y008891D02*
X023398Y008891D01*
X023193Y008732D02*
X024222Y008732D01*
X024222Y008574D02*
X023434Y008574D01*
X023523Y008415D02*
X024222Y008415D01*
X024222Y008257D02*
X023550Y008257D01*
X023528Y008098D02*
X024222Y008098D01*
X024222Y007940D02*
X023447Y007940D01*
X023224Y007781D02*
X024222Y007781D01*
X024222Y007623D02*
X023385Y007623D01*
X023503Y007464D02*
X024222Y007464D01*
X024222Y007306D02*
X023550Y007306D01*
X023549Y007147D02*
X024222Y007147D01*
X024222Y006989D02*
X023483Y006989D01*
X023337Y006830D02*
X024222Y006830D01*
X024222Y006672D02*
X023336Y006672D01*
X023149Y006750D02*
X022691Y006750D01*
X022507Y006826D01*
X022490Y006843D01*
X022490Y006657D01*
X022507Y006674D01*
X022691Y006750D01*
X023149Y006750D01*
X023482Y006513D02*
X024222Y006513D01*
X024222Y006355D02*
X023548Y006355D01*
X023550Y006196D02*
X024222Y006196D01*
X024222Y006038D02*
X023503Y006038D01*
X023386Y005879D02*
X024222Y005879D01*
X024222Y005721D02*
X022490Y005721D01*
X022490Y005562D02*
X024222Y005562D01*
X024222Y005404D02*
X022490Y005404D01*
X022628Y005245D02*
X024222Y005245D01*
X024222Y005087D02*
X022786Y005087D01*
X022855Y005017D02*
X022855Y005017D01*
X022945Y004928D02*
X024222Y004928D01*
X024222Y004770D02*
X022994Y004770D01*
X022994Y004611D02*
X024222Y004611D01*
X024222Y004453D02*
X022994Y004453D01*
X022994Y004294D02*
X024222Y004294D01*
X022674Y004746D02*
X022674Y002197D01*
X021674Y002197D02*
X021674Y003496D01*
X021420Y003750D01*
X020670Y003750D01*
X019170Y005250D01*
X019170Y011250D01*
X018670Y012250D02*
X018670Y005000D01*
X020170Y003500D01*
X020420Y003500D01*
X020674Y003246D01*
X020674Y002197D01*
X019674Y002197D02*
X019670Y003250D01*
X018170Y004750D01*
X018170Y013250D01*
X017670Y014000D02*
X017420Y014250D01*
X016920Y014250D01*
X017670Y014000D02*
X017670Y004250D01*
X018670Y003250D01*
X018674Y002197D01*
X017674Y002197D02*
X017670Y003500D01*
X017170Y004000D01*
X016420Y004000D01*
X014420Y006000D01*
X014420Y014250D01*
X013920Y015250D02*
X013920Y006000D01*
X016670Y003250D01*
X016674Y002197D01*
X015674Y002197D02*
X015670Y003500D01*
X013420Y005750D01*
X013420Y016250D01*
X012920Y015750D02*
X012920Y005250D01*
X014670Y003500D01*
X014674Y002197D01*
X013674Y002197D02*
X013670Y003500D01*
X012420Y004750D01*
X012420Y014750D01*
X010920Y014250D02*
X010920Y009750D01*
X011420Y009250D01*
X011420Y003750D01*
X011670Y003500D01*
X011670Y002201D01*
X011674Y002197D01*
X012674Y002197D02*
X012670Y003500D01*
X011920Y004250D01*
X011920Y012250D01*
X010100Y012219D02*
X010050Y012219D01*
X010050Y012151D02*
X010050Y012349D01*
X009974Y012533D01*
X009833Y012674D01*
X009649Y012750D01*
X009191Y012750D01*
X009007Y012674D01*
X008866Y012533D01*
X008790Y012349D01*
X008790Y012151D01*
X008866Y011967D01*
X009007Y011826D01*
X009191Y011750D01*
X009649Y011750D01*
X009833Y011826D01*
X009974Y011967D01*
X010050Y012151D01*
X010013Y012061D02*
X010100Y012061D01*
X010100Y011902D02*
X009909Y011902D01*
X009833Y011674D02*
X009649Y011750D01*
X009191Y011750D01*
X009007Y011674D01*
X008903Y011570D01*
X008606Y011570D01*
X008489Y011521D01*
X008399Y011431D01*
X007990Y011023D01*
X007990Y013477D01*
X008399Y013069D01*
X008489Y012979D01*
X008606Y012930D01*
X008903Y012930D01*
X009007Y012826D01*
X009191Y012750D01*
X009649Y012750D01*
X009833Y012826D01*
X009974Y012967D01*
X010050Y013151D01*
X010050Y013349D01*
X009974Y013533D01*
X009833Y013674D01*
X009649Y013750D01*
X009833Y013826D01*
X009974Y013967D01*
X010050Y014151D01*
X010050Y014349D01*
X009974Y014533D01*
X009833Y014674D01*
X009649Y014750D01*
X009191Y014750D01*
X009007Y014674D01*
X008866Y014533D01*
X008790Y014349D01*
X008790Y014151D01*
X008866Y013967D01*
X009007Y013826D01*
X009191Y013750D01*
X009649Y013750D01*
X009191Y013750D01*
X009007Y013674D01*
X008903Y013570D01*
X008803Y013570D01*
X008500Y013873D01*
X008500Y022107D01*
X009451Y023059D01*
X009490Y023153D01*
X009571Y023120D01*
X009769Y023120D01*
X009953Y023196D01*
X010094Y023337D01*
X010170Y023521D01*
X010246Y023337D01*
X010387Y023196D01*
X010571Y023120D01*
X010769Y023120D01*
X010953Y023196D01*
X011094Y023337D01*
X011170Y023521D01*
X011170Y023979D01*
X011094Y024163D01*
X010953Y024304D01*
X010769Y024380D01*
X010571Y024380D01*
X010387Y024304D01*
X010246Y024163D01*
X010170Y023979D01*
X010170Y023521D01*
X010170Y023979D01*
X010094Y024163D01*
X009953Y024304D01*
X009769Y024380D01*
X009571Y024380D01*
X009500Y024351D01*
X009500Y024607D01*
X009941Y025049D01*
X009990Y025166D01*
X009990Y026233D01*
X010094Y026337D01*
X010170Y026521D01*
X010246Y026337D01*
X010387Y026196D01*
X010571Y026120D01*
X010769Y026120D01*
X010953Y026196D01*
X011094Y026337D01*
X011170Y026521D01*
X011170Y026979D01*
X011094Y027163D01*
X010953Y027304D01*
X010769Y027380D01*
X010571Y027380D01*
X010387Y027304D01*
X010246Y027163D01*
X010170Y026979D01*
X010170Y026521D01*
X010170Y026979D01*
X010094Y027163D01*
X009953Y027304D01*
X009769Y027380D01*
X009571Y027380D01*
X009387Y027304D01*
X009246Y027163D01*
X009170Y026979D01*
X009094Y027163D01*
X008953Y027304D01*
X008769Y027380D01*
X008571Y027380D01*
X008387Y027304D01*
X008246Y027163D01*
X008170Y026979D01*
X008094Y027163D01*
X007953Y027304D01*
X007769Y027380D01*
X007571Y027380D01*
X007387Y027304D01*
X007246Y027163D01*
X007170Y026979D01*
X007094Y027163D01*
X006953Y027304D01*
X006769Y027380D01*
X006571Y027380D01*
X006490Y027347D01*
X006490Y031617D01*
X006490Y031617D01*
X006490Y031353D01*
X006595Y031099D01*
X006789Y030905D01*
X007043Y030800D01*
X007317Y030800D01*
X007571Y030905D01*
X007610Y030944D01*
X007610Y030620D01*
X007484Y030568D01*
X007332Y030416D01*
X007250Y030217D01*
X007250Y029703D01*
X007332Y029504D01*
X007484Y029352D01*
X007683Y029270D01*
X007897Y029270D01*
X008096Y029352D01*
X008248Y029504D01*
X008330Y029703D01*
X008330Y030217D01*
X008250Y030411D01*
X008250Y032069D01*
X008330Y032263D01*
X008330Y032777D01*
X008248Y032976D01*
X008096Y033128D01*
X007897Y033210D01*
X007683Y033210D01*
X007484Y033128D01*
X007332Y032976D01*
X007276Y032840D01*
X006876Y032840D01*
X006759Y032791D01*
X006669Y032701D01*
X005989Y032021D01*
X005899Y031931D01*
X005850Y031814D01*
X005850Y027347D01*
X005769Y027380D01*
X005571Y027380D01*
X005387Y027304D01*
X005246Y027163D01*
X005170Y026979D01*
X005170Y026872D01*
X004368Y026070D01*
X004307Y026070D01*
X004127Y026250D01*
X003713Y026250D01*
X003420Y025957D01*
X003420Y025543D01*
X003713Y025250D01*
X004127Y025250D01*
X004230Y025353D01*
X004230Y025062D01*
X004102Y025190D01*
X003920Y025190D01*
X003920Y024750D01*
X003920Y024750D01*
X003920Y024310D01*
X004102Y024310D01*
X004230Y024438D01*
X004230Y022607D01*
X003930Y022307D01*
X003930Y021693D01*
X004230Y021393D01*
X004230Y005857D01*
X003930Y005557D01*
X003930Y004943D01*
X004363Y004510D01*
X004977Y004510D01*
X005410Y004943D01*
X005410Y005557D01*
X005110Y005857D01*
X005110Y021393D01*
X005410Y021693D01*
X005410Y022307D01*
X005110Y022607D01*
X005110Y022857D01*
X005502Y022466D01*
X005502Y022327D01*
X005747Y022082D01*
X005850Y022082D01*
X005850Y005383D01*
X004707Y004240D01*
X002118Y004240D01*
X002118Y004294D02*
X004761Y004294D01*
X004920Y004453D02*
X002118Y004453D01*
X002118Y004611D02*
X004262Y004611D01*
X004104Y004770D02*
X002118Y004770D01*
X002118Y004928D02*
X003945Y004928D01*
X003930Y005087D02*
X002118Y005087D01*
X002118Y005245D02*
X003930Y005245D01*
X003930Y005404D02*
X002118Y005404D01*
X002118Y005562D02*
X003935Y005562D01*
X004094Y005721D02*
X002118Y005721D01*
X002118Y005879D02*
X003052Y005879D01*
X003059Y005874D02*
X003121Y005842D01*
X003187Y005821D01*
X003255Y005810D01*
X003420Y005810D01*
X003585Y005810D01*
X003653Y005821D01*
X003719Y005842D01*
X003781Y005874D01*
X003837Y005914D01*
X003886Y005963D01*
X003926Y006019D01*
X003958Y006081D01*
X003979Y006147D01*
X003990Y006215D01*
X003990Y006250D01*
X003990Y006285D01*
X003979Y006353D01*
X003958Y006419D01*
X003926Y006481D01*
X003886Y006537D01*
X003837Y006586D01*
X003781Y006626D01*
X003719Y006658D01*
X003653Y006679D01*
X003585Y006690D01*
X003420Y006690D01*
X003420Y006250D01*
X003420Y006250D01*
X003990Y006250D01*
X003420Y006250D01*
X003420Y006250D01*
X003420Y005810D01*
X003420Y006250D01*
X003420Y006250D01*
X003420Y006250D01*
X002850Y006250D01*
X002850Y006285D01*
X002861Y006353D01*
X002882Y006419D01*
X002914Y006481D01*
X002954Y006537D01*
X003003Y006586D01*
X003059Y006626D01*
X003121Y006658D01*
X003187Y006679D01*
X003255Y006690D01*
X003420Y006690D01*
X003420Y006250D01*
X002850Y006250D01*
X002850Y006215D01*
X002861Y006147D01*
X002882Y006081D01*
X002914Y006019D01*
X002954Y005963D01*
X003003Y005914D01*
X003059Y005874D01*
X002904Y006038D02*
X002118Y006038D01*
X002118Y006196D02*
X002853Y006196D01*
X002861Y006355D02*
X002118Y006355D01*
X002118Y006513D02*
X002937Y006513D01*
X003163Y006672D02*
X002118Y006672D01*
X002118Y006830D02*
X003003Y006830D01*
X003007Y006826D02*
X003191Y006750D01*
X003649Y006750D01*
X003833Y006826D01*
X003974Y006967D01*
X004050Y007151D01*
X004050Y007349D01*
X003974Y007533D01*
X003833Y007674D01*
X003649Y007750D01*
X003191Y007750D01*
X003007Y007674D01*
X002866Y007533D01*
X002790Y007349D01*
X002790Y007151D01*
X002866Y006967D01*
X003007Y006826D01*
X002857Y006989D02*
X002118Y006989D01*
X002118Y007147D02*
X002791Y007147D01*
X002790Y007306D02*
X002118Y007306D01*
X002118Y007464D02*
X002837Y007464D01*
X002955Y007623D02*
X002118Y007623D01*
X002118Y007781D02*
X003116Y007781D01*
X003191Y007750D02*
X003649Y007750D01*
X003833Y007826D01*
X003974Y007967D01*
X004050Y008151D01*
X004050Y008349D01*
X003974Y008533D01*
X003833Y008674D01*
X003649Y008750D01*
X003191Y008750D01*
X003007Y008674D01*
X002866Y008533D01*
X002790Y008349D01*
X002790Y008151D01*
X002866Y007967D01*
X003007Y007826D01*
X003191Y007750D01*
X002893Y007940D02*
X002118Y007940D01*
X002118Y008098D02*
X002812Y008098D01*
X002790Y008257D02*
X002118Y008257D01*
X002118Y008415D02*
X002817Y008415D01*
X002906Y008574D02*
X002118Y008574D01*
X002118Y008732D02*
X003147Y008732D01*
X003191Y008750D02*
X003649Y008750D01*
X003833Y008826D01*
X003974Y008967D01*
X004050Y009151D01*
X004050Y009349D01*
X003974Y009533D01*
X003833Y009674D01*
X003649Y009750D01*
X003191Y009750D01*
X003007Y009674D01*
X002866Y009533D01*
X002790Y009349D01*
X002790Y009151D01*
X002866Y008967D01*
X003007Y008826D01*
X003191Y008750D01*
X002942Y008891D02*
X002118Y008891D01*
X002118Y009049D02*
X002832Y009049D01*
X002790Y009208D02*
X002118Y009208D01*
X002118Y009366D02*
X002797Y009366D01*
X002863Y009525D02*
X002118Y009525D01*
X002118Y009683D02*
X003029Y009683D01*
X003007Y009826D02*
X003191Y009750D01*
X003649Y009750D01*
X003833Y009826D01*
X003974Y009967D01*
X004050Y010151D01*
X004050Y010349D01*
X003974Y010533D01*
X003833Y010674D01*
X003649Y010750D01*
X003191Y010750D01*
X003007Y010674D01*
X002866Y010533D01*
X002790Y010349D01*
X002790Y010151D01*
X002866Y009967D01*
X003007Y009826D01*
X002991Y009842D02*
X002118Y009842D01*
X002118Y010000D02*
X002852Y010000D01*
X002790Y010159D02*
X002118Y010159D01*
X002046Y010317D02*
X002790Y010317D01*
X002842Y010476D02*
X001160Y010476D01*
X001160Y010634D02*
X002967Y010634D01*
X003007Y010826D02*
X002866Y010967D01*
X002790Y011151D01*
X002790Y011349D01*
X002866Y011533D01*
X003007Y011674D01*
X003191Y011750D01*
X003649Y011750D01*
X003833Y011674D01*
X003974Y011533D01*
X004050Y011349D01*
X004050Y011151D01*
X003974Y010967D01*
X003833Y010826D01*
X003649Y010750D01*
X003191Y010750D01*
X003007Y010826D01*
X003088Y010793D02*
X001160Y010793D01*
X001160Y010951D02*
X002882Y010951D01*
X002807Y011110D02*
X001160Y011110D01*
X001160Y011268D02*
X002790Y011268D01*
X002822Y011427D02*
X001160Y011427D01*
X001160Y011585D02*
X002918Y011585D01*
X003007Y011826D02*
X002866Y011967D01*
X002790Y012151D01*
X002790Y012349D01*
X002866Y012533D01*
X003007Y012674D01*
X003191Y012750D01*
X003649Y012750D01*
X003833Y012674D01*
X003974Y012533D01*
X004050Y012349D01*
X004050Y012151D01*
X003974Y011967D01*
X003833Y011826D01*
X003649Y011750D01*
X003191Y011750D01*
X003007Y011826D01*
X002931Y011902D02*
X001160Y011902D01*
X001160Y011744D02*
X003175Y011744D01*
X002827Y012061D02*
X001160Y012061D01*
X001160Y012219D02*
X002790Y012219D01*
X002802Y012378D02*
X001160Y012378D01*
X001160Y012536D02*
X002869Y012536D01*
X003057Y012695D02*
X001160Y012695D01*
X001160Y012853D02*
X002980Y012853D01*
X003007Y012826D02*
X002866Y012967D01*
X002790Y013151D01*
X002790Y013349D01*
X002866Y013533D01*
X003007Y013674D01*
X003191Y013750D01*
X003649Y013750D01*
X003833Y013674D01*
X003974Y013533D01*
X004050Y013349D01*
X004050Y013151D01*
X003974Y012967D01*
X003833Y012826D01*
X003649Y012750D01*
X003191Y012750D01*
X003007Y012826D01*
X002848Y013012D02*
X001160Y013012D01*
X001160Y013170D02*
X002790Y013170D01*
X002790Y013329D02*
X001160Y013329D01*
X001160Y013487D02*
X002847Y013487D01*
X002978Y013646D02*
X001160Y013646D01*
X001160Y013804D02*
X003060Y013804D01*
X003007Y013826D02*
X003191Y013750D01*
X003649Y013750D01*
X003833Y013826D01*
X003974Y013967D01*
X004050Y014151D01*
X004050Y014349D01*
X003974Y014533D01*
X003833Y014674D01*
X003649Y014750D01*
X003191Y014750D01*
X003007Y014674D01*
X002866Y014533D01*
X002790Y014349D01*
X002790Y014151D01*
X002866Y013967D01*
X003007Y013826D01*
X002870Y013963D02*
X001160Y013963D01*
X001160Y014121D02*
X002802Y014121D01*
X002790Y014280D02*
X001160Y014280D01*
X001160Y014438D02*
X002827Y014438D01*
X002929Y014597D02*
X001160Y014597D01*
X001160Y014755D02*
X003178Y014755D01*
X003191Y014750D02*
X003649Y014750D01*
X003833Y014826D01*
X003974Y014967D01*
X004050Y015151D01*
X004050Y015349D01*
X003974Y015533D01*
X003833Y015674D01*
X003649Y015750D01*
X003191Y015750D01*
X003007Y015674D01*
X002866Y015533D01*
X002790Y015349D01*
X002790Y015151D01*
X002866Y014967D01*
X003007Y014826D01*
X003191Y014750D01*
X002919Y014914D02*
X001160Y014914D01*
X001160Y015072D02*
X002823Y015072D01*
X002790Y015231D02*
X001160Y015231D01*
X001160Y015389D02*
X002806Y015389D01*
X002880Y015548D02*
X001160Y015548D01*
X001160Y015706D02*
X003084Y015706D01*
X003191Y015750D02*
X003649Y015750D01*
X003833Y015826D01*
X003974Y015967D01*
X004050Y016151D01*
X004050Y016349D01*
X003974Y016533D01*
X003833Y016674D01*
X003649Y016750D01*
X003191Y016750D01*
X003007Y016674D01*
X002866Y016533D01*
X002790Y016349D01*
X002790Y016151D01*
X002866Y015967D01*
X003007Y015826D01*
X003191Y015750D01*
X002968Y015865D02*
X001160Y015865D01*
X001160Y016023D02*
X002843Y016023D01*
X002790Y016182D02*
X001160Y016182D01*
X001160Y016340D02*
X002790Y016340D01*
X002852Y016499D02*
X001160Y016499D01*
X001160Y016657D02*
X002990Y016657D01*
X003032Y016816D02*
X001160Y016816D01*
X001160Y016974D02*
X002863Y016974D01*
X002866Y016967D02*
X003007Y016826D01*
X003191Y016750D01*
X003649Y016750D01*
X003833Y016826D01*
X003974Y016967D01*
X004050Y017151D01*
X004050Y017349D01*
X003974Y017533D01*
X003833Y017674D01*
X003649Y017750D01*
X003191Y017750D01*
X003007Y017674D01*
X002866Y017533D01*
X002790Y017349D01*
X002790Y017151D01*
X002866Y016967D01*
X002797Y017133D02*
X001160Y017133D01*
X001160Y017291D02*
X002790Y017291D01*
X002831Y017450D02*
X001160Y017450D01*
X001160Y017608D02*
X002941Y017608D01*
X003007Y017826D02*
X002866Y017967D01*
X002790Y018151D01*
X002790Y018349D01*
X002866Y018533D01*
X003007Y018674D01*
X003191Y018750D01*
X003649Y018750D01*
X003833Y018674D01*
X003974Y018533D01*
X004050Y018349D01*
X004050Y018151D01*
X003974Y017967D01*
X003833Y017826D01*
X003649Y017750D01*
X003191Y017750D01*
X003007Y017826D01*
X002908Y017925D02*
X001160Y017925D01*
X001160Y017767D02*
X003151Y017767D01*
X002818Y018084D02*
X001160Y018084D01*
X001160Y018242D02*
X002790Y018242D01*
X002811Y018401D02*
X001160Y018401D01*
X001160Y018559D02*
X002892Y018559D01*
X003112Y018718D02*
X001160Y018718D01*
X001160Y018876D02*
X002957Y018876D01*
X003007Y018826D02*
X002866Y018967D01*
X002790Y019151D01*
X002790Y019349D01*
X002866Y019533D01*
X003007Y019674D01*
X003191Y019750D01*
X003649Y019750D01*
X003833Y019674D01*
X003974Y019533D01*
X004050Y019349D01*
X004050Y019151D01*
X003974Y018967D01*
X003833Y018826D01*
X003649Y018750D01*
X003191Y018750D01*
X003007Y018826D01*
X002838Y019035D02*
X001160Y019035D01*
X001160Y019193D02*
X002790Y019193D01*
X002791Y019352D02*
X001160Y019352D01*
X001160Y019510D02*
X002857Y019510D01*
X003001Y019669D02*
X001160Y019669D01*
X001160Y019827D02*
X003006Y019827D01*
X003007Y019826D02*
X003191Y019750D01*
X003649Y019750D01*
X003833Y019826D01*
X003974Y019967D01*
X004050Y020151D01*
X004050Y020349D01*
X003974Y020533D01*
X003833Y020674D01*
X003649Y020750D01*
X003191Y020750D01*
X003007Y020674D01*
X002866Y020533D01*
X002790Y020349D01*
X002790Y020151D01*
X002866Y019967D01*
X003007Y019826D01*
X002858Y019986D02*
X001160Y019986D01*
X001160Y020144D02*
X002793Y020144D01*
X002790Y020303D02*
X001160Y020303D01*
X001160Y020461D02*
X002836Y020461D01*
X002952Y020620D02*
X001160Y020620D01*
X001160Y020778D02*
X003123Y020778D01*
X003191Y020750D02*
X003649Y020750D01*
X003833Y020826D01*
X003974Y020967D01*
X004050Y021151D01*
X004050Y021349D01*
X003974Y021533D01*
X003833Y021674D01*
X003649Y021750D01*
X003191Y021750D01*
X003007Y021674D01*
X002866Y021533D01*
X002790Y021349D01*
X002790Y021151D01*
X002866Y020967D01*
X003007Y020826D01*
X003191Y020750D01*
X002896Y020937D02*
X001160Y020937D01*
X001160Y021095D02*
X002813Y021095D01*
X002790Y021254D02*
X001160Y021254D01*
X001160Y021412D02*
X002816Y021412D01*
X002903Y021571D02*
X001160Y021571D01*
X001160Y021729D02*
X003140Y021729D01*
X003700Y021729D02*
X003930Y021729D01*
X003930Y021888D02*
X001160Y021888D01*
X001160Y022046D02*
X003930Y022046D01*
X003930Y022205D02*
X001160Y022205D01*
X001160Y022363D02*
X003987Y022363D01*
X004145Y022522D02*
X001160Y022522D01*
X001160Y022680D02*
X004230Y022680D01*
X004230Y022839D02*
X001160Y022839D01*
X001160Y022997D02*
X004230Y022997D01*
X004230Y023156D02*
X001160Y023156D01*
X001160Y023314D02*
X004230Y023314D01*
X004230Y023473D02*
X001160Y023473D01*
X001160Y023631D02*
X004230Y023631D01*
X004230Y023790D02*
X001160Y023790D01*
X001160Y023948D02*
X004230Y023948D01*
X004230Y024107D02*
X001160Y024107D01*
X001160Y024265D02*
X004230Y024265D01*
X004216Y024424D02*
X004230Y024424D01*
X003920Y024424D02*
X003920Y024424D01*
X003920Y024310D02*
X003920Y024750D01*
X003920Y024750D01*
X003920Y024750D01*
X003480Y024750D01*
X003480Y024932D01*
X003738Y025190D01*
X003920Y025190D01*
X003920Y024750D01*
X003480Y024750D01*
X003480Y024568D01*
X003738Y024310D01*
X003920Y024310D01*
X003920Y024582D02*
X003920Y024582D01*
X003920Y024741D02*
X003920Y024741D01*
X003920Y024899D02*
X003920Y024899D01*
X003920Y025058D02*
X003920Y025058D01*
X003605Y025058D02*
X001160Y025058D01*
X001160Y025216D02*
X004230Y025216D01*
X003920Y025750D02*
X004670Y025750D01*
X004465Y026167D02*
X004210Y026167D01*
X004623Y026326D02*
X001160Y026326D01*
X001160Y026484D02*
X004782Y026484D01*
X004940Y026643D02*
X001160Y026643D01*
X001160Y026801D02*
X005099Y026801D01*
X005170Y026960D02*
X001160Y026960D01*
X001160Y027118D02*
X005227Y027118D01*
X005359Y027277D02*
X001160Y027277D01*
X001160Y027435D02*
X005850Y027435D01*
X005850Y027594D02*
X001160Y027594D01*
X001967Y027752D02*
X005850Y027752D01*
X005850Y027911D02*
X001993Y027911D01*
X001993Y028069D02*
X005850Y028069D01*
X005850Y028228D02*
X001993Y028228D01*
X001993Y028386D02*
X005850Y028386D01*
X005850Y028545D02*
X001993Y028545D01*
X001993Y028703D02*
X005850Y028703D01*
X005850Y028862D02*
X001993Y028862D01*
X001993Y029020D02*
X005850Y029020D01*
X005850Y029179D02*
X001993Y029179D01*
X001993Y029337D02*
X005850Y029337D01*
X005850Y029496D02*
X001993Y029496D01*
X001993Y029654D02*
X005850Y029654D01*
X005850Y029813D02*
X001993Y029813D01*
X001993Y029971D02*
X005850Y029971D01*
X005850Y030130D02*
X001993Y030130D01*
X001993Y030288D02*
X005850Y030288D01*
X005850Y030447D02*
X001993Y030447D01*
X001993Y030605D02*
X005850Y030605D01*
X005850Y030764D02*
X001993Y030764D01*
X001993Y030922D02*
X005850Y030922D01*
X005850Y031081D02*
X001993Y031081D01*
X001993Y031239D02*
X005850Y031239D01*
X005850Y031398D02*
X001993Y031398D01*
X001993Y031556D02*
X005850Y031556D01*
X005850Y031715D02*
X001993Y031715D01*
X001993Y031873D02*
X005875Y031873D01*
X005999Y032032D02*
X001993Y032032D01*
X001993Y032190D02*
X006158Y032190D01*
X006316Y032349D02*
X001993Y032349D01*
X001993Y032507D02*
X006475Y032507D01*
X006633Y032666D02*
X001993Y032666D01*
X001993Y032824D02*
X006838Y032824D01*
X006669Y032701D02*
X006669Y032701D01*
X006940Y032520D02*
X007790Y032520D01*
X007930Y032380D01*
X007930Y029990D01*
X007900Y029960D01*
X007790Y029960D01*
X007341Y029496D02*
X006490Y029496D01*
X006490Y029654D02*
X007270Y029654D01*
X007250Y029813D02*
X006490Y029813D01*
X006490Y029971D02*
X007250Y029971D01*
X007250Y030130D02*
X006490Y030130D01*
X006490Y030288D02*
X007279Y030288D01*
X007363Y030447D02*
X006490Y030447D01*
X006490Y030605D02*
X007574Y030605D01*
X007610Y030764D02*
X006490Y030764D01*
X006490Y030922D02*
X006772Y030922D01*
X006614Y031081D02*
X006490Y031081D01*
X006490Y031239D02*
X006537Y031239D01*
X006490Y031398D02*
X006490Y031398D01*
X006490Y031556D02*
X006490Y031556D01*
X006170Y031750D02*
X006170Y025750D01*
X005170Y024750D01*
X005170Y023250D01*
X005920Y022500D01*
X006170Y022250D01*
X006170Y005250D01*
X004670Y003750D01*
X004674Y002197D01*
X006674Y002197D02*
X006670Y022000D01*
X006670Y022750D01*
X006170Y023250D01*
X006170Y024500D01*
X006670Y023750D02*
X006670Y026750D01*
X007094Y026337D02*
X006990Y026233D01*
X006990Y026023D01*
X007275Y026308D01*
X007246Y026337D01*
X007170Y026521D01*
X007170Y026979D01*
X007170Y026521D01*
X007094Y026337D01*
X007083Y026326D02*
X007257Y026326D01*
X007185Y026484D02*
X007155Y026484D01*
X007170Y026643D02*
X007170Y026643D01*
X007170Y026801D02*
X007170Y026801D01*
X007170Y026960D02*
X007170Y026960D01*
X007113Y027118D02*
X007227Y027118D01*
X007359Y027277D02*
X006981Y027277D01*
X006490Y027435D02*
X014902Y027435D01*
X014899Y027431D02*
X014862Y027342D01*
X014769Y027380D01*
X014571Y027380D01*
X014387Y027304D01*
X014246Y027163D01*
X014170Y026979D01*
X014094Y027163D01*
X013953Y027304D01*
X013769Y027380D01*
X013571Y027380D01*
X013387Y027304D01*
X013246Y027163D01*
X013170Y026979D01*
X013170Y026872D01*
X012421Y026123D01*
X012297Y025999D01*
X012230Y025838D01*
X012230Y022912D01*
X012252Y022860D01*
X012252Y022827D01*
X012275Y022804D01*
X012297Y022751D01*
X012421Y022627D01*
X012474Y022605D01*
X012497Y022582D01*
X012530Y022582D01*
X012558Y022570D01*
X011047Y021060D01*
X010701Y021060D01*
X010603Y021158D01*
X010257Y021158D01*
X010012Y020913D01*
X010012Y020567D01*
X010257Y020322D01*
X010603Y020322D01*
X010701Y020420D01*
X011244Y020420D01*
X011361Y020469D01*
X011451Y020559D01*
X012986Y022093D01*
X013007Y022072D01*
X013289Y022072D01*
X010739Y019521D01*
X010649Y019431D01*
X010600Y019314D01*
X010600Y018161D01*
X010593Y018168D01*
X010247Y018168D01*
X010002Y017923D01*
X010002Y017577D01*
X010100Y017479D01*
X010100Y004240D01*
X006994Y004240D01*
X006993Y004585D01*
X006997Y004582D01*
X007343Y004582D01*
X007420Y004659D01*
X007497Y004582D01*
X007843Y004582D01*
X007920Y004659D01*
X007997Y004582D01*
X008343Y004582D01*
X008420Y004659D01*
X008497Y004582D01*
X008843Y004582D01*
X009088Y004827D01*
X009088Y005173D01*
X008990Y005271D01*
X008990Y005843D01*
X009007Y005826D01*
X009191Y005750D01*
X009649Y005750D01*
X009833Y005826D01*
X009974Y005967D01*
X010050Y006151D01*
X010050Y006349D01*
X009974Y006533D01*
X009833Y006674D01*
X009649Y006750D01*
X009833Y006826D01*
X009974Y006967D01*
X010050Y007151D01*
X010050Y007349D01*
X009974Y007533D01*
X009833Y007674D01*
X009649Y007750D01*
X009833Y007826D01*
X009974Y007967D01*
X010050Y008151D01*
X010050Y008349D01*
X009974Y008533D01*
X009833Y008674D01*
X009649Y008750D01*
X009833Y008826D01*
X009974Y008967D01*
X010050Y009151D01*
X010050Y009349D01*
X009974Y009533D01*
X009833Y009674D01*
X009649Y009750D01*
X009833Y009826D01*
X009974Y009967D01*
X010050Y010151D01*
X010050Y010349D01*
X009974Y010533D01*
X009833Y010674D01*
X009649Y010750D01*
X009833Y010826D01*
X009974Y010967D01*
X010050Y011151D01*
X010050Y011349D01*
X009974Y011533D01*
X009833Y011674D01*
X009922Y011585D02*
X010100Y011585D01*
X010100Y011427D02*
X010018Y011427D01*
X010050Y011268D02*
X010100Y011268D01*
X010100Y011110D02*
X010033Y011110D01*
X010100Y010951D02*
X009958Y010951D01*
X010100Y010793D02*
X009752Y010793D01*
X009649Y010750D02*
X009191Y010750D01*
X009007Y010826D01*
X008903Y010930D01*
X008803Y010930D01*
X008490Y010617D01*
X008490Y010273D01*
X008649Y010431D01*
X008739Y010521D01*
X008856Y010570D01*
X008903Y010570D01*
X009007Y010674D01*
X009191Y010750D01*
X009649Y010750D01*
X009873Y010634D02*
X010100Y010634D01*
X010100Y010476D02*
X009998Y010476D01*
X010050Y010317D02*
X010100Y010317D01*
X010100Y010159D02*
X010050Y010159D01*
X010100Y010000D02*
X009988Y010000D01*
X010100Y009842D02*
X009849Y009842D01*
X009811Y009683D02*
X010100Y009683D01*
X010100Y009525D02*
X009977Y009525D01*
X010043Y009366D02*
X010100Y009366D01*
X010100Y009208D02*
X010050Y009208D01*
X010008Y009049D02*
X010100Y009049D01*
X010100Y008891D02*
X009898Y008891D01*
X010100Y008732D02*
X009693Y008732D01*
X009649Y008750D02*
X009191Y008750D01*
X009007Y008826D01*
X008990Y008843D01*
X008990Y008657D01*
X009007Y008674D01*
X009191Y008750D01*
X009649Y008750D01*
X009934Y008574D02*
X010100Y008574D01*
X010100Y008415D02*
X010023Y008415D01*
X010050Y008257D02*
X010100Y008257D01*
X010100Y008098D02*
X010028Y008098D01*
X010100Y007940D02*
X009947Y007940D01*
X010100Y007781D02*
X009724Y007781D01*
X009649Y007750D02*
X009191Y007750D01*
X009007Y007826D01*
X008990Y007843D01*
X008990Y007657D01*
X009007Y007674D01*
X009191Y007750D01*
X009649Y007750D01*
X009885Y007623D02*
X010100Y007623D01*
X010100Y007464D02*
X010003Y007464D01*
X010050Y007306D02*
X010100Y007306D01*
X010100Y007147D02*
X010049Y007147D01*
X010100Y006989D02*
X009983Y006989D01*
X010100Y006830D02*
X009837Y006830D01*
X009836Y006672D02*
X010100Y006672D01*
X010100Y006513D02*
X009982Y006513D01*
X010048Y006355D02*
X010100Y006355D01*
X010100Y006196D02*
X010050Y006196D01*
X010003Y006038D02*
X010100Y006038D01*
X010100Y005879D02*
X009886Y005879D01*
X010100Y005721D02*
X008990Y005721D01*
X008990Y005562D02*
X010100Y005562D01*
X010100Y005404D02*
X008990Y005404D01*
X009016Y005245D02*
X010100Y005245D01*
X010100Y005087D02*
X009088Y005087D01*
X009088Y004928D02*
X010100Y004928D01*
X010100Y004770D02*
X009031Y004770D01*
X008872Y004611D02*
X010100Y004611D01*
X010100Y004453D02*
X006993Y004453D01*
X006994Y004294D02*
X010100Y004294D01*
X010420Y003750D02*
X010670Y003500D01*
X010674Y002197D01*
X010420Y003750D02*
X010420Y017750D01*
X010162Y018084D02*
X010022Y018084D01*
X010050Y018151D02*
X009974Y017967D01*
X009833Y017826D01*
X009649Y017750D01*
X009833Y017674D01*
X009974Y017533D01*
X010050Y017349D01*
X010050Y017151D01*
X009974Y016967D01*
X009833Y016826D01*
X009649Y016750D01*
X009833Y016674D01*
X009974Y016533D01*
X010050Y016349D01*
X010050Y016151D01*
X009974Y015967D01*
X009833Y015826D01*
X009649Y015750D01*
X009833Y015674D01*
X009974Y015533D01*
X010050Y015349D01*
X010050Y015151D01*
X009974Y014967D01*
X009833Y014826D01*
X009649Y014750D01*
X009191Y014750D01*
X009007Y014826D01*
X008866Y014967D01*
X008790Y015151D01*
X008790Y015349D01*
X008866Y015533D01*
X009007Y015674D01*
X009191Y015750D01*
X009649Y015750D01*
X009191Y015750D01*
X009007Y015826D01*
X008866Y015967D01*
X008790Y016151D01*
X008790Y016349D01*
X008866Y016533D01*
X009007Y016674D01*
X009191Y016750D01*
X009649Y016750D01*
X009191Y016750D01*
X009007Y016826D01*
X008866Y016967D01*
X008790Y017151D01*
X008790Y017349D01*
X008866Y017533D01*
X009007Y017674D01*
X009191Y017750D01*
X009649Y017750D01*
X009191Y017750D01*
X009007Y017826D01*
X008866Y017967D01*
X008790Y018151D01*
X008790Y018349D01*
X008866Y018533D01*
X009007Y018674D01*
X009191Y018750D01*
X009649Y018750D01*
X009833Y018674D01*
X009974Y018533D01*
X010050Y018349D01*
X010050Y018151D01*
X010050Y018242D02*
X010600Y018242D01*
X010600Y018401D02*
X010029Y018401D01*
X009948Y018559D02*
X010600Y018559D01*
X010600Y018718D02*
X009728Y018718D01*
X009649Y018750D02*
X009833Y018826D01*
X009974Y018967D01*
X010050Y019151D01*
X010050Y019349D01*
X009974Y019533D01*
X009833Y019674D01*
X009649Y019750D01*
X009191Y019750D01*
X009007Y019674D01*
X008866Y019533D01*
X008790Y019349D01*
X008790Y019151D01*
X008866Y018967D01*
X009007Y018826D01*
X009191Y018750D01*
X009649Y018750D01*
X009883Y018876D02*
X010600Y018876D01*
X010600Y019035D02*
X010002Y019035D01*
X010050Y019193D02*
X010600Y019193D01*
X010616Y019352D02*
X010049Y019352D01*
X009983Y019510D02*
X010727Y019510D01*
X010886Y019669D02*
X009839Y019669D01*
X009833Y019826D02*
X009974Y019967D01*
X010050Y020151D01*
X010050Y020349D01*
X009974Y020533D01*
X009833Y020674D01*
X009649Y020750D01*
X009191Y020750D01*
X009007Y020674D01*
X008866Y020533D01*
X008790Y020349D01*
X008790Y020151D01*
X008866Y019967D01*
X009007Y019826D01*
X009191Y019750D01*
X009649Y019750D01*
X009833Y019826D01*
X009834Y019827D02*
X011044Y019827D01*
X011203Y019986D02*
X009982Y019986D01*
X010047Y020144D02*
X011361Y020144D01*
X011520Y020303D02*
X010050Y020303D01*
X010004Y020461D02*
X010118Y020461D01*
X010012Y020620D02*
X009888Y020620D01*
X010012Y020778D02*
X009717Y020778D01*
X009649Y020750D02*
X009833Y020826D01*
X009974Y020967D01*
X010050Y021151D01*
X010050Y021349D01*
X009974Y021533D01*
X009833Y021674D01*
X009649Y021750D01*
X009191Y021750D01*
X009007Y021674D01*
X008866Y021533D01*
X008790Y021349D01*
X008790Y021151D01*
X008866Y020967D01*
X009007Y020826D01*
X009191Y020750D01*
X009649Y020750D01*
X009944Y020937D02*
X010035Y020937D01*
X010027Y021095D02*
X010194Y021095D01*
X010050Y021254D02*
X011241Y021254D01*
X011399Y021412D02*
X010024Y021412D01*
X009937Y021571D02*
X011558Y021571D01*
X011716Y021729D02*
X009700Y021729D01*
X009140Y021729D02*
X008500Y021729D01*
X008500Y021571D02*
X008903Y021571D01*
X008816Y021412D02*
X008500Y021412D01*
X008500Y021254D02*
X008790Y021254D01*
X008813Y021095D02*
X008500Y021095D01*
X008500Y020937D02*
X008896Y020937D01*
X009123Y020778D02*
X008500Y020778D01*
X008500Y020620D02*
X008952Y020620D01*
X008836Y020461D02*
X008500Y020461D01*
X008500Y020303D02*
X008790Y020303D01*
X008793Y020144D02*
X008500Y020144D01*
X008500Y019986D02*
X008858Y019986D01*
X009006Y019827D02*
X008500Y019827D01*
X008500Y019669D02*
X009001Y019669D01*
X008857Y019510D02*
X008500Y019510D01*
X008500Y019352D02*
X008791Y019352D01*
X008790Y019193D02*
X008500Y019193D01*
X008500Y019035D02*
X008838Y019035D01*
X008957Y018876D02*
X008500Y018876D01*
X008500Y018718D02*
X009112Y018718D01*
X008892Y018559D02*
X008500Y018559D01*
X008500Y018401D02*
X008811Y018401D01*
X008790Y018242D02*
X008500Y018242D01*
X008500Y018084D02*
X008818Y018084D01*
X008908Y017925D02*
X008500Y017925D01*
X008500Y017767D02*
X009151Y017767D01*
X008941Y017608D02*
X008500Y017608D01*
X008500Y017450D02*
X008831Y017450D01*
X008790Y017291D02*
X008500Y017291D01*
X008500Y017133D02*
X008797Y017133D01*
X008863Y016974D02*
X008500Y016974D01*
X008500Y016816D02*
X009032Y016816D01*
X008990Y016657D02*
X008500Y016657D01*
X008500Y016499D02*
X008852Y016499D01*
X008790Y016340D02*
X008500Y016340D01*
X008500Y016182D02*
X008790Y016182D01*
X008843Y016023D02*
X008500Y016023D01*
X008500Y015865D02*
X008968Y015865D01*
X009084Y015706D02*
X008500Y015706D01*
X008500Y015548D02*
X008880Y015548D01*
X008806Y015389D02*
X008500Y015389D01*
X008500Y015231D02*
X008790Y015231D01*
X008823Y015072D02*
X008500Y015072D01*
X008500Y014914D02*
X008919Y014914D01*
X009178Y014755D02*
X008500Y014755D01*
X008500Y014597D02*
X008929Y014597D01*
X008827Y014438D02*
X008500Y014438D01*
X008500Y014280D02*
X008790Y014280D01*
X008802Y014121D02*
X008500Y014121D01*
X008500Y013963D02*
X008870Y013963D01*
X009060Y013804D02*
X008569Y013804D01*
X008727Y013646D02*
X008978Y013646D01*
X008670Y013250D02*
X009420Y013250D01*
X008980Y012853D02*
X007990Y012853D01*
X007990Y012695D02*
X009057Y012695D01*
X008869Y012536D02*
X007990Y012536D01*
X007990Y012378D02*
X008802Y012378D01*
X008790Y012219D02*
X007990Y012219D01*
X007990Y012061D02*
X008827Y012061D01*
X008931Y011902D02*
X007990Y011902D01*
X007990Y011744D02*
X009175Y011744D01*
X008918Y011585D02*
X007990Y011585D01*
X007990Y011427D02*
X008394Y011427D01*
X008399Y011431D02*
X008399Y011431D01*
X008235Y011268D02*
X007990Y011268D01*
X007990Y011110D02*
X008077Y011110D01*
X008170Y010750D02*
X008670Y011250D01*
X009420Y011250D01*
X009665Y011744D02*
X010100Y011744D01*
X010100Y012378D02*
X010038Y012378D01*
X010100Y012536D02*
X009971Y012536D01*
X010100Y012695D02*
X009783Y012695D01*
X009860Y012853D02*
X010100Y012853D01*
X010100Y013012D02*
X009992Y013012D01*
X010050Y013170D02*
X010100Y013170D01*
X010100Y013329D02*
X010050Y013329D01*
X010100Y013487D02*
X009993Y013487D01*
X010100Y013646D02*
X009862Y013646D01*
X009780Y013804D02*
X010100Y013804D01*
X010100Y013963D02*
X009970Y013963D01*
X010038Y014121D02*
X010100Y014121D01*
X010100Y014280D02*
X010050Y014280D01*
X010013Y014438D02*
X010100Y014438D01*
X010100Y014597D02*
X009911Y014597D01*
X010100Y014755D02*
X009662Y014755D01*
X009921Y014914D02*
X010100Y014914D01*
X010100Y015072D02*
X010017Y015072D01*
X010050Y015231D02*
X010100Y015231D01*
X010100Y015389D02*
X010034Y015389D01*
X010100Y015548D02*
X009960Y015548D01*
X010100Y015706D02*
X009756Y015706D01*
X009872Y015865D02*
X010100Y015865D01*
X010100Y016023D02*
X009997Y016023D01*
X010050Y016182D02*
X010100Y016182D01*
X010100Y016340D02*
X010050Y016340D01*
X010100Y016499D02*
X009988Y016499D01*
X010100Y016657D02*
X009850Y016657D01*
X009808Y016816D02*
X010100Y016816D01*
X010100Y016974D02*
X009977Y016974D01*
X010043Y017133D02*
X010100Y017133D01*
X010100Y017291D02*
X010050Y017291D01*
X010009Y017450D02*
X010100Y017450D01*
X010002Y017608D02*
X009899Y017608D01*
X010002Y017767D02*
X009689Y017767D01*
X009932Y017925D02*
X010004Y017925D01*
X010920Y017500D02*
X010920Y019250D01*
X014670Y023000D01*
X014670Y023750D01*
X014246Y024163D02*
X014387Y024304D01*
X014571Y024380D01*
X014769Y024380D01*
X014850Y024347D01*
X014850Y025227D01*
X013990Y024367D01*
X013990Y024267D01*
X014094Y024163D01*
X014170Y023979D01*
X014170Y023521D01*
X014246Y023337D01*
X014350Y023233D01*
X014350Y023133D01*
X013598Y022381D01*
X013598Y022663D01*
X013353Y022908D01*
X013108Y022908D01*
X013110Y022912D01*
X013110Y025568D01*
X013662Y026120D01*
X013769Y026120D01*
X013953Y026196D01*
X014094Y026337D01*
X014170Y026521D01*
X014170Y026979D01*
X014170Y026521D01*
X014246Y026337D01*
X014387Y026196D01*
X014571Y026120D01*
X014769Y026120D01*
X014850Y026153D01*
X014850Y026133D01*
X013399Y024681D01*
X013350Y024564D01*
X013350Y024267D01*
X013246Y024163D01*
X013170Y023979D01*
X013170Y023521D01*
X013246Y023337D01*
X013387Y023196D01*
X013571Y023120D01*
X013769Y023120D01*
X013953Y023196D01*
X014094Y023337D01*
X014170Y023521D01*
X014170Y023979D01*
X014246Y024163D01*
X014223Y024107D02*
X014117Y024107D01*
X014170Y023948D02*
X014170Y023948D01*
X014170Y023790D02*
X014170Y023790D01*
X014170Y023631D02*
X014170Y023631D01*
X014150Y023473D02*
X014190Y023473D01*
X014269Y023314D02*
X014071Y023314D01*
X013855Y023156D02*
X014350Y023156D01*
X014214Y022997D02*
X013110Y022997D01*
X013110Y023156D02*
X013485Y023156D01*
X013269Y023314D02*
X013110Y023314D01*
X013110Y023473D02*
X013190Y023473D01*
X013170Y023631D02*
X013110Y023631D01*
X013110Y023790D02*
X013170Y023790D01*
X013170Y023948D02*
X013110Y023948D01*
X013110Y024107D02*
X013223Y024107D01*
X013110Y024265D02*
X013348Y024265D01*
X013350Y024424D02*
X013110Y024424D01*
X013110Y024582D02*
X013358Y024582D01*
X013458Y024741D02*
X013110Y024741D01*
X013110Y024899D02*
X013616Y024899D01*
X013775Y025058D02*
X013110Y025058D01*
X013110Y025216D02*
X013933Y025216D01*
X014092Y025375D02*
X013110Y025375D01*
X013110Y025533D02*
X014250Y025533D01*
X014409Y025692D02*
X013234Y025692D01*
X013392Y025850D02*
X014567Y025850D01*
X014726Y026009D02*
X013551Y026009D01*
X013883Y026167D02*
X014457Y026167D01*
X014257Y026326D02*
X014083Y026326D01*
X014155Y026484D02*
X014185Y026484D01*
X014170Y026643D02*
X014170Y026643D01*
X014170Y026801D02*
X014170Y026801D01*
X014170Y026960D02*
X014170Y026960D01*
X014113Y027118D02*
X014227Y027118D01*
X014359Y027277D02*
X013981Y027277D01*
X013359Y027277D02*
X011981Y027277D01*
X011953Y027304D02*
X011769Y027380D01*
X011571Y027380D01*
X011387Y027304D01*
X011246Y027163D01*
X011170Y026979D01*
X011170Y026521D01*
X011246Y026337D01*
X011350Y026233D01*
X011350Y025771D01*
X011252Y025673D01*
X011252Y025327D01*
X011497Y025082D01*
X011843Y025082D01*
X012088Y025327D01*
X012088Y025673D01*
X011990Y025771D01*
X011990Y026233D01*
X012094Y026337D01*
X012170Y026521D01*
X012170Y026979D01*
X012094Y027163D01*
X011953Y027304D01*
X012113Y027118D02*
X013227Y027118D01*
X013170Y026960D02*
X012170Y026960D01*
X012170Y026801D02*
X013099Y026801D01*
X012940Y026643D02*
X012170Y026643D01*
X012155Y026484D02*
X012782Y026484D01*
X012623Y026326D02*
X012083Y026326D01*
X011990Y026167D02*
X012465Y026167D01*
X012306Y026009D02*
X011990Y026009D01*
X011990Y025850D02*
X012235Y025850D01*
X012230Y025692D02*
X012070Y025692D01*
X012088Y025533D02*
X012230Y025533D01*
X012230Y025375D02*
X012088Y025375D01*
X011977Y025216D02*
X012230Y025216D01*
X012230Y025058D02*
X009945Y025058D01*
X009990Y025216D02*
X011363Y025216D01*
X011252Y025375D02*
X009990Y025375D01*
X009990Y025533D02*
X011252Y025533D01*
X011270Y025692D02*
X009990Y025692D01*
X009990Y025850D02*
X011350Y025850D01*
X011350Y026009D02*
X009990Y026009D01*
X009990Y026167D02*
X010457Y026167D01*
X010257Y026326D02*
X010083Y026326D01*
X010155Y026484D02*
X010185Y026484D01*
X010170Y026643D02*
X010170Y026643D01*
X010170Y026801D02*
X010170Y026801D01*
X010170Y026960D02*
X010170Y026960D01*
X010113Y027118D02*
X010227Y027118D01*
X010359Y027277D02*
X009981Y027277D01*
X009670Y026750D02*
X009670Y025230D01*
X009180Y024740D01*
X009180Y023240D01*
X008180Y022240D01*
X008180Y013760D01*
X008170Y013750D01*
X008670Y013250D01*
X008456Y013012D02*
X007990Y013012D01*
X007990Y013170D02*
X008297Y013170D01*
X008139Y013329D02*
X007990Y013329D01*
X005850Y013329D02*
X005110Y013329D01*
X005110Y013487D02*
X005850Y013487D01*
X005850Y013646D02*
X005110Y013646D01*
X005110Y013804D02*
X005850Y013804D01*
X005850Y013963D02*
X005110Y013963D01*
X005110Y014121D02*
X005850Y014121D01*
X005850Y014280D02*
X005110Y014280D01*
X005110Y014438D02*
X005850Y014438D01*
X005850Y014597D02*
X005110Y014597D01*
X005110Y014755D02*
X005850Y014755D01*
X005850Y014914D02*
X005110Y014914D01*
X005110Y015072D02*
X005850Y015072D01*
X005850Y015231D02*
X005110Y015231D01*
X005110Y015389D02*
X005850Y015389D01*
X005850Y015548D02*
X005110Y015548D01*
X005110Y015706D02*
X005850Y015706D01*
X005850Y015865D02*
X005110Y015865D01*
X005110Y016023D02*
X005850Y016023D01*
X005850Y016182D02*
X005110Y016182D01*
X005110Y016340D02*
X005850Y016340D01*
X005850Y016499D02*
X005110Y016499D01*
X005110Y016657D02*
X005850Y016657D01*
X005850Y016816D02*
X005110Y016816D01*
X005110Y016974D02*
X005850Y016974D01*
X005850Y017133D02*
X005110Y017133D01*
X005110Y017291D02*
X005850Y017291D01*
X005850Y017450D02*
X005110Y017450D01*
X005110Y017608D02*
X005850Y017608D01*
X005850Y017767D02*
X005110Y017767D01*
X005110Y017925D02*
X005850Y017925D01*
X005850Y018084D02*
X005110Y018084D01*
X005110Y018242D02*
X005850Y018242D01*
X005850Y018401D02*
X005110Y018401D01*
X005110Y018559D02*
X005850Y018559D01*
X005850Y018718D02*
X005110Y018718D01*
X005110Y018876D02*
X005850Y018876D01*
X005850Y019035D02*
X005110Y019035D01*
X005110Y019193D02*
X005850Y019193D01*
X005850Y019352D02*
X005110Y019352D01*
X005110Y019510D02*
X005850Y019510D01*
X005850Y019669D02*
X005110Y019669D01*
X005110Y019827D02*
X005850Y019827D01*
X005850Y019986D02*
X005110Y019986D01*
X005110Y020144D02*
X005850Y020144D01*
X005850Y020303D02*
X005110Y020303D01*
X005110Y020461D02*
X005850Y020461D01*
X005850Y020620D02*
X005110Y020620D01*
X005110Y020778D02*
X005850Y020778D01*
X005850Y020937D02*
X005110Y020937D01*
X005110Y021095D02*
X005850Y021095D01*
X005850Y021254D02*
X005110Y021254D01*
X005129Y021412D02*
X005850Y021412D01*
X005850Y021571D02*
X005287Y021571D01*
X005410Y021729D02*
X005850Y021729D01*
X005850Y021888D02*
X005410Y021888D01*
X005410Y022046D02*
X005850Y022046D01*
X005624Y022205D02*
X005410Y022205D01*
X005353Y022363D02*
X005502Y022363D01*
X005446Y022522D02*
X005195Y022522D01*
X005110Y022680D02*
X005287Y022680D01*
X005129Y022839D02*
X005110Y022839D01*
X004053Y021571D02*
X003937Y021571D01*
X004024Y021412D02*
X004211Y021412D01*
X004230Y021254D02*
X004050Y021254D01*
X004027Y021095D02*
X004230Y021095D01*
X004230Y020937D02*
X003944Y020937D01*
X003717Y020778D02*
X004230Y020778D01*
X004230Y020620D02*
X003888Y020620D01*
X004004Y020461D02*
X004230Y020461D01*
X004230Y020303D02*
X004050Y020303D01*
X004047Y020144D02*
X004230Y020144D01*
X004230Y019986D02*
X003982Y019986D01*
X003834Y019827D02*
X004230Y019827D01*
X004230Y019669D02*
X003839Y019669D01*
X003983Y019510D02*
X004230Y019510D01*
X004230Y019352D02*
X004049Y019352D01*
X004050Y019193D02*
X004230Y019193D01*
X004230Y019035D02*
X004002Y019035D01*
X003883Y018876D02*
X004230Y018876D01*
X004230Y018718D02*
X003728Y018718D01*
X003948Y018559D02*
X004230Y018559D01*
X004230Y018401D02*
X004029Y018401D01*
X004050Y018242D02*
X004230Y018242D01*
X004230Y018084D02*
X004022Y018084D01*
X003932Y017925D02*
X004230Y017925D01*
X004230Y017767D02*
X003689Y017767D01*
X003899Y017608D02*
X004230Y017608D01*
X004230Y017450D02*
X004009Y017450D01*
X004050Y017291D02*
X004230Y017291D01*
X004230Y017133D02*
X004043Y017133D01*
X003977Y016974D02*
X004230Y016974D01*
X004230Y016816D02*
X003808Y016816D01*
X003850Y016657D02*
X004230Y016657D01*
X004230Y016499D02*
X003988Y016499D01*
X004050Y016340D02*
X004230Y016340D01*
X004230Y016182D02*
X004050Y016182D01*
X003997Y016023D02*
X004230Y016023D01*
X004230Y015865D02*
X003872Y015865D01*
X003756Y015706D02*
X004230Y015706D01*
X004230Y015548D02*
X003960Y015548D01*
X004034Y015389D02*
X004230Y015389D01*
X004230Y015231D02*
X004050Y015231D01*
X004017Y015072D02*
X004230Y015072D01*
X004230Y014914D02*
X003921Y014914D01*
X003662Y014755D02*
X004230Y014755D01*
X004230Y014597D02*
X003911Y014597D01*
X004013Y014438D02*
X004230Y014438D01*
X004230Y014280D02*
X004050Y014280D01*
X004038Y014121D02*
X004230Y014121D01*
X004230Y013963D02*
X003970Y013963D01*
X003780Y013804D02*
X004230Y013804D01*
X004230Y013646D02*
X003862Y013646D01*
X003993Y013487D02*
X004230Y013487D01*
X004230Y013329D02*
X004050Y013329D01*
X004050Y013170D02*
X004230Y013170D01*
X004230Y013012D02*
X003992Y013012D01*
X003860Y012853D02*
X004230Y012853D01*
X004230Y012695D02*
X003783Y012695D01*
X003971Y012536D02*
X004230Y012536D01*
X004230Y012378D02*
X004038Y012378D01*
X004050Y012219D02*
X004230Y012219D01*
X004230Y012061D02*
X004013Y012061D01*
X003909Y011902D02*
X004230Y011902D01*
X004230Y011744D02*
X003665Y011744D01*
X003922Y011585D02*
X004230Y011585D01*
X004230Y011427D02*
X004018Y011427D01*
X004050Y011268D02*
X004230Y011268D01*
X004230Y011110D02*
X004033Y011110D01*
X003958Y010951D02*
X004230Y010951D01*
X004230Y010793D02*
X003752Y010793D01*
X003873Y010634D02*
X004230Y010634D01*
X004230Y010476D02*
X003998Y010476D01*
X004050Y010317D02*
X004230Y010317D01*
X004230Y010159D02*
X004050Y010159D01*
X003988Y010000D02*
X004230Y010000D01*
X004230Y009842D02*
X003849Y009842D01*
X003811Y009683D02*
X004230Y009683D01*
X004230Y009525D02*
X003977Y009525D01*
X004043Y009366D02*
X004230Y009366D01*
X004230Y009208D02*
X004050Y009208D01*
X004008Y009049D02*
X004230Y009049D01*
X004230Y008891D02*
X003898Y008891D01*
X003693Y008732D02*
X004230Y008732D01*
X004230Y008574D02*
X003934Y008574D01*
X004023Y008415D02*
X004230Y008415D01*
X004230Y008257D02*
X004050Y008257D01*
X004028Y008098D02*
X004230Y008098D01*
X004230Y007940D02*
X003947Y007940D01*
X003724Y007781D02*
X004230Y007781D01*
X004230Y007623D02*
X003885Y007623D01*
X004003Y007464D02*
X004230Y007464D01*
X004230Y007306D02*
X004050Y007306D01*
X004049Y007147D02*
X004230Y007147D01*
X004230Y006989D02*
X003983Y006989D01*
X003837Y006830D02*
X004230Y006830D01*
X004230Y006672D02*
X003677Y006672D01*
X003420Y006672D02*
X003420Y006672D01*
X003420Y006513D02*
X003420Y006513D01*
X003420Y006355D02*
X003420Y006355D01*
X003420Y006196D02*
X003420Y006196D01*
X003420Y006038D02*
X003420Y006038D01*
X003420Y005879D02*
X003420Y005879D01*
X003788Y005879D02*
X004230Y005879D01*
X004230Y006038D02*
X003936Y006038D01*
X003987Y006196D02*
X004230Y006196D01*
X004230Y006355D02*
X003979Y006355D01*
X003903Y006513D02*
X004230Y006513D01*
X005110Y006513D02*
X005850Y006513D01*
X005850Y006355D02*
X005110Y006355D01*
X005110Y006196D02*
X005850Y006196D01*
X005850Y006038D02*
X005110Y006038D01*
X005110Y005879D02*
X005850Y005879D01*
X005850Y005721D02*
X005246Y005721D01*
X005405Y005562D02*
X005850Y005562D01*
X005850Y005404D02*
X005410Y005404D01*
X005410Y005245D02*
X005712Y005245D01*
X005554Y005087D02*
X005410Y005087D01*
X005395Y004928D02*
X005395Y004928D01*
X005237Y004770D02*
X005236Y004770D01*
X005078Y004611D02*
X005078Y004611D01*
X005110Y006672D02*
X005850Y006672D01*
X005850Y006830D02*
X005110Y006830D01*
X005110Y006989D02*
X005850Y006989D01*
X005850Y007147D02*
X005110Y007147D01*
X005110Y007306D02*
X005850Y007306D01*
X005850Y007464D02*
X005110Y007464D01*
X005110Y007623D02*
X005850Y007623D01*
X005850Y007781D02*
X005110Y007781D01*
X005110Y007940D02*
X005850Y007940D01*
X005850Y008098D02*
X005110Y008098D01*
X005110Y008257D02*
X005850Y008257D01*
X005850Y008415D02*
X005110Y008415D01*
X005110Y008574D02*
X005850Y008574D01*
X005850Y008732D02*
X005110Y008732D01*
X005110Y008891D02*
X005850Y008891D01*
X005850Y009049D02*
X005110Y009049D01*
X005110Y009208D02*
X005850Y009208D01*
X005850Y009366D02*
X005110Y009366D01*
X005110Y009525D02*
X005850Y009525D01*
X005850Y009683D02*
X005110Y009683D01*
X005110Y009842D02*
X005850Y009842D01*
X005850Y010000D02*
X005110Y010000D01*
X005110Y010159D02*
X005850Y010159D01*
X005850Y010317D02*
X005110Y010317D01*
X005110Y010476D02*
X005850Y010476D01*
X005850Y010634D02*
X005110Y010634D01*
X005110Y010793D02*
X005850Y010793D01*
X005850Y010951D02*
X005110Y010951D01*
X005110Y011110D02*
X005850Y011110D01*
X005850Y011268D02*
X005110Y011268D01*
X005110Y011427D02*
X005850Y011427D01*
X005850Y011585D02*
X005110Y011585D01*
X005110Y011744D02*
X005850Y011744D01*
X005850Y011902D02*
X005110Y011902D01*
X005110Y012061D02*
X005850Y012061D01*
X005850Y012219D02*
X005110Y012219D01*
X005110Y012378D02*
X005850Y012378D01*
X005850Y012536D02*
X005110Y012536D01*
X005110Y012695D02*
X005850Y012695D01*
X005850Y012853D02*
X005110Y012853D01*
X005110Y013012D02*
X005850Y013012D01*
X005850Y013170D02*
X005110Y013170D01*
X008170Y010750D02*
X008170Y005000D01*
X008372Y004611D02*
X008468Y004611D01*
X008670Y005000D02*
X008670Y010000D01*
X008920Y010250D01*
X009420Y010250D01*
X009191Y009750D02*
X009007Y009826D01*
X008990Y009843D01*
X008990Y009657D01*
X009007Y009674D01*
X009191Y009750D01*
X009649Y009750D01*
X009191Y009750D01*
X009029Y009683D02*
X008990Y009683D01*
X008990Y009842D02*
X008991Y009842D01*
X008693Y010476D02*
X008490Y010476D01*
X008507Y010634D02*
X008967Y010634D01*
X009088Y010793D02*
X008665Y010793D01*
X008534Y010317D02*
X008490Y010317D01*
X008990Y008732D02*
X009147Y008732D01*
X009116Y007781D02*
X008990Y007781D01*
X008990Y006843D02*
X009007Y006826D01*
X009191Y006750D01*
X009649Y006750D01*
X009191Y006750D01*
X009007Y006674D01*
X008990Y006657D01*
X008990Y006843D01*
X008990Y006830D02*
X009003Y006830D01*
X008990Y006672D02*
X009004Y006672D01*
X007670Y005000D02*
X007670Y022730D01*
X008180Y023240D01*
X008180Y024240D01*
X008280Y024340D01*
X008280Y025240D01*
X008280Y025890D01*
X008170Y026000D01*
X008128Y026418D02*
X008170Y026521D01*
X008170Y026979D01*
X008170Y026521D01*
X008212Y026418D01*
X008128Y026418D01*
X008155Y026484D02*
X008185Y026484D01*
X008170Y026643D02*
X008170Y026643D01*
X008170Y026801D02*
X008170Y026801D01*
X008170Y026960D02*
X008170Y026960D01*
X008113Y027118D02*
X008227Y027118D01*
X008359Y027277D02*
X007981Y027277D01*
X007670Y026750D02*
X007670Y026250D01*
X007170Y025750D01*
X007170Y005000D01*
X007372Y004611D02*
X007468Y004611D01*
X007872Y004611D02*
X007968Y004611D01*
X011420Y010250D02*
X011420Y019250D01*
X015170Y023000D01*
X015170Y025500D01*
X015670Y026000D01*
X015670Y026750D01*
X015170Y027250D02*
X015170Y026000D01*
X013670Y024500D01*
X013670Y023750D01*
X013992Y024265D02*
X014348Y024265D01*
X014046Y024424D02*
X014850Y024424D01*
X014850Y024582D02*
X014205Y024582D01*
X014363Y024741D02*
X014850Y024741D01*
X014850Y024899D02*
X014522Y024899D01*
X014680Y025058D02*
X014850Y025058D01*
X014839Y025216D02*
X014850Y025216D01*
X015670Y023750D02*
X015670Y023000D01*
X014920Y022250D01*
X014920Y008750D01*
X015420Y009250D02*
X015420Y006000D01*
X016170Y005250D01*
X016494Y005879D02*
X016552Y005879D01*
X016559Y005874D02*
X016621Y005842D01*
X016687Y005821D01*
X016755Y005810D01*
X016920Y005810D01*
X017085Y005810D01*
X017153Y005821D01*
X017219Y005842D01*
X017281Y005874D01*
X017337Y005914D01*
X017350Y005928D01*
X017350Y005161D01*
X017343Y005168D01*
X017338Y005168D01*
X017338Y005423D01*
X017093Y005668D01*
X016747Y005668D01*
X016726Y005647D01*
X016240Y006133D01*
X016240Y007479D01*
X016338Y007577D01*
X016338Y007923D01*
X016261Y008000D01*
X016326Y008064D01*
X016366Y007967D01*
X016507Y007826D01*
X016691Y007750D01*
X016507Y007674D01*
X016366Y007533D01*
X016290Y007349D01*
X016290Y007151D01*
X016366Y006967D01*
X016507Y006826D01*
X016691Y006750D01*
X017149Y006750D01*
X017333Y006826D01*
X017350Y006843D01*
X017350Y006572D01*
X017337Y006586D01*
X017281Y006626D01*
X017219Y006658D01*
X017153Y006679D01*
X017085Y006690D01*
X016920Y006690D01*
X016920Y006250D01*
X016920Y006250D01*
X016920Y005810D01*
X016920Y006250D01*
X016920Y006250D01*
X016920Y006250D01*
X016350Y006250D01*
X016350Y006285D01*
X016361Y006353D01*
X016382Y006419D01*
X016414Y006481D01*
X016454Y006537D01*
X016503Y006586D01*
X016559Y006626D01*
X016621Y006658D01*
X016687Y006679D01*
X016755Y006690D01*
X016920Y006690D01*
X016920Y006250D01*
X016350Y006250D01*
X016350Y006215D01*
X016361Y006147D01*
X016382Y006081D01*
X016414Y006019D01*
X016454Y005963D01*
X016503Y005914D01*
X016559Y005874D01*
X016652Y005721D02*
X017350Y005721D01*
X017350Y005879D02*
X017288Y005879D01*
X017350Y005562D02*
X017199Y005562D01*
X017338Y005404D02*
X017350Y005404D01*
X017338Y005245D02*
X017350Y005245D01*
X016920Y005250D02*
X016670Y005250D01*
X015920Y006000D01*
X015920Y007750D01*
X016240Y007464D02*
X016337Y007464D01*
X016338Y007623D02*
X016455Y007623D01*
X016338Y007781D02*
X016616Y007781D01*
X016691Y007750D02*
X017149Y007750D01*
X017333Y007674D01*
X017350Y007657D01*
X017350Y007843D01*
X017333Y007826D01*
X017149Y007750D01*
X016691Y007750D01*
X016393Y007940D02*
X016322Y007940D01*
X015920Y008250D02*
X015920Y022250D01*
X016670Y023000D01*
X016670Y023750D01*
X016170Y023000D02*
X015420Y022250D01*
X015420Y009250D01*
X014920Y008250D02*
X014920Y006000D01*
X016170Y004750D01*
X017170Y004750D01*
X016920Y005879D02*
X016920Y005879D01*
X016920Y006038D02*
X016920Y006038D01*
X016920Y006196D02*
X016920Y006196D01*
X016920Y006355D02*
X016920Y006355D01*
X016920Y006513D02*
X016920Y006513D01*
X016920Y006672D02*
X016920Y006672D01*
X016663Y006672D02*
X016240Y006672D01*
X016240Y006830D02*
X016503Y006830D01*
X016357Y006989D02*
X016240Y006989D01*
X016240Y007147D02*
X016291Y007147D01*
X016290Y007306D02*
X016240Y007306D01*
X016240Y006513D02*
X016437Y006513D01*
X016361Y006355D02*
X016240Y006355D01*
X016240Y006196D02*
X016353Y006196D01*
X016335Y006038D02*
X016404Y006038D01*
X017177Y006672D02*
X017350Y006672D01*
X017337Y006830D02*
X017350Y006830D01*
X017350Y007781D02*
X017224Y007781D01*
X019670Y007250D02*
X019670Y005750D01*
X020170Y005250D02*
X019920Y005000D01*
X020170Y005250D02*
X020170Y006750D01*
X020170Y008250D01*
X020670Y008750D01*
X020670Y023750D01*
X021670Y023750D02*
X021670Y020250D01*
X021490Y019827D02*
X021850Y019827D01*
X021850Y019669D02*
X021490Y019669D01*
X021490Y019510D02*
X021850Y019510D01*
X021885Y019352D02*
X021490Y019352D01*
X021490Y019193D02*
X022024Y019193D01*
X022183Y019035D02*
X021490Y019035D01*
X021490Y018876D02*
X022457Y018876D01*
X022612Y018718D02*
X021490Y018718D01*
X021490Y018559D02*
X022392Y018559D01*
X022311Y018401D02*
X021490Y018401D01*
X021490Y018242D02*
X022290Y018242D01*
X022318Y018084D02*
X021490Y018084D01*
X021490Y017925D02*
X022408Y017925D01*
X022651Y017767D02*
X021490Y017767D01*
X021490Y017608D02*
X022441Y017608D01*
X022331Y017450D02*
X021490Y017450D01*
X021490Y017291D02*
X022290Y017291D01*
X022297Y017133D02*
X021490Y017133D01*
X021490Y016974D02*
X022363Y016974D01*
X022532Y016816D02*
X021490Y016816D01*
X021490Y016657D02*
X022490Y016657D01*
X022352Y016499D02*
X021490Y016499D01*
X021490Y016340D02*
X022290Y016340D01*
X022290Y016182D02*
X021490Y016182D01*
X021490Y016023D02*
X022343Y016023D01*
X022468Y015865D02*
X021490Y015865D01*
X021490Y015706D02*
X022584Y015706D01*
X022380Y015548D02*
X021490Y015548D01*
X021490Y015389D02*
X022306Y015389D01*
X022290Y015231D02*
X021490Y015231D01*
X021490Y015072D02*
X022323Y015072D01*
X022419Y014914D02*
X021490Y014914D01*
X021490Y014755D02*
X022678Y014755D01*
X022429Y014597D02*
X021490Y014597D01*
X021490Y014438D02*
X022327Y014438D01*
X022290Y014280D02*
X021490Y014280D01*
X021490Y014121D02*
X022302Y014121D01*
X022370Y013963D02*
X021490Y013963D01*
X021490Y013804D02*
X022560Y013804D01*
X022478Y013646D02*
X021490Y013646D01*
X021490Y013487D02*
X022347Y013487D01*
X022290Y013329D02*
X021490Y013329D01*
X021490Y013170D02*
X022290Y013170D01*
X022348Y013012D02*
X021490Y013012D01*
X021490Y012853D02*
X022480Y012853D01*
X022557Y012695D02*
X021490Y012695D01*
X021490Y012536D02*
X022369Y012536D01*
X022302Y012378D02*
X021490Y012378D01*
X021490Y012219D02*
X022290Y012219D01*
X022327Y012061D02*
X021490Y012061D01*
X021490Y011902D02*
X022431Y011902D01*
X022675Y011744D02*
X021490Y011744D01*
X021490Y011585D02*
X022418Y011585D01*
X022322Y011427D02*
X021490Y011427D01*
X021490Y011268D02*
X022290Y011268D01*
X022307Y011110D02*
X021490Y011110D01*
X021490Y010951D02*
X022382Y010951D01*
X022588Y010793D02*
X021490Y010793D01*
X021490Y010634D02*
X022467Y010634D01*
X022342Y010476D02*
X021490Y010476D01*
X021490Y010317D02*
X022290Y010317D01*
X021987Y010159D02*
X021490Y010159D01*
X021490Y010000D02*
X021829Y010000D01*
X021752Y009842D02*
X021490Y009842D01*
X021490Y009683D02*
X021752Y009683D01*
X021804Y009525D02*
X021490Y009525D01*
X021490Y009366D02*
X021850Y009366D01*
X021850Y009208D02*
X021490Y009208D01*
X021670Y008750D02*
X021670Y005000D01*
X022170Y005250D02*
X022170Y009750D01*
X022588Y009792D02*
X022691Y009750D01*
X023149Y009750D01*
X022691Y009750D01*
X022588Y009708D01*
X022588Y009792D01*
X022490Y008843D02*
X022507Y008826D01*
X022691Y008750D01*
X023149Y008750D01*
X022691Y008750D01*
X022507Y008674D01*
X022490Y008657D01*
X022490Y008843D01*
X022490Y008732D02*
X022647Y008732D01*
X022490Y007843D02*
X022507Y007826D01*
X022691Y007750D01*
X023149Y007750D01*
X022691Y007750D01*
X022507Y007674D01*
X022490Y007657D01*
X022490Y007843D01*
X022490Y007781D02*
X022616Y007781D01*
X022503Y006830D02*
X022490Y006830D01*
X022490Y006672D02*
X022504Y006672D01*
X022170Y005250D02*
X022674Y004746D01*
X020670Y005500D02*
X020670Y008250D01*
X020170Y008750D02*
X020170Y025500D01*
X019670Y026000D01*
X019670Y026750D01*
X020420Y027500D02*
X020670Y027750D01*
X020420Y027500D02*
X015420Y027500D01*
X015170Y027250D01*
X014989Y027521D02*
X014989Y027521D01*
X014899Y027431D01*
X014989Y027521D02*
X015149Y027681D01*
X015149Y027681D01*
X015239Y027771D01*
X015356Y027820D01*
X020252Y027820D01*
X020252Y027820D01*
X020146Y027820D01*
X020101Y027832D01*
X020059Y027856D01*
X020026Y027889D01*
X020002Y027931D01*
X019990Y027976D01*
X019990Y028920D01*
X020590Y028920D01*
X020750Y028920D01*
X021350Y028920D01*
X021350Y027976D01*
X021338Y027931D01*
X021314Y027889D01*
X021281Y027856D01*
X021239Y027832D01*
X021194Y027820D01*
X021088Y027820D01*
X021088Y027577D01*
X020856Y027344D01*
X020953Y027304D01*
X021094Y027163D01*
X021170Y026979D01*
X021170Y026521D01*
X021094Y026337D01*
X020990Y026233D01*
X020990Y026133D01*
X021441Y025681D01*
X021490Y025564D01*
X021490Y024347D01*
X021571Y024380D01*
X021769Y024380D01*
X021850Y024347D01*
X021850Y025367D01*
X021399Y025819D01*
X021350Y025936D01*
X021350Y026233D01*
X021246Y026337D01*
X021170Y026521D01*
X021170Y026979D01*
X021246Y027163D01*
X021387Y027304D01*
X021571Y027380D01*
X021769Y027380D01*
X021953Y027304D01*
X022094Y027163D01*
X022170Y026979D01*
X022246Y027163D01*
X022387Y027304D01*
X022571Y027380D01*
X022769Y027380D01*
X022953Y027304D01*
X023094Y027163D01*
X023170Y026979D01*
X023170Y026521D01*
X023094Y026337D01*
X022953Y026196D01*
X022769Y026120D01*
X022571Y026120D01*
X022387Y026196D01*
X022246Y026337D01*
X022170Y026521D01*
X022170Y026979D01*
X022170Y026521D01*
X022094Y026337D01*
X021990Y026233D01*
X021990Y026133D01*
X022351Y025771D01*
X022441Y025681D01*
X022490Y025564D01*
X022490Y024282D01*
X022501Y024288D01*
X022567Y024309D01*
X022635Y024320D01*
X022670Y024320D01*
X022670Y023750D01*
X022670Y025500D01*
X022170Y026000D01*
X022170Y027000D01*
X020670Y028500D01*
X020670Y029000D01*
X020750Y029020D02*
X024347Y029020D01*
X024347Y028862D02*
X021350Y028862D01*
X021350Y028703D02*
X024347Y028703D01*
X024347Y028545D02*
X021350Y028545D01*
X021350Y028386D02*
X024347Y028386D01*
X024347Y028228D02*
X021350Y028228D01*
X021350Y028069D02*
X024347Y028069D01*
X024347Y027911D02*
X021326Y027911D01*
X021088Y027752D02*
X024373Y027752D01*
X025180Y027594D02*
X021088Y027594D01*
X020946Y027435D02*
X025180Y027435D01*
X025180Y027277D02*
X022981Y027277D01*
X023113Y027118D02*
X025180Y027118D01*
X025180Y026960D02*
X023170Y026960D01*
X023170Y026801D02*
X025180Y026801D01*
X025180Y026643D02*
X023170Y026643D01*
X023155Y026484D02*
X025180Y026484D01*
X025180Y026326D02*
X023083Y026326D01*
X022883Y026167D02*
X025180Y026167D01*
X025180Y026009D02*
X022114Y026009D01*
X021990Y026167D02*
X022457Y026167D01*
X022257Y026326D02*
X022083Y026326D01*
X022155Y026484D02*
X022185Y026484D01*
X022170Y026643D02*
X022170Y026643D01*
X022170Y026801D02*
X022170Y026801D01*
X022170Y026960D02*
X022170Y026960D01*
X022113Y027118D02*
X022227Y027118D01*
X022359Y027277D02*
X021981Y027277D01*
X021670Y026750D02*
X021670Y026000D01*
X022170Y025500D01*
X022170Y019500D01*
X022420Y019250D01*
X022920Y019250D01*
X023228Y018718D02*
X023360Y018718D01*
X024000Y018718D02*
X025180Y018718D01*
X025180Y018876D02*
X024000Y018876D01*
X024000Y019035D02*
X025180Y019035D01*
X025180Y019193D02*
X024000Y019193D01*
X024000Y019352D02*
X025180Y019352D01*
X025180Y019510D02*
X024000Y019510D01*
X024000Y019669D02*
X025180Y019669D01*
X025180Y019827D02*
X024000Y019827D01*
X024000Y019986D02*
X025180Y019986D01*
X025180Y020144D02*
X023963Y020144D01*
X023820Y020303D02*
X025180Y020303D01*
X025180Y020461D02*
X023662Y020461D01*
X023920Y022205D02*
X023920Y022205D01*
X023920Y022363D02*
X023920Y022363D01*
X024247Y022205D02*
X025180Y022205D01*
X025180Y022363D02*
X024360Y022363D01*
X024360Y022522D02*
X025180Y022522D01*
X025180Y022680D02*
X024360Y022680D01*
X025180Y023156D02*
X022490Y023156D01*
X022490Y022997D02*
X022710Y022997D01*
X022670Y023180D02*
X022670Y023750D01*
X022670Y023750D01*
X023110Y023750D01*
X022670Y023750D01*
X022670Y023750D01*
X022670Y023750D01*
X022670Y023180D01*
X022670Y023314D02*
X022670Y023314D01*
X022670Y023473D02*
X022670Y023473D01*
X022670Y023631D02*
X022670Y023631D01*
X022670Y023790D02*
X022670Y023790D01*
X022670Y023948D02*
X022670Y023948D01*
X022670Y024107D02*
X022670Y024107D01*
X022670Y024265D02*
X022670Y024265D01*
X022884Y024265D02*
X025180Y024265D01*
X025180Y024107D02*
X023048Y024107D01*
X023105Y023948D02*
X025180Y023948D01*
X025180Y023790D02*
X023110Y023790D01*
X023110Y023631D02*
X025180Y023631D01*
X025180Y023473D02*
X023085Y023473D01*
X022986Y023314D02*
X025180Y023314D01*
X025180Y024424D02*
X022490Y024424D01*
X022490Y024582D02*
X025180Y024582D01*
X025180Y024741D02*
X022490Y024741D01*
X022490Y024899D02*
X025180Y024899D01*
X025180Y025058D02*
X022490Y025058D01*
X022490Y025216D02*
X025180Y025216D01*
X025180Y025375D02*
X022490Y025375D01*
X022490Y025533D02*
X025180Y025533D01*
X025180Y025692D02*
X022431Y025692D01*
X022273Y025850D02*
X025180Y025850D01*
X024347Y029179D02*
X021350Y029179D01*
X021350Y029337D02*
X024347Y029337D01*
X024347Y029496D02*
X021350Y029496D01*
X021350Y029654D02*
X024347Y029654D01*
X024347Y029813D02*
X021350Y029813D01*
X020590Y029020D02*
X006490Y029020D01*
X006490Y028862D02*
X019990Y028862D01*
X019990Y028703D02*
X006490Y028703D01*
X006490Y028545D02*
X019990Y028545D01*
X019990Y028386D02*
X006490Y028386D01*
X006490Y028228D02*
X019990Y028228D01*
X019990Y028069D02*
X006490Y028069D01*
X006490Y027911D02*
X020014Y027911D01*
X020590Y028228D02*
X020750Y028228D01*
X020750Y028386D02*
X020590Y028386D01*
X020590Y028545D02*
X020750Y028545D01*
X020750Y028703D02*
X020590Y028703D01*
X020590Y028862D02*
X020750Y028862D01*
X019990Y029179D02*
X006490Y029179D01*
X006490Y029337D02*
X007521Y029337D01*
X008059Y029337D02*
X009488Y029337D01*
X009458Y029342D02*
X009532Y029330D01*
X009550Y029330D01*
X009550Y029940D01*
X009590Y029940D01*
X009590Y029980D01*
X010050Y029980D01*
X010050Y030148D01*
X010038Y030222D01*
X010015Y030294D01*
X009981Y030362D01*
X009936Y030423D01*
X009883Y030476D01*
X009822Y030521D01*
X009754Y030555D01*
X009682Y030578D01*
X009608Y030590D01*
X009590Y030590D01*
X009590Y029980D01*
X009550Y029980D01*
X009550Y030590D01*
X009532Y030590D01*
X009458Y030578D01*
X009386Y030555D01*
X009318Y030521D01*
X009257Y030476D01*
X009204Y030423D01*
X009159Y030362D01*
X009125Y030294D01*
X009102Y030222D01*
X009090Y030148D01*
X009090Y029980D01*
X009550Y029980D01*
X009550Y029940D01*
X009090Y029940D01*
X009090Y029772D01*
X009102Y029698D01*
X009125Y029626D01*
X009159Y029558D01*
X009204Y029497D01*
X009257Y029444D01*
X009318Y029399D01*
X009386Y029365D01*
X009458Y029342D01*
X009550Y029337D02*
X009590Y029337D01*
X009590Y029330D02*
X009608Y029330D01*
X009682Y029342D01*
X009754Y029365D01*
X009822Y029399D01*
X009883Y029444D01*
X009936Y029497D01*
X009981Y029558D01*
X010015Y029626D01*
X010038Y029698D01*
X010050Y029772D01*
X010050Y029940D01*
X009590Y029940D01*
X009590Y029330D01*
X009652Y029337D02*
X019990Y029337D01*
X019990Y029496D02*
X009934Y029496D01*
X010024Y029654D02*
X019990Y029654D01*
X019990Y029813D02*
X010050Y029813D01*
X010050Y030130D02*
X017061Y030130D01*
X017042Y030288D02*
X010017Y030288D01*
X009912Y030447D02*
X017092Y030447D01*
X017071Y030605D02*
X008250Y030605D01*
X008250Y030447D02*
X009228Y030447D01*
X009123Y030288D02*
X008301Y030288D01*
X008330Y030130D02*
X009090Y030130D01*
X009090Y029813D02*
X008330Y029813D01*
X008330Y029971D02*
X009550Y029971D01*
X009570Y029960D02*
X009460Y029960D01*
X009430Y029990D01*
X009430Y032380D01*
X009570Y032520D01*
X010400Y032520D01*
X011170Y031750D01*
X011170Y024250D01*
X011670Y023750D01*
X012110Y023750D01*
X012110Y023915D01*
X012099Y023983D01*
X012078Y024049D01*
X012046Y024111D01*
X012006Y024167D01*
X011957Y024216D01*
X011901Y024256D01*
X011839Y024288D01*
X011773Y024309D01*
X011705Y024320D01*
X011670Y024320D01*
X011670Y023750D01*
X011670Y023750D01*
X011670Y023750D01*
X012110Y023750D01*
X012110Y023585D01*
X012099Y023517D01*
X012078Y023451D01*
X012046Y023389D01*
X012006Y023333D01*
X011957Y023284D01*
X011901Y023244D01*
X011839Y023212D01*
X011773Y023191D01*
X011705Y023180D01*
X011670Y023180D01*
X011670Y023750D01*
X011670Y023750D01*
X011670Y023750D01*
X011230Y023750D01*
X011230Y023915D01*
X011241Y023983D01*
X011262Y024049D01*
X011294Y024111D01*
X011334Y024167D01*
X011383Y024216D01*
X011439Y024256D01*
X011501Y024288D01*
X011567Y024309D01*
X011635Y024320D01*
X011670Y024320D01*
X011670Y023750D01*
X011670Y023180D01*
X011635Y023180D01*
X011567Y023191D01*
X011501Y023212D01*
X011439Y023244D01*
X011383Y023284D01*
X011334Y023333D01*
X011294Y023389D01*
X011262Y023451D01*
X011241Y023517D01*
X011230Y023585D01*
X011230Y023750D01*
X011670Y023750D01*
X011670Y023790D02*
X011670Y023790D01*
X011670Y023948D02*
X011670Y023948D01*
X011670Y024107D02*
X011670Y024107D01*
X011670Y024265D02*
X011670Y024265D01*
X011884Y024265D02*
X012230Y024265D01*
X012230Y024107D02*
X012048Y024107D01*
X012105Y023948D02*
X012230Y023948D01*
X012230Y023790D02*
X012110Y023790D01*
X012110Y023631D02*
X012230Y023631D01*
X012230Y023473D02*
X012085Y023473D01*
X011986Y023314D02*
X012230Y023314D01*
X012230Y023156D02*
X010855Y023156D01*
X011071Y023314D02*
X011354Y023314D01*
X011255Y023473D02*
X011150Y023473D01*
X011170Y023631D02*
X011230Y023631D01*
X011230Y023790D02*
X011170Y023790D01*
X011170Y023948D02*
X011235Y023948D01*
X011292Y024107D02*
X011117Y024107D01*
X010992Y024265D02*
X011456Y024265D01*
X011670Y023631D02*
X011670Y023631D01*
X011670Y023473D02*
X011670Y023473D01*
X011670Y023314D02*
X011670Y023314D01*
X012230Y022997D02*
X009390Y022997D01*
X009231Y022839D02*
X012252Y022839D01*
X012368Y022680D02*
X009073Y022680D01*
X008914Y022522D02*
X012509Y022522D01*
X012350Y022363D02*
X008756Y022363D01*
X008597Y022205D02*
X012192Y022205D01*
X012033Y022046D02*
X008500Y022046D01*
X008500Y021888D02*
X011875Y021888D01*
X012305Y021412D02*
X012629Y021412D01*
X012471Y021254D02*
X012146Y021254D01*
X011988Y021095D02*
X012312Y021095D01*
X012154Y020937D02*
X011829Y020937D01*
X011671Y020778D02*
X011995Y020778D01*
X011837Y020620D02*
X011512Y020620D01*
X011451Y020559D02*
X011451Y020559D01*
X011343Y020461D02*
X011678Y020461D01*
X011180Y020740D02*
X010430Y020740D01*
X010666Y021095D02*
X011082Y021095D01*
X011180Y020740D02*
X012930Y022490D01*
X013180Y022490D01*
X013423Y022839D02*
X014056Y022839D01*
X013897Y022680D02*
X013581Y022680D01*
X013598Y022522D02*
X013739Y022522D01*
X013263Y022046D02*
X012939Y022046D01*
X012780Y021888D02*
X013105Y021888D01*
X012946Y021729D02*
X012622Y021729D01*
X012463Y021571D02*
X012788Y021571D01*
X012230Y024424D02*
X009500Y024424D01*
X009500Y024582D02*
X012230Y024582D01*
X012230Y024741D02*
X009633Y024741D01*
X009792Y024899D02*
X012230Y024899D01*
X011670Y025500D02*
X011670Y026750D01*
X011170Y026801D02*
X011170Y026801D01*
X011170Y026643D02*
X011170Y026643D01*
X011155Y026484D02*
X011185Y026484D01*
X011257Y026326D02*
X011083Y026326D01*
X010883Y026167D02*
X011350Y026167D01*
X011170Y026960D02*
X011170Y026960D01*
X011113Y027118D02*
X011227Y027118D01*
X011359Y027277D02*
X010981Y027277D01*
X009359Y027277D02*
X008981Y027277D01*
X009113Y027118D02*
X009227Y027118D01*
X009170Y026979D02*
X009170Y026521D01*
X009094Y026337D01*
X008990Y026233D01*
X008990Y025003D01*
X008999Y025011D01*
X009350Y025363D01*
X009350Y026233D01*
X009246Y026337D01*
X009170Y026521D01*
X009170Y026979D01*
X009170Y026960D02*
X009170Y026960D01*
X009170Y026801D02*
X009170Y026801D01*
X009170Y026643D02*
X009170Y026643D01*
X009155Y026484D02*
X009185Y026484D01*
X009257Y026326D02*
X009083Y026326D01*
X008990Y026167D02*
X009350Y026167D01*
X009350Y026009D02*
X008990Y026009D01*
X008990Y025850D02*
X009350Y025850D01*
X009350Y025692D02*
X008990Y025692D01*
X008990Y025533D02*
X009350Y025533D01*
X009350Y025375D02*
X008990Y025375D01*
X008990Y025216D02*
X009203Y025216D01*
X009045Y025058D02*
X008990Y025058D01*
X009992Y024265D02*
X010348Y024265D01*
X010223Y024107D02*
X010117Y024107D01*
X010170Y023948D02*
X010170Y023948D01*
X010170Y023790D02*
X010170Y023790D01*
X010170Y023631D02*
X010170Y023631D01*
X010150Y023473D02*
X010190Y023473D01*
X010269Y023314D02*
X010071Y023314D01*
X009855Y023156D02*
X010485Y023156D01*
X008670Y023750D02*
X008670Y026750D01*
X007752Y025879D02*
X007752Y025827D01*
X007849Y025730D01*
X007757Y025730D01*
X007669Y025693D01*
X007646Y025670D01*
X007580Y025670D01*
X007580Y025574D01*
X007580Y025574D01*
X007580Y025670D01*
X007543Y025670D01*
X007752Y025879D01*
X007752Y025850D02*
X007723Y025850D01*
X007680Y025740D02*
X007580Y025640D01*
X007580Y025240D01*
X007564Y025692D02*
X007667Y025692D01*
X007930Y025240D02*
X007930Y024490D01*
X007670Y024230D01*
X007670Y023750D01*
X007134Y026167D02*
X006990Y026167D01*
X006490Y027594D02*
X015061Y027594D01*
X015219Y027752D02*
X006490Y027752D01*
X008239Y029496D02*
X009206Y029496D01*
X009116Y029654D02*
X008310Y029654D01*
X008250Y030764D02*
X017042Y030764D01*
X017082Y030922D02*
X010588Y030922D01*
X010571Y030905D02*
X010765Y031099D01*
X010870Y031353D01*
X010870Y031627D01*
X010765Y031881D01*
X010571Y032075D01*
X010317Y032180D01*
X010043Y032180D01*
X010004Y032164D01*
X010015Y032186D01*
X010038Y032258D01*
X010050Y032332D01*
X010050Y032500D01*
X009590Y032500D01*
X009590Y032540D01*
X010050Y032540D01*
X010050Y032708D01*
X010038Y032782D01*
X010015Y032854D01*
X009981Y032922D01*
X009936Y032983D01*
X009883Y033036D01*
X009822Y033081D01*
X009754Y033115D01*
X009682Y033138D01*
X009608Y033150D01*
X009590Y033150D01*
X009590Y032540D01*
X009550Y032540D01*
X009550Y033150D01*
X009532Y033150D01*
X009458Y033138D01*
X009386Y033115D01*
X009318Y033081D01*
X009257Y033036D01*
X009204Y032983D01*
X009159Y032922D01*
X009125Y032854D01*
X009102Y032782D01*
X009090Y032708D01*
X009090Y032540D01*
X009550Y032540D01*
X009550Y032500D01*
X009590Y032500D01*
X009590Y031890D01*
X009604Y031890D01*
X009595Y031881D01*
X009490Y031627D01*
X009490Y031353D01*
X009595Y031099D01*
X009789Y030905D01*
X010043Y030800D01*
X010317Y030800D01*
X010571Y030905D01*
X010746Y031081D02*
X017081Y031081D01*
X017042Y031239D02*
X010823Y031239D01*
X010870Y031398D02*
X017072Y031398D01*
X017091Y031556D02*
X010870Y031556D01*
X010834Y031715D02*
X017042Y031715D01*
X017062Y031873D02*
X010768Y031873D01*
X010614Y032032D02*
X017104Y032032D01*
X017042Y032190D02*
X010016Y032190D01*
X010050Y032349D02*
X017052Y032349D01*
X017129Y032507D02*
X009590Y032507D01*
X009550Y032507D02*
X008330Y032507D01*
X008330Y032349D02*
X009090Y032349D01*
X009090Y032332D02*
X009102Y032258D01*
X009125Y032186D01*
X009159Y032118D01*
X009204Y032057D01*
X009257Y032004D01*
X009318Y031959D01*
X009386Y031925D01*
X009458Y031902D01*
X009532Y031890D01*
X009550Y031890D01*
X009550Y032500D01*
X009090Y032500D01*
X009090Y032332D01*
X009124Y032190D02*
X008300Y032190D01*
X008250Y032032D02*
X009230Y032032D01*
X009550Y032032D02*
X009590Y032032D01*
X009590Y032190D02*
X009550Y032190D01*
X009550Y032349D02*
X009590Y032349D01*
X009590Y032666D02*
X009550Y032666D01*
X009550Y032824D02*
X009590Y032824D01*
X009590Y032983D02*
X009550Y032983D01*
X009550Y033141D02*
X009590Y033141D01*
X009664Y033141D02*
X017056Y033141D01*
X017042Y033300D02*
X001993Y033300D01*
X001993Y033141D02*
X007516Y033141D01*
X007339Y032983D02*
X001993Y032983D01*
X006170Y031750D02*
X006940Y032520D01*
X008064Y033141D02*
X009476Y033141D01*
X009204Y032983D02*
X008241Y032983D01*
X008311Y032824D02*
X009115Y032824D01*
X009090Y032666D02*
X008330Y032666D01*
X008250Y031873D02*
X009592Y031873D01*
X009526Y031715D02*
X008250Y031715D01*
X008250Y031556D02*
X009490Y031556D01*
X009490Y031398D02*
X008250Y031398D01*
X008250Y031239D02*
X009537Y031239D01*
X009614Y031081D02*
X008250Y031081D01*
X008250Y030922D02*
X009772Y030922D01*
X009590Y030447D02*
X009550Y030447D01*
X009550Y030288D02*
X009590Y030288D01*
X009590Y030130D02*
X009550Y030130D01*
X009590Y029971D02*
X017165Y029971D01*
X017046Y032666D02*
X010050Y032666D01*
X010025Y032824D02*
X017042Y032824D01*
X017118Y032983D02*
X009936Y032983D01*
X007610Y030922D02*
X007588Y030922D01*
X009550Y029813D02*
X009590Y029813D01*
X009590Y029654D02*
X009550Y029654D01*
X009550Y029496D02*
X009590Y029496D01*
X003630Y026167D02*
X001160Y026167D01*
X001160Y026009D02*
X003471Y026009D01*
X003420Y025850D02*
X001160Y025850D01*
X001160Y025692D02*
X003420Y025692D01*
X003430Y025533D02*
X001160Y025533D01*
X001160Y025375D02*
X003588Y025375D01*
X003480Y024899D02*
X001160Y024899D01*
X001160Y024741D02*
X003480Y024741D01*
X003480Y024582D02*
X001160Y024582D01*
X001160Y024424D02*
X003624Y024424D01*
X016170Y025500D02*
X016170Y023000D01*
X017670Y023750D02*
X017670Y018750D01*
X018170Y018750D02*
X019170Y017750D01*
X019170Y013250D01*
X018170Y018750D02*
X018170Y025500D01*
X017670Y026000D01*
X017670Y026750D01*
X018670Y026750D02*
X018670Y026000D01*
X019170Y025500D01*
X019170Y019250D01*
X018670Y019250D02*
X018670Y023750D01*
X019670Y023750D02*
X019670Y007250D01*
X021170Y007500D02*
X021170Y025500D01*
X020670Y026000D01*
X020670Y026750D01*
X021113Y027118D02*
X021227Y027118D01*
X021170Y026960D02*
X021170Y026960D01*
X021170Y026801D02*
X021170Y026801D01*
X021170Y026643D02*
X021170Y026643D01*
X021155Y026484D02*
X021185Y026484D01*
X021257Y026326D02*
X021083Y026326D01*
X020990Y026167D02*
X021350Y026167D01*
X021350Y026009D02*
X021114Y026009D01*
X021273Y025850D02*
X021386Y025850D01*
X021431Y025692D02*
X021526Y025692D01*
X021490Y025533D02*
X021684Y025533D01*
X021843Y025375D02*
X021490Y025375D01*
X021490Y025216D02*
X021850Y025216D01*
X021850Y025058D02*
X021490Y025058D01*
X021490Y024899D02*
X021850Y024899D01*
X021850Y024741D02*
X021490Y024741D01*
X021490Y024582D02*
X021850Y024582D01*
X021850Y024424D02*
X021490Y024424D01*
X022490Y022839D02*
X022551Y022839D01*
X024000Y018559D02*
X025180Y018559D01*
X025180Y018401D02*
X024098Y018401D01*
X021359Y027277D02*
X020981Y027277D01*
X016670Y026750D02*
X016670Y026000D01*
X016170Y025500D01*
D19*
X013180Y022490D03*
X012670Y023000D03*
X011670Y025500D03*
X008170Y026000D03*
X007680Y025740D03*
X006170Y024500D03*
X005920Y022500D03*
X010430Y020740D03*
X010420Y017750D03*
X010920Y017500D03*
X012920Y015750D03*
X013420Y016250D03*
X013920Y015250D03*
X014420Y014250D03*
X012420Y014750D03*
X010920Y014250D03*
X011920Y012250D03*
X011420Y010250D03*
X014920Y008750D03*
X015420Y009250D03*
X014920Y008250D03*
X015920Y008250D03*
X015920Y007750D03*
X016170Y005250D03*
X016920Y005250D03*
X017170Y004750D03*
X019670Y005750D03*
X019920Y005000D03*
X020670Y005500D03*
X021670Y005000D03*
X020170Y006750D03*
X019670Y007250D03*
X020670Y008250D03*
X020170Y008750D03*
X021170Y007500D03*
X021670Y008750D03*
X022170Y009750D03*
X019170Y011250D03*
X018670Y012250D03*
X018170Y013250D03*
X019170Y013250D03*
X017670Y018750D03*
X018670Y019250D03*
X019170Y019250D03*
X021670Y020250D03*
X023680Y018240D03*
X020670Y027750D03*
X008670Y005000D03*
X008170Y005000D03*
X007670Y005000D03*
X007170Y005000D03*
D20*
X007180Y031490D03*
X010180Y031490D03*
D21*
X008180Y025240D02*
X007930Y025240D01*
M02*
