%
M48
M72
T01C0.0236
T02C0.0276
T03C0.0320
T04C0.0400
T05C0.0591
T06C0.0600
T07C0.1969
%
T01
X7420Y5000
X7920Y5000
X8420Y5000
X8920Y5000
X11670Y10250
X12170Y12250
X11170Y14250
X12670Y14750
X13170Y15750
X13670Y16250
X14170Y15250
X14670Y14250
X11170Y17500
X10670Y17750
X10680Y20740
X12920Y23000
X13430Y22490
X11920Y25500
X9920Y25500
X8420Y25500
X8420Y26000
X6420Y24500
X6170Y22500
X15670Y9250
X15170Y8750
X15170Y8250
X16170Y8250
X16170Y7750
X16420Y5250
X17170Y5250
X17420Y4750
X19920Y5750
X20170Y5000
X20920Y5500
X21920Y5000
X20420Y6750
X19920Y7250
X20920Y8250
X20420Y8750
X21420Y7500
X21920Y8750
X22420Y9750
X19420Y11250
X18920Y12250
X18420Y13250
X19420Y13250
X17920Y18750
X18920Y19250
X19420Y19250
X21920Y20250
X23930Y18240
X20920Y27750
T02
X17670Y30250
X17670Y30750
X17670Y31250
X17670Y31750
X17670Y32250
X17670Y32750
X17670Y33250
X18170Y30250
X18670Y30250
X19170Y30250
X19670Y30250
X20170Y30250
X20670Y30250
X21170Y30250
X21670Y30250
X22170Y30250
X22670Y30250
X23170Y30250
X23670Y30250
X24170Y30250
X24670Y30250
T03
X3670Y6250
X3670Y7250
X3670Y8250
X3670Y9250
X3670Y10250
X3670Y11250
X3670Y12250
X3670Y13250
X3670Y14250
X3670Y15250
X3670Y16250
X3670Y17250
X3670Y18250
X3670Y19250
X3670Y20250
X3670Y21250
X5920Y23750
X6920Y23750
X7920Y23750
X8920Y23750
X9920Y23750
X10920Y23750
X11920Y23750
X13920Y23750
X14920Y23750
X15920Y23750
X16920Y23750
X17920Y23750
X18920Y23750
X19920Y23750
X20920Y23750
X21920Y23750
X22920Y23750
X23170Y22500
X24170Y22500
X23170Y21250
X23170Y20250
X23170Y19250
X23170Y18250
X23170Y17250
X23170Y16250
X23170Y15250
X23170Y14250
X23170Y13250
X23170Y12250
X23170Y11250
X23170Y10250
X23170Y9250
X23170Y8250
X23170Y7250
X23170Y6250
X17170Y6250
X17170Y7250
X17170Y8250
X17170Y9250
X17170Y10250
X17170Y11250
X17170Y12250
X17170Y13250
X17170Y14250
X17170Y15250
X17170Y16250
X17170Y17250
X17170Y18250
X17170Y19250
X17170Y20250
X17170Y21250
X9670Y17250
X9670Y16250
X9670Y15250
X9670Y14250
X9670Y13250
X9670Y12250
X9670Y11250
X9670Y10250
X9670Y9250
X9670Y8250
X9670Y7250
X9670Y6250
X9670Y18250
X9670Y19250
X9670Y20250
X9670Y21250
X9920Y26750
X10920Y26750
X11920Y26750
X13920Y26750
X14920Y26750
X15920Y26750
X16920Y26750
X17920Y26750
X18920Y26750
X19920Y26750
X20920Y26750
X21920Y26750
X22920Y26750
X8920Y26750
X7920Y26750
X6920Y26750
X5920Y26750
X4170Y25750
X4170Y24750
T04
X9820Y29960
X8040Y29960
X8040Y32520
X9820Y32520
T05
X2920Y4500
X4920Y5250
X4920Y22000
X23920Y4500
T06
X10430Y31490
X7430Y31490
T07
X13420Y17626
M30
