G75*
G70*
%OFA0B0*%
%FSLAX24Y24*%
%IPPOS*%
%LPD*%
%AMOC8*
5,1,8,0,0,1.08239X$1,22.5*
%
%ADD10C,0.0000*%
%ADD11C,0.0130*%
%ADD12C,0.0300*%
%ADD13C,0.0100*%
%ADD14R,0.0030X0.0510*%
%ADD15R,0.0030X0.0180*%
%ADD16R,0.0030X0.0570*%
%ADD17R,0.0030X0.0480*%
%ADD18R,0.0030X0.0450*%
%ADD19R,0.0030X0.0210*%
%ADD20R,0.0030X0.0540*%
%ADD21R,0.0030X0.0600*%
%ADD22R,0.0030X0.0240*%
%ADD23R,0.0030X0.0030*%
%ADD24R,0.0030X0.0420*%
%ADD25R,0.0030X0.0390*%
%ADD26R,0.0030X0.0330*%
%ADD27R,0.0030X0.0150*%
%ADD28R,0.0020X0.0240*%
%ADD29R,0.0020X0.1400*%
%ADD30R,0.0020X0.0260*%
%ADD31C,0.0050*%
%ADD32C,0.0060*%
%ADD33C,0.0120*%
%ADD34C,0.0040*%
%ADD35C,0.0020*%
D10*
X002232Y000500D02*
X001878Y001012D01*
X001878Y010146D01*
X000920Y010146D01*
X000920Y027862D01*
X001753Y027862D01*
X001753Y033571D01*
X024587Y033571D01*
X024587Y027862D01*
X025420Y027862D01*
X025420Y010146D01*
X024462Y010146D01*
X024462Y001012D01*
X024108Y000500D01*
X002232Y000500D01*
X012186Y017626D02*
X012188Y017688D01*
X012194Y017751D01*
X012204Y017812D01*
X012218Y017873D01*
X012235Y017933D01*
X012256Y017992D01*
X012282Y018049D01*
X012310Y018104D01*
X012342Y018158D01*
X012378Y018209D01*
X012416Y018259D01*
X012458Y018305D01*
X012502Y018349D01*
X012550Y018390D01*
X012599Y018428D01*
X012651Y018462D01*
X012705Y018493D01*
X012761Y018521D01*
X012819Y018545D01*
X012878Y018566D01*
X012938Y018582D01*
X012999Y018595D01*
X013061Y018604D01*
X013123Y018609D01*
X013186Y018610D01*
X013248Y018607D01*
X013310Y018600D01*
X013372Y018589D01*
X013432Y018574D01*
X013492Y018556D01*
X013550Y018534D01*
X013607Y018508D01*
X013662Y018478D01*
X013715Y018445D01*
X013766Y018409D01*
X013814Y018370D01*
X013860Y018327D01*
X013903Y018282D01*
X013943Y018234D01*
X013980Y018184D01*
X014014Y018131D01*
X014045Y018077D01*
X014071Y018021D01*
X014095Y017963D01*
X014114Y017903D01*
X014130Y017843D01*
X014142Y017781D01*
X014150Y017720D01*
X014154Y017657D01*
X014154Y017595D01*
X014150Y017532D01*
X014142Y017471D01*
X014130Y017409D01*
X014114Y017349D01*
X014095Y017289D01*
X014071Y017231D01*
X014045Y017175D01*
X014014Y017121D01*
X013980Y017068D01*
X013943Y017018D01*
X013903Y016970D01*
X013860Y016925D01*
X013814Y016882D01*
X013766Y016843D01*
X013715Y016807D01*
X013662Y016774D01*
X013607Y016744D01*
X013550Y016718D01*
X013492Y016696D01*
X013432Y016678D01*
X013372Y016663D01*
X013310Y016652D01*
X013248Y016645D01*
X013186Y016642D01*
X013123Y016643D01*
X013061Y016648D01*
X012999Y016657D01*
X012938Y016670D01*
X012878Y016686D01*
X012819Y016707D01*
X012761Y016731D01*
X012705Y016759D01*
X012651Y016790D01*
X012599Y016824D01*
X012550Y016862D01*
X012502Y016903D01*
X012458Y016947D01*
X012416Y016993D01*
X012378Y017043D01*
X012342Y017094D01*
X012310Y017148D01*
X012282Y017203D01*
X012256Y017260D01*
X012235Y017319D01*
X012218Y017379D01*
X012204Y017440D01*
X012194Y017501D01*
X012188Y017564D01*
X012186Y017626D01*
X020670Y029000D02*
X020673Y029003D01*
X020677Y029000D01*
X020677Y029010D01*
X020679Y029010D02*
X020683Y029010D01*
X020681Y029010D02*
X020681Y029000D01*
X020679Y029000D02*
X020683Y029000D01*
X020685Y029000D02*
X020685Y029010D01*
X020690Y029010D01*
X020692Y029008D01*
X020692Y029005D01*
X020690Y029003D01*
X020685Y029003D01*
X020689Y029003D02*
X020692Y029000D01*
X020695Y029000D02*
X020701Y029000D01*
X020704Y029000D02*
X020704Y029010D01*
X020709Y029010D01*
X020710Y029008D01*
X020710Y029005D01*
X020709Y029003D01*
X020704Y029003D01*
X020698Y029005D02*
X020695Y029005D01*
X020695Y029010D02*
X020695Y029000D01*
X020695Y029010D02*
X020701Y029010D01*
X020713Y029007D02*
X020716Y029010D01*
X020720Y029007D01*
X020720Y029000D01*
X020722Y029000D02*
X020727Y029000D01*
X020729Y029002D01*
X020729Y029008D01*
X020727Y029010D01*
X020722Y029010D01*
X020722Y029000D01*
X020720Y029005D02*
X020713Y029005D01*
X020713Y029007D02*
X020713Y029000D01*
X020731Y029002D02*
X020733Y029000D01*
X020736Y029000D01*
X020738Y029002D01*
X020738Y029003D01*
X020736Y029005D01*
X020733Y029005D01*
X020731Y029007D01*
X020731Y029008D01*
X020733Y029010D01*
X020736Y029010D01*
X020738Y029008D01*
X020741Y029010D02*
X020744Y029007D01*
X020747Y029010D01*
X020747Y029000D01*
X020750Y029000D02*
X020755Y029000D01*
X020756Y029002D01*
X020756Y029008D01*
X020755Y029010D01*
X020750Y029010D01*
X020750Y029000D01*
X020759Y029000D02*
X020766Y029007D01*
X020766Y029008D01*
X020764Y029010D01*
X020761Y029010D01*
X020759Y029008D01*
X020759Y029000D02*
X020766Y029000D01*
X020770Y029000D02*
X020772Y029000D01*
X020772Y029002D01*
X020770Y029002D01*
X020770Y029000D01*
X020772Y029000D02*
X020768Y028997D01*
X020774Y029002D02*
X020776Y029000D01*
X020779Y029000D01*
X020781Y029002D01*
X020781Y029005D01*
X020779Y029007D01*
X020778Y029007D01*
X020774Y029005D01*
X020774Y029010D01*
X020781Y029010D01*
X020784Y029005D02*
X020790Y029005D01*
X020793Y029005D02*
X020799Y029005D01*
X020802Y029005D02*
X020805Y029007D01*
X020807Y029007D01*
X020809Y029005D01*
X020809Y029002D01*
X020807Y029000D01*
X020804Y029000D01*
X020802Y029002D01*
X020802Y029005D02*
X020802Y029010D01*
X020809Y029010D01*
X020817Y029008D02*
X020819Y029010D01*
X020822Y029010D01*
X020824Y029008D01*
X020817Y029002D01*
X020819Y029000D01*
X020822Y029000D01*
X020824Y029002D01*
X020824Y029008D01*
X020827Y029007D02*
X020827Y029008D01*
X020828Y029010D01*
X020832Y029010D01*
X020833Y029008D01*
X020833Y029007D01*
X020832Y029005D01*
X020828Y029005D01*
X020827Y029007D01*
X020828Y029005D02*
X020827Y029003D01*
X020827Y029002D01*
X020828Y029000D01*
X020832Y029000D01*
X020833Y029002D01*
X020833Y029003D01*
X020832Y029005D01*
X020817Y029002D02*
X020817Y029008D01*
X020815Y029002D02*
X020813Y029002D01*
X020813Y029000D01*
X020815Y029000D01*
X020815Y029002D01*
X020815Y029000D02*
X020811Y028997D01*
X020789Y029000D02*
X020789Y029010D01*
X020784Y029005D01*
X020741Y029000D02*
X020741Y029010D01*
X020670Y029010D02*
X020670Y029000D01*
X020282Y030250D02*
X020284Y030273D01*
X020290Y030296D01*
X020300Y030317D01*
X020313Y030337D01*
X020329Y030354D01*
X020348Y030368D01*
X020369Y030378D01*
X020391Y030385D01*
X020414Y030388D01*
X020438Y030387D01*
X020460Y030382D01*
X020482Y030373D01*
X020502Y030361D01*
X020520Y030345D01*
X020534Y030327D01*
X020546Y030307D01*
X020554Y030285D01*
X020558Y030262D01*
X020558Y030238D01*
X020554Y030215D01*
X020546Y030193D01*
X020534Y030173D01*
X020520Y030155D01*
X020502Y030139D01*
X020482Y030127D01*
X020460Y030118D01*
X020438Y030113D01*
X020414Y030112D01*
X020391Y030115D01*
X020369Y030122D01*
X020348Y030132D01*
X020329Y030146D01*
X020313Y030163D01*
X020300Y030183D01*
X020290Y030204D01*
X020284Y030227D01*
X020282Y030250D01*
X019782Y030250D02*
X019784Y030273D01*
X019790Y030296D01*
X019800Y030317D01*
X019813Y030337D01*
X019829Y030354D01*
X019848Y030368D01*
X019869Y030378D01*
X019891Y030385D01*
X019914Y030388D01*
X019938Y030387D01*
X019960Y030382D01*
X019982Y030373D01*
X020002Y030361D01*
X020020Y030345D01*
X020034Y030327D01*
X020046Y030307D01*
X020054Y030285D01*
X020058Y030262D01*
X020058Y030238D01*
X020054Y030215D01*
X020046Y030193D01*
X020034Y030173D01*
X020020Y030155D01*
X020002Y030139D01*
X019982Y030127D01*
X019960Y030118D01*
X019938Y030113D01*
X019914Y030112D01*
X019891Y030115D01*
X019869Y030122D01*
X019848Y030132D01*
X019829Y030146D01*
X019813Y030163D01*
X019800Y030183D01*
X019790Y030204D01*
X019784Y030227D01*
X019782Y030250D01*
X019282Y030250D02*
X019284Y030273D01*
X019290Y030296D01*
X019300Y030317D01*
X019313Y030337D01*
X019329Y030354D01*
X019348Y030368D01*
X019369Y030378D01*
X019391Y030385D01*
X019414Y030388D01*
X019438Y030387D01*
X019460Y030382D01*
X019482Y030373D01*
X019502Y030361D01*
X019520Y030345D01*
X019534Y030327D01*
X019546Y030307D01*
X019554Y030285D01*
X019558Y030262D01*
X019558Y030238D01*
X019554Y030215D01*
X019546Y030193D01*
X019534Y030173D01*
X019520Y030155D01*
X019502Y030139D01*
X019482Y030127D01*
X019460Y030118D01*
X019438Y030113D01*
X019414Y030112D01*
X019391Y030115D01*
X019369Y030122D01*
X019348Y030132D01*
X019329Y030146D01*
X019313Y030163D01*
X019300Y030183D01*
X019290Y030204D01*
X019284Y030227D01*
X019282Y030250D01*
X018782Y030250D02*
X018784Y030273D01*
X018790Y030296D01*
X018800Y030317D01*
X018813Y030337D01*
X018829Y030354D01*
X018848Y030368D01*
X018869Y030378D01*
X018891Y030385D01*
X018914Y030388D01*
X018938Y030387D01*
X018960Y030382D01*
X018982Y030373D01*
X019002Y030361D01*
X019020Y030345D01*
X019034Y030327D01*
X019046Y030307D01*
X019054Y030285D01*
X019058Y030262D01*
X019058Y030238D01*
X019054Y030215D01*
X019046Y030193D01*
X019034Y030173D01*
X019020Y030155D01*
X019002Y030139D01*
X018982Y030127D01*
X018960Y030118D01*
X018938Y030113D01*
X018914Y030112D01*
X018891Y030115D01*
X018869Y030122D01*
X018848Y030132D01*
X018829Y030146D01*
X018813Y030163D01*
X018800Y030183D01*
X018790Y030204D01*
X018784Y030227D01*
X018782Y030250D01*
X018282Y030250D02*
X018284Y030273D01*
X018290Y030296D01*
X018300Y030317D01*
X018313Y030337D01*
X018329Y030354D01*
X018348Y030368D01*
X018369Y030378D01*
X018391Y030385D01*
X018414Y030388D01*
X018438Y030387D01*
X018460Y030382D01*
X018482Y030373D01*
X018502Y030361D01*
X018520Y030345D01*
X018534Y030327D01*
X018546Y030307D01*
X018554Y030285D01*
X018558Y030262D01*
X018558Y030238D01*
X018554Y030215D01*
X018546Y030193D01*
X018534Y030173D01*
X018520Y030155D01*
X018502Y030139D01*
X018482Y030127D01*
X018460Y030118D01*
X018438Y030113D01*
X018414Y030112D01*
X018391Y030115D01*
X018369Y030122D01*
X018348Y030132D01*
X018329Y030146D01*
X018313Y030163D01*
X018300Y030183D01*
X018290Y030204D01*
X018284Y030227D01*
X018282Y030250D01*
X017782Y030250D02*
X017784Y030273D01*
X017790Y030296D01*
X017800Y030317D01*
X017813Y030337D01*
X017829Y030354D01*
X017848Y030368D01*
X017869Y030378D01*
X017891Y030385D01*
X017914Y030388D01*
X017938Y030387D01*
X017960Y030382D01*
X017982Y030373D01*
X018002Y030361D01*
X018020Y030345D01*
X018034Y030327D01*
X018046Y030307D01*
X018054Y030285D01*
X018058Y030262D01*
X018058Y030238D01*
X018054Y030215D01*
X018046Y030193D01*
X018034Y030173D01*
X018020Y030155D01*
X018002Y030139D01*
X017982Y030127D01*
X017960Y030118D01*
X017938Y030113D01*
X017914Y030112D01*
X017891Y030115D01*
X017869Y030122D01*
X017848Y030132D01*
X017829Y030146D01*
X017813Y030163D01*
X017800Y030183D01*
X017790Y030204D01*
X017784Y030227D01*
X017782Y030250D01*
X017282Y030250D02*
X017284Y030273D01*
X017290Y030296D01*
X017300Y030317D01*
X017313Y030337D01*
X017329Y030354D01*
X017348Y030368D01*
X017369Y030378D01*
X017391Y030385D01*
X017414Y030388D01*
X017438Y030387D01*
X017460Y030382D01*
X017482Y030373D01*
X017502Y030361D01*
X017520Y030345D01*
X017534Y030327D01*
X017546Y030307D01*
X017554Y030285D01*
X017558Y030262D01*
X017558Y030238D01*
X017554Y030215D01*
X017546Y030193D01*
X017534Y030173D01*
X017520Y030155D01*
X017502Y030139D01*
X017482Y030127D01*
X017460Y030118D01*
X017438Y030113D01*
X017414Y030112D01*
X017391Y030115D01*
X017369Y030122D01*
X017348Y030132D01*
X017329Y030146D01*
X017313Y030163D01*
X017300Y030183D01*
X017290Y030204D01*
X017284Y030227D01*
X017282Y030250D01*
X017282Y030750D02*
X017284Y030773D01*
X017290Y030796D01*
X017300Y030817D01*
X017313Y030837D01*
X017329Y030854D01*
X017348Y030868D01*
X017369Y030878D01*
X017391Y030885D01*
X017414Y030888D01*
X017438Y030887D01*
X017460Y030882D01*
X017482Y030873D01*
X017502Y030861D01*
X017520Y030845D01*
X017534Y030827D01*
X017546Y030807D01*
X017554Y030785D01*
X017558Y030762D01*
X017558Y030738D01*
X017554Y030715D01*
X017546Y030693D01*
X017534Y030673D01*
X017520Y030655D01*
X017502Y030639D01*
X017482Y030627D01*
X017460Y030618D01*
X017438Y030613D01*
X017414Y030612D01*
X017391Y030615D01*
X017369Y030622D01*
X017348Y030632D01*
X017329Y030646D01*
X017313Y030663D01*
X017300Y030683D01*
X017290Y030704D01*
X017284Y030727D01*
X017282Y030750D01*
X017282Y031250D02*
X017284Y031273D01*
X017290Y031296D01*
X017300Y031317D01*
X017313Y031337D01*
X017329Y031354D01*
X017348Y031368D01*
X017369Y031378D01*
X017391Y031385D01*
X017414Y031388D01*
X017438Y031387D01*
X017460Y031382D01*
X017482Y031373D01*
X017502Y031361D01*
X017520Y031345D01*
X017534Y031327D01*
X017546Y031307D01*
X017554Y031285D01*
X017558Y031262D01*
X017558Y031238D01*
X017554Y031215D01*
X017546Y031193D01*
X017534Y031173D01*
X017520Y031155D01*
X017502Y031139D01*
X017482Y031127D01*
X017460Y031118D01*
X017438Y031113D01*
X017414Y031112D01*
X017391Y031115D01*
X017369Y031122D01*
X017348Y031132D01*
X017329Y031146D01*
X017313Y031163D01*
X017300Y031183D01*
X017290Y031204D01*
X017284Y031227D01*
X017282Y031250D01*
X017282Y031750D02*
X017284Y031773D01*
X017290Y031796D01*
X017300Y031817D01*
X017313Y031837D01*
X017329Y031854D01*
X017348Y031868D01*
X017369Y031878D01*
X017391Y031885D01*
X017414Y031888D01*
X017438Y031887D01*
X017460Y031882D01*
X017482Y031873D01*
X017502Y031861D01*
X017520Y031845D01*
X017534Y031827D01*
X017546Y031807D01*
X017554Y031785D01*
X017558Y031762D01*
X017558Y031738D01*
X017554Y031715D01*
X017546Y031693D01*
X017534Y031673D01*
X017520Y031655D01*
X017502Y031639D01*
X017482Y031627D01*
X017460Y031618D01*
X017438Y031613D01*
X017414Y031612D01*
X017391Y031615D01*
X017369Y031622D01*
X017348Y031632D01*
X017329Y031646D01*
X017313Y031663D01*
X017300Y031683D01*
X017290Y031704D01*
X017284Y031727D01*
X017282Y031750D01*
X017282Y032250D02*
X017284Y032273D01*
X017290Y032296D01*
X017300Y032317D01*
X017313Y032337D01*
X017329Y032354D01*
X017348Y032368D01*
X017369Y032378D01*
X017391Y032385D01*
X017414Y032388D01*
X017438Y032387D01*
X017460Y032382D01*
X017482Y032373D01*
X017502Y032361D01*
X017520Y032345D01*
X017534Y032327D01*
X017546Y032307D01*
X017554Y032285D01*
X017558Y032262D01*
X017558Y032238D01*
X017554Y032215D01*
X017546Y032193D01*
X017534Y032173D01*
X017520Y032155D01*
X017502Y032139D01*
X017482Y032127D01*
X017460Y032118D01*
X017438Y032113D01*
X017414Y032112D01*
X017391Y032115D01*
X017369Y032122D01*
X017348Y032132D01*
X017329Y032146D01*
X017313Y032163D01*
X017300Y032183D01*
X017290Y032204D01*
X017284Y032227D01*
X017282Y032250D01*
X017282Y032750D02*
X017284Y032773D01*
X017290Y032796D01*
X017300Y032817D01*
X017313Y032837D01*
X017329Y032854D01*
X017348Y032868D01*
X017369Y032878D01*
X017391Y032885D01*
X017414Y032888D01*
X017438Y032887D01*
X017460Y032882D01*
X017482Y032873D01*
X017502Y032861D01*
X017520Y032845D01*
X017534Y032827D01*
X017546Y032807D01*
X017554Y032785D01*
X017558Y032762D01*
X017558Y032738D01*
X017554Y032715D01*
X017546Y032693D01*
X017534Y032673D01*
X017520Y032655D01*
X017502Y032639D01*
X017482Y032627D01*
X017460Y032618D01*
X017438Y032613D01*
X017414Y032612D01*
X017391Y032615D01*
X017369Y032622D01*
X017348Y032632D01*
X017329Y032646D01*
X017313Y032663D01*
X017300Y032683D01*
X017290Y032704D01*
X017284Y032727D01*
X017282Y032750D01*
X017282Y033250D02*
X017284Y033273D01*
X017290Y033296D01*
X017300Y033317D01*
X017313Y033337D01*
X017329Y033354D01*
X017348Y033368D01*
X017369Y033378D01*
X017391Y033385D01*
X017414Y033388D01*
X017438Y033387D01*
X017460Y033382D01*
X017482Y033373D01*
X017502Y033361D01*
X017520Y033345D01*
X017534Y033327D01*
X017546Y033307D01*
X017554Y033285D01*
X017558Y033262D01*
X017558Y033238D01*
X017554Y033215D01*
X017546Y033193D01*
X017534Y033173D01*
X017520Y033155D01*
X017502Y033139D01*
X017482Y033127D01*
X017460Y033118D01*
X017438Y033113D01*
X017414Y033112D01*
X017391Y033115D01*
X017369Y033122D01*
X017348Y033132D01*
X017329Y033146D01*
X017313Y033163D01*
X017300Y033183D01*
X017290Y033204D01*
X017284Y033227D01*
X017282Y033250D01*
X020782Y030250D02*
X020784Y030273D01*
X020790Y030296D01*
X020800Y030317D01*
X020813Y030337D01*
X020829Y030354D01*
X020848Y030368D01*
X020869Y030378D01*
X020891Y030385D01*
X020914Y030388D01*
X020938Y030387D01*
X020960Y030382D01*
X020982Y030373D01*
X021002Y030361D01*
X021020Y030345D01*
X021034Y030327D01*
X021046Y030307D01*
X021054Y030285D01*
X021058Y030262D01*
X021058Y030238D01*
X021054Y030215D01*
X021046Y030193D01*
X021034Y030173D01*
X021020Y030155D01*
X021002Y030139D01*
X020982Y030127D01*
X020960Y030118D01*
X020938Y030113D01*
X020914Y030112D01*
X020891Y030115D01*
X020869Y030122D01*
X020848Y030132D01*
X020829Y030146D01*
X020813Y030163D01*
X020800Y030183D01*
X020790Y030204D01*
X020784Y030227D01*
X020782Y030250D01*
X021282Y030250D02*
X021284Y030273D01*
X021290Y030296D01*
X021300Y030317D01*
X021313Y030337D01*
X021329Y030354D01*
X021348Y030368D01*
X021369Y030378D01*
X021391Y030385D01*
X021414Y030388D01*
X021438Y030387D01*
X021460Y030382D01*
X021482Y030373D01*
X021502Y030361D01*
X021520Y030345D01*
X021534Y030327D01*
X021546Y030307D01*
X021554Y030285D01*
X021558Y030262D01*
X021558Y030238D01*
X021554Y030215D01*
X021546Y030193D01*
X021534Y030173D01*
X021520Y030155D01*
X021502Y030139D01*
X021482Y030127D01*
X021460Y030118D01*
X021438Y030113D01*
X021414Y030112D01*
X021391Y030115D01*
X021369Y030122D01*
X021348Y030132D01*
X021329Y030146D01*
X021313Y030163D01*
X021300Y030183D01*
X021290Y030204D01*
X021284Y030227D01*
X021282Y030250D01*
X021782Y030250D02*
X021784Y030273D01*
X021790Y030296D01*
X021800Y030317D01*
X021813Y030337D01*
X021829Y030354D01*
X021848Y030368D01*
X021869Y030378D01*
X021891Y030385D01*
X021914Y030388D01*
X021938Y030387D01*
X021960Y030382D01*
X021982Y030373D01*
X022002Y030361D01*
X022020Y030345D01*
X022034Y030327D01*
X022046Y030307D01*
X022054Y030285D01*
X022058Y030262D01*
X022058Y030238D01*
X022054Y030215D01*
X022046Y030193D01*
X022034Y030173D01*
X022020Y030155D01*
X022002Y030139D01*
X021982Y030127D01*
X021960Y030118D01*
X021938Y030113D01*
X021914Y030112D01*
X021891Y030115D01*
X021869Y030122D01*
X021848Y030132D01*
X021829Y030146D01*
X021813Y030163D01*
X021800Y030183D01*
X021790Y030204D01*
X021784Y030227D01*
X021782Y030250D01*
X022282Y030250D02*
X022284Y030273D01*
X022290Y030296D01*
X022300Y030317D01*
X022313Y030337D01*
X022329Y030354D01*
X022348Y030368D01*
X022369Y030378D01*
X022391Y030385D01*
X022414Y030388D01*
X022438Y030387D01*
X022460Y030382D01*
X022482Y030373D01*
X022502Y030361D01*
X022520Y030345D01*
X022534Y030327D01*
X022546Y030307D01*
X022554Y030285D01*
X022558Y030262D01*
X022558Y030238D01*
X022554Y030215D01*
X022546Y030193D01*
X022534Y030173D01*
X022520Y030155D01*
X022502Y030139D01*
X022482Y030127D01*
X022460Y030118D01*
X022438Y030113D01*
X022414Y030112D01*
X022391Y030115D01*
X022369Y030122D01*
X022348Y030132D01*
X022329Y030146D01*
X022313Y030163D01*
X022300Y030183D01*
X022290Y030204D01*
X022284Y030227D01*
X022282Y030250D01*
X022782Y030250D02*
X022784Y030273D01*
X022790Y030296D01*
X022800Y030317D01*
X022813Y030337D01*
X022829Y030354D01*
X022848Y030368D01*
X022869Y030378D01*
X022891Y030385D01*
X022914Y030388D01*
X022938Y030387D01*
X022960Y030382D01*
X022982Y030373D01*
X023002Y030361D01*
X023020Y030345D01*
X023034Y030327D01*
X023046Y030307D01*
X023054Y030285D01*
X023058Y030262D01*
X023058Y030238D01*
X023054Y030215D01*
X023046Y030193D01*
X023034Y030173D01*
X023020Y030155D01*
X023002Y030139D01*
X022982Y030127D01*
X022960Y030118D01*
X022938Y030113D01*
X022914Y030112D01*
X022891Y030115D01*
X022869Y030122D01*
X022848Y030132D01*
X022829Y030146D01*
X022813Y030163D01*
X022800Y030183D01*
X022790Y030204D01*
X022784Y030227D01*
X022782Y030250D01*
X023282Y030250D02*
X023284Y030273D01*
X023290Y030296D01*
X023300Y030317D01*
X023313Y030337D01*
X023329Y030354D01*
X023348Y030368D01*
X023369Y030378D01*
X023391Y030385D01*
X023414Y030388D01*
X023438Y030387D01*
X023460Y030382D01*
X023482Y030373D01*
X023502Y030361D01*
X023520Y030345D01*
X023534Y030327D01*
X023546Y030307D01*
X023554Y030285D01*
X023558Y030262D01*
X023558Y030238D01*
X023554Y030215D01*
X023546Y030193D01*
X023534Y030173D01*
X023520Y030155D01*
X023502Y030139D01*
X023482Y030127D01*
X023460Y030118D01*
X023438Y030113D01*
X023414Y030112D01*
X023391Y030115D01*
X023369Y030122D01*
X023348Y030132D01*
X023329Y030146D01*
X023313Y030163D01*
X023300Y030183D01*
X023290Y030204D01*
X023284Y030227D01*
X023282Y030250D01*
X023782Y030250D02*
X023784Y030273D01*
X023790Y030296D01*
X023800Y030317D01*
X023813Y030337D01*
X023829Y030354D01*
X023848Y030368D01*
X023869Y030378D01*
X023891Y030385D01*
X023914Y030388D01*
X023938Y030387D01*
X023960Y030382D01*
X023982Y030373D01*
X024002Y030361D01*
X024020Y030345D01*
X024034Y030327D01*
X024046Y030307D01*
X024054Y030285D01*
X024058Y030262D01*
X024058Y030238D01*
X024054Y030215D01*
X024046Y030193D01*
X024034Y030173D01*
X024020Y030155D01*
X024002Y030139D01*
X023982Y030127D01*
X023960Y030118D01*
X023938Y030113D01*
X023914Y030112D01*
X023891Y030115D01*
X023869Y030122D01*
X023848Y030132D01*
X023829Y030146D01*
X023813Y030163D01*
X023800Y030183D01*
X023790Y030204D01*
X023784Y030227D01*
X023782Y030250D01*
X024282Y030250D02*
X024284Y030273D01*
X024290Y030296D01*
X024300Y030317D01*
X024313Y030337D01*
X024329Y030354D01*
X024348Y030368D01*
X024369Y030378D01*
X024391Y030385D01*
X024414Y030388D01*
X024438Y030387D01*
X024460Y030382D01*
X024482Y030373D01*
X024502Y030361D01*
X024520Y030345D01*
X024534Y030327D01*
X024546Y030307D01*
X024554Y030285D01*
X024558Y030262D01*
X024558Y030238D01*
X024554Y030215D01*
X024546Y030193D01*
X024534Y030173D01*
X024520Y030155D01*
X024502Y030139D01*
X024482Y030127D01*
X024460Y030118D01*
X024438Y030113D01*
X024414Y030112D01*
X024391Y030115D01*
X024369Y030122D01*
X024348Y030132D01*
X024329Y030146D01*
X024313Y030163D01*
X024300Y030183D01*
X024290Y030204D01*
X024284Y030227D01*
X024282Y030250D01*
D11*
X018664Y020812D02*
X018786Y020690D01*
X018786Y020447D01*
X018664Y020325D01*
X018542Y020325D01*
X018055Y020812D01*
X018055Y020325D01*
X018055Y020020D02*
X018177Y020020D01*
X018664Y019533D01*
X018786Y019533D01*
X018786Y020020D01*
X018664Y019228D02*
X018177Y019228D01*
X018055Y019106D01*
X018055Y018863D01*
X018177Y018741D01*
X018055Y018436D02*
X018786Y017949D01*
X018664Y017644D02*
X018786Y017523D01*
X018786Y017279D01*
X018664Y017157D01*
X018542Y017157D01*
X018055Y017644D01*
X018055Y017157D01*
X018177Y016853D02*
X018055Y016731D01*
X018055Y016487D01*
X018177Y016365D01*
X018664Y016365D01*
X018786Y016487D01*
X018786Y016731D01*
X018664Y016853D01*
X018542Y016853D01*
X018420Y016731D01*
X018420Y016365D01*
X018420Y016061D02*
X018420Y015817D01*
X018055Y016061D02*
X018786Y016061D01*
X018786Y015574D01*
X018664Y015269D02*
X018786Y015147D01*
X018786Y014903D01*
X018664Y014782D01*
X018177Y015269D01*
X018055Y015147D01*
X018055Y014903D01*
X018177Y014782D01*
X018664Y014782D01*
X018542Y014477D02*
X018786Y014233D01*
X018055Y014233D01*
X018055Y013990D02*
X018055Y014477D01*
X018177Y015269D02*
X018664Y015269D01*
X018664Y013685D02*
X018177Y013685D01*
X018664Y013198D01*
X018177Y013198D01*
X018055Y013320D01*
X018055Y013563D01*
X018177Y013685D01*
X018664Y013685D02*
X018786Y013563D01*
X018786Y013320D01*
X018664Y013198D01*
X018055Y012893D02*
X018786Y012406D01*
X018664Y012101D02*
X018786Y011979D01*
X018786Y011736D01*
X018664Y011614D01*
X018177Y012101D01*
X018055Y011979D01*
X018055Y011736D01*
X018177Y011614D01*
X018664Y011614D01*
X018664Y011309D02*
X018786Y011188D01*
X018786Y010944D01*
X018664Y010822D01*
X018542Y010822D01*
X018055Y011309D01*
X018055Y010822D01*
X018177Y010518D02*
X018055Y010396D01*
X018055Y010152D01*
X018177Y010030D01*
X018664Y010030D01*
X018177Y010518D01*
X018664Y010518D01*
X018786Y010396D01*
X018786Y010152D01*
X018664Y010030D01*
X018055Y009726D02*
X018786Y009239D01*
X018664Y008934D02*
X018786Y008812D01*
X018786Y008568D01*
X018664Y008447D01*
X018177Y008934D01*
X018055Y008812D01*
X018055Y008568D01*
X018177Y008447D01*
X018664Y008447D01*
X018420Y008142D02*
X018420Y007655D01*
X018055Y007777D02*
X018786Y007777D01*
X018420Y008142D01*
X018177Y008934D02*
X018664Y008934D01*
X018664Y007350D02*
X018177Y007350D01*
X018664Y006863D01*
X018177Y006863D01*
X018055Y006985D01*
X018055Y007228D01*
X018177Y007350D01*
X018664Y007350D02*
X018786Y007228D01*
X018786Y006985D01*
X018664Y006863D01*
X018664Y012101D02*
X018177Y012101D01*
X018664Y018741D02*
X018786Y018863D01*
X018786Y019106D01*
X018664Y019228D01*
X005286Y019391D02*
X005286Y019634D01*
X005164Y019756D01*
X005286Y019391D02*
X005164Y019269D01*
X005042Y019269D01*
X004555Y019756D01*
X004555Y019269D01*
X004555Y018964D02*
X004677Y018964D01*
X005164Y018477D01*
X005286Y018477D01*
X005286Y018964D01*
X005164Y018172D02*
X004677Y018172D01*
X004555Y018051D01*
X004555Y017807D01*
X004677Y017685D01*
X004555Y017380D02*
X005286Y016893D01*
X005164Y016589D02*
X005286Y016467D01*
X005286Y016223D01*
X005164Y016101D01*
X005042Y016101D01*
X004555Y016589D01*
X004555Y016101D01*
X004677Y015797D02*
X004555Y015675D01*
X004555Y015431D01*
X004677Y015310D01*
X005164Y015310D01*
X005286Y015431D01*
X005286Y015675D01*
X005164Y015797D01*
X005042Y015797D01*
X004920Y015675D01*
X004920Y015310D01*
X004920Y015005D02*
X004920Y014761D01*
X004555Y015005D02*
X005286Y015005D01*
X005286Y014518D01*
X005164Y014213D02*
X005286Y014091D01*
X005286Y013848D01*
X005164Y013726D01*
X004677Y014213D01*
X004555Y014091D01*
X004555Y013848D01*
X004677Y013726D01*
X005164Y013726D01*
X004920Y013421D02*
X004920Y012934D01*
X004555Y013056D02*
X005286Y013056D01*
X004920Y013421D01*
X004677Y012629D02*
X005164Y012142D01*
X004677Y012142D01*
X004555Y012264D01*
X004555Y012507D01*
X004677Y012629D01*
X005164Y012629D01*
X005286Y012507D01*
X005286Y012264D01*
X005164Y012142D01*
X005164Y011045D02*
X004677Y011045D01*
X004555Y010924D01*
X004555Y010680D01*
X004677Y010558D01*
X005164Y010558D01*
X005286Y010680D01*
X005286Y010924D01*
X005164Y011045D01*
X005286Y010254D02*
X004555Y009766D01*
X005286Y009766D01*
X005286Y009462D02*
X004555Y009462D01*
X004555Y008975D01*
X004555Y008426D02*
X004920Y008426D01*
X005164Y008183D01*
X005286Y008183D01*
X005407Y007878D02*
X004920Y007878D01*
X004677Y007878D02*
X004555Y007878D01*
X004920Y008426D02*
X005164Y008670D01*
X005286Y008670D01*
X005286Y010254D02*
X004555Y010254D01*
X004677Y014213D02*
X005164Y014213D01*
X005164Y017685D02*
X005286Y017807D01*
X005286Y018051D01*
X005164Y018172D01*
D12*
X007070Y017744D02*
X007070Y017143D01*
X007270Y016943D01*
X007470Y016943D01*
X007671Y017143D01*
X007671Y017744D01*
X007671Y017143D02*
X007871Y016943D01*
X008071Y016943D01*
X008271Y017143D01*
X008271Y017744D01*
X007070Y017744D01*
X007070Y016362D02*
X007871Y016362D01*
X008271Y015962D01*
X007871Y015562D01*
X007070Y015562D01*
X007070Y014981D02*
X008271Y014981D01*
X007070Y014180D01*
X008271Y014180D01*
X008271Y013600D02*
X007070Y013600D01*
X007470Y013600D02*
X008271Y012799D01*
X007671Y013400D02*
X007070Y012799D01*
X007070Y010838D02*
X007070Y010237D01*
X007270Y010037D01*
X007470Y010037D01*
X007671Y010237D01*
X007671Y010838D01*
X008271Y010838D02*
X008271Y010237D01*
X008071Y010037D01*
X007871Y010037D01*
X007671Y010237D01*
X007070Y010838D02*
X008271Y010838D01*
X007671Y015562D02*
X007671Y016362D01*
X020570Y016362D02*
X021371Y016362D01*
X021771Y015962D01*
X021371Y015562D01*
X020570Y015562D01*
X020570Y014981D02*
X021771Y014981D01*
X020570Y014180D01*
X021771Y014180D01*
X021771Y013600D02*
X020570Y013600D01*
X020970Y013600D02*
X021771Y012799D01*
X021171Y013400D02*
X020570Y012799D01*
X020570Y010838D02*
X021371Y010838D01*
X021771Y010437D01*
X021371Y010037D01*
X020570Y010037D01*
X021171Y010037D02*
X021171Y010838D01*
X021171Y015562D02*
X021171Y016362D01*
X021371Y016943D02*
X021171Y017143D01*
X021171Y017744D01*
X021171Y017143D02*
X020970Y016943D01*
X020770Y016943D01*
X020570Y017143D01*
X020570Y017744D01*
X021771Y017744D01*
X021771Y017143D01*
X021571Y016943D01*
X021371Y016943D01*
D13*
X020020Y024470D02*
X019833Y024470D01*
X019739Y024563D01*
X019926Y024750D02*
X020020Y024750D01*
X020113Y024657D01*
X020113Y024563D01*
X020020Y024470D01*
X020020Y024750D02*
X020113Y024844D01*
X020113Y024937D01*
X020020Y025030D01*
X019833Y025030D01*
X019739Y024937D01*
X019505Y024937D02*
X019132Y024563D01*
X019132Y024470D01*
X018898Y024470D02*
X018524Y024470D01*
X018898Y024844D01*
X018898Y024937D01*
X018804Y025030D01*
X018617Y025030D01*
X018524Y024937D01*
X018290Y024937D02*
X018196Y025030D01*
X018010Y025030D01*
X017916Y024937D01*
X017916Y024844D01*
X018010Y024750D01*
X018196Y024750D01*
X018290Y024657D01*
X018290Y024563D01*
X018196Y024470D01*
X018010Y024470D01*
X017916Y024563D01*
X017682Y024470D02*
X017308Y024470D01*
X017308Y025030D01*
X016981Y025030D02*
X016981Y024470D01*
X017074Y024750D02*
X016701Y024750D01*
X016981Y025030D01*
X016467Y025030D02*
X016467Y024937D01*
X016093Y024563D01*
X016093Y024470D01*
X016093Y025030D02*
X016467Y025030D01*
X019132Y025030D02*
X019505Y025030D01*
X019505Y024937D01*
X014604Y016555D02*
X014323Y016555D01*
X014230Y016462D01*
X014323Y016368D01*
X014230Y016275D01*
X014323Y016182D01*
X014604Y016182D01*
X014604Y015948D02*
X014323Y015948D01*
X014230Y015854D01*
X014323Y015761D01*
X014230Y015667D01*
X014323Y015574D01*
X014604Y015574D01*
X014604Y015340D02*
X014323Y015340D01*
X014230Y015246D01*
X014323Y015153D01*
X014230Y015060D01*
X014323Y014966D01*
X014604Y014966D01*
X014323Y014732D02*
X014323Y014639D01*
X014230Y014639D01*
X014230Y014732D01*
X014323Y014732D01*
X014323Y014428D02*
X014230Y014335D01*
X014230Y014148D01*
X014323Y014055D01*
X014510Y014055D01*
X014604Y014148D01*
X014604Y014335D01*
X014510Y014428D01*
X014323Y014428D01*
X014230Y013821D02*
X014604Y013821D01*
X014604Y013540D01*
X014510Y013447D01*
X014230Y013447D01*
X014323Y013213D02*
X014230Y013119D01*
X014230Y012839D01*
X014323Y012605D02*
X014510Y012605D01*
X014604Y012512D01*
X014604Y012325D01*
X014510Y012231D01*
X014417Y012231D01*
X014417Y012605D01*
X014323Y012605D02*
X014230Y012512D01*
X014230Y012325D01*
X014323Y011997D02*
X014230Y011904D01*
X014230Y011624D01*
X014604Y011624D01*
X014604Y011390D02*
X014604Y011109D01*
X014510Y011016D01*
X014323Y011016D01*
X014230Y011109D01*
X014230Y011390D01*
X014043Y011390D02*
X014604Y011390D01*
X014604Y011997D02*
X014323Y011997D01*
X014604Y012839D02*
X014604Y013119D01*
X014510Y013213D01*
X014323Y013213D01*
X014323Y010782D02*
X014230Y010689D01*
X014230Y010502D01*
X014323Y010408D01*
X014510Y010408D01*
X014604Y010502D01*
X014604Y010689D01*
X014510Y010782D01*
X014323Y010782D01*
X014230Y010174D02*
X014604Y010174D01*
X014604Y009894D01*
X014510Y009801D01*
X014230Y009801D01*
X014323Y009566D02*
X014417Y009473D01*
X014417Y009193D01*
X014510Y009193D02*
X014230Y009193D01*
X014230Y009473D01*
X014323Y009566D01*
X014604Y009473D02*
X014604Y009286D01*
X014510Y009193D01*
X014604Y008959D02*
X014604Y008679D01*
X014510Y008585D01*
X014323Y008585D01*
X014230Y008679D01*
X014230Y008959D01*
X014790Y008959D01*
X014604Y008351D02*
X014323Y008351D01*
X014230Y008258D01*
X014230Y007977D01*
X014137Y007977D02*
X014043Y008071D01*
X014043Y008164D01*
X014137Y007977D02*
X014604Y007977D01*
X014604Y007743D02*
X014604Y007557D01*
X014697Y007650D02*
X014323Y007650D01*
X014230Y007557D01*
X014323Y007338D02*
X014510Y007338D01*
X014604Y007245D01*
X014604Y007058D01*
X014510Y006965D01*
X014417Y006965D01*
X014417Y007338D01*
X014323Y007338D02*
X014230Y007245D01*
X014230Y007058D01*
X014230Y006730D02*
X014230Y006637D01*
X014323Y006637D01*
X014323Y006730D01*
X014230Y006730D01*
X014323Y006427D02*
X014230Y006333D01*
X014230Y006146D01*
X014323Y006053D01*
X014510Y006053D01*
X014604Y006146D01*
X014604Y006333D01*
X014510Y006427D01*
X014323Y006427D01*
X014230Y005819D02*
X014604Y005819D01*
X014604Y005632D02*
X014604Y005539D01*
X014604Y005632D02*
X014417Y005819D01*
X014510Y005312D02*
X014323Y005312D01*
X014230Y005219D01*
X014230Y004939D01*
X014137Y004939D02*
X014604Y004939D01*
X014604Y005219D01*
X014510Y005312D01*
X014137Y004939D02*
X014043Y005032D01*
X014043Y005126D01*
X010950Y005421D02*
X010857Y005514D01*
X010390Y005514D01*
X010670Y005608D02*
X010670Y005421D01*
X010670Y005202D02*
X010483Y005202D01*
X010390Y005109D01*
X010390Y004922D01*
X010483Y004829D01*
X010670Y004829D01*
X010764Y004922D01*
X010764Y005109D01*
X010670Y005202D01*
X010670Y005842D02*
X010390Y005842D01*
X010670Y005842D02*
X010764Y005935D01*
X010764Y006215D01*
X010390Y006215D01*
X010390Y006434D02*
X010390Y006620D01*
X010390Y006527D02*
X010764Y006527D01*
X010764Y006620D01*
X010950Y006527D02*
X011044Y006527D01*
X010483Y006831D02*
X010390Y006831D01*
X010390Y006924D01*
X010483Y006924D01*
X010483Y006831D01*
X010483Y007158D02*
X010390Y007252D01*
X010390Y007532D01*
X010203Y007532D02*
X010764Y007532D01*
X010764Y007252D01*
X010670Y007158D01*
X010483Y007158D01*
X010390Y007750D02*
X010390Y007937D01*
X010390Y007844D02*
X010764Y007844D01*
X010764Y007937D01*
X010950Y007844D02*
X011044Y007844D01*
X010670Y008171D02*
X010390Y008171D01*
X010670Y008171D02*
X010764Y008265D01*
X010764Y008451D01*
X010670Y008545D01*
X010764Y008779D02*
X010764Y009059D01*
X010670Y009153D01*
X010483Y009153D01*
X010390Y009059D01*
X010390Y008779D01*
X010390Y008545D02*
X010950Y008545D01*
X010764Y009371D02*
X010764Y009558D01*
X010857Y009464D02*
X010483Y009464D01*
X010390Y009371D01*
X010390Y009776D02*
X010390Y009963D01*
X010390Y009869D02*
X010764Y009869D01*
X010764Y009963D01*
X010950Y009869D02*
X011044Y009869D01*
X010670Y010197D02*
X010764Y010290D01*
X010764Y010571D01*
X010950Y010571D02*
X010390Y010571D01*
X010390Y010290D01*
X010483Y010197D01*
X010670Y010197D01*
X010577Y010805D02*
X010483Y010805D01*
X010390Y010898D01*
X010390Y011085D01*
X010483Y011178D01*
X010577Y011178D01*
X010670Y011085D01*
X010670Y010898D01*
X010577Y010805D01*
X010670Y010898D02*
X010764Y010805D01*
X010857Y010805D01*
X010950Y010898D01*
X010950Y011085D01*
X010857Y011178D01*
X010764Y011178D01*
X010670Y011085D01*
X010483Y011389D02*
X010390Y011389D01*
X010390Y011482D01*
X010483Y011482D01*
X010483Y011389D01*
X010483Y011716D02*
X010764Y011716D01*
X010483Y011716D02*
X010390Y011810D01*
X010483Y011903D01*
X010390Y011996D01*
X010483Y012090D01*
X010764Y012090D01*
X010764Y012324D02*
X010483Y012324D01*
X010390Y012417D01*
X010483Y012511D01*
X010390Y012604D01*
X010483Y012698D01*
X010764Y012698D01*
X010764Y012932D02*
X010483Y012932D01*
X010390Y013025D01*
X010483Y013118D01*
X010390Y013212D01*
X010483Y013305D01*
X010764Y013305D01*
X010309Y024470D02*
X009935Y024470D01*
X010309Y024844D01*
X010309Y024937D01*
X010216Y025030D01*
X010029Y025030D01*
X009935Y024937D01*
X009701Y024937D02*
X009701Y024563D01*
X009608Y024470D01*
X009421Y024470D01*
X009328Y024563D01*
X009701Y024937D01*
X009608Y025030D01*
X009421Y025030D01*
X009328Y024937D01*
X009328Y024563D01*
X009094Y024563D02*
X009000Y024470D01*
X008813Y024470D01*
X008720Y024563D01*
X008813Y024750D02*
X009000Y024750D01*
X009094Y024657D01*
X009094Y024563D01*
X008813Y024750D02*
X008720Y024844D01*
X008720Y024937D01*
X008813Y025030D01*
X009000Y025030D01*
X009094Y024937D01*
X008486Y024470D02*
X008112Y024470D01*
X008112Y025030D01*
X007785Y025030D02*
X007785Y024470D01*
X007878Y024750D02*
X007505Y024750D01*
X007785Y025030D01*
X007270Y025030D02*
X007270Y024937D01*
X006897Y024563D01*
X006897Y024470D01*
X006897Y025030D02*
X007270Y025030D01*
D14*
X015320Y019810D03*
X015860Y019810D03*
X015890Y019810D03*
X015320Y018310D03*
X015350Y016570D03*
X015860Y015070D03*
X015890Y015070D03*
X015890Y012280D03*
X015860Y012280D03*
X015830Y012280D03*
X015800Y012280D03*
X015890Y010120D03*
D15*
X015320Y011485D03*
X015320Y013105D03*
X015320Y016045D03*
X015320Y018895D03*
X015320Y019285D03*
D16*
X015380Y019840D03*
X015800Y019090D03*
X015830Y019090D03*
X015860Y019090D03*
X015890Y019090D03*
X015320Y017680D03*
X015380Y016600D03*
X015380Y015100D03*
X015410Y015100D03*
X015800Y015100D03*
X015830Y015100D03*
X015320Y012250D03*
X015800Y010810D03*
X015800Y010150D03*
X015830Y010150D03*
X015410Y010150D03*
X015380Y010150D03*
X015350Y010150D03*
X015320Y010150D03*
D17*
X015860Y013225D03*
X015320Y016585D03*
D18*
X015320Y015100D03*
X015350Y015100D03*
X015860Y010090D03*
D19*
X015770Y010330D03*
X015740Y010330D03*
X015590Y010330D03*
X015560Y010330D03*
X015530Y010330D03*
X015500Y010330D03*
X015470Y010330D03*
X015440Y010330D03*
X015440Y010810D03*
X015410Y010810D03*
X015380Y010810D03*
X015350Y010810D03*
X015320Y010810D03*
X015470Y010810D03*
X015500Y010810D03*
X015530Y010810D03*
X015560Y010810D03*
X015590Y010810D03*
X015620Y010810D03*
X015650Y010810D03*
X015680Y010810D03*
X015710Y010810D03*
X015740Y010810D03*
X015770Y010810D03*
X015770Y011290D03*
X015800Y011290D03*
X015830Y011290D03*
X015890Y011290D03*
X015740Y011290D03*
X015590Y011470D03*
X015560Y011470D03*
X015530Y011470D03*
X015500Y011470D03*
X015470Y011470D03*
X015440Y011470D03*
X015410Y011470D03*
X015380Y011470D03*
X015350Y011470D03*
X015740Y011680D03*
X015770Y011680D03*
X015800Y011680D03*
X015830Y011680D03*
X015860Y011680D03*
X015890Y011680D03*
X015590Y012040D03*
X015470Y012040D03*
X015740Y012160D03*
X015740Y012430D03*
X015770Y012430D03*
X015590Y012430D03*
X015560Y012430D03*
X015530Y012430D03*
X015500Y012430D03*
X015470Y012430D03*
X015440Y012430D03*
X015440Y013090D03*
X015410Y013090D03*
X015380Y013090D03*
X015350Y013090D03*
X015470Y013090D03*
X015500Y013090D03*
X015650Y013090D03*
X015680Y013090D03*
X015710Y013090D03*
X015740Y013090D03*
X015770Y013090D03*
X015770Y013480D03*
X015740Y013480D03*
X015710Y013480D03*
X015680Y013480D03*
X015650Y013480D03*
X015500Y013480D03*
X015470Y013480D03*
X015440Y013480D03*
X015410Y013480D03*
X015380Y013480D03*
X015350Y013480D03*
X015320Y013480D03*
X015320Y014140D03*
X015350Y014140D03*
X015380Y014140D03*
X015410Y014140D03*
X015440Y014140D03*
X015470Y014140D03*
X015500Y014140D03*
X015530Y014140D03*
X015560Y014140D03*
X015590Y014140D03*
X015620Y014140D03*
X015650Y014140D03*
X015680Y014140D03*
X015710Y014140D03*
X015740Y014140D03*
X015770Y014140D03*
X015770Y014530D03*
X015740Y014530D03*
X015710Y014530D03*
X015680Y014530D03*
X015650Y014530D03*
X015620Y014530D03*
X015590Y014530D03*
X015560Y014530D03*
X015530Y014530D03*
X015500Y014530D03*
X015470Y014530D03*
X015440Y014530D03*
X015410Y014530D03*
X015380Y014530D03*
X015350Y014530D03*
X015320Y014530D03*
X015440Y014920D03*
X015470Y014920D03*
X015500Y014920D03*
X015530Y014920D03*
X015560Y014920D03*
X015590Y014920D03*
X015620Y014920D03*
X015650Y014920D03*
X015680Y014920D03*
X015710Y014920D03*
X015740Y014920D03*
X015770Y014920D03*
X015770Y015280D03*
X015740Y015280D03*
X015710Y015280D03*
X015680Y015280D03*
X015650Y015280D03*
X015620Y015280D03*
X015590Y015280D03*
X015560Y015280D03*
X015530Y015280D03*
X015500Y015280D03*
X015470Y015280D03*
X015440Y015280D03*
X015650Y015670D03*
X015680Y015670D03*
X015710Y015670D03*
X015740Y015670D03*
X015770Y015670D03*
X015770Y016420D03*
X015800Y016420D03*
X015830Y016420D03*
X015860Y016420D03*
X015890Y016420D03*
X015740Y016420D03*
X015710Y016420D03*
X015680Y016420D03*
X015650Y016420D03*
X015620Y016420D03*
X015590Y016420D03*
X015560Y016420D03*
X015530Y016420D03*
X015500Y016420D03*
X015470Y016420D03*
X015440Y016420D03*
X015440Y016810D03*
X015470Y016810D03*
X015500Y016810D03*
X015530Y016810D03*
X015560Y016810D03*
X015590Y016810D03*
X015620Y016810D03*
X015650Y016810D03*
X015680Y016810D03*
X015710Y016810D03*
X015740Y016810D03*
X015770Y016810D03*
X015800Y016810D03*
X015830Y016810D03*
X015860Y016810D03*
X015890Y016810D03*
X015770Y017860D03*
X015740Y017860D03*
X015590Y017860D03*
X015560Y017860D03*
X015530Y017860D03*
X015500Y017860D03*
X015470Y017860D03*
X015440Y017860D03*
X015440Y018520D03*
X015470Y018520D03*
X015500Y018520D03*
X015530Y018520D03*
X015560Y018520D03*
X015590Y018520D03*
X015620Y018520D03*
X015650Y018520D03*
X015680Y018520D03*
X015710Y018520D03*
X015740Y018520D03*
X015770Y018520D03*
X015770Y018910D03*
X015740Y018910D03*
X015710Y018910D03*
X015680Y018910D03*
X015650Y018910D03*
X015620Y018910D03*
X015590Y018910D03*
X015560Y018910D03*
X015530Y018910D03*
X015500Y018910D03*
X015470Y018910D03*
X015440Y018910D03*
X015410Y018910D03*
X015380Y018910D03*
X015350Y018910D03*
X015350Y019270D03*
X015380Y019270D03*
X015410Y019270D03*
X015440Y019270D03*
X015470Y019270D03*
X015500Y019270D03*
X015530Y019270D03*
X015560Y019270D03*
X015590Y019270D03*
X015620Y019270D03*
X015650Y019270D03*
X015680Y019270D03*
X015710Y019270D03*
X015740Y019270D03*
X015770Y019270D03*
X015770Y019660D03*
X015740Y019660D03*
X015710Y019660D03*
X015680Y019660D03*
X015650Y019660D03*
X015620Y019660D03*
X015590Y019660D03*
X015560Y019660D03*
X015530Y019660D03*
X015500Y019660D03*
X015470Y019660D03*
X015440Y019660D03*
X015470Y020050D03*
X015500Y020050D03*
X015530Y020050D03*
X015560Y020050D03*
X015590Y020050D03*
X015620Y020050D03*
X015650Y020050D03*
X015680Y020050D03*
X015710Y020050D03*
X015740Y020050D03*
X015770Y020050D03*
D20*
X015350Y019825D03*
X015350Y018295D03*
X015410Y018295D03*
X015800Y018295D03*
X015860Y018295D03*
X015890Y018295D03*
X015890Y017635D03*
X015860Y017635D03*
X015890Y013255D03*
X015650Y011515D03*
D21*
X015680Y011485D03*
X015710Y011485D03*
X015620Y011485D03*
X015830Y010825D03*
X015860Y010825D03*
X015890Y010825D03*
X015710Y012235D03*
X015680Y012235D03*
X015650Y012235D03*
X015620Y012235D03*
X015410Y012235D03*
X015380Y012235D03*
X015350Y012235D03*
X015530Y013285D03*
X015560Y013285D03*
X015590Y013285D03*
X015620Y013285D03*
X015800Y013285D03*
X015830Y013285D03*
X015830Y014335D03*
X015860Y014335D03*
X015890Y014335D03*
X015800Y014335D03*
X015800Y015865D03*
X015830Y015865D03*
X015860Y015865D03*
X015890Y015865D03*
X015620Y015865D03*
X015590Y015865D03*
X015560Y015865D03*
X015530Y015865D03*
X015410Y016615D03*
X015410Y017665D03*
X015380Y017665D03*
X015350Y017665D03*
X015800Y017665D03*
X015830Y017665D03*
X015830Y018325D03*
X015380Y018325D03*
X015410Y019855D03*
X015800Y019855D03*
X015830Y019855D03*
D22*
X015440Y020035D03*
X015440Y016045D03*
X015410Y016045D03*
X015380Y016045D03*
X015350Y016045D03*
X015470Y016045D03*
X015500Y016045D03*
X015650Y016045D03*
X015680Y016045D03*
X015710Y016045D03*
X015740Y016045D03*
X015770Y016045D03*
X015770Y012145D03*
X015560Y012055D03*
X015530Y012055D03*
X015500Y012055D03*
X015440Y012055D03*
D23*
X015650Y011200D03*
X015860Y011200D03*
X015860Y010360D03*
X015650Y010060D03*
X015860Y013510D03*
X015800Y018610D03*
X015410Y018610D03*
D24*
X015620Y017755D03*
X015650Y017755D03*
X015680Y017755D03*
X015710Y017755D03*
D25*
X015710Y010240D03*
X015680Y010240D03*
X015620Y010240D03*
D26*
X015650Y010270D03*
D27*
X015860Y011320D03*
D28*
X013670Y010970D03*
X013650Y010970D03*
X013630Y010970D03*
X013610Y010970D03*
X013590Y010970D03*
X013570Y010970D03*
X013550Y010970D03*
X013530Y010970D03*
X013510Y010970D03*
X013490Y010970D03*
X013470Y010970D03*
X013450Y010970D03*
X013430Y010970D03*
X013410Y010970D03*
X013390Y010970D03*
X013370Y010970D03*
X013350Y010970D03*
X013330Y010970D03*
X013310Y010970D03*
X013290Y010970D03*
X013270Y010970D03*
X013250Y010970D03*
X013230Y010970D03*
X013210Y010970D03*
X013190Y010970D03*
X013170Y010970D03*
X013150Y010970D03*
X013130Y010970D03*
X013110Y010970D03*
X012850Y010970D03*
X012830Y010970D03*
X012810Y010970D03*
X012790Y010970D03*
X012770Y010970D03*
X012750Y010970D03*
X012730Y010970D03*
X012710Y010970D03*
X012690Y010970D03*
X012670Y010970D03*
X012650Y010970D03*
X012630Y010970D03*
X012610Y010970D03*
X012590Y010970D03*
X012570Y010970D03*
X012550Y010970D03*
X012550Y011250D03*
X012570Y011250D03*
X012590Y011250D03*
X012610Y011250D03*
X012630Y011250D03*
X012650Y011250D03*
X012670Y011250D03*
X012690Y011250D03*
X012710Y011250D03*
X012730Y011250D03*
X012750Y011250D03*
X012770Y011250D03*
X012790Y011250D03*
X012810Y011250D03*
X012830Y011250D03*
X012850Y011250D03*
X012870Y011250D03*
X012890Y011250D03*
X012910Y011250D03*
X012930Y011250D03*
X012950Y011250D03*
X012970Y011250D03*
X012990Y011250D03*
X013010Y011250D03*
X013030Y011250D03*
X013050Y011250D03*
X013070Y011250D03*
X013090Y011250D03*
X013270Y011250D03*
X013290Y011250D03*
X013310Y011250D03*
X013330Y011250D03*
X013350Y011250D03*
X013370Y011250D03*
X013390Y011250D03*
X013410Y011250D03*
X013430Y011250D03*
X013450Y011250D03*
X013470Y011250D03*
X012530Y011250D03*
X012510Y011250D03*
X012490Y011250D03*
X012470Y011250D03*
X012450Y011250D03*
X012430Y011250D03*
X012410Y011250D03*
X012390Y011250D03*
X012370Y011250D03*
X012350Y011250D03*
X012330Y011250D03*
X012550Y012690D03*
X012570Y012690D03*
X012590Y012690D03*
X012610Y012690D03*
X012630Y012690D03*
X012650Y012690D03*
X012670Y012690D03*
X012690Y012690D03*
X012710Y012690D03*
X012730Y012690D03*
X012750Y012690D03*
X012770Y012690D03*
X012790Y012690D03*
X012810Y012690D03*
X012830Y012690D03*
X012850Y012690D03*
X013110Y012690D03*
X013130Y012690D03*
X013150Y012690D03*
X013170Y012690D03*
X013190Y012690D03*
X013210Y012690D03*
X013230Y012690D03*
X013250Y012690D03*
X013270Y012690D03*
X013290Y012690D03*
X013310Y012690D03*
X013330Y012690D03*
X013350Y012690D03*
X013370Y012690D03*
X013390Y012690D03*
X013410Y012690D03*
X013430Y012690D03*
X013450Y012690D03*
X013470Y012690D03*
X013490Y012690D03*
X013510Y012690D03*
X013530Y012690D03*
X013550Y012690D03*
X013570Y012690D03*
X013590Y012690D03*
X013610Y012690D03*
X013630Y012690D03*
X013650Y012690D03*
X013670Y012690D03*
X013430Y014130D03*
X013410Y014130D03*
X013390Y014130D03*
X013370Y014130D03*
X013350Y014130D03*
X013330Y014130D03*
X013310Y014130D03*
X013290Y014130D03*
X013270Y014130D03*
X013250Y014130D03*
X013230Y014130D03*
X013210Y014130D03*
X013190Y014130D03*
X013170Y014130D03*
X013150Y014130D03*
X013130Y014130D03*
X013110Y014130D03*
X012850Y014130D03*
X012830Y014130D03*
X012810Y014130D03*
X012790Y014130D03*
X012770Y014130D03*
X012750Y014130D03*
X012730Y014130D03*
X012710Y014130D03*
X012690Y014130D03*
X012670Y014130D03*
X012650Y014130D03*
X012630Y014130D03*
X012610Y014130D03*
X012590Y014130D03*
X012570Y014130D03*
X012550Y014130D03*
X012550Y009530D03*
X012570Y009530D03*
X012590Y009530D03*
X012610Y009530D03*
X012630Y009530D03*
X012650Y009530D03*
X012670Y009530D03*
X012690Y009530D03*
X012710Y009530D03*
X012730Y009530D03*
X012750Y009530D03*
X012770Y009530D03*
X012790Y009530D03*
X012810Y009530D03*
X012830Y009530D03*
X012850Y009530D03*
X012850Y008090D03*
X012830Y008090D03*
X012810Y008090D03*
X012790Y008090D03*
X012770Y008090D03*
X012750Y008090D03*
X012730Y008090D03*
X012710Y008090D03*
X012690Y008090D03*
X012670Y008090D03*
X012650Y008090D03*
X012630Y008090D03*
X012610Y008090D03*
X012590Y008090D03*
X012570Y008090D03*
X012550Y008090D03*
X012530Y008090D03*
X012510Y008090D03*
X012490Y008090D03*
X012470Y008090D03*
X012450Y008090D03*
X012430Y008090D03*
X012410Y008090D03*
X012390Y008090D03*
X012370Y008090D03*
X012350Y008090D03*
X012330Y008090D03*
X013110Y008090D03*
X013130Y008090D03*
X013150Y008090D03*
X013170Y008090D03*
X013190Y008090D03*
X013210Y008090D03*
X013230Y008090D03*
X013250Y008090D03*
X013270Y008090D03*
X013290Y008090D03*
X013310Y008090D03*
X013330Y008090D03*
X013350Y008090D03*
X013370Y008090D03*
X013390Y008090D03*
X013410Y008090D03*
X013430Y008090D03*
X013450Y008090D03*
X013470Y008090D03*
X013490Y008090D03*
X013510Y008090D03*
X013530Y008090D03*
X013550Y008090D03*
X013570Y008090D03*
X013590Y008090D03*
X013610Y008090D03*
X013630Y008090D03*
X013650Y008090D03*
X013670Y008090D03*
X013470Y006650D03*
X013450Y006650D03*
X013430Y006650D03*
X013410Y006650D03*
X013390Y006650D03*
X013370Y006650D03*
X013350Y006650D03*
X013330Y006650D03*
X013310Y006650D03*
X013290Y006650D03*
X013270Y006650D03*
X013090Y006650D03*
X013070Y006650D03*
X013050Y006650D03*
X013030Y006650D03*
X013010Y006650D03*
X012990Y006650D03*
X012970Y006650D03*
X012950Y006650D03*
X012930Y006650D03*
X012910Y006650D03*
X012890Y006650D03*
X012870Y006650D03*
X012850Y006650D03*
X012830Y006650D03*
X012810Y006650D03*
X012790Y006650D03*
X012770Y006650D03*
X012750Y006650D03*
X012730Y006650D03*
X012710Y006650D03*
X012690Y006650D03*
X012670Y006650D03*
X012650Y006650D03*
X012630Y006650D03*
X012610Y006650D03*
X012590Y006650D03*
X012570Y006650D03*
X012550Y006650D03*
X012530Y006650D03*
X012510Y006650D03*
X012490Y006650D03*
X012470Y006650D03*
X012450Y006650D03*
X012430Y006650D03*
X012410Y006650D03*
X012390Y006650D03*
X012370Y006650D03*
X012350Y006650D03*
X012330Y006650D03*
X012310Y006370D03*
X012290Y006370D03*
X012270Y006370D03*
X012250Y006370D03*
X012230Y006370D03*
X012210Y006370D03*
X012190Y006370D03*
X012170Y006370D03*
X012150Y006370D03*
X012130Y006370D03*
X012110Y006370D03*
X012090Y006370D03*
X012070Y006370D03*
X012050Y006370D03*
X012030Y006370D03*
X012010Y006370D03*
X011990Y006370D03*
X011970Y006370D03*
X011950Y006370D03*
X011930Y006370D03*
X012550Y006370D03*
X012570Y006370D03*
X012590Y006370D03*
X012610Y006370D03*
X012630Y006370D03*
X012650Y006370D03*
X012670Y006370D03*
X012690Y006370D03*
X012710Y006370D03*
X012730Y006370D03*
X012750Y006370D03*
X012770Y006370D03*
X012790Y006370D03*
X012810Y006370D03*
X012830Y006370D03*
X012850Y006370D03*
D29*
X012870Y005790D03*
X012890Y005790D03*
X012910Y005790D03*
X012930Y005790D03*
X012950Y005790D03*
X012970Y005790D03*
X012990Y005790D03*
X013010Y005790D03*
X013030Y005790D03*
X013050Y005790D03*
X013070Y005790D03*
X013090Y005790D03*
X012530Y005790D03*
X012510Y005790D03*
X012490Y005790D03*
X012470Y005790D03*
X012450Y005790D03*
X012430Y005790D03*
X012410Y005790D03*
X012390Y005790D03*
X012370Y005790D03*
X012350Y005790D03*
X012330Y005790D03*
X012870Y007510D03*
X012890Y007510D03*
X012910Y007510D03*
X012930Y007510D03*
X012950Y007510D03*
X012970Y007510D03*
X012990Y007510D03*
X013010Y007510D03*
X013030Y007510D03*
X013050Y007510D03*
X013070Y007510D03*
X013090Y007510D03*
X013090Y008950D03*
X013070Y008950D03*
X013050Y008950D03*
X013030Y008950D03*
X013010Y008950D03*
X012990Y008950D03*
X012970Y008950D03*
X012950Y008950D03*
X012930Y008950D03*
X012910Y008950D03*
X012890Y008950D03*
X012870Y008950D03*
X012530Y008950D03*
X012510Y008950D03*
X012490Y008950D03*
X012470Y008950D03*
X012450Y008950D03*
X012430Y008950D03*
X012410Y008950D03*
X012390Y008950D03*
X012370Y008950D03*
X012350Y008950D03*
X012330Y008950D03*
X012330Y010390D03*
X012350Y010390D03*
X012370Y010390D03*
X012390Y010390D03*
X012410Y010390D03*
X012430Y010390D03*
X012450Y010390D03*
X012470Y010390D03*
X012490Y010390D03*
X012510Y010390D03*
X012530Y010390D03*
X012870Y010390D03*
X012890Y010390D03*
X012910Y010390D03*
X012930Y010390D03*
X012950Y010390D03*
X012970Y010390D03*
X012990Y010390D03*
X013010Y010390D03*
X013030Y010390D03*
X013050Y010390D03*
X013070Y010390D03*
X013090Y010390D03*
X013090Y012110D03*
X013070Y012110D03*
X013050Y012110D03*
X013030Y012110D03*
X013010Y012110D03*
X012990Y012110D03*
X012970Y012110D03*
X012950Y012110D03*
X012930Y012110D03*
X012910Y012110D03*
X012890Y012110D03*
X012870Y012110D03*
X012530Y012110D03*
X012510Y012110D03*
X012490Y012110D03*
X012470Y012110D03*
X012450Y012110D03*
X012430Y012110D03*
X012410Y012110D03*
X012390Y012110D03*
X012370Y012110D03*
X012350Y012110D03*
X012330Y012110D03*
X012330Y013550D03*
X012350Y013550D03*
X012370Y013550D03*
X012390Y013550D03*
X012410Y013550D03*
X012430Y013550D03*
X012450Y013550D03*
X012470Y013550D03*
X012490Y013550D03*
X012510Y013550D03*
X012530Y013550D03*
X012870Y013550D03*
X012890Y013550D03*
X012910Y013550D03*
X012930Y013550D03*
X012950Y013550D03*
X012970Y013550D03*
X012990Y013550D03*
X013010Y013550D03*
X013030Y013550D03*
X013050Y013550D03*
X013070Y013550D03*
X013090Y013550D03*
X013450Y013550D03*
X013470Y013550D03*
X013490Y013550D03*
X013510Y013550D03*
X013530Y013550D03*
X013550Y013550D03*
X013570Y013550D03*
X013590Y013550D03*
X013610Y013550D03*
X013630Y013550D03*
X013650Y013550D03*
X013670Y013550D03*
D30*
X013430Y012980D03*
X013410Y012980D03*
X013390Y012980D03*
X013370Y012980D03*
X013350Y012980D03*
X013330Y012980D03*
X013310Y012980D03*
X013290Y012980D03*
X013270Y012980D03*
X013250Y012980D03*
X013230Y012980D03*
X013210Y012980D03*
X013190Y012980D03*
X013170Y012980D03*
X013150Y012980D03*
X013130Y012980D03*
X013110Y012980D03*
X012850Y012980D03*
X012830Y012980D03*
X012810Y012980D03*
X012790Y012980D03*
X012770Y012980D03*
X012750Y012980D03*
X012730Y012980D03*
X012710Y012980D03*
X012690Y012980D03*
X012670Y012980D03*
X012650Y012980D03*
X012630Y012980D03*
X012610Y012980D03*
X012590Y012980D03*
X012570Y012980D03*
X012550Y012980D03*
X012550Y011540D03*
X012570Y011540D03*
X012590Y011540D03*
X012610Y011540D03*
X012630Y011540D03*
X012650Y011540D03*
X012670Y011540D03*
X012690Y011540D03*
X012710Y011540D03*
X012730Y011540D03*
X012750Y011540D03*
X012770Y011540D03*
X012790Y011540D03*
X012810Y011540D03*
X012830Y011540D03*
X012850Y011540D03*
X012850Y006940D03*
X012830Y006940D03*
X012810Y006940D03*
X012790Y006940D03*
X012770Y006940D03*
X012750Y006940D03*
X012730Y006940D03*
X012710Y006940D03*
X012690Y006940D03*
X012670Y006940D03*
X012650Y006940D03*
X012630Y006940D03*
X012610Y006940D03*
X012590Y006940D03*
X012570Y006940D03*
X012550Y006940D03*
X012530Y006940D03*
X012510Y006940D03*
X012490Y006940D03*
X012470Y006940D03*
X012450Y006940D03*
X012430Y006940D03*
X012410Y006940D03*
X012390Y006940D03*
X012370Y006940D03*
X012350Y006940D03*
X012330Y006940D03*
X012550Y005220D03*
X012570Y005220D03*
X012590Y005220D03*
X012610Y005220D03*
X012630Y005220D03*
X012650Y005220D03*
X012670Y005220D03*
X012690Y005220D03*
X012710Y005220D03*
X012730Y005220D03*
X012750Y005220D03*
X012770Y005220D03*
X012790Y005220D03*
X012810Y005220D03*
X012830Y005220D03*
X012850Y005220D03*
D31*
X011595Y017626D02*
X011597Y017705D01*
X011603Y017784D01*
X011613Y017863D01*
X011627Y017941D01*
X011644Y018018D01*
X011666Y018094D01*
X011691Y018169D01*
X011721Y018242D01*
X011753Y018314D01*
X011790Y018385D01*
X011830Y018453D01*
X011873Y018519D01*
X011919Y018583D01*
X011969Y018645D01*
X012022Y018704D01*
X012077Y018760D01*
X012136Y018814D01*
X012197Y018864D01*
X012260Y018912D01*
X012326Y018956D01*
X012394Y018997D01*
X012464Y019034D01*
X012535Y019068D01*
X012609Y019098D01*
X012683Y019124D01*
X012759Y019146D01*
X012836Y019165D01*
X012914Y019180D01*
X012992Y019191D01*
X013071Y019198D01*
X013150Y019201D01*
X013229Y019200D01*
X013308Y019195D01*
X013387Y019186D01*
X013465Y019173D01*
X013542Y019156D01*
X013619Y019136D01*
X013694Y019111D01*
X013768Y019083D01*
X013841Y019051D01*
X013911Y019016D01*
X013980Y018977D01*
X014047Y018934D01*
X014112Y018888D01*
X014174Y018840D01*
X014234Y018788D01*
X014291Y018733D01*
X014345Y018675D01*
X014396Y018615D01*
X014444Y018552D01*
X014489Y018487D01*
X014531Y018419D01*
X014569Y018350D01*
X014603Y018279D01*
X014634Y018206D01*
X014662Y018131D01*
X014685Y018056D01*
X014705Y017979D01*
X014721Y017902D01*
X014733Y017823D01*
X014741Y017745D01*
X014745Y017666D01*
X014745Y017586D01*
X014741Y017507D01*
X014733Y017429D01*
X014721Y017350D01*
X014705Y017273D01*
X014685Y017196D01*
X014662Y017121D01*
X014634Y017046D01*
X014603Y016973D01*
X014569Y016902D01*
X014531Y016833D01*
X014489Y016765D01*
X014444Y016700D01*
X014396Y016637D01*
X014345Y016577D01*
X014291Y016519D01*
X014234Y016464D01*
X014174Y016412D01*
X014112Y016364D01*
X014047Y016318D01*
X013980Y016275D01*
X013911Y016236D01*
X013841Y016201D01*
X013768Y016169D01*
X013694Y016141D01*
X013619Y016116D01*
X013542Y016096D01*
X013465Y016079D01*
X013387Y016066D01*
X013308Y016057D01*
X013229Y016052D01*
X013150Y016051D01*
X013071Y016054D01*
X012992Y016061D01*
X012914Y016072D01*
X012836Y016087D01*
X012759Y016106D01*
X012683Y016128D01*
X012609Y016154D01*
X012535Y016184D01*
X012464Y016218D01*
X012394Y016255D01*
X012326Y016296D01*
X012260Y016340D01*
X012197Y016388D01*
X012136Y016438D01*
X012077Y016492D01*
X012022Y016548D01*
X011969Y016607D01*
X011919Y016669D01*
X011873Y016733D01*
X011830Y016799D01*
X011790Y016867D01*
X011753Y016938D01*
X011721Y017010D01*
X011691Y017083D01*
X011666Y017158D01*
X011644Y017234D01*
X011627Y017311D01*
X011613Y017389D01*
X011603Y017468D01*
X011597Y017547D01*
X011595Y017626D01*
X007130Y030065D02*
X007205Y030140D01*
X007205Y030290D01*
X007130Y030365D01*
X007055Y030365D01*
X006980Y030290D01*
X006980Y030140D01*
X006905Y030065D01*
X006830Y030065D01*
X006755Y030140D01*
X006755Y030290D01*
X006830Y030365D01*
X006905Y030525D02*
X006755Y030676D01*
X007205Y030676D01*
X007205Y030826D02*
X007205Y030525D01*
X002424Y004435D02*
X023924Y004435D01*
D32*
X022520Y005600D02*
X022520Y021900D01*
X020420Y021900D01*
X020418Y021856D01*
X020412Y021813D01*
X020403Y021771D01*
X020390Y021729D01*
X020373Y021689D01*
X020353Y021650D01*
X020330Y021613D01*
X020303Y021579D01*
X020274Y021546D01*
X020241Y021517D01*
X020207Y021490D01*
X020170Y021467D01*
X020131Y021447D01*
X020091Y021430D01*
X020049Y021417D01*
X020007Y021408D01*
X019964Y021402D01*
X019920Y021400D01*
X019876Y021402D01*
X019833Y021408D01*
X019791Y021417D01*
X019749Y021430D01*
X019709Y021447D01*
X019670Y021467D01*
X019633Y021490D01*
X019599Y021517D01*
X019566Y021546D01*
X019537Y021579D01*
X019510Y021613D01*
X019487Y021650D01*
X019467Y021689D01*
X019450Y021729D01*
X019437Y021771D01*
X019428Y021813D01*
X019422Y021856D01*
X019420Y021900D01*
X017320Y021900D01*
X017320Y005600D01*
X022520Y005600D01*
X023880Y017640D02*
X024480Y017640D01*
X024497Y017642D01*
X024514Y017646D01*
X024530Y017653D01*
X024544Y017663D01*
X024557Y017676D01*
X024567Y017690D01*
X024574Y017706D01*
X024578Y017723D01*
X024580Y017740D01*
X024580Y018740D01*
X024578Y018757D01*
X024574Y018774D01*
X024567Y018790D01*
X024557Y018804D01*
X024544Y018817D01*
X024530Y018827D01*
X024514Y018834D01*
X024497Y018838D01*
X024480Y018840D01*
X023880Y018840D01*
X023863Y018838D01*
X023846Y018834D01*
X023830Y018827D01*
X023816Y018817D01*
X023803Y018804D01*
X023793Y018790D01*
X023786Y018774D01*
X023782Y018757D01*
X023780Y018740D01*
X023780Y017740D01*
X023782Y017723D01*
X023786Y017706D01*
X023793Y017690D01*
X023803Y017676D01*
X023816Y017663D01*
X023830Y017653D01*
X023846Y017646D01*
X023863Y017642D01*
X023880Y017640D01*
X023880Y020140D02*
X024480Y020140D01*
X024497Y020142D01*
X024514Y020146D01*
X024530Y020153D01*
X024544Y020163D01*
X024557Y020176D01*
X024567Y020190D01*
X024574Y020206D01*
X024578Y020223D01*
X024580Y020240D01*
X024580Y021240D01*
X024578Y021257D01*
X024574Y021274D01*
X024567Y021290D01*
X024557Y021304D01*
X024544Y021317D01*
X024530Y021327D01*
X024514Y021334D01*
X024497Y021338D01*
X024480Y021340D01*
X023880Y021340D01*
X023863Y021338D01*
X023846Y021334D01*
X023830Y021327D01*
X023816Y021317D01*
X023803Y021304D01*
X023793Y021290D01*
X023786Y021274D01*
X023782Y021257D01*
X023780Y021240D01*
X023780Y020240D01*
X023782Y020223D01*
X023786Y020206D01*
X023793Y020190D01*
X023803Y020176D01*
X023816Y020163D01*
X023830Y020153D01*
X023846Y020146D01*
X023863Y020142D01*
X023880Y020140D01*
X024070Y022050D02*
X022770Y022050D01*
X022744Y022052D01*
X022718Y022057D01*
X022693Y022065D01*
X022670Y022077D01*
X022648Y022091D01*
X022629Y022109D01*
X022611Y022128D01*
X022597Y022150D01*
X022585Y022173D01*
X022577Y022198D01*
X022572Y022224D01*
X022570Y022250D01*
X022570Y022750D01*
X022572Y022776D01*
X022577Y022802D01*
X022585Y022827D01*
X022597Y022850D01*
X022611Y022872D01*
X022629Y022891D01*
X022648Y022909D01*
X022670Y022923D01*
X022693Y022935D01*
X022718Y022943D01*
X022744Y022948D01*
X022770Y022950D01*
X024070Y022950D01*
X024096Y022948D01*
X024122Y022943D01*
X024147Y022935D01*
X024170Y022923D01*
X024192Y022909D01*
X024211Y022891D01*
X024229Y022872D01*
X024243Y022850D01*
X024255Y022827D01*
X024263Y022802D01*
X024268Y022776D01*
X024270Y022750D01*
X024270Y022250D01*
X024268Y022224D01*
X024263Y022198D01*
X024255Y022173D01*
X024243Y022150D01*
X024229Y022128D01*
X024211Y022109D01*
X024192Y022091D01*
X024170Y022077D01*
X024147Y022065D01*
X024122Y022057D01*
X024096Y022052D01*
X024070Y022050D01*
X023170Y024100D02*
X023170Y026400D01*
X013170Y026400D01*
X013170Y025650D01*
X013209Y025648D01*
X013248Y025642D01*
X013286Y025633D01*
X013323Y025620D01*
X013359Y025603D01*
X013392Y025583D01*
X013424Y025559D01*
X013453Y025533D01*
X013479Y025504D01*
X013503Y025472D01*
X013523Y025439D01*
X013540Y025403D01*
X013553Y025366D01*
X013562Y025328D01*
X013568Y025289D01*
X013570Y025250D01*
X013568Y025211D01*
X013562Y025172D01*
X013553Y025134D01*
X013540Y025097D01*
X013523Y025061D01*
X013503Y025028D01*
X013479Y024996D01*
X013453Y024967D01*
X013424Y024941D01*
X013392Y024917D01*
X013359Y024897D01*
X013323Y024880D01*
X013286Y024867D01*
X013248Y024858D01*
X013209Y024852D01*
X013170Y024850D01*
X013170Y024100D01*
X023170Y024100D01*
X012170Y024100D02*
X012170Y026400D01*
X005170Y026400D01*
X005170Y025650D01*
X005209Y025648D01*
X005248Y025642D01*
X005286Y025633D01*
X005323Y025620D01*
X005359Y025603D01*
X005392Y025583D01*
X005424Y025559D01*
X005453Y025533D01*
X005479Y025504D01*
X005503Y025472D01*
X005523Y025439D01*
X005540Y025403D01*
X005553Y025366D01*
X005562Y025328D01*
X005568Y025289D01*
X005570Y025250D01*
X005568Y025211D01*
X005562Y025172D01*
X005553Y025134D01*
X005540Y025097D01*
X005523Y025061D01*
X005503Y025028D01*
X005479Y024996D01*
X005453Y024967D01*
X005424Y024941D01*
X005392Y024917D01*
X005359Y024897D01*
X005323Y024880D01*
X005286Y024867D01*
X005248Y024858D01*
X005209Y024852D01*
X005170Y024850D01*
X005170Y024100D01*
X012170Y024100D01*
X009020Y021900D02*
X009020Y005600D01*
X003820Y005600D01*
X003820Y021900D01*
X005920Y021900D01*
X005922Y021856D01*
X005928Y021813D01*
X005937Y021771D01*
X005950Y021729D01*
X005967Y021689D01*
X005987Y021650D01*
X006010Y021613D01*
X006037Y021579D01*
X006066Y021546D01*
X006099Y021517D01*
X006133Y021490D01*
X006170Y021467D01*
X006209Y021447D01*
X006249Y021430D01*
X006291Y021417D01*
X006333Y021408D01*
X006376Y021402D01*
X006420Y021400D01*
X006464Y021402D01*
X006507Y021408D01*
X006549Y021417D01*
X006591Y021430D01*
X006631Y021447D01*
X006670Y021467D01*
X006707Y021490D01*
X006741Y021517D01*
X006774Y021546D01*
X006803Y021579D01*
X006830Y021613D01*
X006853Y021650D01*
X006873Y021689D01*
X006890Y021729D01*
X006903Y021771D01*
X006912Y021813D01*
X006918Y021856D01*
X006920Y021900D01*
X009020Y021900D01*
X004370Y024600D02*
X004370Y025900D01*
X004368Y025926D01*
X004363Y025952D01*
X004355Y025977D01*
X004343Y026000D01*
X004329Y026022D01*
X004311Y026041D01*
X004292Y026059D01*
X004270Y026073D01*
X004247Y026085D01*
X004222Y026093D01*
X004196Y026098D01*
X004170Y026100D01*
X003670Y026100D01*
X003644Y026098D01*
X003618Y026093D01*
X003593Y026085D01*
X003570Y026073D01*
X003548Y026059D01*
X003529Y026041D01*
X003511Y026022D01*
X003497Y026000D01*
X003485Y025977D01*
X003477Y025952D01*
X003472Y025926D01*
X003470Y025900D01*
X003470Y024600D01*
X003472Y024574D01*
X003477Y024548D01*
X003485Y024523D01*
X003497Y024500D01*
X003511Y024478D01*
X003529Y024459D01*
X003548Y024441D01*
X003570Y024427D01*
X003593Y024415D01*
X003618Y024407D01*
X003644Y024402D01*
X003670Y024400D01*
X004170Y024400D01*
X004196Y024402D01*
X004222Y024407D01*
X004247Y024415D01*
X004270Y024427D01*
X004292Y024441D01*
X004311Y024459D01*
X004329Y024478D01*
X004343Y024500D01*
X004355Y024523D01*
X004363Y024548D01*
X004368Y024574D01*
X004370Y024600D01*
X008380Y029940D02*
X008980Y029940D01*
X008980Y030040D01*
X009080Y030040D01*
X008380Y030040D02*
X008380Y029940D01*
X008380Y030040D02*
X008280Y030040D01*
X007480Y030390D02*
X007480Y030740D01*
X007480Y031740D01*
X007480Y032090D01*
X008280Y032440D02*
X008380Y032440D01*
X008380Y032540D01*
X008980Y032540D01*
X008980Y032440D01*
X009080Y032440D01*
X009880Y032090D02*
X009880Y031690D01*
X009880Y030740D01*
X009880Y030390D01*
X008580Y031240D02*
X008582Y031260D01*
X008588Y031278D01*
X008597Y031296D01*
X008609Y031311D01*
X008624Y031323D01*
X008642Y031332D01*
X008660Y031338D01*
X008680Y031340D01*
X008700Y031338D01*
X008718Y031332D01*
X008736Y031323D01*
X008751Y031311D01*
X008763Y031296D01*
X008772Y031278D01*
X008778Y031260D01*
X008780Y031240D01*
X008778Y031220D01*
X008772Y031202D01*
X008763Y031184D01*
X008751Y031169D01*
X008736Y031157D01*
X008718Y031148D01*
X008700Y031142D01*
X008680Y031140D01*
X008660Y031142D01*
X008642Y031148D01*
X008624Y031157D01*
X008609Y031169D01*
X008597Y031184D01*
X008588Y031202D01*
X008582Y031220D01*
X008580Y031240D01*
X007980Y031240D02*
X007982Y031292D01*
X007988Y031344D01*
X007998Y031396D01*
X008011Y031446D01*
X008028Y031496D01*
X008049Y031544D01*
X008074Y031590D01*
X008102Y031634D01*
X008133Y031676D01*
X008167Y031716D01*
X008204Y031753D01*
X008244Y031787D01*
X008286Y031818D01*
X008330Y031846D01*
X008376Y031871D01*
X008424Y031892D01*
X008474Y031909D01*
X008524Y031922D01*
X008576Y031932D01*
X008628Y031938D01*
X008680Y031940D01*
X008732Y031938D01*
X008784Y031932D01*
X008836Y031922D01*
X008886Y031909D01*
X008936Y031892D01*
X008984Y031871D01*
X009030Y031846D01*
X009074Y031818D01*
X009116Y031787D01*
X009156Y031753D01*
X009193Y031716D01*
X009227Y031676D01*
X009258Y031634D01*
X009286Y031590D01*
X009311Y031544D01*
X009332Y031496D01*
X009349Y031446D01*
X009362Y031396D01*
X009372Y031344D01*
X009378Y031292D01*
X009380Y031240D01*
X009378Y031188D01*
X009372Y031136D01*
X009362Y031084D01*
X009349Y031034D01*
X009332Y030984D01*
X009311Y030936D01*
X009286Y030890D01*
X009258Y030846D01*
X009227Y030804D01*
X009193Y030764D01*
X009156Y030727D01*
X009116Y030693D01*
X009074Y030662D01*
X009030Y030634D01*
X008984Y030609D01*
X008936Y030588D01*
X008886Y030571D01*
X008836Y030558D01*
X008784Y030548D01*
X008732Y030542D01*
X008680Y030540D01*
X008628Y030542D01*
X008576Y030548D01*
X008524Y030558D01*
X008474Y030571D01*
X008424Y030588D01*
X008376Y030609D01*
X008330Y030634D01*
X008286Y030662D01*
X008244Y030693D01*
X008204Y030727D01*
X008167Y030764D01*
X008133Y030804D01*
X008102Y030846D01*
X008074Y030890D01*
X008049Y030936D01*
X008028Y030984D01*
X008011Y031034D01*
X007998Y031084D01*
X007988Y031136D01*
X007982Y031188D01*
X007980Y031240D01*
D33*
X004220Y025370D02*
X003620Y025370D01*
X003620Y025120D02*
X004220Y025120D01*
X023300Y022800D02*
X023300Y022200D01*
X023550Y022200D02*
X023550Y022800D01*
D34*
X024790Y021260D02*
X025070Y021260D01*
X025070Y021120D01*
X025024Y021073D01*
X024930Y021073D01*
X024883Y021120D01*
X024883Y021260D01*
X024790Y020966D02*
X024790Y020872D01*
X024790Y020919D02*
X025070Y020919D01*
X025070Y020966D02*
X025070Y020872D01*
X025070Y020769D02*
X024790Y020582D01*
X025070Y020582D01*
X024977Y020474D02*
X025070Y020381D01*
X024790Y020381D01*
X024790Y020474D02*
X024790Y020288D01*
X024790Y020769D02*
X025070Y020769D01*
X025070Y018908D02*
X024790Y018908D01*
X024883Y018908D02*
X024883Y018767D01*
X024930Y018721D01*
X025024Y018721D01*
X025070Y018767D01*
X025070Y018908D01*
X025070Y018613D02*
X025070Y018519D01*
X025070Y018566D02*
X024790Y018566D01*
X024790Y018613D02*
X024790Y018519D01*
X024790Y018416D02*
X025070Y018416D01*
X024790Y018230D01*
X025070Y018230D01*
X025024Y018122D02*
X025070Y018075D01*
X025070Y017982D01*
X025024Y017935D01*
X024977Y017935D01*
X024930Y017982D01*
X024883Y017935D01*
X024837Y017935D01*
X024790Y017982D01*
X024790Y018075D01*
X024837Y018122D01*
X024930Y018028D02*
X024930Y017982D01*
X024977Y017827D02*
X025070Y017734D01*
X024790Y017734D01*
X024790Y017827D02*
X024790Y017640D01*
D35*
X009880Y030740D02*
X009780Y030740D01*
X009780Y031690D01*
X009880Y031690D01*
X007580Y031740D02*
X007580Y030740D01*
X007480Y030740D01*
X007480Y031740D02*
X007580Y031740D01*
M02*
