G75*
G70*
%OFA0B0*%
%FSLAX24Y24*%
%IPPOS*%
%LPD*%
%AMOC8*
5,1,8,0,0,1.08239X$1,22.5*
%
%ADD10C,0.0000*%
D10*
X002482Y000500D02*
X002128Y001012D01*
X002128Y010146D01*
X001170Y010146D01*
X001170Y027862D01*
X002003Y027862D01*
X002003Y033571D01*
X024837Y033571D01*
X024837Y027862D01*
X025670Y027862D01*
X025670Y010146D01*
X024712Y010146D01*
X024712Y001012D01*
X024358Y000500D01*
X002482Y000500D01*
X012436Y017626D02*
X012438Y017688D01*
X012444Y017751D01*
X012454Y017812D01*
X012468Y017873D01*
X012485Y017933D01*
X012506Y017992D01*
X012532Y018049D01*
X012560Y018104D01*
X012592Y018158D01*
X012628Y018209D01*
X012666Y018259D01*
X012708Y018305D01*
X012752Y018349D01*
X012800Y018390D01*
X012849Y018428D01*
X012901Y018462D01*
X012955Y018493D01*
X013011Y018521D01*
X013069Y018545D01*
X013128Y018566D01*
X013188Y018582D01*
X013249Y018595D01*
X013311Y018604D01*
X013373Y018609D01*
X013436Y018610D01*
X013498Y018607D01*
X013560Y018600D01*
X013622Y018589D01*
X013682Y018574D01*
X013742Y018556D01*
X013800Y018534D01*
X013857Y018508D01*
X013912Y018478D01*
X013965Y018445D01*
X014016Y018409D01*
X014064Y018370D01*
X014110Y018327D01*
X014153Y018282D01*
X014193Y018234D01*
X014230Y018184D01*
X014264Y018131D01*
X014295Y018077D01*
X014321Y018021D01*
X014345Y017963D01*
X014364Y017903D01*
X014380Y017843D01*
X014392Y017781D01*
X014400Y017720D01*
X014404Y017657D01*
X014404Y017595D01*
X014400Y017532D01*
X014392Y017471D01*
X014380Y017409D01*
X014364Y017349D01*
X014345Y017289D01*
X014321Y017231D01*
X014295Y017175D01*
X014264Y017121D01*
X014230Y017068D01*
X014193Y017018D01*
X014153Y016970D01*
X014110Y016925D01*
X014064Y016882D01*
X014016Y016843D01*
X013965Y016807D01*
X013912Y016774D01*
X013857Y016744D01*
X013800Y016718D01*
X013742Y016696D01*
X013682Y016678D01*
X013622Y016663D01*
X013560Y016652D01*
X013498Y016645D01*
X013436Y016642D01*
X013373Y016643D01*
X013311Y016648D01*
X013249Y016657D01*
X013188Y016670D01*
X013128Y016686D01*
X013069Y016707D01*
X013011Y016731D01*
X012955Y016759D01*
X012901Y016790D01*
X012849Y016824D01*
X012800Y016862D01*
X012752Y016903D01*
X012708Y016947D01*
X012666Y016993D01*
X012628Y017043D01*
X012592Y017094D01*
X012560Y017148D01*
X012532Y017203D01*
X012506Y017260D01*
X012485Y017319D01*
X012468Y017379D01*
X012454Y017440D01*
X012444Y017501D01*
X012438Y017564D01*
X012436Y017626D01*
X017532Y030250D02*
X017534Y030273D01*
X017540Y030296D01*
X017550Y030317D01*
X017563Y030337D01*
X017579Y030354D01*
X017598Y030368D01*
X017619Y030378D01*
X017641Y030385D01*
X017664Y030388D01*
X017688Y030387D01*
X017710Y030382D01*
X017732Y030373D01*
X017752Y030361D01*
X017770Y030345D01*
X017784Y030327D01*
X017796Y030307D01*
X017804Y030285D01*
X017808Y030262D01*
X017808Y030238D01*
X017804Y030215D01*
X017796Y030193D01*
X017784Y030173D01*
X017770Y030155D01*
X017752Y030139D01*
X017732Y030127D01*
X017710Y030118D01*
X017688Y030113D01*
X017664Y030112D01*
X017641Y030115D01*
X017619Y030122D01*
X017598Y030132D01*
X017579Y030146D01*
X017563Y030163D01*
X017550Y030183D01*
X017540Y030204D01*
X017534Y030227D01*
X017532Y030250D01*
X017532Y030750D02*
X017534Y030773D01*
X017540Y030796D01*
X017550Y030817D01*
X017563Y030837D01*
X017579Y030854D01*
X017598Y030868D01*
X017619Y030878D01*
X017641Y030885D01*
X017664Y030888D01*
X017688Y030887D01*
X017710Y030882D01*
X017732Y030873D01*
X017752Y030861D01*
X017770Y030845D01*
X017784Y030827D01*
X017796Y030807D01*
X017804Y030785D01*
X017808Y030762D01*
X017808Y030738D01*
X017804Y030715D01*
X017796Y030693D01*
X017784Y030673D01*
X017770Y030655D01*
X017752Y030639D01*
X017732Y030627D01*
X017710Y030618D01*
X017688Y030613D01*
X017664Y030612D01*
X017641Y030615D01*
X017619Y030622D01*
X017598Y030632D01*
X017579Y030646D01*
X017563Y030663D01*
X017550Y030683D01*
X017540Y030704D01*
X017534Y030727D01*
X017532Y030750D01*
X017532Y031250D02*
X017534Y031273D01*
X017540Y031296D01*
X017550Y031317D01*
X017563Y031337D01*
X017579Y031354D01*
X017598Y031368D01*
X017619Y031378D01*
X017641Y031385D01*
X017664Y031388D01*
X017688Y031387D01*
X017710Y031382D01*
X017732Y031373D01*
X017752Y031361D01*
X017770Y031345D01*
X017784Y031327D01*
X017796Y031307D01*
X017804Y031285D01*
X017808Y031262D01*
X017808Y031238D01*
X017804Y031215D01*
X017796Y031193D01*
X017784Y031173D01*
X017770Y031155D01*
X017752Y031139D01*
X017732Y031127D01*
X017710Y031118D01*
X017688Y031113D01*
X017664Y031112D01*
X017641Y031115D01*
X017619Y031122D01*
X017598Y031132D01*
X017579Y031146D01*
X017563Y031163D01*
X017550Y031183D01*
X017540Y031204D01*
X017534Y031227D01*
X017532Y031250D01*
X017532Y031750D02*
X017534Y031773D01*
X017540Y031796D01*
X017550Y031817D01*
X017563Y031837D01*
X017579Y031854D01*
X017598Y031868D01*
X017619Y031878D01*
X017641Y031885D01*
X017664Y031888D01*
X017688Y031887D01*
X017710Y031882D01*
X017732Y031873D01*
X017752Y031861D01*
X017770Y031845D01*
X017784Y031827D01*
X017796Y031807D01*
X017804Y031785D01*
X017808Y031762D01*
X017808Y031738D01*
X017804Y031715D01*
X017796Y031693D01*
X017784Y031673D01*
X017770Y031655D01*
X017752Y031639D01*
X017732Y031627D01*
X017710Y031618D01*
X017688Y031613D01*
X017664Y031612D01*
X017641Y031615D01*
X017619Y031622D01*
X017598Y031632D01*
X017579Y031646D01*
X017563Y031663D01*
X017550Y031683D01*
X017540Y031704D01*
X017534Y031727D01*
X017532Y031750D01*
X017532Y032250D02*
X017534Y032273D01*
X017540Y032296D01*
X017550Y032317D01*
X017563Y032337D01*
X017579Y032354D01*
X017598Y032368D01*
X017619Y032378D01*
X017641Y032385D01*
X017664Y032388D01*
X017688Y032387D01*
X017710Y032382D01*
X017732Y032373D01*
X017752Y032361D01*
X017770Y032345D01*
X017784Y032327D01*
X017796Y032307D01*
X017804Y032285D01*
X017808Y032262D01*
X017808Y032238D01*
X017804Y032215D01*
X017796Y032193D01*
X017784Y032173D01*
X017770Y032155D01*
X017752Y032139D01*
X017732Y032127D01*
X017710Y032118D01*
X017688Y032113D01*
X017664Y032112D01*
X017641Y032115D01*
X017619Y032122D01*
X017598Y032132D01*
X017579Y032146D01*
X017563Y032163D01*
X017550Y032183D01*
X017540Y032204D01*
X017534Y032227D01*
X017532Y032250D01*
X017532Y032750D02*
X017534Y032773D01*
X017540Y032796D01*
X017550Y032817D01*
X017563Y032837D01*
X017579Y032854D01*
X017598Y032868D01*
X017619Y032878D01*
X017641Y032885D01*
X017664Y032888D01*
X017688Y032887D01*
X017710Y032882D01*
X017732Y032873D01*
X017752Y032861D01*
X017770Y032845D01*
X017784Y032827D01*
X017796Y032807D01*
X017804Y032785D01*
X017808Y032762D01*
X017808Y032738D01*
X017804Y032715D01*
X017796Y032693D01*
X017784Y032673D01*
X017770Y032655D01*
X017752Y032639D01*
X017732Y032627D01*
X017710Y032618D01*
X017688Y032613D01*
X017664Y032612D01*
X017641Y032615D01*
X017619Y032622D01*
X017598Y032632D01*
X017579Y032646D01*
X017563Y032663D01*
X017550Y032683D01*
X017540Y032704D01*
X017534Y032727D01*
X017532Y032750D01*
X017532Y033250D02*
X017534Y033273D01*
X017540Y033296D01*
X017550Y033317D01*
X017563Y033337D01*
X017579Y033354D01*
X017598Y033368D01*
X017619Y033378D01*
X017641Y033385D01*
X017664Y033388D01*
X017688Y033387D01*
X017710Y033382D01*
X017732Y033373D01*
X017752Y033361D01*
X017770Y033345D01*
X017784Y033327D01*
X017796Y033307D01*
X017804Y033285D01*
X017808Y033262D01*
X017808Y033238D01*
X017804Y033215D01*
X017796Y033193D01*
X017784Y033173D01*
X017770Y033155D01*
X017752Y033139D01*
X017732Y033127D01*
X017710Y033118D01*
X017688Y033113D01*
X017664Y033112D01*
X017641Y033115D01*
X017619Y033122D01*
X017598Y033132D01*
X017579Y033146D01*
X017563Y033163D01*
X017550Y033183D01*
X017540Y033204D01*
X017534Y033227D01*
X017532Y033250D01*
X018032Y030250D02*
X018034Y030273D01*
X018040Y030296D01*
X018050Y030317D01*
X018063Y030337D01*
X018079Y030354D01*
X018098Y030368D01*
X018119Y030378D01*
X018141Y030385D01*
X018164Y030388D01*
X018188Y030387D01*
X018210Y030382D01*
X018232Y030373D01*
X018252Y030361D01*
X018270Y030345D01*
X018284Y030327D01*
X018296Y030307D01*
X018304Y030285D01*
X018308Y030262D01*
X018308Y030238D01*
X018304Y030215D01*
X018296Y030193D01*
X018284Y030173D01*
X018270Y030155D01*
X018252Y030139D01*
X018232Y030127D01*
X018210Y030118D01*
X018188Y030113D01*
X018164Y030112D01*
X018141Y030115D01*
X018119Y030122D01*
X018098Y030132D01*
X018079Y030146D01*
X018063Y030163D01*
X018050Y030183D01*
X018040Y030204D01*
X018034Y030227D01*
X018032Y030250D01*
X018532Y030250D02*
X018534Y030273D01*
X018540Y030296D01*
X018550Y030317D01*
X018563Y030337D01*
X018579Y030354D01*
X018598Y030368D01*
X018619Y030378D01*
X018641Y030385D01*
X018664Y030388D01*
X018688Y030387D01*
X018710Y030382D01*
X018732Y030373D01*
X018752Y030361D01*
X018770Y030345D01*
X018784Y030327D01*
X018796Y030307D01*
X018804Y030285D01*
X018808Y030262D01*
X018808Y030238D01*
X018804Y030215D01*
X018796Y030193D01*
X018784Y030173D01*
X018770Y030155D01*
X018752Y030139D01*
X018732Y030127D01*
X018710Y030118D01*
X018688Y030113D01*
X018664Y030112D01*
X018641Y030115D01*
X018619Y030122D01*
X018598Y030132D01*
X018579Y030146D01*
X018563Y030163D01*
X018550Y030183D01*
X018540Y030204D01*
X018534Y030227D01*
X018532Y030250D01*
X019032Y030250D02*
X019034Y030273D01*
X019040Y030296D01*
X019050Y030317D01*
X019063Y030337D01*
X019079Y030354D01*
X019098Y030368D01*
X019119Y030378D01*
X019141Y030385D01*
X019164Y030388D01*
X019188Y030387D01*
X019210Y030382D01*
X019232Y030373D01*
X019252Y030361D01*
X019270Y030345D01*
X019284Y030327D01*
X019296Y030307D01*
X019304Y030285D01*
X019308Y030262D01*
X019308Y030238D01*
X019304Y030215D01*
X019296Y030193D01*
X019284Y030173D01*
X019270Y030155D01*
X019252Y030139D01*
X019232Y030127D01*
X019210Y030118D01*
X019188Y030113D01*
X019164Y030112D01*
X019141Y030115D01*
X019119Y030122D01*
X019098Y030132D01*
X019079Y030146D01*
X019063Y030163D01*
X019050Y030183D01*
X019040Y030204D01*
X019034Y030227D01*
X019032Y030250D01*
X019532Y030250D02*
X019534Y030273D01*
X019540Y030296D01*
X019550Y030317D01*
X019563Y030337D01*
X019579Y030354D01*
X019598Y030368D01*
X019619Y030378D01*
X019641Y030385D01*
X019664Y030388D01*
X019688Y030387D01*
X019710Y030382D01*
X019732Y030373D01*
X019752Y030361D01*
X019770Y030345D01*
X019784Y030327D01*
X019796Y030307D01*
X019804Y030285D01*
X019808Y030262D01*
X019808Y030238D01*
X019804Y030215D01*
X019796Y030193D01*
X019784Y030173D01*
X019770Y030155D01*
X019752Y030139D01*
X019732Y030127D01*
X019710Y030118D01*
X019688Y030113D01*
X019664Y030112D01*
X019641Y030115D01*
X019619Y030122D01*
X019598Y030132D01*
X019579Y030146D01*
X019563Y030163D01*
X019550Y030183D01*
X019540Y030204D01*
X019534Y030227D01*
X019532Y030250D01*
X020032Y030250D02*
X020034Y030273D01*
X020040Y030296D01*
X020050Y030317D01*
X020063Y030337D01*
X020079Y030354D01*
X020098Y030368D01*
X020119Y030378D01*
X020141Y030385D01*
X020164Y030388D01*
X020188Y030387D01*
X020210Y030382D01*
X020232Y030373D01*
X020252Y030361D01*
X020270Y030345D01*
X020284Y030327D01*
X020296Y030307D01*
X020304Y030285D01*
X020308Y030262D01*
X020308Y030238D01*
X020304Y030215D01*
X020296Y030193D01*
X020284Y030173D01*
X020270Y030155D01*
X020252Y030139D01*
X020232Y030127D01*
X020210Y030118D01*
X020188Y030113D01*
X020164Y030112D01*
X020141Y030115D01*
X020119Y030122D01*
X020098Y030132D01*
X020079Y030146D01*
X020063Y030163D01*
X020050Y030183D01*
X020040Y030204D01*
X020034Y030227D01*
X020032Y030250D01*
X020532Y030250D02*
X020534Y030273D01*
X020540Y030296D01*
X020550Y030317D01*
X020563Y030337D01*
X020579Y030354D01*
X020598Y030368D01*
X020619Y030378D01*
X020641Y030385D01*
X020664Y030388D01*
X020688Y030387D01*
X020710Y030382D01*
X020732Y030373D01*
X020752Y030361D01*
X020770Y030345D01*
X020784Y030327D01*
X020796Y030307D01*
X020804Y030285D01*
X020808Y030262D01*
X020808Y030238D01*
X020804Y030215D01*
X020796Y030193D01*
X020784Y030173D01*
X020770Y030155D01*
X020752Y030139D01*
X020732Y030127D01*
X020710Y030118D01*
X020688Y030113D01*
X020664Y030112D01*
X020641Y030115D01*
X020619Y030122D01*
X020598Y030132D01*
X020579Y030146D01*
X020563Y030163D01*
X020550Y030183D01*
X020540Y030204D01*
X020534Y030227D01*
X020532Y030250D01*
X021032Y030250D02*
X021034Y030273D01*
X021040Y030296D01*
X021050Y030317D01*
X021063Y030337D01*
X021079Y030354D01*
X021098Y030368D01*
X021119Y030378D01*
X021141Y030385D01*
X021164Y030388D01*
X021188Y030387D01*
X021210Y030382D01*
X021232Y030373D01*
X021252Y030361D01*
X021270Y030345D01*
X021284Y030327D01*
X021296Y030307D01*
X021304Y030285D01*
X021308Y030262D01*
X021308Y030238D01*
X021304Y030215D01*
X021296Y030193D01*
X021284Y030173D01*
X021270Y030155D01*
X021252Y030139D01*
X021232Y030127D01*
X021210Y030118D01*
X021188Y030113D01*
X021164Y030112D01*
X021141Y030115D01*
X021119Y030122D01*
X021098Y030132D01*
X021079Y030146D01*
X021063Y030163D01*
X021050Y030183D01*
X021040Y030204D01*
X021034Y030227D01*
X021032Y030250D01*
X021532Y030250D02*
X021534Y030273D01*
X021540Y030296D01*
X021550Y030317D01*
X021563Y030337D01*
X021579Y030354D01*
X021598Y030368D01*
X021619Y030378D01*
X021641Y030385D01*
X021664Y030388D01*
X021688Y030387D01*
X021710Y030382D01*
X021732Y030373D01*
X021752Y030361D01*
X021770Y030345D01*
X021784Y030327D01*
X021796Y030307D01*
X021804Y030285D01*
X021808Y030262D01*
X021808Y030238D01*
X021804Y030215D01*
X021796Y030193D01*
X021784Y030173D01*
X021770Y030155D01*
X021752Y030139D01*
X021732Y030127D01*
X021710Y030118D01*
X021688Y030113D01*
X021664Y030112D01*
X021641Y030115D01*
X021619Y030122D01*
X021598Y030132D01*
X021579Y030146D01*
X021563Y030163D01*
X021550Y030183D01*
X021540Y030204D01*
X021534Y030227D01*
X021532Y030250D01*
X022032Y030250D02*
X022034Y030273D01*
X022040Y030296D01*
X022050Y030317D01*
X022063Y030337D01*
X022079Y030354D01*
X022098Y030368D01*
X022119Y030378D01*
X022141Y030385D01*
X022164Y030388D01*
X022188Y030387D01*
X022210Y030382D01*
X022232Y030373D01*
X022252Y030361D01*
X022270Y030345D01*
X022284Y030327D01*
X022296Y030307D01*
X022304Y030285D01*
X022308Y030262D01*
X022308Y030238D01*
X022304Y030215D01*
X022296Y030193D01*
X022284Y030173D01*
X022270Y030155D01*
X022252Y030139D01*
X022232Y030127D01*
X022210Y030118D01*
X022188Y030113D01*
X022164Y030112D01*
X022141Y030115D01*
X022119Y030122D01*
X022098Y030132D01*
X022079Y030146D01*
X022063Y030163D01*
X022050Y030183D01*
X022040Y030204D01*
X022034Y030227D01*
X022032Y030250D01*
X022532Y030250D02*
X022534Y030273D01*
X022540Y030296D01*
X022550Y030317D01*
X022563Y030337D01*
X022579Y030354D01*
X022598Y030368D01*
X022619Y030378D01*
X022641Y030385D01*
X022664Y030388D01*
X022688Y030387D01*
X022710Y030382D01*
X022732Y030373D01*
X022752Y030361D01*
X022770Y030345D01*
X022784Y030327D01*
X022796Y030307D01*
X022804Y030285D01*
X022808Y030262D01*
X022808Y030238D01*
X022804Y030215D01*
X022796Y030193D01*
X022784Y030173D01*
X022770Y030155D01*
X022752Y030139D01*
X022732Y030127D01*
X022710Y030118D01*
X022688Y030113D01*
X022664Y030112D01*
X022641Y030115D01*
X022619Y030122D01*
X022598Y030132D01*
X022579Y030146D01*
X022563Y030163D01*
X022550Y030183D01*
X022540Y030204D01*
X022534Y030227D01*
X022532Y030250D01*
X023032Y030250D02*
X023034Y030273D01*
X023040Y030296D01*
X023050Y030317D01*
X023063Y030337D01*
X023079Y030354D01*
X023098Y030368D01*
X023119Y030378D01*
X023141Y030385D01*
X023164Y030388D01*
X023188Y030387D01*
X023210Y030382D01*
X023232Y030373D01*
X023252Y030361D01*
X023270Y030345D01*
X023284Y030327D01*
X023296Y030307D01*
X023304Y030285D01*
X023308Y030262D01*
X023308Y030238D01*
X023304Y030215D01*
X023296Y030193D01*
X023284Y030173D01*
X023270Y030155D01*
X023252Y030139D01*
X023232Y030127D01*
X023210Y030118D01*
X023188Y030113D01*
X023164Y030112D01*
X023141Y030115D01*
X023119Y030122D01*
X023098Y030132D01*
X023079Y030146D01*
X023063Y030163D01*
X023050Y030183D01*
X023040Y030204D01*
X023034Y030227D01*
X023032Y030250D01*
X023532Y030250D02*
X023534Y030273D01*
X023540Y030296D01*
X023550Y030317D01*
X023563Y030337D01*
X023579Y030354D01*
X023598Y030368D01*
X023619Y030378D01*
X023641Y030385D01*
X023664Y030388D01*
X023688Y030387D01*
X023710Y030382D01*
X023732Y030373D01*
X023752Y030361D01*
X023770Y030345D01*
X023784Y030327D01*
X023796Y030307D01*
X023804Y030285D01*
X023808Y030262D01*
X023808Y030238D01*
X023804Y030215D01*
X023796Y030193D01*
X023784Y030173D01*
X023770Y030155D01*
X023752Y030139D01*
X023732Y030127D01*
X023710Y030118D01*
X023688Y030113D01*
X023664Y030112D01*
X023641Y030115D01*
X023619Y030122D01*
X023598Y030132D01*
X023579Y030146D01*
X023563Y030163D01*
X023550Y030183D01*
X023540Y030204D01*
X023534Y030227D01*
X023532Y030250D01*
X024032Y030250D02*
X024034Y030273D01*
X024040Y030296D01*
X024050Y030317D01*
X024063Y030337D01*
X024079Y030354D01*
X024098Y030368D01*
X024119Y030378D01*
X024141Y030385D01*
X024164Y030388D01*
X024188Y030387D01*
X024210Y030382D01*
X024232Y030373D01*
X024252Y030361D01*
X024270Y030345D01*
X024284Y030327D01*
X024296Y030307D01*
X024304Y030285D01*
X024308Y030262D01*
X024308Y030238D01*
X024304Y030215D01*
X024296Y030193D01*
X024284Y030173D01*
X024270Y030155D01*
X024252Y030139D01*
X024232Y030127D01*
X024210Y030118D01*
X024188Y030113D01*
X024164Y030112D01*
X024141Y030115D01*
X024119Y030122D01*
X024098Y030132D01*
X024079Y030146D01*
X024063Y030163D01*
X024050Y030183D01*
X024040Y030204D01*
X024034Y030227D01*
X024032Y030250D01*
X024532Y030250D02*
X024534Y030273D01*
X024540Y030296D01*
X024550Y030317D01*
X024563Y030337D01*
X024579Y030354D01*
X024598Y030368D01*
X024619Y030378D01*
X024641Y030385D01*
X024664Y030388D01*
X024688Y030387D01*
X024710Y030382D01*
X024732Y030373D01*
X024752Y030361D01*
X024770Y030345D01*
X024784Y030327D01*
X024796Y030307D01*
X024804Y030285D01*
X024808Y030262D01*
X024808Y030238D01*
X024804Y030215D01*
X024796Y030193D01*
X024784Y030173D01*
X024770Y030155D01*
X024752Y030139D01*
X024732Y030127D01*
X024710Y030118D01*
X024688Y030113D01*
X024664Y030112D01*
X024641Y030115D01*
X024619Y030122D01*
X024598Y030132D01*
X024579Y030146D01*
X024563Y030163D01*
X024550Y030183D01*
X024540Y030204D01*
X024534Y030227D01*
X024532Y030250D01*
M02*
