G75*
G70*
%OFA0B0*%
%FSLAX24Y24*%
%IPPOS*%
%LPD*%
%AMOC8*
5,1,8,0,0,1.08239X$1,22.5*
%
%ADD10C,0.0000*%
%ADD11C,0.0050*%
%ADD12C,0.0040*%
%ADD13C,0.0060*%
D10*
X002232Y000500D02*
X001878Y001012D01*
X001878Y010146D01*
X000920Y010146D01*
X000920Y027862D01*
X001753Y027862D01*
X001753Y033571D01*
X024587Y033571D01*
X024587Y027862D01*
X025420Y027862D01*
X025420Y010146D01*
X024462Y010146D01*
X024462Y001012D01*
X024108Y000500D01*
X002232Y000500D01*
X012186Y017626D02*
X012188Y017688D01*
X012194Y017751D01*
X012204Y017812D01*
X012218Y017873D01*
X012235Y017933D01*
X012256Y017992D01*
X012282Y018049D01*
X012310Y018104D01*
X012342Y018158D01*
X012378Y018209D01*
X012416Y018259D01*
X012458Y018305D01*
X012502Y018349D01*
X012550Y018390D01*
X012599Y018428D01*
X012651Y018462D01*
X012705Y018493D01*
X012761Y018521D01*
X012819Y018545D01*
X012878Y018566D01*
X012938Y018582D01*
X012999Y018595D01*
X013061Y018604D01*
X013123Y018609D01*
X013186Y018610D01*
X013248Y018607D01*
X013310Y018600D01*
X013372Y018589D01*
X013432Y018574D01*
X013492Y018556D01*
X013550Y018534D01*
X013607Y018508D01*
X013662Y018478D01*
X013715Y018445D01*
X013766Y018409D01*
X013814Y018370D01*
X013860Y018327D01*
X013903Y018282D01*
X013943Y018234D01*
X013980Y018184D01*
X014014Y018131D01*
X014045Y018077D01*
X014071Y018021D01*
X014095Y017963D01*
X014114Y017903D01*
X014130Y017843D01*
X014142Y017781D01*
X014150Y017720D01*
X014154Y017657D01*
X014154Y017595D01*
X014150Y017532D01*
X014142Y017471D01*
X014130Y017409D01*
X014114Y017349D01*
X014095Y017289D01*
X014071Y017231D01*
X014045Y017175D01*
X014014Y017121D01*
X013980Y017068D01*
X013943Y017018D01*
X013903Y016970D01*
X013860Y016925D01*
X013814Y016882D01*
X013766Y016843D01*
X013715Y016807D01*
X013662Y016774D01*
X013607Y016744D01*
X013550Y016718D01*
X013492Y016696D01*
X013432Y016678D01*
X013372Y016663D01*
X013310Y016652D01*
X013248Y016645D01*
X013186Y016642D01*
X013123Y016643D01*
X013061Y016648D01*
X012999Y016657D01*
X012938Y016670D01*
X012878Y016686D01*
X012819Y016707D01*
X012761Y016731D01*
X012705Y016759D01*
X012651Y016790D01*
X012599Y016824D01*
X012550Y016862D01*
X012502Y016903D01*
X012458Y016947D01*
X012416Y016993D01*
X012378Y017043D01*
X012342Y017094D01*
X012310Y017148D01*
X012282Y017203D01*
X012256Y017260D01*
X012235Y017319D01*
X012218Y017379D01*
X012204Y017440D01*
X012194Y017501D01*
X012188Y017564D01*
X012186Y017626D01*
X020508Y029000D02*
X020512Y029000D01*
X020513Y029002D01*
X020513Y029003D01*
X020512Y029005D01*
X020508Y029005D01*
X020507Y029003D01*
X020507Y029002D01*
X020508Y029000D01*
X020508Y029005D02*
X020507Y029007D01*
X020507Y029008D01*
X020508Y029010D01*
X020512Y029010D01*
X020513Y029008D01*
X020513Y029007D01*
X020512Y029005D01*
X020516Y029002D02*
X020518Y029000D01*
X020521Y029000D01*
X020523Y029002D01*
X020516Y029008D01*
X020516Y029002D01*
X020516Y029008D02*
X020518Y029010D01*
X020521Y029010D01*
X020523Y029008D01*
X020523Y029002D01*
X020525Y029002D02*
X020527Y029002D01*
X020527Y029000D01*
X020525Y029000D01*
X020525Y029002D01*
X020525Y029000D02*
X020529Y028997D01*
X020533Y029000D02*
X020536Y029000D01*
X020538Y029002D01*
X020538Y029005D02*
X020535Y029007D01*
X020533Y029007D01*
X020531Y029005D01*
X020531Y029002D01*
X020533Y029000D01*
X020538Y029005D02*
X020538Y029010D01*
X020531Y029010D01*
X020541Y029005D02*
X020547Y029005D01*
X020550Y029005D02*
X020556Y029005D01*
X020551Y029010D01*
X020551Y029000D01*
X020559Y029002D02*
X020561Y029000D01*
X020564Y029000D01*
X020566Y029002D01*
X020568Y029002D02*
X020570Y029002D01*
X020570Y029000D01*
X020568Y029000D01*
X020568Y029002D01*
X020568Y029000D02*
X020572Y028997D01*
X020574Y029000D02*
X020581Y029000D01*
X020574Y029007D01*
X020574Y029008D01*
X020576Y029010D01*
X020579Y029010D01*
X020581Y029008D01*
X020584Y029008D02*
X020585Y029010D01*
X020590Y029010D01*
X020590Y029000D01*
X020585Y029000D01*
X020584Y029002D01*
X020584Y029008D01*
X020593Y029010D02*
X020593Y029000D01*
X020599Y029000D02*
X020599Y029010D01*
X020596Y029007D01*
X020593Y029010D01*
X020602Y029008D02*
X020604Y029010D01*
X020607Y029010D01*
X020609Y029008D01*
X020609Y029007D01*
X020607Y029005D01*
X020604Y029005D01*
X020602Y029003D01*
X020602Y029002D01*
X020604Y029000D01*
X020607Y029000D01*
X020609Y029002D01*
X020611Y029002D02*
X020611Y029008D01*
X020613Y029010D01*
X020618Y029010D01*
X020618Y029000D01*
X020613Y029000D01*
X020611Y029002D01*
X020620Y029000D02*
X020620Y029007D01*
X020624Y029010D01*
X020627Y029007D01*
X020627Y029000D01*
X020627Y029005D02*
X020620Y029005D01*
X020630Y029005D02*
X020631Y029003D01*
X020636Y029003D01*
X020636Y029000D02*
X020636Y029010D01*
X020631Y029010D01*
X020630Y029008D01*
X020630Y029005D01*
X020639Y029000D02*
X020645Y029000D01*
X020645Y029010D01*
X020639Y029010D01*
X020642Y029005D02*
X020645Y029005D01*
X020648Y029005D02*
X020650Y029003D01*
X020655Y029003D01*
X020655Y029000D02*
X020655Y029010D01*
X020650Y029010D01*
X020648Y029008D01*
X020648Y029005D01*
X020651Y029003D02*
X020648Y029000D01*
X020657Y029000D02*
X020661Y029000D01*
X020659Y029000D02*
X020659Y029010D01*
X020661Y029010D02*
X020657Y029010D01*
X020663Y029010D02*
X020663Y029000D01*
X020667Y029003D01*
X020670Y029000D01*
X020670Y029010D01*
X020566Y029010D02*
X020566Y029005D01*
X020562Y029007D01*
X020561Y029007D01*
X020559Y029005D01*
X020559Y029002D01*
X020559Y029010D02*
X020566Y029010D01*
X020282Y030250D02*
X020284Y030273D01*
X020290Y030296D01*
X020300Y030317D01*
X020313Y030337D01*
X020329Y030354D01*
X020348Y030368D01*
X020369Y030378D01*
X020391Y030385D01*
X020414Y030388D01*
X020438Y030387D01*
X020460Y030382D01*
X020482Y030373D01*
X020502Y030361D01*
X020520Y030345D01*
X020534Y030327D01*
X020546Y030307D01*
X020554Y030285D01*
X020558Y030262D01*
X020558Y030238D01*
X020554Y030215D01*
X020546Y030193D01*
X020534Y030173D01*
X020520Y030155D01*
X020502Y030139D01*
X020482Y030127D01*
X020460Y030118D01*
X020438Y030113D01*
X020414Y030112D01*
X020391Y030115D01*
X020369Y030122D01*
X020348Y030132D01*
X020329Y030146D01*
X020313Y030163D01*
X020300Y030183D01*
X020290Y030204D01*
X020284Y030227D01*
X020282Y030250D01*
X019782Y030250D02*
X019784Y030273D01*
X019790Y030296D01*
X019800Y030317D01*
X019813Y030337D01*
X019829Y030354D01*
X019848Y030368D01*
X019869Y030378D01*
X019891Y030385D01*
X019914Y030388D01*
X019938Y030387D01*
X019960Y030382D01*
X019982Y030373D01*
X020002Y030361D01*
X020020Y030345D01*
X020034Y030327D01*
X020046Y030307D01*
X020054Y030285D01*
X020058Y030262D01*
X020058Y030238D01*
X020054Y030215D01*
X020046Y030193D01*
X020034Y030173D01*
X020020Y030155D01*
X020002Y030139D01*
X019982Y030127D01*
X019960Y030118D01*
X019938Y030113D01*
X019914Y030112D01*
X019891Y030115D01*
X019869Y030122D01*
X019848Y030132D01*
X019829Y030146D01*
X019813Y030163D01*
X019800Y030183D01*
X019790Y030204D01*
X019784Y030227D01*
X019782Y030250D01*
X019282Y030250D02*
X019284Y030273D01*
X019290Y030296D01*
X019300Y030317D01*
X019313Y030337D01*
X019329Y030354D01*
X019348Y030368D01*
X019369Y030378D01*
X019391Y030385D01*
X019414Y030388D01*
X019438Y030387D01*
X019460Y030382D01*
X019482Y030373D01*
X019502Y030361D01*
X019520Y030345D01*
X019534Y030327D01*
X019546Y030307D01*
X019554Y030285D01*
X019558Y030262D01*
X019558Y030238D01*
X019554Y030215D01*
X019546Y030193D01*
X019534Y030173D01*
X019520Y030155D01*
X019502Y030139D01*
X019482Y030127D01*
X019460Y030118D01*
X019438Y030113D01*
X019414Y030112D01*
X019391Y030115D01*
X019369Y030122D01*
X019348Y030132D01*
X019329Y030146D01*
X019313Y030163D01*
X019300Y030183D01*
X019290Y030204D01*
X019284Y030227D01*
X019282Y030250D01*
X018782Y030250D02*
X018784Y030273D01*
X018790Y030296D01*
X018800Y030317D01*
X018813Y030337D01*
X018829Y030354D01*
X018848Y030368D01*
X018869Y030378D01*
X018891Y030385D01*
X018914Y030388D01*
X018938Y030387D01*
X018960Y030382D01*
X018982Y030373D01*
X019002Y030361D01*
X019020Y030345D01*
X019034Y030327D01*
X019046Y030307D01*
X019054Y030285D01*
X019058Y030262D01*
X019058Y030238D01*
X019054Y030215D01*
X019046Y030193D01*
X019034Y030173D01*
X019020Y030155D01*
X019002Y030139D01*
X018982Y030127D01*
X018960Y030118D01*
X018938Y030113D01*
X018914Y030112D01*
X018891Y030115D01*
X018869Y030122D01*
X018848Y030132D01*
X018829Y030146D01*
X018813Y030163D01*
X018800Y030183D01*
X018790Y030204D01*
X018784Y030227D01*
X018782Y030250D01*
X018282Y030250D02*
X018284Y030273D01*
X018290Y030296D01*
X018300Y030317D01*
X018313Y030337D01*
X018329Y030354D01*
X018348Y030368D01*
X018369Y030378D01*
X018391Y030385D01*
X018414Y030388D01*
X018438Y030387D01*
X018460Y030382D01*
X018482Y030373D01*
X018502Y030361D01*
X018520Y030345D01*
X018534Y030327D01*
X018546Y030307D01*
X018554Y030285D01*
X018558Y030262D01*
X018558Y030238D01*
X018554Y030215D01*
X018546Y030193D01*
X018534Y030173D01*
X018520Y030155D01*
X018502Y030139D01*
X018482Y030127D01*
X018460Y030118D01*
X018438Y030113D01*
X018414Y030112D01*
X018391Y030115D01*
X018369Y030122D01*
X018348Y030132D01*
X018329Y030146D01*
X018313Y030163D01*
X018300Y030183D01*
X018290Y030204D01*
X018284Y030227D01*
X018282Y030250D01*
X017782Y030250D02*
X017784Y030273D01*
X017790Y030296D01*
X017800Y030317D01*
X017813Y030337D01*
X017829Y030354D01*
X017848Y030368D01*
X017869Y030378D01*
X017891Y030385D01*
X017914Y030388D01*
X017938Y030387D01*
X017960Y030382D01*
X017982Y030373D01*
X018002Y030361D01*
X018020Y030345D01*
X018034Y030327D01*
X018046Y030307D01*
X018054Y030285D01*
X018058Y030262D01*
X018058Y030238D01*
X018054Y030215D01*
X018046Y030193D01*
X018034Y030173D01*
X018020Y030155D01*
X018002Y030139D01*
X017982Y030127D01*
X017960Y030118D01*
X017938Y030113D01*
X017914Y030112D01*
X017891Y030115D01*
X017869Y030122D01*
X017848Y030132D01*
X017829Y030146D01*
X017813Y030163D01*
X017800Y030183D01*
X017790Y030204D01*
X017784Y030227D01*
X017782Y030250D01*
X017282Y030250D02*
X017284Y030273D01*
X017290Y030296D01*
X017300Y030317D01*
X017313Y030337D01*
X017329Y030354D01*
X017348Y030368D01*
X017369Y030378D01*
X017391Y030385D01*
X017414Y030388D01*
X017438Y030387D01*
X017460Y030382D01*
X017482Y030373D01*
X017502Y030361D01*
X017520Y030345D01*
X017534Y030327D01*
X017546Y030307D01*
X017554Y030285D01*
X017558Y030262D01*
X017558Y030238D01*
X017554Y030215D01*
X017546Y030193D01*
X017534Y030173D01*
X017520Y030155D01*
X017502Y030139D01*
X017482Y030127D01*
X017460Y030118D01*
X017438Y030113D01*
X017414Y030112D01*
X017391Y030115D01*
X017369Y030122D01*
X017348Y030132D01*
X017329Y030146D01*
X017313Y030163D01*
X017300Y030183D01*
X017290Y030204D01*
X017284Y030227D01*
X017282Y030250D01*
X017282Y030750D02*
X017284Y030773D01*
X017290Y030796D01*
X017300Y030817D01*
X017313Y030837D01*
X017329Y030854D01*
X017348Y030868D01*
X017369Y030878D01*
X017391Y030885D01*
X017414Y030888D01*
X017438Y030887D01*
X017460Y030882D01*
X017482Y030873D01*
X017502Y030861D01*
X017520Y030845D01*
X017534Y030827D01*
X017546Y030807D01*
X017554Y030785D01*
X017558Y030762D01*
X017558Y030738D01*
X017554Y030715D01*
X017546Y030693D01*
X017534Y030673D01*
X017520Y030655D01*
X017502Y030639D01*
X017482Y030627D01*
X017460Y030618D01*
X017438Y030613D01*
X017414Y030612D01*
X017391Y030615D01*
X017369Y030622D01*
X017348Y030632D01*
X017329Y030646D01*
X017313Y030663D01*
X017300Y030683D01*
X017290Y030704D01*
X017284Y030727D01*
X017282Y030750D01*
X017282Y031250D02*
X017284Y031273D01*
X017290Y031296D01*
X017300Y031317D01*
X017313Y031337D01*
X017329Y031354D01*
X017348Y031368D01*
X017369Y031378D01*
X017391Y031385D01*
X017414Y031388D01*
X017438Y031387D01*
X017460Y031382D01*
X017482Y031373D01*
X017502Y031361D01*
X017520Y031345D01*
X017534Y031327D01*
X017546Y031307D01*
X017554Y031285D01*
X017558Y031262D01*
X017558Y031238D01*
X017554Y031215D01*
X017546Y031193D01*
X017534Y031173D01*
X017520Y031155D01*
X017502Y031139D01*
X017482Y031127D01*
X017460Y031118D01*
X017438Y031113D01*
X017414Y031112D01*
X017391Y031115D01*
X017369Y031122D01*
X017348Y031132D01*
X017329Y031146D01*
X017313Y031163D01*
X017300Y031183D01*
X017290Y031204D01*
X017284Y031227D01*
X017282Y031250D01*
X017282Y031750D02*
X017284Y031773D01*
X017290Y031796D01*
X017300Y031817D01*
X017313Y031837D01*
X017329Y031854D01*
X017348Y031868D01*
X017369Y031878D01*
X017391Y031885D01*
X017414Y031888D01*
X017438Y031887D01*
X017460Y031882D01*
X017482Y031873D01*
X017502Y031861D01*
X017520Y031845D01*
X017534Y031827D01*
X017546Y031807D01*
X017554Y031785D01*
X017558Y031762D01*
X017558Y031738D01*
X017554Y031715D01*
X017546Y031693D01*
X017534Y031673D01*
X017520Y031655D01*
X017502Y031639D01*
X017482Y031627D01*
X017460Y031618D01*
X017438Y031613D01*
X017414Y031612D01*
X017391Y031615D01*
X017369Y031622D01*
X017348Y031632D01*
X017329Y031646D01*
X017313Y031663D01*
X017300Y031683D01*
X017290Y031704D01*
X017284Y031727D01*
X017282Y031750D01*
X017282Y032250D02*
X017284Y032273D01*
X017290Y032296D01*
X017300Y032317D01*
X017313Y032337D01*
X017329Y032354D01*
X017348Y032368D01*
X017369Y032378D01*
X017391Y032385D01*
X017414Y032388D01*
X017438Y032387D01*
X017460Y032382D01*
X017482Y032373D01*
X017502Y032361D01*
X017520Y032345D01*
X017534Y032327D01*
X017546Y032307D01*
X017554Y032285D01*
X017558Y032262D01*
X017558Y032238D01*
X017554Y032215D01*
X017546Y032193D01*
X017534Y032173D01*
X017520Y032155D01*
X017502Y032139D01*
X017482Y032127D01*
X017460Y032118D01*
X017438Y032113D01*
X017414Y032112D01*
X017391Y032115D01*
X017369Y032122D01*
X017348Y032132D01*
X017329Y032146D01*
X017313Y032163D01*
X017300Y032183D01*
X017290Y032204D01*
X017284Y032227D01*
X017282Y032250D01*
X017282Y032750D02*
X017284Y032773D01*
X017290Y032796D01*
X017300Y032817D01*
X017313Y032837D01*
X017329Y032854D01*
X017348Y032868D01*
X017369Y032878D01*
X017391Y032885D01*
X017414Y032888D01*
X017438Y032887D01*
X017460Y032882D01*
X017482Y032873D01*
X017502Y032861D01*
X017520Y032845D01*
X017534Y032827D01*
X017546Y032807D01*
X017554Y032785D01*
X017558Y032762D01*
X017558Y032738D01*
X017554Y032715D01*
X017546Y032693D01*
X017534Y032673D01*
X017520Y032655D01*
X017502Y032639D01*
X017482Y032627D01*
X017460Y032618D01*
X017438Y032613D01*
X017414Y032612D01*
X017391Y032615D01*
X017369Y032622D01*
X017348Y032632D01*
X017329Y032646D01*
X017313Y032663D01*
X017300Y032683D01*
X017290Y032704D01*
X017284Y032727D01*
X017282Y032750D01*
X017282Y033250D02*
X017284Y033273D01*
X017290Y033296D01*
X017300Y033317D01*
X017313Y033337D01*
X017329Y033354D01*
X017348Y033368D01*
X017369Y033378D01*
X017391Y033385D01*
X017414Y033388D01*
X017438Y033387D01*
X017460Y033382D01*
X017482Y033373D01*
X017502Y033361D01*
X017520Y033345D01*
X017534Y033327D01*
X017546Y033307D01*
X017554Y033285D01*
X017558Y033262D01*
X017558Y033238D01*
X017554Y033215D01*
X017546Y033193D01*
X017534Y033173D01*
X017520Y033155D01*
X017502Y033139D01*
X017482Y033127D01*
X017460Y033118D01*
X017438Y033113D01*
X017414Y033112D01*
X017391Y033115D01*
X017369Y033122D01*
X017348Y033132D01*
X017329Y033146D01*
X017313Y033163D01*
X017300Y033183D01*
X017290Y033204D01*
X017284Y033227D01*
X017282Y033250D01*
X020782Y030250D02*
X020784Y030273D01*
X020790Y030296D01*
X020800Y030317D01*
X020813Y030337D01*
X020829Y030354D01*
X020848Y030368D01*
X020869Y030378D01*
X020891Y030385D01*
X020914Y030388D01*
X020938Y030387D01*
X020960Y030382D01*
X020982Y030373D01*
X021002Y030361D01*
X021020Y030345D01*
X021034Y030327D01*
X021046Y030307D01*
X021054Y030285D01*
X021058Y030262D01*
X021058Y030238D01*
X021054Y030215D01*
X021046Y030193D01*
X021034Y030173D01*
X021020Y030155D01*
X021002Y030139D01*
X020982Y030127D01*
X020960Y030118D01*
X020938Y030113D01*
X020914Y030112D01*
X020891Y030115D01*
X020869Y030122D01*
X020848Y030132D01*
X020829Y030146D01*
X020813Y030163D01*
X020800Y030183D01*
X020790Y030204D01*
X020784Y030227D01*
X020782Y030250D01*
X021282Y030250D02*
X021284Y030273D01*
X021290Y030296D01*
X021300Y030317D01*
X021313Y030337D01*
X021329Y030354D01*
X021348Y030368D01*
X021369Y030378D01*
X021391Y030385D01*
X021414Y030388D01*
X021438Y030387D01*
X021460Y030382D01*
X021482Y030373D01*
X021502Y030361D01*
X021520Y030345D01*
X021534Y030327D01*
X021546Y030307D01*
X021554Y030285D01*
X021558Y030262D01*
X021558Y030238D01*
X021554Y030215D01*
X021546Y030193D01*
X021534Y030173D01*
X021520Y030155D01*
X021502Y030139D01*
X021482Y030127D01*
X021460Y030118D01*
X021438Y030113D01*
X021414Y030112D01*
X021391Y030115D01*
X021369Y030122D01*
X021348Y030132D01*
X021329Y030146D01*
X021313Y030163D01*
X021300Y030183D01*
X021290Y030204D01*
X021284Y030227D01*
X021282Y030250D01*
X021782Y030250D02*
X021784Y030273D01*
X021790Y030296D01*
X021800Y030317D01*
X021813Y030337D01*
X021829Y030354D01*
X021848Y030368D01*
X021869Y030378D01*
X021891Y030385D01*
X021914Y030388D01*
X021938Y030387D01*
X021960Y030382D01*
X021982Y030373D01*
X022002Y030361D01*
X022020Y030345D01*
X022034Y030327D01*
X022046Y030307D01*
X022054Y030285D01*
X022058Y030262D01*
X022058Y030238D01*
X022054Y030215D01*
X022046Y030193D01*
X022034Y030173D01*
X022020Y030155D01*
X022002Y030139D01*
X021982Y030127D01*
X021960Y030118D01*
X021938Y030113D01*
X021914Y030112D01*
X021891Y030115D01*
X021869Y030122D01*
X021848Y030132D01*
X021829Y030146D01*
X021813Y030163D01*
X021800Y030183D01*
X021790Y030204D01*
X021784Y030227D01*
X021782Y030250D01*
X022282Y030250D02*
X022284Y030273D01*
X022290Y030296D01*
X022300Y030317D01*
X022313Y030337D01*
X022329Y030354D01*
X022348Y030368D01*
X022369Y030378D01*
X022391Y030385D01*
X022414Y030388D01*
X022438Y030387D01*
X022460Y030382D01*
X022482Y030373D01*
X022502Y030361D01*
X022520Y030345D01*
X022534Y030327D01*
X022546Y030307D01*
X022554Y030285D01*
X022558Y030262D01*
X022558Y030238D01*
X022554Y030215D01*
X022546Y030193D01*
X022534Y030173D01*
X022520Y030155D01*
X022502Y030139D01*
X022482Y030127D01*
X022460Y030118D01*
X022438Y030113D01*
X022414Y030112D01*
X022391Y030115D01*
X022369Y030122D01*
X022348Y030132D01*
X022329Y030146D01*
X022313Y030163D01*
X022300Y030183D01*
X022290Y030204D01*
X022284Y030227D01*
X022282Y030250D01*
X022782Y030250D02*
X022784Y030273D01*
X022790Y030296D01*
X022800Y030317D01*
X022813Y030337D01*
X022829Y030354D01*
X022848Y030368D01*
X022869Y030378D01*
X022891Y030385D01*
X022914Y030388D01*
X022938Y030387D01*
X022960Y030382D01*
X022982Y030373D01*
X023002Y030361D01*
X023020Y030345D01*
X023034Y030327D01*
X023046Y030307D01*
X023054Y030285D01*
X023058Y030262D01*
X023058Y030238D01*
X023054Y030215D01*
X023046Y030193D01*
X023034Y030173D01*
X023020Y030155D01*
X023002Y030139D01*
X022982Y030127D01*
X022960Y030118D01*
X022938Y030113D01*
X022914Y030112D01*
X022891Y030115D01*
X022869Y030122D01*
X022848Y030132D01*
X022829Y030146D01*
X022813Y030163D01*
X022800Y030183D01*
X022790Y030204D01*
X022784Y030227D01*
X022782Y030250D01*
X023282Y030250D02*
X023284Y030273D01*
X023290Y030296D01*
X023300Y030317D01*
X023313Y030337D01*
X023329Y030354D01*
X023348Y030368D01*
X023369Y030378D01*
X023391Y030385D01*
X023414Y030388D01*
X023438Y030387D01*
X023460Y030382D01*
X023482Y030373D01*
X023502Y030361D01*
X023520Y030345D01*
X023534Y030327D01*
X023546Y030307D01*
X023554Y030285D01*
X023558Y030262D01*
X023558Y030238D01*
X023554Y030215D01*
X023546Y030193D01*
X023534Y030173D01*
X023520Y030155D01*
X023502Y030139D01*
X023482Y030127D01*
X023460Y030118D01*
X023438Y030113D01*
X023414Y030112D01*
X023391Y030115D01*
X023369Y030122D01*
X023348Y030132D01*
X023329Y030146D01*
X023313Y030163D01*
X023300Y030183D01*
X023290Y030204D01*
X023284Y030227D01*
X023282Y030250D01*
X023782Y030250D02*
X023784Y030273D01*
X023790Y030296D01*
X023800Y030317D01*
X023813Y030337D01*
X023829Y030354D01*
X023848Y030368D01*
X023869Y030378D01*
X023891Y030385D01*
X023914Y030388D01*
X023938Y030387D01*
X023960Y030382D01*
X023982Y030373D01*
X024002Y030361D01*
X024020Y030345D01*
X024034Y030327D01*
X024046Y030307D01*
X024054Y030285D01*
X024058Y030262D01*
X024058Y030238D01*
X024054Y030215D01*
X024046Y030193D01*
X024034Y030173D01*
X024020Y030155D01*
X024002Y030139D01*
X023982Y030127D01*
X023960Y030118D01*
X023938Y030113D01*
X023914Y030112D01*
X023891Y030115D01*
X023869Y030122D01*
X023848Y030132D01*
X023829Y030146D01*
X023813Y030163D01*
X023800Y030183D01*
X023790Y030204D01*
X023784Y030227D01*
X023782Y030250D01*
X024282Y030250D02*
X024284Y030273D01*
X024290Y030296D01*
X024300Y030317D01*
X024313Y030337D01*
X024329Y030354D01*
X024348Y030368D01*
X024369Y030378D01*
X024391Y030385D01*
X024414Y030388D01*
X024438Y030387D01*
X024460Y030382D01*
X024482Y030373D01*
X024502Y030361D01*
X024520Y030345D01*
X024534Y030327D01*
X024546Y030307D01*
X024554Y030285D01*
X024558Y030262D01*
X024558Y030238D01*
X024554Y030215D01*
X024546Y030193D01*
X024534Y030173D01*
X024520Y030155D01*
X024502Y030139D01*
X024482Y030127D01*
X024460Y030118D01*
X024438Y030113D01*
X024414Y030112D01*
X024391Y030115D01*
X024369Y030122D01*
X024348Y030132D01*
X024329Y030146D01*
X024313Y030163D01*
X024300Y030183D01*
X024290Y030204D01*
X024284Y030227D01*
X024282Y030250D01*
D11*
X006345Y021328D02*
X005995Y021328D01*
X006111Y021270D02*
X006170Y021328D01*
X006111Y021270D02*
X006111Y021153D01*
X006170Y021094D01*
X006345Y021094D01*
X006287Y020901D02*
X006053Y020901D01*
X006111Y020960D02*
X006111Y020843D01*
X006111Y020714D02*
X006111Y020597D01*
X006053Y020656D02*
X006287Y020656D01*
X006345Y020597D01*
X006345Y020469D02*
X006345Y020293D01*
X006287Y020235D01*
X006170Y020235D01*
X006111Y020293D01*
X006111Y020469D01*
X006462Y020469D01*
X006345Y020100D02*
X006345Y019925D01*
X006287Y019867D01*
X006228Y019925D01*
X006228Y020042D01*
X006170Y020100D01*
X006111Y020042D01*
X006111Y019867D01*
X006111Y019732D02*
X006170Y019732D01*
X006170Y019674D01*
X006111Y019674D01*
X006111Y019732D01*
X006287Y019732D02*
X006345Y019732D01*
X006345Y019674D01*
X006287Y019674D01*
X006287Y019732D01*
X006345Y019548D02*
X005995Y019314D01*
X005995Y018946D02*
X006345Y019179D01*
X006287Y018811D02*
X006170Y018811D01*
X006111Y018753D01*
X006111Y018578D01*
X006403Y018578D01*
X006462Y018636D01*
X006462Y018694D01*
X006345Y018753D02*
X006345Y018578D01*
X006345Y018443D02*
X006345Y018326D01*
X006345Y018384D02*
X006111Y018384D01*
X006111Y018443D01*
X005995Y018384D02*
X005936Y018384D01*
X006111Y018197D02*
X006111Y018080D01*
X006053Y018139D02*
X006287Y018139D01*
X006345Y018080D01*
X006345Y017952D02*
X005995Y017952D01*
X006111Y017893D02*
X006111Y017777D01*
X006170Y017718D01*
X006345Y017718D01*
X006287Y017583D02*
X006345Y017525D01*
X006345Y017350D01*
X006111Y017350D01*
X006111Y017215D02*
X006111Y017040D01*
X006170Y016982D01*
X006287Y016982D01*
X006345Y017040D01*
X006345Y017215D01*
X005995Y017215D01*
X006111Y017583D02*
X006287Y017583D01*
X006111Y017893D02*
X006170Y017952D01*
X006345Y018753D02*
X006287Y018811D01*
X006287Y016847D02*
X006287Y016788D01*
X006345Y016788D01*
X006345Y016847D01*
X006287Y016847D01*
X006287Y016663D02*
X006170Y016663D01*
X006111Y016604D01*
X006111Y016429D01*
X006170Y016294D02*
X006287Y016294D01*
X006345Y016236D01*
X006345Y016119D01*
X006287Y016061D01*
X006170Y016061D01*
X006111Y016119D01*
X006111Y016236D01*
X006170Y016294D01*
X006345Y016429D02*
X006345Y016604D01*
X006287Y016663D01*
X006345Y015926D02*
X006111Y015926D01*
X006111Y015868D01*
X006170Y015809D01*
X006111Y015751D01*
X006170Y015692D01*
X006345Y015692D01*
X006345Y015809D02*
X006170Y015809D01*
X006345Y015558D02*
X005995Y015324D01*
X006111Y015189D02*
X006111Y015131D01*
X006170Y015073D01*
X006111Y015014D01*
X006170Y014956D01*
X006345Y014956D01*
X006345Y015073D02*
X006170Y015073D01*
X006111Y015189D02*
X006345Y015189D01*
X006345Y014821D02*
X006345Y014646D01*
X006287Y014588D01*
X006228Y014646D01*
X006228Y014763D01*
X006170Y014821D01*
X006111Y014763D01*
X006111Y014588D01*
X006170Y014453D02*
X006287Y014453D01*
X006345Y014394D01*
X006345Y014278D01*
X006287Y014219D01*
X006170Y014219D01*
X006111Y014278D01*
X006111Y014394D01*
X006170Y014453D01*
X006345Y014084D02*
X006345Y013968D01*
X006345Y014026D02*
X005995Y014026D01*
X005995Y014084D01*
X006111Y013780D02*
X006111Y013664D01*
X006170Y013605D01*
X006345Y013605D01*
X006345Y013780D01*
X006287Y013839D01*
X006228Y013780D01*
X006228Y013605D01*
X006462Y013471D02*
X006462Y013412D01*
X006403Y013354D01*
X006111Y013354D01*
X005995Y013354D02*
X005936Y013354D01*
X005936Y013167D02*
X005995Y013167D01*
X006111Y013167D02*
X006345Y013167D01*
X006345Y013225D02*
X006345Y013108D01*
X006287Y012979D02*
X006345Y012921D01*
X006345Y012746D01*
X006345Y012611D02*
X005995Y012378D01*
X006170Y012243D02*
X006287Y012243D01*
X006345Y012184D01*
X006345Y012009D01*
X006287Y011875D02*
X006345Y011816D01*
X006345Y011699D01*
X006287Y011641D01*
X006228Y011641D01*
X006170Y011699D01*
X006170Y011875D01*
X006287Y011875D01*
X006170Y011875D02*
X006053Y011758D01*
X005995Y011641D01*
X006170Y011506D02*
X006170Y011273D01*
X006170Y011138D02*
X006170Y010904D01*
X006111Y010770D02*
X006111Y010711D01*
X006170Y010653D01*
X006111Y010594D01*
X006170Y010536D01*
X006345Y010536D01*
X006345Y010653D02*
X006170Y010653D01*
X006111Y010770D02*
X006345Y010770D01*
X006287Y010401D02*
X006228Y010343D01*
X006228Y010168D01*
X006170Y010168D02*
X006345Y010168D01*
X006345Y010343D01*
X006287Y010401D01*
X006111Y010343D02*
X006111Y010226D01*
X006170Y010168D01*
X006170Y010033D02*
X006287Y010033D01*
X006345Y009975D01*
X006345Y009799D01*
X006403Y009799D02*
X006111Y009799D01*
X006111Y009975D01*
X006170Y010033D01*
X006462Y009916D02*
X006462Y009858D01*
X006403Y009799D01*
X006345Y009665D02*
X006345Y009548D01*
X006345Y009606D02*
X006111Y009606D01*
X006111Y009665D01*
X005995Y009606D02*
X005936Y009606D01*
X006170Y009419D02*
X006287Y009419D01*
X006345Y009361D01*
X006345Y009186D01*
X006170Y009051D02*
X006170Y008817D01*
X006170Y008682D02*
X006111Y008624D01*
X006111Y008449D01*
X005995Y008449D02*
X006345Y008449D01*
X006345Y008624D01*
X006287Y008682D01*
X006170Y008682D01*
X006170Y008314D02*
X006111Y008256D01*
X006111Y008139D01*
X006170Y008081D01*
X006228Y008081D01*
X006228Y008314D01*
X006170Y008314D02*
X006287Y008314D01*
X006345Y008256D01*
X006345Y008139D01*
X006345Y007946D02*
X006345Y007771D01*
X006287Y007712D01*
X006228Y007771D01*
X006228Y007887D01*
X006170Y007946D01*
X006111Y007887D01*
X006111Y007712D01*
X005995Y007578D02*
X006345Y007578D01*
X006228Y007578D02*
X006345Y007402D01*
X006228Y007578D02*
X006111Y007402D01*
X006170Y007271D02*
X006170Y007037D01*
X006111Y006902D02*
X005995Y006786D01*
X006345Y006786D01*
X006345Y006902D02*
X006345Y006669D01*
X006287Y006534D02*
X006053Y006300D01*
X006287Y006300D01*
X006345Y006359D01*
X006345Y006476D01*
X006287Y006534D01*
X006053Y006534D01*
X005995Y006476D01*
X005995Y006359D01*
X006053Y006300D01*
X006053Y006166D02*
X005995Y006107D01*
X005995Y005991D01*
X006053Y005932D01*
X006111Y005932D01*
X006345Y006166D01*
X006345Y005932D01*
X006170Y005797D02*
X006170Y005564D01*
X006228Y005429D02*
X006111Y005254D01*
X005995Y005429D02*
X006345Y005429D01*
X006228Y005429D02*
X006345Y005254D01*
X006345Y005622D02*
X005995Y005622D01*
X006170Y005797D01*
X006111Y009186D02*
X006111Y009361D01*
X006170Y009419D01*
X006345Y011331D02*
X005995Y011331D01*
X006170Y011506D01*
X006111Y012009D02*
X006111Y012184D01*
X006170Y012243D01*
X006111Y012746D02*
X006111Y012921D01*
X006170Y012979D01*
X006287Y012979D01*
X006111Y013167D02*
X006111Y013225D01*
X006345Y020843D02*
X006287Y020901D01*
D12*
X006241Y025110D02*
X006055Y025110D01*
X005947Y025157D02*
X005900Y025110D01*
X005807Y025110D01*
X005760Y025157D01*
X005760Y025344D01*
X005807Y025390D01*
X005900Y025390D01*
X005947Y025344D01*
X005947Y025157D01*
X005652Y025157D02*
X005605Y025110D01*
X005512Y025110D01*
X005465Y025157D01*
X005357Y025203D02*
X005171Y025390D01*
X005357Y025390D02*
X005357Y025110D01*
X005311Y025250D02*
X005171Y025110D01*
X005465Y025344D02*
X005512Y025390D01*
X005605Y025390D01*
X005652Y025344D01*
X005652Y025157D01*
X006241Y025110D02*
X006241Y025390D01*
X006644Y025344D02*
X006691Y025390D01*
X006784Y025390D01*
X006831Y025344D01*
X006831Y025157D01*
X006784Y025110D01*
X006691Y025110D01*
X006644Y025157D01*
X006644Y025344D01*
X006939Y025390D02*
X006939Y025110D01*
X007125Y025390D01*
X007125Y025110D01*
X008706Y025110D02*
X008847Y025250D01*
X008893Y025203D02*
X008706Y025390D01*
X008893Y025390D02*
X008893Y025110D01*
X009001Y025157D02*
X009048Y025110D01*
X009141Y025110D01*
X009188Y025157D01*
X009188Y025344D01*
X009141Y025390D01*
X009048Y025390D01*
X009001Y025344D01*
X009296Y025344D02*
X009342Y025390D01*
X009436Y025390D01*
X009483Y025344D01*
X009483Y025157D01*
X009436Y025110D01*
X009342Y025110D01*
X009296Y025157D01*
X009296Y025344D01*
X009590Y025110D02*
X009777Y025110D01*
X009777Y025390D01*
D13*
X008530Y025540D02*
X008530Y024940D01*
X008528Y024923D01*
X008524Y024906D01*
X008517Y024890D01*
X008507Y024876D01*
X008494Y024863D01*
X008480Y024853D01*
X008464Y024846D01*
X008447Y024842D01*
X008430Y024840D01*
X007430Y024840D01*
X007413Y024842D01*
X007396Y024846D01*
X007380Y024853D01*
X007366Y024863D01*
X007353Y024876D01*
X007343Y024890D01*
X007336Y024906D01*
X007332Y024923D01*
X007330Y024940D01*
X007330Y025540D01*
X007332Y025557D01*
X007336Y025574D01*
X007343Y025590D01*
X007353Y025604D01*
X007366Y025617D01*
X007380Y025627D01*
X007396Y025634D01*
X007413Y025638D01*
X007430Y025640D01*
X008430Y025640D01*
X008447Y025638D01*
X008464Y025634D01*
X008480Y025627D01*
X008494Y025617D01*
X008507Y025604D01*
X008517Y025590D01*
X008524Y025574D01*
X008528Y025557D01*
X008530Y025540D01*
M02*
